<svg viewBox="0 0 330 200" xmlns="http://www.w3.org/2000/svg"><g><g><g><g><g><line x1="51.53200149536133" y1="177.89999961853027" x2="46.53200149536133" y2="177.89999961853027" style="visibility: inherit;" fill="rgb(0, 0, 0)" stroke="rgb(204, 204, 204)" stroke-width="1px"></line><line x1="51.53200149536133" y1="165.19285678863525" x2="46.53200149536133" y2="165.19285678863525" style="visibility: inherit;" fill="rgb(0, 0, 0)" stroke="rgb(204, 204, 204)" stroke-width="1px"></line><line x1="51.53200149536133" y1="152.48571395874023" x2="46.53200149536133" y2="152.48571395874023" style="visibility: inherit;" fill="rgb(0, 0, 0)" stroke="rgb(204, 204, 204)" stroke-width="1px"></line><line x1="51.53200149536133" y1="139.77857112884521" x2="46.53200149536133" y2="139.77857112884521" style="visibility: inherit;" fill="rgb(0, 0, 0)" stroke="rgb(204, 204, 204)" stroke-width="1px"></line><line x1="51.53200149536133" y1="127.07142829895018" x2="46.53200149536133" y2="127.07142829895018" style="visibility: inherit;" fill="rgb(0, 0, 0)" stroke="rgb(204, 204, 204)" stroke-width="1px"></line><line x1="51.53200149536133" y1="114.36428546905516" x2="46.53200149536133" y2="114.36428546905516" style="visibility: inherit;" fill="rgb(0, 0, 0)" stroke="rgb(204, 204, 204)" stroke-width="1px"></line><line x1="51.53200149536133" y1="101.65714263916016" x2="46.53200149536133" y2="101.65714263916016" style="visibility: inherit;" fill="rgb(0, 0, 0)" stroke="rgb(204, 204, 204)" stroke-width="1px"></line><line x1="51.53200149536133" y1="88.94999980926514" x2="46.53200149536133" y2="88.94999980926514" style="visibility: inherit;" fill="rgb(0, 0, 0)" stroke="rgb(204, 204, 204)" stroke-width="1px"></line><line x1="51.53200149536133" y1="76.2428569793701" x2="46.53200149536133" y2="76.2428569793701" style="visibility: inherit;" fill="rgb(0, 0, 0)" stroke="rgb(204, 204, 204)" stroke-width="1px"></line><line x1="51.53200149536133" y1="63.53571414947511" x2="46.53200149536133" y2="63.53571414947511" style="visibility: inherit;" fill="rgb(0, 0, 0)" stroke="rgb(204, 204, 204)" stroke-width="1px"></line><line x1="51.53200149536133" y1="50.82857131958008" x2="46.53200149536133" y2="50.82857131958008" style="visibility: inherit;" fill="rgb(0, 0, 0)" stroke="rgb(204, 204, 204)" stroke-width="1px"></line><line x1="51.53200149536133" y1="38.121428489685044" x2="46.53200149536133" y2="38.121428489685044" style="visibility: inherit;" fill="rgb(0, 0, 0)" stroke="rgb(204, 204, 204)" stroke-width="1px"></line><line x1="51.53200149536133" y1="25.41428565979003" x2="46.53200149536133" y2="25.41428565979003" style="visibility: inherit;" fill="rgb(0, 0, 0)" stroke="rgb(204, 204, 204)" stroke-width="1px"></line><line x1="51.53200149536133" y1="12.707142829894995" x2="46.53200149536133" y2="12.707142829894995" style="visibility: inherit;" fill="rgb(0, 0, 0)" stroke="rgb(204, 204, 204)" stroke-width="1px"></line><line x1="51.53200149536133" y1="0" x2="46.53200149536133" y2="0" style="visibility: inherit;" fill="rgb(0, 0, 0)" stroke="rgb(204, 204, 204)" stroke-width="1px"></line></g><g transform="translate(41.53200149536133, 0)"><text style="text-anchor: end; visibility: inherit; font-family: Roboto, sans-serif; font-size: 12px; font-weight: 200;" x="0" y="177.89999961853027" dx="0em" dy="0.3em" fill="rgb(50, 49, 63)" stroke="none" stroke-width="1px">-0.4</text><text style="text-anchor: end; visibility: hidden; font-family: Roboto, sans-serif; font-size: 12px; font-weight: 200;" x="0" y="165.19285678863525" dx="0em" dy="0.3em" fill="rgb(50, 49, 63)" stroke="none" stroke-width="1px">-0.2</text><text style="text-anchor: end; visibility: hidden; font-family: Roboto, sans-serif; font-size: 12px; font-weight: 200;" x="0" y="152.48571395874023" dx="0em" dy="0.3em" fill="rgb(50, 49, 63)" stroke="none" stroke-width="1px">0</text><text style="text-anchor: end; visibility: hidden; font-family: Roboto, sans-serif; font-size: 12px; font-weight: 200;" x="0" y="139.77857112884521" dx="0em" dy="0.3em" fill="rgb(50, 49, 63)" stroke="none" stroke-width="1px">0.2</text><text style="text-anchor: end; visibility: hidden; font-family: Roboto, sans-serif; font-size: 12px; font-weight: 200;" x="0" y="127.07142829895018" dx="0em" dy="0.3em" fill="rgb(50, 49, 63)" stroke="none" stroke-width="1px">0.4</text><text style="text-anchor: end; visibility: hidden; font-family: Roboto, sans-serif; font-size: 12px; font-weight: 200;" x="0" y="114.36428546905516" dx="0em" dy="0.3em" fill="rgb(50, 49, 63)" stroke="none" stroke-width="1px">0.6</text><text style="text-anchor: end; visibility: hidden; font-family: Roboto, sans-serif; font-size: 12px; font-weight: 200;" x="0" y="101.65714263916016" dx="0em" dy="0.3em" fill="rgb(50, 49, 63)" stroke="none" stroke-width="1px">0.8</text><text style="text-anchor: end; visibility: hidden; font-family: Roboto, sans-serif; font-size: 12px; font-weight: 200;" x="0" y="88.94999980926514" dx="0em" dy="0.3em" fill="rgb(50, 49, 63)" stroke="none" stroke-width="1px">1</text><text style="text-anchor: end; visibility: hidden; font-family: Roboto, sans-serif; font-size: 12px; font-weight: 200;" x="0" y="76.2428569793701" dx="0em" dy="0.3em" fill="rgb(50, 49, 63)" stroke="none" stroke-width="1px">1.2</text><text style="text-anchor: end; visibility: hidden; font-family: Roboto, sans-serif; font-size: 12px; font-weight: 200;" x="0" y="63.53571414947511" dx="0em" dy="0.3em" fill="rgb(50, 49, 63)" stroke="none" stroke-width="1px">1.4</text><text style="text-anchor: end; visibility: hidden; font-family: Roboto, sans-serif; font-size: 12px; font-weight: 200;" x="0" y="50.82857131958008" dx="0em" dy="0.3em" fill="rgb(50, 49, 63)" stroke="none" stroke-width="1px">1.6</text><text style="text-anchor: end; visibility: hidden; font-family: Roboto, sans-serif; font-size: 12px; font-weight: 200;" x="0" y="38.121428489685044" dx="0em" dy="0.3em" fill="rgb(50, 49, 63)" stroke="none" stroke-width="1px">1.8</text><text style="text-anchor: end; visibility: hidden; font-family: Roboto, sans-serif; font-size: 12px; font-weight: 200;" x="0" y="25.41428565979003" dx="0em" dy="0.3em" fill="rgb(50, 49, 63)" stroke="none" stroke-width="1px">2</text><text style="text-anchor: end; visibility: hidden; font-family: Roboto, sans-serif; font-size: 12px; font-weight: 200;" x="0" y="12.707142829894995" dx="0em" dy="0.3em" fill="rgb(50, 49, 63)" stroke="none" stroke-width="1px">2.2</text><text style="text-anchor: end; visibility: hidden; font-family: Roboto, sans-serif; font-size: 12px; font-weight: 200;" x="0" y="0" dx="0em" dy="0.3em" fill="rgb(50, 49, 63)" stroke="none" stroke-width="1px">2.4</text></g><line x1="51.53200149536133" y1="0" x2="51.53200149536133" y2="177.89999961853027" fill="rgb(0, 0, 0)" stroke="rgb(204, 204, 204)" stroke-width="1px"></line></g></g><g transform="translate(51, 0)" clip-path="url(#clip_0)"><clipPath id="clip_0"><rect width="278" height="177"></rect></clipPath><g><g><g><line x1="0" y1="0" x2="0" y2="177.89999961853027" fill="rgb(0, 0, 0)" stroke="rgb(60, 60, 60)" stroke-width="1px" opacity="0.25"></line><line x1="19.890571321759904" y1="0" x2="19.890571321759904" y2="177.89999961853027" fill="rgb(0, 0, 0)" stroke="rgb(60, 60, 60)" stroke-width="1px" opacity="0.25"></line><line x1="39.78114264351981" y1="0" x2="39.78114264351981" y2="177.89999961853027" fill="rgb(0, 0, 0)" stroke="rgb(60, 60, 60)" stroke-width="1px" opacity="0.25"></line><line x1="59.671713965279714" y1="0" x2="59.671713965279714" y2="177.89999961853027" fill="rgb(0, 0, 0)" stroke="rgb(60, 60, 60)" stroke-width="1px" opacity="0.25"></line><line x1="79.56228528703961" y1="0" x2="79.56228528703961" y2="177.89999961853027" fill="rgb(0, 0, 0)" stroke="rgb(60, 60, 60)" stroke-width="1px" opacity="0.25"></line><line x1="99.45285660879952" y1="0" x2="99.45285660879952" y2="177.89999961853027" fill="rgb(0, 0, 0)" stroke="rgb(60, 60, 60)" stroke-width="1px" opacity="0.25"></line><line x1="119.34342793055943" y1="0" x2="119.34342793055943" y2="177.89999961853027" fill="rgb(0, 0, 0)" stroke="rgb(60, 60, 60)" stroke-width="1px" opacity="0.25"></line><line x1="139.23399925231934" y1="0" x2="139.23399925231934" y2="177.89999961853027" fill="rgb(0, 0, 0)" stroke="rgb(60, 60, 60)" stroke-width="1px" opacity="0.25"></line><line x1="159.12457057407923" y1="0" x2="159.12457057407923" y2="177.89999961853027" fill="rgb(0, 0, 0)" stroke="rgb(60, 60, 60)" stroke-width="1px" opacity="0.25"></line><line x1="179.01514189583915" y1="0" x2="179.01514189583915" y2="177.89999961853027" fill="rgb(0, 0, 0)" stroke="rgb(60, 60, 60)" stroke-width="1px" opacity="0.25"></line><line x1="198.90571321759904" y1="0" x2="198.90571321759904" y2="177.89999961853027" fill="rgb(0, 0, 0)" stroke="rgb(60, 60, 60)" stroke-width="1px" opacity="0.25"></line><line x1="218.79628453935896" y1="0" x2="218.79628453935896" y2="177.89999961853027" fill="rgb(0, 0, 0)" stroke="rgb(60, 60, 60)" stroke-width="1px" opacity="0.25"></line><line x1="238.68685586111886" y1="0" x2="238.68685586111886" y2="177.89999961853027" fill="rgb(0, 0, 0)" stroke="rgb(60, 60, 60)" stroke-width="1px" opacity="0.25"></line><line x1="258.57742718287875" y1="0" x2="258.57742718287875" y2="177.89999961853027" fill="rgb(0, 0, 0)" stroke="rgb(60, 60, 60)" stroke-width="1px" opacity="0.25"></line><line x1="278.4679985046387" y1="0" x2="278.4679985046387" y2="177.89999961853027" fill="rgb(0, 0, 0)" stroke="rgb(60, 60, 60)" stroke-width="1px" opacity="0.25"></line></g><g><line x1="0" y1="177.89999961853027" x2="278.4679985046387" y2="177.89999961853027" fill="rgb(0, 0, 0)" stroke="rgb(60, 60, 60)" stroke-width="1px" opacity="0.25"></line><line x1="0" y1="165.19285678863525" x2="278.4679985046387" y2="165.19285678863525" fill="rgb(0, 0, 0)" stroke="rgb(60, 60, 60)" stroke-width="1px" opacity="0.25"></line><line x1="0" y1="152.48571395874023" x2="278.4679985046387" y2="152.48571395874023" fill="rgb(0, 0, 0)" stroke="rgb(60, 60, 60)" stroke-width="1px" opacity="0.25"></line><line x1="0" y1="139.77857112884521" x2="278.4679985046387" y2="139.77857112884521" fill="rgb(0, 0, 0)" stroke="rgb(60, 60, 60)" stroke-width="1px" opacity="0.25"></line><line x1="0" y1="127.07142829895018" x2="278.4679985046387" y2="127.07142829895018" fill="rgb(0, 0, 0)" stroke="rgb(60, 60, 60)" stroke-width="1px" opacity="0.25"></line><line x1="0" y1="114.36428546905516" x2="278.4679985046387" y2="114.36428546905516" fill="rgb(0, 0, 0)" stroke="rgb(60, 60, 60)" stroke-width="1px" opacity="0.25"></line><line x1="0" y1="101.65714263916016" x2="278.4679985046387" y2="101.65714263916016" fill="rgb(0, 0, 0)" stroke="rgb(60, 60, 60)" stroke-width="1px" opacity="0.25"></line><line x1="0" y1="88.94999980926514" x2="278.4679985046387" y2="88.94999980926514" fill="rgb(0, 0, 0)" stroke="rgb(60, 60, 60)" stroke-width="1px" opacity="0.25"></line><line x1="0" y1="76.2428569793701" x2="278.4679985046387" y2="76.2428569793701" fill="rgb(0, 0, 0)" stroke="rgb(60, 60, 60)" stroke-width="1px" opacity="0.25"></line><line x1="0" y1="63.53571414947511" x2="278.4679985046387" y2="63.53571414947511" fill="rgb(0, 0, 0)" stroke="rgb(60, 60, 60)" stroke-width="1px" opacity="0.25"></line><line x1="0" y1="50.82857131958008" x2="278.4679985046387" y2="50.82857131958008" fill="rgb(0, 0, 0)" stroke="rgb(60, 60, 60)" stroke-width="1px" opacity="0.25"></line><line x1="0" y1="38.121428489685044" x2="278.4679985046387" y2="38.121428489685044" fill="rgb(0, 0, 0)" stroke="rgb(60, 60, 60)" stroke-width="1px" opacity="0.25"></line><line x1="0" y1="25.41428565979003" x2="278.4679985046387" y2="25.41428565979003" fill="rgb(0, 0, 0)" stroke="rgb(60, 60, 60)" stroke-width="1px" opacity="0.25"></line><line x1="0" y1="12.707142829894995" x2="278.4679985046387" y2="12.707142829894995" fill="rgb(0, 0, 0)" stroke="rgb(60, 60, 60)" stroke-width="1px" opacity="0.25"></line><line x1="0" y1="0" x2="278.4679985046387" y2="0" fill="rgb(0, 0, 0)" stroke="rgb(60, 60, 60)" stroke-width="1px" opacity="0.25"></line></g></g></g><g><g><line x1="0" y1="152.48571395874023" x2="278.4679985046387" y2="152.48571395874023" fill="rgb(0, 0, 0)" stroke="rgb(153, 153, 153)" stroke-width="1.5px"></line></g></g><g><g><line x1="19.890571321759904" y1="0" x2="19.890571321759904" y2="177.89999961853027" fill="rgb(0, 0, 0)" stroke="rgb(153, 153, 153)" stroke-width="1.5px"></line></g></g><g><g><g><g><g><path style="fill: none;" stroke="rgb(255, 112, 67)" stroke-width="2px" d="M24.76376129559108,-17.791895332983387L25.161572722026282,24.88291415274321L25.26102557863508,21.72867732763767L25.360478435243877,27.443003778286666L25.45993129185268,-4.8462311433501775L25.55938414846148,33.254282290859265L26.156101288114275,-11.50026427829444L26.355007001331874,23.673923239275098L26.454459857940673,39.70436032593527L26.553912714549476,-48.365370174723104L26.65336557115827,-26.770858342761194L26.95172414098467,14.743132818701197L27.05117699759347,37.75487890381518L27.150629854202272,-14.57770559715125L27.250082710811068,11.424545850469181L27.747346993855068,-7.986427716967826L28.244611276899064,21.04985819607896L28.542969846725462,13.424181500584385L28.64242270333426,-40.88103830586667L29.239139842987058,-1.5499107606104021L30.034762695857456,16.101947782723254L30.333121265683857,7.4919772449021105L30.432574122292657,30.905072078577607L31.12874411855425,44.06961023087816L31.42710268838065,57.83261198593575L31.62600840159825,76.7421608879663L32.322178397859844,77.55929032429657L32.42163125446864,87.65895877865843L32.71998982429504,94.97744836425937L32.81944268090384,86.25331870285774L33.51561267716544,63.88476435068105L33.714518390383034,75.40455004443504L33.91342410360064,82.53340882816327L34.01287696020944,76.56848983999633L34.11232981681824,86.20727204551672L34.808499813079834,84.00757726702544L35.30576409612383,80.16106123530399L35.50466980934143,77.08271952035405L35.60412266595023,69.61326889625396L35.703575522559035,68.76627780593225L36.001934092385426,69.57585529384454L36.30029266221183,62.49703108976865L36.49919837542942,61.347646145748016L36.59865123203822,64.07566771085186L36.89700980186463,67.7279740334277L37.49372694151742,68.653489116513L37.59317979812622,19.556546080676167L37.792085511343814,37.95747966558537L38.09044408117022,29.608675538919034L38.28934979438782,44.18789116370319L38.38880265099662,56.896916936021135L38.587708364214215,68.94142547086544L38.786614077431814,72.67700374177291L38.88606693404062,74.66869495573611L39.582236930302216,86.65297648229496L40.3778597831726,93.23402848258105L40.4773126397814,36.32348662095592L40.57676549639021,56.076542460585365L40.9745769228254,67.15678655400956L41.9691054889134,82.25592173422605L42.0685583455222,91.57346578349004L42.2674640587398,98.17681806095467L42.466369771957396,95.89718879895779L42.665275485174995,89.61663721993969L42.96363405500139,70.91712320990796L43.06308691161019,80.84362480742513L43.16253976821899,91.02496256525663L43.460898338045396,90.38919572930536L44.45542690413339,97.79078426464804L44.65433261735099,101.169719615252L45.251049757003784,101.01557189834885L45.54940832683018,101.1906334610452L45.64886118343898,102.71458182458288L45.74831404004778,99.41769871925177L45.84776689665658,100.42676101039031L46.046672609874186,99.31811724526752L46.444484036309376,98.44693507612728L46.64338974952698,100.87475348059333L46.84229546274457,99.51973244224992L47.04120117596217,101.26353188130405L47.53846545900617,102.48083050416454L48.135182598658965,103.79620940227476L48.83135259492057,102.33501458670338L48.930805451529366,104.93882088107685L49.42806973457336,66.83306478905219L49.52752259118216,70.03253214900342L49.82588116100857,49.439617153854634L49.92533401761737,58.86413195972926L50.02478687422616,-107.60211217724476L50.42259830066136,-30.82909559489062L50.52205115727016,3.7505983936855016L50.720956870487754,33.203058356572555L51.01931544031416,56.969927682598595L51.417126866749356,42.231554756175655L51.516579723358156,64.5286570903553L51.616032579966955,70.21542190863535L51.715485436575754,77.79804665553L51.914391149793346,84.05168975288281L52.21274971961975,89.16203408865174L52.31220257622855,92.08550625308973L52.41165543283735,92.18012032292204L52.71001400266375,-91.65546080268533L53.008372572490146,-18.022116441456813L53.60508971214295,2.0807859113211755L53.80399542536055,34.97535051396432L54.10235399518694,58.83677609709005L54.201806851795745,13.307817446008006L54.40071256501334,6.602278981763603L54.500165421622135,44.496669610425535L54.99742970466614,68.44086768162212L55.09688256127494,83.77631319383552L55.494693987710136,73.86547785989559L55.693599700927734,86.99812765042101L55.99195827075413,95.08361951661578L56.38976969718934,99.67166498757679L56.78758112362453,101.11534545316472L56.98648683684213,84.32574801486363L57.38429826327733,79.71754027107286L57.48375111988613,77.33904352033319L57.58320397649493,27.207218825519483L57.78210968971252,49.95275067661906L58.279373972756524,64.73488324172135L58.378826829365316,72.4599756853462L58.77663825580052,76.84576319416384L58.87609111240932,71.8248848235239L58.97554396901812,14.376079894828647L59.97007253510611,44.91347894040769L60.46733681815011,64.12196223715578L61.163506814411704,79.41918379574535L61.26295967102051,86.28218044628775L61.76022395406451,91.11377483610646L61.85967681067331,94.10131298331477L62.058582523890905,96.83314650120732L62.2574882371085,97.32522379318036L62.6552996635437,101.46894511652219L63.550375373022895,95.03082637540619L63.749281086240494,82.08793874496499L63.84873394284929,92.38667112365552L64.14709251267568,90.84653995960355L64.7438096523285,94.84731588850732L65.53943250519889,95.76384379385516L65.63888536180768,98.54246638295417L65.73833821841649,90.23224436198504L65.93724393163409,95.6608261582865L66.03669678824289,101.28917769389439L66.33505535806928,103.75599868292312L66.43450821467809,96.54376007796274L66.93177249772208,90.89561212432464L67.03122535433089,96.22471390811427L68.12520677702767,91.44550188034111L68.42356534685408,94.7714685879911L68.52301820346288,97.31181954190751L68.72192391668047,99.596873466238L68.92082962989807,74.89174082648303L69.21918819972447,77.52981242871151L70.31316962242127,78.8189005082066L70.71098104885647,72.04373057317041L70.81043390546526,75.70587166822524L71.00933961868286,61.0558059360042L71.30769818850926,-374.28710209421587L72.10332104137966,-16.458373990196762L72.70003818103245,25.59517910965795L72.89894389425005,38.92106911325389L72.99839675085884,59.3675765160086L73.09784960746765,71.28530396752859L73.19730246407644,77.8597962902023L73.29675532068525,82.28040240429242L73.39620817729404,80.80025980472779L73.59511389051166,84.62261213641939L73.79401960372925,86.46099294866879L74.29128388677324,88.43283131809055L74.39073674338204,89.61098848682741L74.49018959999086,90.74795385921486L74.68909531320845,89.73374491743903L75.08690673964364,90.1477538141664L75.28581245286124,91.78926882843771L75.48471816607884,69.5042095023938L75.88252959251405,80.93746245630659L75.98198244912284,86.78541243709918L76.08143530573163,91.57611114602489L76.47924673216683,94.02302084304704L76.87705815860204,96.77103978526111L76.97651101521083,92.52949938239689L77.27486958503724,95.0014453543966L77.47377529825482,97.15760036999559L77.57322815486363,98.56621439971853L77.67268101147242,98.16897547614761L77.77213386808124,100.43833254627171L77.87158672469003,100.32517524844846L77.97103958129884,98.59816004710187L78.16994529451642,98.66303411829088L78.26939815112523,98.19224638202772L78.76666243416922,97.93632380583252L78.86611529077801,100.32344051247422L79.16447386060443,100.90607965707379L79.26392671721322,100.19056425077198L79.56228528703961,102.27604473957236L79.76119100025721,102.21897543159723L80.15900242669242,104.17019158817494L80.35790813991002,103.70935787332843L80.55681385312762,101.41003409788665L80.7557195663452,98.6808672953344L81.05407813617163,98.03976646782777L81.45188956260681,98.64616249235141L81.55134241921562,102.58562908848187L81.75024813243321,104.0462356887093L82.0486067022596,105.50077970101037L82.44641812869482,85.6985987749361L82.9436824117388,94.33340007611413L83.63985240800041,96.47157396506483L83.7393052646092,99.08803627001645L83.9382109778268,102.08618811623501L84.03766383443559,82.16779059505583L84.1371166910444,90.10113185746869L84.23656954765319,89.82710663953367L84.4354752608708,97.45159185466476L84.7338338306972,101.16566670608894L85.13164525713239,97.76657929161745L85.23109811374118,97.13613141492736L85.6289095401764,94.03828586422152L85.92726811000279,95.74187567707783L86.32507953643798,97.55587955179259L86.62343810626439,102.53009687818964L86.7228909628732,96.8888810406684L86.82234381948199,100.22310560068556L86.92179667609079,104.17832775331537L87.02124953269958,101.64017002154347L87.22015524591718,99.82644711253235L87.31960810252598,102.82907752284235L87.41906095913478,96.92663777173011L87.6179666723524,90.29990391284747L87.71741952896119,97.908537155333L87.81687238556998,98.399973321726L87.91632524217879,101.55901404335218L88.11523095539638,102.46280784251151L88.31413666861397,105.28469059567381L88.41358952522278,104.5314317365612L89.10975952148438,105.7365022622507L89.40811809131077,106.82628297972148L89.50757094791958,106.99712562964227L89.60702380452837,102.03342972071L89.80592951774598,100.78725289622066L90.10428808757237,102.62504481050117L90.30319380078997,105.11581410115258L90.50209951400757,106.26423260045145L90.89991094044277,107.8867820056659L91.29772236687796,64.58793568835061L91.59608093670435,79.74824760295678L91.69553379331316,87.77722875868758L91.79498664992195,96.36926210157586L91.89443950653077,95.3352766086016L91.99389236313957,96.9816159059975L92.49115664618355,99.37557469981672L93.08787378583636,101.88195079261135L93.28677949905396,101.44743231102933L93.38623235566276,101.73724085334129L93.48568521227155,101.2284831507741L93.78404378209795,102.12698550703765L94.08240235192434,104.58159076088141L94.18185520853315,105.50062288585231L94.48021377835956,105.00092798879085L94.57966663496835,102.37967614302052L94.67911949157715,105.6634996260794L94.87802520479474,105.4261346327863L95.07693091801234,104.90247444889742L95.67364805766515,98.65063421875011L95.97200662749154,97.64552669730188L96.07145948410033,98.53900305120922L96.36981805392675,95.0463273516364L96.46927091053554,99.77283906368801L96.56872376714435,93.3610281784564L96.76762948036193,54.969681185469064L96.86708233697074,63.88705208059873L97.46379947662354,72.83392314043432L97.86161090305873,82.7324894622344L97.96106375966754,92.26208973624138L98.15996947288512,89.28158822319695L98.35887518610272,94.89771538475205L98.55778089932033,97.66192839617484L98.65723375592913,101.03000200328432L98.75668661253793,55.74622610435218L98.85613946914673,75.6825314085984L98.95559232575553,77.41523190863836L99.25395089558192,78.86879510339153L99.45285660879952,88.33826597239339L99.65176232201713,96.34911498885756L99.95012089184353,99.35425842251854L100.14902660506112,102.76579038420225L100.24847946166992,104.89054350134721L100.34793231827872,107.00322740006582L100.74574374471392,106.38055396206028L100.94464945793152,106.8051378490761L101.04410231454032,107.68714654543545L101.24300802775791,104.42257658501762L101.54136659758431,101.75022604564779L101.93917802401951,103.53509458312915L102.23753659384592,104.78744292090728L102.53589516367231,106.36236445809561L102.6353480202811,104.20591162172983L102.83425373349871,102.69144276137239L103.03315944671631,101.76781936455598L103.23206515993391,102.36692885276383L103.7293294429779,-79.05830668945019L104.0276880128043,-8.45853586139467L104.12714086941311,32.77613828036195L104.2265937260219,58.889764598432826L104.5249522958483,73.98199013664907L105.3205751487187,81.6529289674095L105.4200280053275,86.16151651602964L105.5194808619363,84.6517601716899L105.71838657515389,87.45060923173445L106.1161980015891,89.47418184172713L106.3151037148067,85.83540453764083L106.41455657141549,84.69188519697788L106.81236799785069,87.6553146724159L107.01127371106828,86.71314265010577L107.11072656767708,88.75772890776322L107.4090851375035,81.1367815159855L107.6079908507211,86.58570324417975L107.80689656393868,90.16215511955048L108.10525513376508,92.64882656429279L108.30416084698268,93.2273493326355L108.40361370359149,94.63312849088797L108.60251941680909,95.56521385458377L108.70197227341788,94.62610037542434L109.00033084324427,95.76288473209233L109.29868941307069,96.97781381375555L109.39814226967948,97.58514418087076L110.09431226594107,98.29400552995574L110.19376512254988,97.98585310933993L110.29321797915867,98.93575238927097L110.39267083576746,99.40408914171721L110.59157654898507,100.20598418085197L110.69102940559388,99.73628438951589L110.88993511881147,100.92341918625105L110.98938797542027,101.12198272907966L111.08884083202906,101.013925186192L111.38719940185547,100.74237976032344L111.48665225846426,101.42622190910093L111.58610511507307,102.51617524800163L111.68555797168187,102.8862810457135L111.88446368489947,103.02619337721936L112.48118082455225,103.21500346161243L112.58063368116107,101.11919136012432L112.87899225098747,103.13850207227519L113.57516224724905,102.0994997160866L113.87352081707546,99.02422618108577L114.56969081333705,102.10382125442369L114.66914366994585,103.56582903753376L114.76859652655466,97.35417377621324L114.96750223977226,101.32179013510739L115.06695509638105,104.10366024534504L115.16640795298986,105.16219745516278L115.46476652281625,104.1161145511526L115.56421937942504,88.8862468592644L115.76312509264264,93.7270516458036L115.96203080586025,98.28555043246934L116.06148366246904,99.82221273751995L116.45929508890424,102.08861109831038L116.55874794551305,103.70984563675043L116.95655937194823,104.77547447645185L117.05601222855705,106.09660995949724L117.15546508516584,107.0493960065285L117.25491794177465,107.54410319524776L117.55327651160104,98.4473243552979L117.65272936820983,80.2073826110907L117.75218222481864,89.76768312615107L118.05054079464504,92.08224816210041L118.14999365125384,97.98655241096446L118.94561650412423,98.79638838206789L119.34342793055943,101.08049604839519L119.54233364377703,101.08912875787203L119.74123935699463,104.35645057498955L119.84069221360343,104.95133836197824L120.13905078342982,104.98291116756884L120.23850364003863,104.36745718974608L120.43740935325623,106.71265974945274L120.53686220986503,107.2505457417438L120.63631506647383,107.97610153034539L120.73576792308262,108.09289329432353L121.03412649290902,106.5644065830083L121.82974934577942,107.45054980732148L122.02865505899702,106.80159172698302L122.22756077221462,107.67074179293454L122.42646648543223,107.3387381889741L122.52591934204102,76.54023327241472L122.62537219864981,83.38774789906188L122.82427791186741,92.65324827945774L123.02318362508501,97.95480519135916L123.1226364816938,100.24727177394902L123.22208933830261,96.02301766674205L123.52044790812901,100.51647220761686L123.71935362134661,103.63733386266881L124.4155236176082,104.32555009071552L124.514976474217,107.69937185988049L124.81333504404341,103.72385150614942L125.01224075726101,105.69819427142076L125.6089578969138,106.00040523719369L125.7084107535226,106.06432347914584L125.9073164667402,104.9134974876521L126.1062221799578,104.30861437951373L126.504033606393,98.06626664118512L126.9018450328282,96.94767395023771L127.10075074604579,99.2738809207812L127.29965645926339,101.18711703603957L127.5980150290898,101.82207302295559L127.69746788569859,101.37043159048469L127.79692074230738,102.89203741596594L127.8963735989162,-101.67378501361362L128.49309073856898,-18.01154488880928L128.5925435951778,32.85076115790582L129.18926073483058,40.01576627178771L129.38816644804817,56.643176476960534L129.58707216126578,75.45917055668387L129.68652501787457,88.04554388738293L129.7859778744834,96.48083506429627L130.68105358396258,99.27526554397859L130.87995929718016,100.42563660760196L131.17831786700657,101.81543612878399L131.57612929344177,104.40261842806976L131.77503500665938,104.23384370366026L131.87448786326817,12.282403620547838L132.27229928970337,50.14147418534354L132.37175214631216,64.81717887836179L132.57065785952977,80.367701368137L132.67011071613857,90.47445923670371L132.7695635727474,96.36175387052835L133.06792214257376,98.11128927960164L133.16737499918256,101.25306843835888L134.16190356527056,101.02201375707585L134.36080927848815,102.14193767345947L134.46026213509697,103.30793501311913L134.75862070492335,103.67238333671432L134.85807356153214,102.49159105853316L134.95752641814096,98.57253609970743L135.25588498796736,99.36903474112077L135.35533784457616,100.93665604694843L135.45479070118495,102.7997584007153L136.94658355031694,104.03422681627796L137.24494212014335,105.80061110881755L137.44384783336093,104.66723236873737L137.54330068996975,83.32989230321648L137.74220640318734,88.59336047885586L137.84165925979613,93.53344052139619L138.14001782962254,90.3149224581157L138.43837639944894,96.9126267103968L138.53782925605773,101.79916397969794L138.63728211266653,103.5219396713841L138.73673496927535,106.82049064164306L138.93564068249293,100.66033484406682L139.13454639571054,99.97838803954916L139.33345210892813,102.89928014562079L139.53235782214574,104.22489968624232L139.63181067875453,104.62801301343436L139.83071639197212,96.84868160217168L140.02962210518973,102.0648509861844L140.22852781840731,105.3050655414009L140.3279806750161,107.34928379538366L140.42743353162496,106.6524732834952L140.52688638823375,106.76828460332028L140.62633924484254,105.06625170996496L141.62086781093052,106.02024808849481L142.01867923736572,106.16747828271843L142.41649066380091,105.65129078080363L142.51594352040973,108.001035346142L142.61539637701853,104.68785915684639L142.81430209023614,106.59676141715354L143.11266066006252,106.72718951798335L143.41101922988892,104.68016717870394L143.6099249431065,104.41891876636937L143.80883065632412,104.62693432428766L143.9082835129329,107.2925972033432L144.1071892261505,108.46508678180241L144.5050006525857,106.16734306114444L144.60445350919449,105.94801687078123L144.70390636580333,106.4274104670164L144.90281207902092,108.24084755123643L145.0022649356297,108.92251065819475L145.30062350545612,108.6450801855524L145.4000763620649,103.47706186755164L145.4995292186737,104.51899271235175L145.59898207528252,106.74219340928602L145.7978877885001,107.70674268653242L146.2951520715441,108.43182859934396L146.5935106413705,109.18469323285909L147.09077492441452,109.06731627318901L147.2896806376321,107.58773101482828L147.6874920640673,108.59546094833665L147.88639777728488,109.40431188776326L148.28420920372008,108.98561900095449L148.38366206032887,104.19636584310251L148.4831149169377,103.15414437071465L148.5825677735465,105.92238460747919L148.78147348676407,106.08773160906081L149.0798320565905,107.8295946537347L149.1792849131993,109.36871608532233L149.3781906264169,108.23182841909988L149.4776434830257,100.94708972771987L149.5770963396345,104.24944571154391L150.17381347928728,101.08699503628881L150.3727191925049,105.51465246868437L150.47217204911368,103.92225332674853L150.67107776233127,105.92071957265307L150.77053061894009,108.60871009167685L151.06888918876646,104.92171928409086L151.16834204537525,107.20192707524369L151.66560632841927,108.39871468051889L151.7650591850281,110.02986591767738L151.86451204163689,108.36916778933019L152.16287061146326,109.60723375633633L152.36177632468087,110.33333469190788L152.46122918128967,110.10904427114158L152.56068203789846,106.50058775967752L152.66013489450728,109.10555646721458L152.75958775111607,107.78764123264683L152.85904060772486,108.7485753471604L153.45575774737767,110.61078793799346L153.95302203042166,106.61137086086681L154.05247488703048,104.71146837688046L154.15192774363928,106.8670251824268L154.64919202668327,109.47857373222459L155.04700345311846,109.98473632412298L155.24590916633605,109.32252773984769L155.34536202294484,110.59161873433774L155.74317344938007,108.63267699441731L156.14098487581526,109.41405193391502L156.83715487207684,110.6890736450953L157.03606058529445,111.07239710028763L157.33441915512083,110.35440068557826L157.53332486833844,111.30303226867323L157.63277772494723,102.62007309203716L157.93113629477367,105.16042183916088L158.03058915138246,108.52528819165886L158.22949486460004,110.14398473778893L158.32894772120886,111.26532482827051L158.62730629103524,109.31604368048123L160.31800485338485,111.4407356884097L160.41745770999364,111.68960376564029L160.51691056660243,109.28280633265523L160.61636342321123,109.1080124786769L161.01417484964642,109.89812953003319L161.31253341947283,110.63284848174459L161.41198627608162,112.00306696550776L161.71034484590803,112.59373516890672L161.80979770251682,100.5085888981734L161.9092505591256,105.25318188752684L162.30706198556084,107.69240848970134L162.40651484216963,109.01114229905754L162.50596769877842,105.43662443981077L162.70487341199603,108.33542943654017L162.90377912521362,109.642856917878L163.10268483843123,110.82750486105057L163.30159055164881,107.47940103988958L163.8983076913016,107.09930278808744L164.0972134045192,107.97031839164727L164.59447768756323,110.92453020956654L164.69393054417202,110.62454951801136L165.5890062536512,111.66932091416946L165.68845911026,110.82549765310446L166.78244053295683,111.33516519997244L167.180251959392,108.30221962181595L167.27970481600082,71.1188949933044L167.5780633858272,86.18200676897241L167.67751624243598,95.26075702713133L167.9758748122624,100.1334959983959L168.17478052548,101.6351710697264L168.2742333820888,103.11284135522034L168.3736862386976,104.89185716973434L169.0698562349592,106.98525317101543L169.169309091568,103.16883008017349L169.2687619481768,106.1923537300337L169.3682148047856,108.44176962819152L169.666573374612,108.69699810713378L169.86547908782958,110.02547737628407L169.96493194443838,109.35709887244442L170.0643848010472,108.49318538146898L170.163837657656,110.14958410467978L170.66110194069998,110.49440928086302L170.8600076539176,111.56229482216628L171.35727193696158,104.67319457567761L171.4567247935704,108.16322818333104L171.75508336339678,105.22092495100433L172.45125335965838,109.4843786614544L172.65015907287597,98.63783070074538L173.64468763896397,103.99200223271104L173.84359335218159,106.28269814573683L173.94304620879038,105.7089010577937L174.14195192200796,108.80112108114734L174.24140477861675,109.27843395085456L174.44031049183437,109.78798491845734L174.53976334844316,109.12298014701761L175.13648048809594,109.8778288640024L175.2359333447048,111.2380529181572L175.83265048435757,112.06164324285636L175.93210334096636,107.73359993324365L176.82717905044555,109.40929102509284L177.22499047688075,110.38644236513029L177.42389619009836,107.30235285545233L177.82170761653356,109.27338019306649L178.41842475618634,107.30731060381065L178.71678332601275,109.29431139352667L178.91568903923033,109.50727540461502L179.21404760905673,110.01548003168672L179.41295332227432,108.63771457955885L179.51240617888317,107.92038819651464L179.91021760531834,110.73909659302008L180.00967046192716,111.47269392525698L180.20857617514474,112.67365477672406L180.30802903175353,112.89364432086886L180.50693474497115,113.6885141265495L180.80529331479752,111.51183368206824L180.90474617140634,101.54656099290013L181.00419902801514,104.19971334142562L181.40201045445033,108.33687850887594L181.60091616766792,107.62343406136821L181.7003690242767,108.89311888659395L181.79982188088553,109.80329022112052L181.99872759410314,109.06671447069911L182.19763330732073,109.51775223202426L182.39653902053834,109.40403440073284L182.69489759036472,110.09563970564169L182.99325616019112,110.81560523073614L183.09270901679992,112.74388758748248L183.1921618734087,112.60320910322056L183.4905204432351,113.62030177726433L183.68942615645273,100.75937192221649L183.78887901306155,105.50351400138523L184.08723758288792,81.49028390861271L184.18669043949674,93.6978027107796L184.48504900932312,101.54070299969453L184.88286043575832,53.67894632355693L184.9823132923671,53.83991404284554L185.0817661489759,75.86572332575182L185.7779361452375,90.99502220821388L185.9768418584551,95.9239943598267L186.07629471506394,102.41012933838381L186.17574757167273,104.16457019017376L186.4741061414991,107.00701995907501L186.57355899810793,108.82193480454896L186.7724647113255,111.33617400042706L187.1702761377607,111.49434516126715L187.2697289943695,111.29783487136825L187.3691818509783,112.62643843706397L187.6675404208047,113.0996782640648L188.0653518472399,112.10322642699772L188.1648047038487,108.73411137869797L188.3637104170663,108.6376804006015L188.46316327367512,110.4353573765716L188.5626161302839,111.85672101550743L188.6620689868927,110.13820768804865L188.86097470011032,110.59196895139121L189.1593332699367,112.06720558994304L189.2587861265455,113.70526392710366L189.3582389831543,106.74219767090577L189.4576918397631,108.36228055601143L189.8555032661983,108.62286669416376L189.9549561228071,111.72074811475966L190.4522204058511,111.83133988082987L190.6511261190687,112.88472661274061L190.7505789756775,112.32101956060242L190.8500318322863,113.08532364954986L191.2478432587215,114.5332084745809L191.54620182854788,113.16831796698241L191.7451075417655,112.0662082099126L192.04346611159187,114.25184194584855L192.14291896820066,114.3452487227399L192.24237182480948,113.52786576754116L192.34182468141827,113.97025112098653L192.44127753802707,113.89338992620696L192.6401832512447,115.09530806792115L192.8390889644623,115.81730118701442L193.1374475342887,113.35857278644629L193.2369003908975,114.07927777799134L193.43580610411507,114.99039874282717L193.53525896072387,115.48585712839218L193.6347118173327,114.6347869123023L193.93307038715906,115.41669837671395L194.13197610037668,114.33844617547338L194.23142895698547,111.21212136753216L194.33088181359426,112.98205933159821L194.43033467020305,114.04564901540752L195.12650466646468,114.48478261323115L195.22595752307348,115.45631349910278L195.52431609289988,110.2851252556914L196.02158037594387,104.66142246190662L196.41939180237907,100.48629526762923L197.01610894203188,104.4359629756335L197.11556179864067,104.20919687867213L197.31446751185825,99.83967647541698L197.71227893829345,104.11293309705044L197.81173179490227,108.34820059409894L197.91118465151106,110.71792101586762L198.11009036472865,112.30280433055005L198.20954322133744,111.9505891774869L198.30899607794626,110.88727670715824L198.70680750438143,110.9171444828793L199.10461893081663,110.69904571457036L199.30352464403427,112.87540184463319L199.40297750064306,112.8906493586286L200.19860035351346,114.3131453977662L200.29805321012225,109.90850455897896L200.59641177994862,111.82965011972641L200.89477034977503,112.34056873212177L201.29258177621026,112.16355636163584L201.49148748942784,113.66743689429578L201.88929891586304,110.02394469707347L202.38656319890703,110.74476420526912L202.48601605551582,111.74192083226897L202.88382748195102,113.70761210877741L202.98328033855984,114.78815829026162L203.2816389083862,115.79380834555008L203.381091764995,115.22615674102066L203.48054462160385,115.27394171881488L203.77890319143023,115.28907788288616L204.07726176125664,116.33680838625271L204.17671461786543,116.96187173792589L204.375620331083,115.7979633058791L204.57452604430063,115.44476152491843L204.67397890090942,113.11652892862107L204.7734317575182,112.12291042157537L205.4696017537798,114.08566756823633L205.66850746699743,73.24071668215481L205.76796032360622,91.15477348149408L206.36467746325903,97.45731751013801L206.46413031986782,103.70531275265509L206.5635831764766,107.52788717854216L206.6630360330854,111.01686190422733L206.76248888969423,112.37078946774078L206.9613946029118,111.59562265274715L207.25975317273821,113.24572070651229L207.95592316899982,110.63893262112325L208.0553760256086,112.78423885336893L208.15482888221743,106.06680125996687L209.0499045916966,109.74305154726919L209.348263161523,113.21530362046876L209.44771601813179,111.77333876467472L209.84552744456698,110.52946202838368L209.94498030117578,112.15562754729419L210.04443315778462,112.21422636550702L210.14388601439342,112.35441800058483L210.4422445842198,114.96983868185316L210.5416974408286,112.01208450740056L210.6411502974374,113.96262569706417L210.7406031540462,114.69117592175972L211.1384145804814,115.66774031214433L211.2378674370902,114.09366516547422L211.33732029369898,113.51336815533729L211.63567886352538,110.17741307846292L211.83458457674297,112.41548422966896L212.03349028996058,110.35284436815024L212.2323960031782,113.3538745781308L212.331848859787,110.78982370726682L212.4313017163958,109.40019140407611L212.6302074296134,108.53706107389088L212.72966028622218,110.10076739642453L213.22692456926617,97.37047604537605L213.52528313909258,104.76847271204339L213.72418885231016,107.41570403828105L214.02254742213657,108.58610993115316L214.320905991963,109.02772595331137L214.4203588485718,109.80685219656479L214.61926456178938,113.39021679452847L214.818170275007,112.85973778329543L215.41488741465977,114.54623102750462L215.51434027126857,114.04047875211315L215.71324598448618,113.01299996423157L215.91215169770376,110.66850287862954L216.80722740718298,111.12559741651165L216.90668026379177,112.4331783888813L217.00613312040056,109.06218348188027L217.10558597700938,111.22205728122292L218.29902025631495,109.88174046426273L218.49792596953256,107.97618088310004L218.69683168275017,104.81100166959493L218.89573739596776,95.05039352218036L219.29354882240295,98.75192802191769L219.39300167901175,99.0971328671865L219.49245453562057,101.66165528829356L219.59190739222936,97.2389496865283L219.69136024883815,100.96825929235375L219.79081310544694,101.86284527684775L219.89026596205574,103.15711066831193L220.08917167527335,105.69147753312771L220.18862453188214,106.59158473443266L220.28807738849093,105.67605348838566L220.48698310170855,105.41610576399627L220.98424738475256,105.32180956727288L221.28260595457894,105.40872066137779L221.48151166779655,94.32940506061895L221.58096452440535,101.31108516101023L221.77987023762293,105.00917982777835L222.07822880744934,107.92469901742902L222.37658737727574,102.84679455075155L222.57549309049332,105.04073366869447L222.87385166031973,108.85899432865124L223.17221023014613,109.68911846146109L223.27166308675496,102.59407717469114L223.57002165658133,105.1812039529601L223.76892736979894,108.07509223344918L223.86838022640774,107.9585314666285L224.66400307927813,106.78407622666354L224.76345593588692,108.89244365161191L224.9623616491045,108.29825967521911L225.45962593214853,109.01805322808694L225.95689021519252,109.95620746571802L226.05634307180134,111.76644108414182L226.15579592841013,113.39109147698727L226.3547016416277,80.83396841896024L226.4541544982365,94.23188723506493L226.65306021145412,102.85257681918489L226.8519659246717,104.94927143514344L227.1503244944981,108.52469220425509L227.2497773511069,111.64770721885003L227.64758877754213,111.49196238260244L228.14485306058612,108.36686366860235L228.3437587738037,111.28218943097662L228.9404759134565,111.99745017054478L229.0399287700653,111.83858787462013L229.1393816266741,112.63547055214784L229.2388344832829,110.84504119045498L229.3382873398917,110.6298093011513L229.6366459097181,112.66016891325047L229.83555162293572,113.42929214686278L230.1339101927621,112.88052904850638L230.2333630493709,111.95749768865433L230.5317216191973,111.37694248561573L230.7306273324149,113.3549810353854L230.9295330456325,114.51172610843129L231.0289859022413,112.41813290850719L231.12843875885008,111.79071835117271L231.52625018528528,110.91249503941287L231.9240616117205,110.46410240851371L232.0235144683293,111.62738734931341L232.1229673249381,110.76678145483417L232.52077875137329,113.51044392074984L232.6202316079821,109.99012770356967L232.8191373211997,110.29758403790638L232.91859017780848,99.94038210360249L233.1174958910261,104.76248708377756L233.2169487476349,108.33163684960537L233.31640160424368,107.36466193829789L233.51530731746126,107.86477093835819L233.61476017407008,111.80411912850627L233.71421303067888,112.14852943512047L233.81366588728767,113.39097052297325L234.1120244571141,112.99012128775391L234.3109301703317,112.94522212296961L234.41038302694048,114.01432604499273L235.0071001665933,115.34278024414643L235.10655302320208,116.5627936266135L235.20600587981087,111.12155770476109L235.60381730624607,113.21695582432216L235.80272301946366,112.76243121474043L236.0016287326813,114.27168074553035L236.3994401591165,112.7874579568971L237.09561015537807,112.07845147643144L237.39396872520447,107.30740308342057L237.59287443842206,110.72652228639971L237.79178015163967,112.97851671164238L237.89123300824846,113.17021457723902L238.09013872146605,114.07378857300303L238.2890444346837,114.8092105402265L238.48795014790127,115.56722249899842L238.58740300451007,113.3677305340162L238.68685586111886,113.77061003152528L238.98521443094526,115.18146010413604L239.08466728755405,114.68115607845834L239.38302585738046,113.89939906996135L239.48247871398925,110.6307739817339L239.78083728381566,112.91943930866374L240.07919585364203,110.76236897814432L240.47700728007726,109.72240269729431L241.07372441973007,110.64421025139688L241.17317727633886,112.34281794124664L241.47153584616524,113.5032688343275L241.57098870277406,114.6713843420472L241.76989441599164,112.0182458350018L241.96880012920923,108.12499450427663L242.06825298581805,110.8385323118551L242.26715869903563,112.78203075379483L242.36661155564443,113.52368323537162L242.56551726886207,114.86229415587265L242.66497012547086,113.11707704599841L242.76442298207965,114.02674432628373L242.86387583868844,113.57723913286678L243.06278155190606,112.19426618264177L243.26168726512364,112.44248748224393L243.36114012173243,111.91161770180518L243.75895154816763,109.86259112947343L243.85840440477642,110.852321069406L244.05731011799404,113.11575324868669L244.3556686878204,112.21300486809831L244.55457440103802,113.63526390160246L244.85293297086446,111.87934637811533L245.44965011051724,113.26904417500386L246.04636725017002,113.89189988282166L246.44417867660522,114.93699201225544L246.74253724643162,114.78529586039294L247.23980152947564,113.92331740485153L247.43870724269323,107.93862550812186L247.73706581251963,109.29988460876699L248.3337829521724,112.44638219181535L248.4332358087812,108.0430603992492L248.63214152199882,102.21917216389693L248.9305000918252,106.82140343096378L249.22885866165163,109.54162571778758L249.32831151826042,110.57891461874908L249.4277643748692,110.12800455070361L250.3228400843484,112.52965057956918L250.4222929409572,112.82153705953462L250.521745797566,107.64344286525775L250.6211986541748,110.17497531348174L250.8201043673924,112.18933139695709L251.01901008061,110.908463236259L251.31736865043638,112.38095449785635L251.4168215070452,100.58255375433913L251.8146329334804,107.26775835199864L252.013538646698,109.4541340502232L252.1129915033068,111.7360373938498L252.2124443599156,110.83933951481308L252.3118972165244,110.34252663456598L253.10752006939478,109.6856911243095L254.002595778874,110.49386076787043L254.20150149209158,112.87316661299933L254.49986006191799,113.28061531648265L254.99712434496197,113.32962109874381L255.29548291478838,112.55685872861578L255.39493577139717,114.0320635086362L255.6932943412236,114.6259339600492L255.7927471978324,114.65209290346824L256.09110576765875,115.23713546767068L256.38946433748515,115.19659790655757L256.58837005070274,115.86318905754464L256.7872757639204,114.8311655757377L257.0856343337468,115.32147974144002L257.3839929035732,116.38420228051598L257.48344576018195,113.83294525402125L257.58289861679077,106.77529356506011L257.78180433000836,107.06881494580938L258.57742718287875,109.5846706690344L258.77633289609633,110.70983452602604L258.975238609314,112.19220661723512L259.17414432253156,106.28197433497122L259.67140860557555,101.41563609873856L260.16867288861954,106.65469238987917L260.56648431505477,111.33434140614169L260.96429574148993,112.49535720522813L261.06374859809875,113.93677729324102L261.1632014547076,113.72953657766897L261.56101288114274,113.62500888579882L261.66046573775157,114.61570137906621L261.75991859436033,114.882805933828L261.85937145096915,113.3057548940535L262.15773002079555,113.80412383508352L262.65499430383954,113.13135402550026L262.95335287366595,103.4530287964537L263.15225858688353,106.46764778634223L263.55007001331876,108.36346013236245L263.6495228699275,111.61796799852708L263.74897572653634,113.54611614192434L263.84842858314516,113.02922236445986L264.04733429636275,114.71544440828268L264.24624000958033,115.38308866369938L264.54459857940674,113.76743654717708L264.84295714923314,114.86074315344938L264.9424100058419,115.0698053055346L265.14131571905955,113.08303165829723L265.34022143227713,115.05627698089162L266.03639142853876,113.8082642236302L266.3347499983651,111.1654781717418L266.43420285497393,111.8537476268615L266.6331085681915,111.93856521352674L266.8320142814091,111.12533270395076L267.03091999462674,112.11991753296505L267.1303728512355,110.42447389001974L267.3292785644531,112.33172007238265L267.62763713427955,111.07983309749856L267.82654284749714,110.97652887449715L268.12490141732354,111.92642088825599L268.3238071305411,113.95481768285656L268.42325998714995,111.7507585513684" fill="none"></path></g></g></g></g><g opacity="0.2"><g><g><g><path style="fill: none;" stroke="rgb(255, 112, 67)" stroke-width="2px" d="M21.879628453935894,-626.3094632615231L22.277439880371094,53.87200380507181L23.17251558985029,-18.2311621649683L24.365949869155884,-43.701304909117184L24.564855582373482,57.81524977803713L24.76376129559108,-15.371898699904728L25.161572722026282,88.88862730362975L25.26102557863508,16.997610399719182L25.360478435243877,36.01418006701693L25.45993129185268,-53.27902103477642L25.55938414846148,90.40430021399914L26.156101288114275,-78.63155397175439L26.355007001331874,76.43495451255887L26.454459857940673,63.74994759343394L26.553912714549476,-180.46974057940818L26.65336557115827,5.620876252519338L26.95172414098467,77.0140813206416L27.05117699759347,72.27248531324392L27.150629854202272,-93.07656499454656L27.250082710811068,50.427917848322174L27.747346993855068,-37.102885750842916L28.244611276899064,64.60428498583951L28.542969846725462,1.9856667850694947L28.64242270333426,-122.33886661522551L29.239139842987058,57.44677994875701L30.034762695857456,42.579735433861856L30.333121265683857,-5.422978513873898L30.432574122292657,66.0247142508473L31.12874411855425,63.816417432932425L31.42710268838065,78.47711460196422L31.62600840159825,105.10648422736237L32.322178397859844,78.78498447843809L32.42163125446864,102.80846145757664L32.71998982429504,105.95518274151972L32.81944268090384,73.16712421157149L33.51561267716544,30.331932823671654L33.714518390383034,92.68422858467801L33.91342410360064,93.2266970036116L34.01287696020944,67.62111135781822L34.11232981681824,100.66544535372714L34.808499813079834,80.70803509929817L35.30576409612383,74.3912871877319L35.50466980934143,72.4652069479339L35.60412266595023,58.409092960110904L35.703575522559035,67.49579117045015L36.001934092385426,70.7902215257127L36.30029266221183,51.8787947836563L36.49919837542942,59.623568729717235L36.59865123203822,68.16770005850742L36.89700980186463,73.20643351729132L37.49372694151742,70.04176174114093L37.59317979812622,-54.08886847307829L37.792085511343814,65.558880042949L38.09044408117022,17.085469348919545L38.28934979438782,66.05671460087932L38.38880265099662,75.96045559449806L38.587708364214215,87.00818827313185L38.786614077431814,78.28037114813412L38.88606693404062,77.6562317766809L39.582236930302216,104.62939877213329L40.3778597831726,103.10560648301022L40.4773126397814,-49.04232617148183L40.57676549639021,85.70612622002955L40.9745769228254,83.7771526941458L41.9691054889134,104.90462450455085L42.0685583455222,105.54978185738605L42.2674640587398,108.08184647715164L42.466369771957396,92.47774490596242L42.665275485174995,80.1958098514126L42.96363405500139,42.86785219486035L43.06308691161019,95.73337720370091L43.16253976821899,106.29696920200388L43.460898338045396,89.43554547537845L44.45542690413339,108.8931670676621L44.65433261735099,106.23812264115799L45.251049757003784,100.78435032299409L45.54940832683018,101.45322580508974L45.64886118343898,105.00050436988943L45.74831404004778,94.4723740612551L45.84776689665658,101.94035444709812L46.046672609874186,97.65515159758337L46.444484036309376,97.14016182241691L46.64338974952698,104.51648108729245L46.84229546274457,97.48720088473478L47.04120117596217,103.87923103988527L47.53846545900617,104.3067784384553L48.135182598658965,105.7692777494401L48.83135259492057,100.14322236334635L48.930805451529366,108.84453032263707L49.42806973457336,9.674430651015195L49.52752259118216,74.83173318893023L49.82588116100857,18.5502446611315L49.92533401761737,73.00090416854118L50.02478687422616,-357.30147838270574L50.42259830066136,84.33042927864052L50.52205115727016,55.62013937654967L50.720956870487754,77.38174830090314L51.01931544031416,92.62023167163761L51.417126866749356,20.123995366541298L51.516579723358156,97.97431059162477L51.616032579966955,78.74556913605545L51.715485436575754,89.17198377587196L51.914391149793346,93.43215439891196L52.21274971961975,96.82755059230516L52.31220257622855,96.47071449974675L52.41165543283735,92.32204142767044L52.71001400266375,-367.40883249109635L53.008372572490146,92.42790010038591L53.60508971214295,32.23513944048819L53.80399542536055,84.31719741792904L54.10235399518694,94.62891447177867L54.201806851795745,-54.98562053061508L54.40071256501334,-3.4560287146030304L54.500165421622135,101.33825555341843L54.99742970466614,104.35716478841698L55.09688256127494,106.77948146215556L55.494693987710136,58.9992248589857L55.693599700927734,106.69710233620918L55.99195827075413,107.21185731590793L56.38976969718934,106.55373319401833L56.78758112362453,103.2808661515466L56.98648683684213,59.14135185741202L57.38429826327733,72.80522865538671L57.48375111988613,73.77129839422368L57.58320397649493,-47.99051821670105L57.78210968971252,84.07104845326842L58.279373972756524,86.90808208937482L58.378826829365316,84.04761435078342L58.77663825580052,83.42444445739034L58.87609111240932,64.29356726756396L58.97554396901812,-71.7971274982142L59.97007253510611,90.7195775087763L60.46733681815011,92.93468718227786L61.163506814411704,102.36501613362975L61.26295967102051,96.57667542210135L61.76022395406451,98.36116642083454L61.85967681067331,98.58262020412724L62.058582523890905,100.93089677804613L62.2574882371085,98.06333973113993L62.6552996635437,107.68452710153495L63.550375373022895,85.3736482637322L63.749281086240494,62.67360729930316L63.84873394284929,107.83476969169129L64.14709251267568,88.53634321352558L64.7438096523285,100.84847978186303L65.53943250519889,97.13863565187694L65.63888536180768,102.71040026660272L65.73833821841649,77.76691133053134L65.93724393163409,103.80369885273866L66.03669678824289,109.7317049973063L66.33505535806928,107.45623016646617L66.43450821467809,85.7254021705222L66.93177249772208,82.42339019386748L67.03122535433089,104.21836658379874L68.12520677702767,84.27668383868138L68.42356534685408,99.76041864946609L68.52301820346288,101.12234597278217L68.72192391668047,103.02445435273368L68.92082962989807,37.8340418668506L69.21918819972447,81.48691983205424L70.31316962242127,80.75253262744923L70.71098104885647,61.88097567061619L70.81043390546526,81.19908331080751L71.00933961868286,39.080707337672614L71.30769818850926,-1027.3014641395457L71.50660390172686,83.8684426867934L72.00386818477085,87.35329974040042L72.10332104137966,78.3644809438988L72.70003818103245,88.67550875944005L72.89894389425005,58.909904118647766L72.99839675085884,90.03733762014065L73.09784960746765,89.16189514480862L73.19730246407644,87.72153477421286L73.29675532068525,88.91131157542759L73.39620817729404,78.58004590538087L73.59511389051166,90.35614063395684L73.79401960372925,89.21856416704287L74.29128388677324,91.39058887222318L74.39073674338204,91.3782242399327L74.49018959999086,92.45340191779606L74.68909531320845,88.2124315047753L75.08690673964364,90.7687671592575L75.28581245286124,94.25154134984467L75.48471816607884,36.07662051332795L75.88252959251405,98.08734188717581L75.98198244912284,95.55733740828799L76.08143530573163,98.7621592094135L76.47924673216683,97.69338538858023L76.87705815860204,100.89306819858223L76.97651101521083,86.16718877810058L77.27486958503724,98.70936431239613L77.47377529825482,100.39183289339405L77.57322815486363,100.67913544430296L77.67268101147242,97.5731170907912L77.77213386808124,103.84236815145782L77.87158672469003,100.15543930171361L77.97103958129884,96.00763724508197L78.16994529451642,98.76034522507439L78.26939815112523,97.48606477763303L78.76666243416922,97.55243994153973L78.86611529077801,103.90411557243682L79.16447386060443,101.78003837397313L79.26392671721322,99.1172911413193L79.56228528703961,105.40426547277292L79.76119100025721,102.13337146963454L80.15900242669242,107.09701582304149L80.35790813991002,103.0181073010587L80.55681385312762,97.96104843472392L80.7557195663452,94.58711709150604L81.05407813617163,97.07811522656783L81.45188956260681,99.55575652913693L81.55134241921562,108.49482898267752L81.75024813243321,106.2371455890505L82.0486067022596,107.68259571946203L82.44641812869482,55.99532738582467L82.9436824117388,107.28560202788117L83.63985240800041,99.67883479849093L83.7393052646092,103.01272972744385L83.9382109778268,106.58341588556281L84.03766383443559,52.29019431328708L84.1371166910444,102.00114375108797L84.23656954765319,89.41606881263112L84.4354752608708,108.88831967736138L84.7338338306972,106.73677898322525L85.13164525713239,92.66794816991023L85.23109811374118,96.19045959989222L85.6289095401764,89.39151753816276L85.92726811000279,98.29726039636226L86.32507953643798,100.27688536386476L86.62343810626439,109.99142286778522L86.7228909628732,88.42705728438658L86.82234381948199,105.22444244071124L86.92179667609079,110.11116098226012L87.02124953269958,97.83293342388562L87.22015524591718,97.10586274901573L87.31960810252598,107.33302313830735L87.41906095913478,88.07297814506171L87.6179666723524,80.35980312452352L87.71741952896119,109.3214870190613L87.81687238556998,99.13712757131549L87.91632524217879,106.29757512579148L88.11523095539638,103.8184985412505L88.31413666861397,109.5175147254173L88.41358952522278,103.40154344789227L89.10975952148438,107.54410805078491L89.40811809131077,108.46095405592762L89.50757094791958,107.25338960452349L89.60702380452837,94.58788585731155L89.80592951774598,98.91798765948664L90.10428808757237,105.38173268192196L90.30319380078997,108.85196803712972L90.50209951400757,107.98686034939976L90.89991094044277,110.32060611348756L91.29772236687796,-0.36033378762226675L91.59608093670435,102.48871547486601L91.69553379331316,99.82070049228383L91.79498664992195,109.25731211590829L91.89443950653077,93.78429836914023L91.99389236313957,99.45112485209135L92.49115664618355,102.96651289054553L93.08787378583636,105.64151493180333L93.28677949905396,100.7956545886563L93.38623235566276,102.17195366680927L93.48568521227155,100.46534659692328L93.78404378209795,103.47473904143298L94.08240235192434,108.26349864164712L94.18185520853315,106.87917107330861L94.48021377835956,104.25138564319867L94.57966663496835,98.44779837436505L94.67911949157715,110.58923485066771L94.87802520479474,105.07008714284665L95.07693091801234,104.11698417306413L95.67364805766515,89.27287387352919L95.97200662749154,96.13786541512951L96.07145948410033,99.87921758207023L96.36981805392675,89.80731380227724L96.46927091053554,106.8626066317654L96.56872376714435,83.74331185060895L96.76762948036193,-2.6173393040119266L96.86708233697074,77.26310842329326L97.46379947662354,86.25422973018772L97.86161090305873,97.58033894493451L97.96106375966754,106.55649014725186L98.15996947288512,84.8108359536303L98.35887518610272,103.32190612708473L98.55778089932033,101.80824791330907L98.65723375592913,106.08211241394855L98.75668661253793,-12.179437744046044L98.85613946914673,105.58698936496766L98.95559232575553,80.01428265869833L99.25395089558192,81.04913989552131L99.45285660879952,102.54247227589617L99.65176232201713,108.36538851355384L99.95012089184353,103.86197357301L100.14902660506112,107.88308832672784L100.24847946166992,108.07767317706464L100.34793231827872,110.17225324814375L100.74574374471392,105.44654380505192L100.94464945793152,107.44201367959988L101.04410231454032,109.01015958997448L101.24300802775791,99.52572164439088L101.54136659758431,97.74170023659309L101.93917802401951,106.21239738935117L102.23753659384592,106.66596542757445L102.53589516367231,108.72474676387809L102.6353480202811,100.97123236718119L102.83425373349871,100.41973947083619L103.03315944671631,100.38238426933134L103.23206515993391,103.2655930850757L103.7293294429779,-351.1961600027712L104.0276880128043,97.44112038068862L104.12714086941311,94.62814949299684L104.2265937260219,98.06020407553916L104.5249522958483,96.62032844397345L105.3205751487187,93.15933721355009L105.4200280053275,92.92439783895986L105.5194808619363,82.38712565518028L105.71838657515389,91.6488828218013L106.1161980015891,92.50954075671613L106.3151037148067,80.37723858151139L106.41455657141549,82.97660618598344L106.81236799785069,92.1004588855729L107.01127371106828,85.29988461664061L107.11072656767708,91.8246082942494L107.4090851375035,69.70536042831895L107.6079908507211,94.75908583647112L107.80689656393868,95.52683293260657L108.10525513376508,96.37883373140625L108.30416084698268,94.09513348514962L108.40361370359149,96.74179722826665L108.60251941680909,96.96334190012749L108.70197227341788,93.21743015668517L109.00033084324427,97.46806126709431L109.29868941307069,98.80020743625039L109.39814226967948,98.49613973154364L110.09431226594107,99.35729755358324L110.19376512254988,97.52362447841621L110.29321797915867,100.3606013091675L110.39267083576746,100.10659427038661L110.59157654898507,101.40882673955416L110.69102940559388,99.03173470251176L110.88993511881147,102.70412138135384L110.98938797542027,101.41982804332257L111.08884083202906,100.85183887186048L111.38719940185547,100.33506162152065L111.48665225846426,102.45198513226711L111.58610511507307,104.15110525635271L111.68555797168187,103.44143974228132L111.88446368489947,103.23606187447808L112.48118082455225,103.49821858820206L112.58063368116107,97.97547320789222L112.87899225098747,106.16746814050147L113.57516224724905,100.54099618180372L113.87352081707546,94.41131587858452L114.56969081333705,106.72321386443059L114.66914366994585,105.75884071219889L114.76859652655466,88.03669088423248L114.96750223977226,107.27321467344865L115.06695509638105,108.27646541070152L115.16640795298986,106.75000326988936L115.46476652281625,102.54699019513737L115.56421937942504,66.04144532143208L115.76312509264264,100.98825882561242L115.96203080586025,105.12329861246799L116.06148366246904,102.12720619509584L116.45929508890424,105.48820863949601L116.55874794551305,106.14169744441057L116.95655937194823,106.37391773600399L117.05601222855705,108.07831318406528L117.15546508516584,108.47857507707545L117.25491794177465,108.28616397832661L117.55327651160104,84.8021560953731L117.65272936820983,52.84746999477988L117.75218222481864,104.10813389874164L118.05054079464504,95.55409571602439L118.14999365125384,106.84300878426058L118.94561650412423,100.011142338723L119.34342793055943,104.50665754788616L119.54233364377703,101.10207782208732L119.74123935699463,109.25743330066581L119.84069221360343,105.84367004246133L120.13905078342982,105.03027037595471L120.23850364003863,103.44427622301197L120.43740935325623,110.23046358901269L120.53686220986503,108.05737473018041L120.63631506647383,109.06443521324773L120.73576792308262,108.26808094029077L121.03412649290902,104.27167651603554L121.82974934577942,108.77976464379117L122.02865505899702,105.82815460647538L122.22756077221462,108.97446689186182L122.42646648543223,106.84073278303345L122.52591934204102,30.342475897575696L122.62537219864981,93.65901983903257L122.82427791186741,106.55149885005157L123.02318362508501,105.90714055921124L123.1226364816938,103.68597164783382L123.22208933830261,89.68663650593157L123.52044790812901,107.25665401892911L123.71935362134661,108.31862634524667L124.4155236176082,105.35787443278565L124.514976474217,112.76010451362792L124.81333504404341,97.76057097555281L125.01224075726101,108.65970841932779L125.6089578969138,106.45372168585311L125.7084107535226,106.16020084207406L125.9073164667402,103.18725850041147L126.1062221799578,103.40128971730623L126.504033606393,88.70274503369218L126.9018450328282,95.2697849138167L127.10075074604579,102.76319137659641L127.29965645926339,104.05697120892711L127.5980150290898,102.77450700332965L127.69746788569859,100.69296944177836L127.79692074230738,105.17444615418782L127.8963735989162,-408.5225186579829L128.49309073856898,107.48181529839712L128.5925435951778,109.14422022797851L129.18926073483058,50.76327394261057L129.38816644804817,81.58429178471978L129.58707216126578,103.68316167626888L129.68652501787457,106.92510388343152L129.7859778744834,109.13377182966627L130.68105358396258,103.46691126350208L130.87995929718016,102.151193203037L131.17831786700657,103.90013541055708L131.57612929344177,108.2833918769984L131.77503500665938,103.980681617046L131.87448786326817,-125.6447565041208L132.27229928970337,106.93008003253709L132.37175214631216,86.83073591788911L132.57065785952977,103.69348510279991L132.67011071613857,105.6345960395538L132.7695635727474,105.19269582126526L133.06792214257376,100.73559239321156L133.16737499918256,105.96573717649477L134.16190356527056,100.67543173515135L134.36080927848815,103.82182354803489L134.46026213509697,105.05693102260864L134.75862070492335,104.21905582210712L134.85807356153214,100.72040264126144L134.95752641814096,92.69395366146881L135.25588498796736,100.56378270324075L135.35533784457616,103.28808800568991L135.45479070118495,105.59441193136563L136.94658355031694,105.88592943962198L137.24494212014335,108.45018754762691L137.44384783336093,102.96716425861717L137.54330068996975,51.323882204935096L137.74220640318734,96.48856274231491L137.84165925979613,100.94356058520674L138.14001782962254,85.48714536319494L138.43837639944894,106.80918308881843L138.53782925605773,109.12896988364963L138.63728211266653,106.1061032089134L138.73673496927535,111.7683170970315L138.93564068249293,91.42010114770245L139.13454639571054,98.95546783277268L139.33345210892813,107.28061830472825L139.53235782214574,106.2133289971746L139.63181067875453,105.23268300422245L139.83071639197212,85.17968448527766L140.02962210518973,109.8891050622035L140.22852781840731,110.16538737422563L140.3279806750161,110.4156111763578L140.42743353162496,105.60725751566252L140.52688638823375,106.9420015830579L140.62633924484254,102.51320236993195L141.62086781093052,107.4512426562896L142.01867923736572,106.38832357405391L142.41649066380091,104.87700952793148L142.51594352040973,111.52565219414952L142.61539637701853,99.71809487290301L142.81430209023614,109.46011480761427L143.11266066006252,106.92283166922806L143.41101922988892,101.60963366978477L143.6099249431065,104.02704614786757L143.80883065632412,104.93895766116509L143.9082835129329,111.29109152192655L144.1071892261505,110.22382114949126L144.5050006525857,102.72072748015745L144.60445350919449,105.61902758523644L144.70390636580333,107.14650086136913L144.90281207902092,110.96100317756651L145.0022649356297,109.94500531863224L145.30062350545612,108.22893447658885L145.4000763620649,95.72503439055055L145.4995292186737,106.08188897955186L145.59898207528252,110.07699445468745L145.7978877885001,109.15356660240208L146.2951520715441,109.51945746856126L146.5935106413705,110.3139901831318L147.09077492441452,108.89125083368383L147.2896806376321,105.36835312728726L147.6874920640673,110.1070558485992L147.88639777728488,110.61758829690321L148.28420920372008,108.3575796707413L148.38366206032887,97.01248610632462L148.4831149169377,101.59081216213279L148.5825677735465,110.07474496262603L148.78147348676407,106.33575211143324L149.0798320565905,110.44238922074557L149.1792849131993,111.67739823270382L149.3781906264169,106.5264969197662L149.4776434830257,90.0199816906499L149.5770963396345,109.20297968727995L150.17381347928728,96.3433190234062L150.3727191925049,112.15613861727775L150.47217204911368,101.53365461384482L150.67107776233127,108.91841894150986L150.77053061894009,112.64069587021254L151.06888918876646,99.39123307271188L151.16834204537525,110.62223876197294L151.66560632841927,110.1938960884317L151.7650591850281,112.47659277341512L151.86451204163689,105.87812059680944L152.16287061146326,111.46433270684554L152.36177632468087,111.4224860952652L152.46122918128967,109.77260863999221L152.56068203789846,101.08790299248142L152.66013489450728,113.01300952852019L152.75958775111607,105.81076838079525L152.85904060772486,110.18997651893073L153.45575774737767,113.40410682424306L153.95302203042166,100.61224524517684L154.05247488703048,101.86161465090095L154.15192774363928,110.10036039074633L154.64919202668327,113.39589655692123L155.04700345311846,110.74398021197055L155.24590916633605,108.3292148634348L155.34536202294484,112.49525522607286L155.74317344938007,105.69426438453661L156.14098487581526,110.58611434316161L156.83715487207684,112.6016062118657L157.03606058529445,111.64738228307611L157.33441915512083,109.2774060635142L157.53332486833844,112.72597964331567L157.63277772494723,89.59563432708309L157.93113629477367,108.97094495984648L158.03058915138246,113.5725877204058L158.22949486460004,112.57202955698405L158.32894772120886,112.94733496399289L158.62730629103524,106.39212195879736L160.31800485338485,114.62777370030238L160.41745770999364,112.06290588148619L160.51691056660243,105.67261018317765L160.61636342321123,108.84582169770938L161.01417484964642,111.08330510706764L161.31253341947283,111.7349269093117L161.41198627608162,114.0583946911525L161.71034484590803,113.47973747400516L161.80979770251682,82.38086949207343L161.9092505591256,112.370071371557L162.30706198556084,111.35124839296309L162.40651484216963,110.98924301309182L162.50596769877842,100.07484765094063L162.70487341199603,112.68363693163423L162.90377912521362,111.60399813988477L163.10268483843123,112.60447677580943L163.30159055164881,102.45724530814813L163.8983076913016,106.52915541038425L164.0972134045192,109.27684179698701L164.59447768756323,115.35584793644546L164.69393054417202,110.17457848067863L165.5890062536512,113.2364780084066L165.68845911026,109.55976276150693L166.78244053295683,112.09966652027447L167.180251959392,103.7528012545812L167.27970481600082,15.343908050537038L167.5780633858272,108.77667443247446L167.67751624243598,108.87888241436968L167.9758748122624,107.44260445529277L168.17478052548,103.88768367672213L168.2742333820888,105.32934678346122L168.3736862386976,107.56038089150536L169.0698562349592,110.12534717293704L169.169309091568,97.44419544391063L169.2687619481768,110.72763920482402L169.3682148047856,111.81589347542825L169.666573374612,109.0798408255472L169.86547908782958,112.01819628000948L169.96493194443838,108.354531116685L170.0643848010472,107.19731514500579L170.163837657656,112.63418218949596L170.66110194069998,111.01164704513793L170.8600076539176,113.16412313412116L171.35727193696158,94.3395442059446L171.4567247935704,113.39827859481119L171.75508336339678,100.80747010251429L172.45125335965838,115.8795592271295L172.65015907287597,82.36800875968187L173.64468763896397,112.02325953065952L173.84359335218159,109.71874201527557L173.94304620879038,104.84820542587896L174.14195192200796,113.43945111617785L174.24140477861675,109.9944032554154L174.44031049183437,110.55231136986151L174.53976334844316,108.12547298985805L175.13648048809594,111.01010193947955L175.2359333447048,113.27838899938939L175.83265048435757,113.29702872990511L175.93210334096636,101.24153496882458L176.82717905044555,111.92282766286667L177.22499047688075,111.85216937518646L177.42389619009836,102.67621859093538L177.82170761653356,112.22992119948769L178.41842475618634,104.3582062199269L178.71678332601275,112.2748125781007L178.91568903923033,109.82672142124756L179.21404760905673,110.77778697229434L179.41295332227432,106.57106640136703L179.51240617888317,106.84439862194834L179.91021760531834,114.96715918777822L180.00967046192716,112.57308992361233L180.20857617514474,114.47509605392467L180.30802903175353,113.22362863708605L180.50693474497115,114.88081883507049L180.80529331479752,108.24681301534638L180.90474617140634,86.5986519591479L181.00419902801514,108.17944186421386L181.40201045445033,114.54262626005146L181.60091616766792,106.55326739010661L181.7003690242767,110.79764612443256L181.79982188088553,111.16854722291036L181.99872759410314,107.96185084506703L182.19763330732073,110.19430887401198L182.39653902053834,109.23345765379564L182.69489759036472,111.13304766300502L182.99325616019112,111.89555351837782L183.09270901679992,115.63631112260197L183.1921618734087,112.39219137682768L183.4905204432351,115.14594078832998L183.68942615645273,81.46797713964473L183.78887901306155,112.6197271201383L184.08723758288792,45.47043876945394L184.18669043949674,112.00908091402995L184.48504900932312,113.30505343306696L184.88286043575832,-18.113688690649518L184.9823132923671,54.08136562177844L185.0817661489759,108.90443725011124L185.7779361452375,113.68897053190693L185.9768418584551,103.31745258724595L186.07629471506394,112.1393318062195L186.17574757167273,106.7962314678587L186.4741061414991,111.27069461242685L186.57355899810793,111.54430707275992L186.7724647113255,115.10753279424421L187.1702761377607,111.73160190252729L187.2697289943695,111.00306943651987L187.3691818509783,114.61934378560755L187.6675404208047,113.8095380045661L188.0653518472399,110.60854867139712L188.1648047038487,103.68043880624839L188.3637104170663,108.49303393345679L188.46316327367512,113.13187284052674L188.5626161302839,113.9887664739112L188.6620689868927,107.56043769686043L188.86097470011032,111.27261084640509L189.1593332699367,114.28006054777084L189.2587861265455,116.16235143284455L189.3582389831543,96.29759828660895L189.4576918397631,110.79240488366992L189.8555032661983,109.01374590139227L189.9549561228071,116.36757024565355L190.4522204058511,111.99722752993523L190.6511261190687,114.4648067106067L190.7505789756775,111.47545898239514L190.8500318322863,114.23177978297105L191.2478432587215,116.70503571212748L191.54620182854788,111.12098220558465L191.7451075417655,110.4130435743079L192.04346611159187,117.53029254975246L192.14291896820066,114.48535888807696L192.24237182480948,112.30179133474309L192.34182468141827,114.6338291511546L192.44127753802707,113.77809813403758L192.6401832512447,116.89818528049243L192.8390889644623,116.9002908656543L193.1374475342887,109.6704801855941L193.2369003908975,115.16033526530889L193.43580610411507,116.35708019008091L193.53525896072387,116.22904470673973L193.6347118173327,113.3581815881675L193.93307038715906,116.5895655733314L194.13197610037668,112.72106787361253L194.23142895698547,106.52263415562032L194.33088181359426,115.63696627769728L194.43033467020305,115.64103354112149L195.12650466646468,115.14348300996659L195.22595752307348,116.91360982791025L195.52431609289988,102.52834289057434L196.02158037594387,96.22586827122946L196.41939180237907,94.22360447621317L197.01610894203188,110.36046453763987L197.11556179864067,103.8690477332301L197.31446751185825,93.28539587053427L197.71227893829345,110.52281802950064L197.81173179490227,114.70110183967165L197.91118465151106,114.27250164852069L198.11009036472865,114.68012930257373L198.20954322133744,111.42226644789217L198.30899607794626,109.2923080016652L198.70680750438143,110.96194614646095L199.10461893081663,110.37189756210694L199.30352464403427,116.13993603972744L199.40297750064306,112.91352062962177L200.19860035351346,116.4468894564726L200.29805321012225,103.30154330079807L200.59641177994862,114.71136846084761L200.89477034977503,113.1069466507148L201.29258177621026,111.89803780590694L201.49148748942784,115.92325769328566L201.88929891586304,104.55870640124006L202.38656319890703,111.82599346756263L202.48601605551582,113.23765577276873L202.88382748195102,116.65614902354008L202.98328033855984,116.4089775624879L203.2816389083862,117.30228342848278L203.381091764995,114.37467933422651L203.48054462160385,115.34561918550622L203.77890319143023,115.31178212899304L204.07726176125664,117.90840414130257L204.17671461786543,117.89946676543565L204.375620331083,114.05210065780892L204.57452604430063,114.91495885347746L204.67397890090942,109.62418003417497L204.7734317575182,110.63248266100686L205.4696017537798,117.02980328822774L205.66850746699743,11.973290353032542L205.76796032360622,118.02585868050299L206.36467746325903,106.91113355310392L206.46413031986782,113.07730561643069L206.5635831764766,113.26174881737273L206.6630360330854,116.25032399275511L206.76248888969423,114.40168081301096L206.9613946029118,110.43287243025675L207.25975317273821,115.72086778715997L207.95592316899982,106.72875049303968L208.0553760256086,116.00219820173749L208.15482888221743,95.99064486986377L209.0499045916966,115.25742697822265L209.348263161523,118.42368173026811L209.44771601813179,109.61039148098364L209.84552744456698,108.66364692394711L209.94498030117578,114.59487582565998L210.04443315778462,112.30212459282626L210.14388601439342,112.56470545320154L210.4422445842198,118.89296970375568L210.5416974408286,107.57545324572163L210.6411502974374,116.88843748155959L210.7406031540462,115.78400125880307L211.1384145804814,117.13258689772117L211.2378674370902,111.73255244546908L211.33732029369898,112.64292264013193L211.63567886352538,105.17348046315136L211.83458457674297,115.77259095647803L212.03349028996058,107.25888457587217L212.2323960031782,117.85541989310161L212.331848859787,106.94374740097089L212.4313017163958,107.31574294929004L212.6302074296134,107.24236557861303L212.72966028622218,112.44632688022506L213.22692456926617,78.27503901880334L213.52528313909258,115.86546771204438L213.72418885231016,111.3865510276375L214.02254742213657,110.34171877046134L214.320905991963,109.6901499865487L214.4203588485718,110.97554156144498L214.61926456178938,118.76526369147398L214.818170275007,112.06401926644588L215.41488741465977,117.07597089381835L215.51434027126857,113.281850339026L215.71324598448618,111.47178178240921L215.91215169770376,107.15175725022647L216.80722740718298,111.81123922333484L216.90668026379177,114.39454984743577L217.00613312040056,104.00569112137872L217.10558597700938,114.46186798023687L218.29902025631495,107.87126523882252L218.49792596953256,105.117841511356L218.69683168275017,100.06323284933728L218.89573739596776,80.40948130105846L219.29354882240295,104.30422977152375L219.39300167901175,99.61494013508968L219.49245453562057,105.50843891995413L219.59190739222936,90.60489128388043L219.69136024883815,106.56222370109191L219.79081310544694,103.20472425358874L219.89026596205574,105.09850875550825L220.08917167527335,109.49302783035137L220.18862453188214,107.94174553639009L220.28807738849093,104.30275661931518L220.48698310170855,105.02618417741218L220.98424738475256,105.18036527218781L221.28260595457894,105.5390873025351L221.48151166779655,77.71043165948072L221.58096452440535,111.78360531159711L221.77987023762293,110.55632182793062L222.07822880744934,112.29797780190496L222.37658737727574,95.22993785073537L222.57549309049332,108.33164234560881L222.87385166031973,114.58638531858638L223.17221023014613,110.93430466067588L223.27166308675496,91.95151524453621L223.57002165658133,109.06189412036355L223.76892736979894,112.41592465418279L223.86838022640774,107.78369031639755L224.66400307927813,105.02239336671607L224.76345593588692,112.0549947890345L224.9623616491045,107.40698371062992L225.45962593214853,110.09774355738871L225.95689021519252,111.36343882216465L226.05634307180134,114.48179151177754L226.15579592841013,115.82806706625547L226.3547016416277,31.998283831919704L226.4541544982365,114.328765459222L226.65306021145412,115.78361119536481L226.8519659246717,108.09431335908131L227.1503244944981,113.88782335792257L227.2497773511069,116.33222974074243L227.64758877754213,111.25834512823104L228.14485306058612,103.6792155976022L228.3437587738037,115.655178074538L228.9404759134565,113.07034127989708L229.0399287700653,111.60029443073313L229.1393816266741,113.83079456843944L229.2388344832829,108.15939714791568L229.3382873398917,110.30696146719578L229.6366459097181,115.70570833139924L229.83555162293572,114.58297699728121L230.1339101927621,112.05738440097178L230.2333630493709,110.57295064887626L230.5317216191973,110.50610968105785L230.7306273324149,116.32203886003992L230.9295330456325,116.24684371800015L231.0289859022413,109.27774310862105L231.12843875885008,110.84959651517097L231.52625018528528,109.59516007177314L231.9240616117205,109.79151346216497L232.0235144683293,113.37231476051302L232.1229673249381,109.47587261311526L232.52077875137329,117.62593761962336L232.6202316079821,104.70965337779944L232.8191373211997,110.75876853941138L232.91859017780848,84.40457920214669L233.1174958910261,111.99564455404015L233.2169487476349,113.68536149834712L233.31640160424368,105.91419957133668L233.51530731746126,108.61493443844864L233.61476017407008,117.7131414137284L233.71421303067888,112.66514489504175L233.81366588728767,115.25463215475241L234.1120244571141,112.38884743492491L234.3109301703317,112.87787337579317L234.41038302694048,115.6179819280274L235.0071001665933,117.33546154287693L235.10655302320208,118.39281370031415L235.20600587981087,102.95970382198249L235.60381730624607,116.36005300366378L235.80272301946366,112.08064430036785L236.0016287326813,116.53555504171521L236.3994401591165,110.56112377394727L237.09561015537807,111.01494175573293L237.39396872520447,100.15083049390427L237.59287443842206,115.85520109086843L237.79178015163967,116.35650834950637L237.89123300824846,113.45776137563405L238.09013872146605,115.42914956664902L238.2890444346837,115.91234349106172L238.48795014790127,116.70424043715627L238.58740300451007,110.06849258654285L238.68685586111886,114.37492927778891L238.98521443094526,117.29773521305219L239.08466728755405,113.93070003994183L239.38302585738046,112.72676355721588L239.48247871398925,105.7278363493927L239.78083728381566,116.35243729905852L240.07919585364203,107.5267634823652L240.47700728007726,108.16245327601933L241.07372441973007,112.02692158255077L241.17317727633886,114.89072947602125L241.47153584616524,115.2439451739488L241.57098870277406,116.42355760362676L241.76989441599164,108.03853807443376L241.96880012920923,102.28511750818882L242.06825298581805,114.9088390232228L242.26715869903563,115.6972784167044L242.36661155564443,114.63616195773682L242.56551726886207,116.8702105366242L242.66497012547086,110.49925138118711L242.76442298207965,115.39124524671165L242.86387583868844,112.90298134274138L243.06278155190606,110.11980675730427L243.26168726512364,112.8148194316472L243.36114012173243,111.11531303114702L243.75895154816763,106.78905127097579L243.85840440477642,112.33691597930488L244.05731011799404,116.51090151760769L244.3556686878204,110.85888229721576L244.55457440103802,115.76865245185871L244.85293297086446,109.2454700928846L245.44965011051724,115.35359087033669L246.04636725017002,114.82618344454833L246.44417867660522,116.50463020640613L246.74253724643162,114.55775163259914L247.23980152947564,112.63034972153947L247.43870724269323,98.96158766302734L247.73706581251963,111.34177325973468L248.3337829521724,117.1661285663879L248.4332358087812,101.43807771040002L248.63214152199882,93.48333981086853L248.9305000918252,113.72475033156405L249.22885866165163,113.62195914802328L249.32831151826042,112.13484797019134L249.4277643748692,109.45163944863538L250.3228400843484,116.13211962286755L250.4222929409572,113.25936677948278L250.521745797566,99.87630157384245L250.6211986541748,113.97227398581776L250.8201043673924,115.21086552217014L251.01901008061,108.9871609952118L251.31736865043638,114.58969139025243L251.4168215070452,82.88495263906327L251.8146329334804,117.29556524848788L252.013538646698,112.73369759756008L252.1129915033068,115.15889240928969L252.2124443599156,109.49429269625796L252.3118972165244,109.5973073141954L253.10752006939478,108.70043785892476L254.002595778874,111.70611523321185L254.20150149209158,116.44212538069269L254.49986006191799,113.89178837170762L254.99712434496197,113.40312977213557L255.29548291478838,111.39771517342382L255.39493577139717,116.24487067866681L255.6932943412236,115.51673963716864L255.7927471978324,114.69133131859677L256.09110576765875,116.11469931397437L256.38946433748515,115.13579156488788L256.58837005070274,116.86307578402534L256.7872757639204,113.28313035302726L257.0856343337468,116.05695098999347L257.3839929035732,117.97828608912992L257.48344576018195,110.00605971427916L257.58289861679077,96.18881603161839L257.78180433000836,107.50909701693332L258.57742718287875,113.35845425387191L258.77633289609633,112.39758031151354L258.975238609314,114.41576475404872L259.17414432253156,97.41662591157534L259.67140860557555,94.11612874438957L260.16867288861954,114.51327682659013L260.56648431505477,118.35381493053545L260.96429574148993,114.23688090385781L261.06374859809875,116.09890742526032L261.1632014547076,113.4186755043109L261.56101288114274,113.46821734799362L261.66046573775157,116.10174011896731L261.75991859436033,115.28346276597063L261.85937145096915,110.94017833439183L262.15773002079555,114.55167724662857L262.65499430383954,112.12219931112543L262.95335287366595,88.9355409528838L263.15225858688353,110.989576271175L263.55007001331876,111.20717865139285L263.6495228699275,116.49972979777402L263.74897572653634,116.43833835702024L263.84842858314516,112.25388169826317L264.04733429636275,117.24477747401691L264.24624000958033,116.38455504682439L264.54459857940674,111.34395837239366L264.84295714923314,116.50070306285784L264.9424100058419,115.38339853366237L265.14131571905955,110.10287118744117L265.34022143227713,118.01614496478322L266.03639142853876,111.93624508773809L266.3347499983651,107.20129909390921L266.43420285497393,112.8861518095411L266.6331085681915,112.06579159352458L266.8320142814091,109.90548393958676L267.03091999462674,113.61179477648648L267.1303728512355,107.88130842560179L267.3292785644531,115.19258934592699L267.62763713427955,109.20200263517245L267.82654284749714,110.82157253999497L268.12490141732354,113.35125890889428L268.3238071305411,116.99741287475746L268.42325998714995,108.44466985413618" fill="none"></path></g></g></g></g></g></g><g transform="translate(51, 177)" clip-path="url(#clip_1)"><clipPath id="clip_1"><rect width="278" height="22"></rect></clipPath><g><g><line x1="0" y1="0" x2="0" y2="5" style="visibility: inherit;" fill="rgb(0, 0, 0)" stroke="rgb(204, 204, 204)" stroke-width="1px"></line><line x1="19.890571321759904" y1="0" x2="19.890571321759904" y2="5" style="visibility: inherit;" fill="rgb(0, 0, 0)" stroke="rgb(204, 204, 204)" stroke-width="1px"></line><line x1="39.78114264351981" y1="0" x2="39.78114264351981" y2="5" style="visibility: inherit;" fill="rgb(0, 0, 0)" stroke="rgb(204, 204, 204)" stroke-width="1px"></line><line x1="59.671713965279714" y1="0" x2="59.671713965279714" y2="5" style="visibility: inherit;" fill="rgb(0, 0, 0)" stroke="rgb(204, 204, 204)" stroke-width="1px"></line><line x1="79.56228528703961" y1="0" x2="79.56228528703961" y2="5" style="visibility: inherit;" fill="rgb(0, 0, 0)" stroke="rgb(204, 204, 204)" stroke-width="1px"></line><line x1="99.45285660879952" y1="0" x2="99.45285660879952" y2="5" style="visibility: inherit;" fill="rgb(0, 0, 0)" stroke="rgb(204, 204, 204)" stroke-width="1px"></line><line x1="119.34342793055943" y1="0" x2="119.34342793055943" y2="5" style="visibility: inherit;" fill="rgb(0, 0, 0)" stroke="rgb(204, 204, 204)" stroke-width="1px"></line><line x1="139.23399925231934" y1="0" x2="139.23399925231934" y2="5" style="visibility: inherit;" fill="rgb(0, 0, 0)" stroke="rgb(204, 204, 204)" stroke-width="1px"></line><line x1="159.12457057407923" y1="0" x2="159.12457057407923" y2="5" style="visibility: inherit;" fill="rgb(0, 0, 0)" stroke="rgb(204, 204, 204)" stroke-width="1px"></line><line x1="179.01514189583915" y1="0" x2="179.01514189583915" y2="5" style="visibility: inherit;" fill="rgb(0, 0, 0)" stroke="rgb(204, 204, 204)" stroke-width="1px"></line><line x1="198.90571321759904" y1="0" x2="198.90571321759904" y2="5" style="visibility: inherit;" fill="rgb(0, 0, 0)" stroke="rgb(204, 204, 204)" stroke-width="1px"></line><line x1="218.79628453935896" y1="0" x2="218.79628453935896" y2="5" style="visibility: inherit;" fill="rgb(0, 0, 0)" stroke="rgb(204, 204, 204)" stroke-width="1px"></line><line x1="238.68685586111886" y1="0" x2="238.68685586111886" y2="5" style="visibility: inherit;" fill="rgb(0, 0, 0)" stroke="rgb(204, 204, 204)" stroke-width="1px"></line><line x1="258.57742718287875" y1="0" x2="258.57742718287875" y2="5" style="visibility: inherit;" fill="rgb(0, 0, 0)" stroke="rgb(204, 204, 204)" stroke-width="1px"></line><line x1="278.4679985046387" y1="0" x2="278.4679985046387" y2="5" style="visibility: inherit;" fill="rgb(0, 0, 0)" stroke="rgb(204, 204, 204)" stroke-width="1px"></line></g><g transform="translate(0, 8)"><text style="text-anchor: middle; visibility: inherit; font-family: Roboto, sans-serif; font-size: 12px; font-weight: 200;" x="0" y="0" dx="0em" dy="0.95em" fill="rgb(50, 49, 63)" stroke="none" stroke-width="1px">-200</text><text style="text-anchor: middle; visibility: hidden; font-family: Roboto, sans-serif; font-size: 12px; font-weight: 200;" x="19.890571321759904" y="0" dx="0em" dy="0.95em" fill="rgb(50, 49, 63)" stroke="none" stroke-width="1px">0</text><text style="text-anchor: middle; visibility: hidden; font-family: Roboto, sans-serif; font-size: 12px; font-weight: 200;" x="39.78114264351981" y="0" dx="0em" dy="0.95em" fill="rgb(50, 49, 63)" stroke="none" stroke-width="1px">200</text><text style="text-anchor: middle; visibility: hidden; font-family: Roboto, sans-serif; font-size: 12px; font-weight: 200;" x="59.671713965279714" y="0" dx="0em" dy="0.95em" fill="rgb(50, 49, 63)" stroke="none" stroke-width="1px">400</text><text style="text-anchor: middle; visibility: hidden; font-family: Roboto, sans-serif; font-size: 12px; font-weight: 200;" x="79.56228528703961" y="0" dx="0em" dy="0.95em" fill="rgb(50, 49, 63)" stroke="none" stroke-width="1px">600</text><text style="text-anchor: middle; visibility: hidden; font-family: Roboto, sans-serif; font-size: 12px; font-weight: 200;" x="99.45285660879952" y="0" dx="0em" dy="0.95em" fill="rgb(50, 49, 63)" stroke="none" stroke-width="1px">800</text><text style="text-anchor: middle; visibility: hidden; font-family: Roboto, sans-serif; font-size: 12px; font-weight: 200;" x="119.34342793055943" y="0" dx="0em" dy="0.95em" fill="rgb(50, 49, 63)" stroke="none" stroke-width="1px">1k</text><text style="text-anchor: middle; visibility: hidden; font-family: Roboto, sans-serif; font-size: 12px; font-weight: 200;" x="139.23399925231934" y="0" dx="0em" dy="0.95em" fill="rgb(50, 49, 63)" stroke="none" stroke-width="1px">1.2k</text><text style="text-anchor: middle; visibility: hidden; font-family: Roboto, sans-serif; font-size: 12px; font-weight: 200;" x="159.12457057407923" y="0" dx="0em" dy="0.95em" fill="rgb(50, 49, 63)" stroke="none" stroke-width="1px">1.4k</text><text style="text-anchor: middle; visibility: hidden; font-family: Roboto, sans-serif; font-size: 12px; font-weight: 200;" x="179.01514189583915" y="0" dx="0em" dy="0.95em" fill="rgb(50, 49, 63)" stroke="none" stroke-width="1px">1.6k</text><text style="text-anchor: middle; visibility: hidden; font-family: Roboto, sans-serif; font-size: 12px; font-weight: 200;" x="198.90571321759904" y="0" dx="0em" dy="0.95em" fill="rgb(50, 49, 63)" stroke="none" stroke-width="1px">1.8k</text><text style="text-anchor: middle; visibility: hidden; font-family: Roboto, sans-serif; font-size: 12px; font-weight: 200;" x="218.79628453935896" y="0" dx="0em" dy="0.95em" fill="rgb(50, 49, 63)" stroke="none" stroke-width="1px">2k</text><text style="text-anchor: middle; visibility: hidden; font-family: Roboto, sans-serif; font-size: 12px; font-weight: 200;" x="238.68685586111886" y="0" dx="0em" dy="0.95em" fill="rgb(50, 49, 63)" stroke="none" stroke-width="1px">2.2k</text><text style="text-anchor: middle; visibility: hidden; font-family: Roboto, sans-serif; font-size: 12px; font-weight: 200;" x="258.57742718287875" y="0" dx="0em" dy="0.95em" fill="rgb(50, 49, 63)" stroke="none" stroke-width="1px">2.4k</text><text style="text-anchor: middle; visibility: hidden; font-family: Roboto, sans-serif; font-size: 12px; font-weight: 200;" x="278.4679985046387" y="0" dx="0em" dy="0.95em" fill="rgb(50, 49, 63)" stroke="none" stroke-width="1px">2.6k</text></g><line x1="0" y1="0" x2="278.4679985046387" y2="0" fill="rgb(0, 0, 0)" stroke="rgb(204, 204, 204)" stroke-width="1px"></line></g></g></g></g></svg>