<svg viewBox="0 0 330 200" xmlns="http://www.w3.org/2000/svg"><g><g><g><g><g><line x1="41.149001121520996" y1="177.89999961853027" x2="36.149001121520996" y2="177.89999961853027" style="visibility: inherit;" fill="rgb(0, 0, 0)" stroke="rgb(204, 204, 204)" stroke-width="1px"></line><line x1="41.149001121520996" y1="155.662499666214" x2="36.149001121520996" y2="155.662499666214" style="visibility: inherit;" fill="rgb(0, 0, 0)" stroke="rgb(204, 204, 204)" stroke-width="1px"></line><line x1="41.149001121520996" y1="133.42499971389768" x2="36.149001121520996" y2="133.42499971389768" style="visibility: inherit;" fill="rgb(0, 0, 0)" stroke="rgb(204, 204, 204)" stroke-width="1px"></line><line x1="41.149001121520996" y1="111.1874997615814" x2="36.149001121520996" y2="111.1874997615814" style="visibility: inherit;" fill="rgb(0, 0, 0)" stroke="rgb(204, 204, 204)" stroke-width="1px"></line><line x1="41.149001121520996" y1="88.94999980926512" x2="36.149001121520996" y2="88.94999980926512" style="visibility: inherit;" fill="rgb(0, 0, 0)" stroke="rgb(204, 204, 204)" stroke-width="1px"></line><line x1="41.149001121520996" y1="66.71249985694881" x2="36.149001121520996" y2="66.71249985694881" style="visibility: inherit;" fill="rgb(0, 0, 0)" stroke="rgb(204, 204, 204)" stroke-width="1px"></line><line x1="41.149001121520996" y1="44.47499990463257" x2="36.149001121520996" y2="44.47499990463257" style="visibility: inherit;" fill="rgb(0, 0, 0)" stroke="rgb(204, 204, 204)" stroke-width="1px"></line><line x1="41.149001121520996" y1="22.237499952316263" x2="36.149001121520996" y2="22.237499952316263" style="visibility: inherit;" fill="rgb(0, 0, 0)" stroke="rgb(204, 204, 204)" stroke-width="1px"></line><line x1="41.149001121520996" y1="0" x2="36.149001121520996" y2="0" style="visibility: inherit;" fill="rgb(0, 0, 0)" stroke="rgb(204, 204, 204)" stroke-width="1px"></line></g><g transform="translate(31.149001121520996, 0)"><text style="text-anchor: end; visibility: hidden; font-family: Roboto, sans-serif; font-size: 12px; font-weight: 200;" x="0" y="177.89999961853027" dx="0em" dy="0.3em" fill="rgb(50, 49, 63)" stroke="none" stroke-width="1px">0.6</text><text style="text-anchor: end; visibility: inherit; font-family: Roboto, sans-serif; font-size: 12px; font-weight: 200;" x="0" y="155.662499666214" dx="0em" dy="0.3em" fill="rgb(50, 49, 63)" stroke="none" stroke-width="1px">0.7</text><text style="text-anchor: end; visibility: hidden; font-family: Roboto, sans-serif; font-size: 12px; font-weight: 200;" x="0" y="133.42499971389768" dx="0em" dy="0.3em" fill="rgb(50, 49, 63)" stroke="none" stroke-width="1px">0.8</text><text style="text-anchor: end; visibility: inherit; font-family: Roboto, sans-serif; font-size: 12px; font-weight: 200;" x="0" y="111.1874997615814" dx="0em" dy="0.3em" fill="rgb(50, 49, 63)" stroke="none" stroke-width="1px">0.9</text><text style="text-anchor: end; visibility: hidden; font-family: Roboto, sans-serif; font-size: 12px; font-weight: 200;" x="0" y="88.94999980926512" dx="0em" dy="0.3em" fill="rgb(50, 49, 63)" stroke="none" stroke-width="1px">1</text><text style="text-anchor: end; visibility: inherit; font-family: Roboto, sans-serif; font-size: 12px; font-weight: 200;" x="0" y="66.71249985694881" dx="0em" dy="0.3em" fill="rgb(50, 49, 63)" stroke="none" stroke-width="1px">1.1</text><text style="text-anchor: end; visibility: hidden; font-family: Roboto, sans-serif; font-size: 12px; font-weight: 200;" x="0" y="44.47499990463257" dx="0em" dy="0.3em" fill="rgb(50, 49, 63)" stroke="none" stroke-width="1px">1.2</text><text style="text-anchor: end; visibility: inherit; font-family: Roboto, sans-serif; font-size: 12px; font-weight: 200;" x="0" y="22.237499952316263" dx="0em" dy="0.3em" fill="rgb(50, 49, 63)" stroke="none" stroke-width="1px">1.3</text><text style="text-anchor: end; visibility: hidden; font-family: Roboto, sans-serif; font-size: 12px; font-weight: 200;" x="0" y="0" dx="0em" dy="0.3em" fill="rgb(50, 49, 63)" stroke="none" stroke-width="1px">1.4</text></g><line x1="41.149001121520996" y1="0" x2="41.149001121520996" y2="177.89999961853027" fill="rgb(0, 0, 0)" stroke="rgb(204, 204, 204)" stroke-width="1px"></line></g></g><g transform="translate(41, 0)" clip-path="url(#clip_0)"><clipPath id="clip_0"><rect width="288" height="177"></rect></clipPath><g><g><g><line x1="0" y1="0" x2="0" y2="177.89999961853027" fill="rgb(0, 0, 0)" stroke="rgb(60, 60, 60)" stroke-width="1px" opacity="0.25"></line><line x1="20.632214205605642" y1="0" x2="20.632214205605642" y2="177.89999961853027" fill="rgb(0, 0, 0)" stroke="rgb(60, 60, 60)" stroke-width="1px" opacity="0.25"></line><line x1="41.264428411211284" y1="0" x2="41.264428411211284" y2="177.89999961853027" fill="rgb(0, 0, 0)" stroke="rgb(60, 60, 60)" stroke-width="1px" opacity="0.25"></line><line x1="61.896642616816926" y1="0" x2="61.896642616816926" y2="177.89999961853027" fill="rgb(0, 0, 0)" stroke="rgb(60, 60, 60)" stroke-width="1px" opacity="0.25"></line><line x1="82.52885682242257" y1="0" x2="82.52885682242257" y2="177.89999961853027" fill="rgb(0, 0, 0)" stroke="rgb(60, 60, 60)" stroke-width="1px" opacity="0.25"></line><line x1="103.16107102802822" y1="0" x2="103.16107102802822" y2="177.89999961853027" fill="rgb(0, 0, 0)" stroke="rgb(60, 60, 60)" stroke-width="1px" opacity="0.25"></line><line x1="123.79328523363385" y1="0" x2="123.79328523363385" y2="177.89999961853027" fill="rgb(0, 0, 0)" stroke="rgb(60, 60, 60)" stroke-width="1px" opacity="0.25"></line><line x1="144.4254994392395" y1="0" x2="144.4254994392395" y2="177.89999961853027" fill="rgb(0, 0, 0)" stroke="rgb(60, 60, 60)" stroke-width="1px" opacity="0.25"></line><line x1="165.05771364484514" y1="0" x2="165.05771364484514" y2="177.89999961853027" fill="rgb(0, 0, 0)" stroke="rgb(60, 60, 60)" stroke-width="1px" opacity="0.25"></line><line x1="185.6899278504508" y1="0" x2="185.6899278504508" y2="177.89999961853027" fill="rgb(0, 0, 0)" stroke="rgb(60, 60, 60)" stroke-width="1px" opacity="0.25"></line><line x1="206.32214205605644" y1="0" x2="206.32214205605644" y2="177.89999961853027" fill="rgb(0, 0, 0)" stroke="rgb(60, 60, 60)" stroke-width="1px" opacity="0.25"></line><line x1="226.95435626166207" y1="0" x2="226.95435626166207" y2="177.89999961853027" fill="rgb(0, 0, 0)" stroke="rgb(60, 60, 60)" stroke-width="1px" opacity="0.25"></line><line x1="247.5865704672677" y1="0" x2="247.5865704672677" y2="177.89999961853027" fill="rgb(0, 0, 0)" stroke="rgb(60, 60, 60)" stroke-width="1px" opacity="0.25"></line><line x1="268.21878467287337" y1="0" x2="268.21878467287337" y2="177.89999961853027" fill="rgb(0, 0, 0)" stroke="rgb(60, 60, 60)" stroke-width="1px" opacity="0.25"></line><line x1="288.850998878479" y1="0" x2="288.850998878479" y2="177.89999961853027" fill="rgb(0, 0, 0)" stroke="rgb(60, 60, 60)" stroke-width="1px" opacity="0.25"></line></g><g><line x1="0" y1="177.89999961853027" x2="288.850998878479" y2="177.89999961853027" fill="rgb(0, 0, 0)" stroke="rgb(60, 60, 60)" stroke-width="1px" opacity="0.25"></line><line x1="0" y1="155.662499666214" x2="288.850998878479" y2="155.662499666214" fill="rgb(0, 0, 0)" stroke="rgb(60, 60, 60)" stroke-width="1px" opacity="0.25"></line><line x1="0" y1="133.42499971389768" x2="288.850998878479" y2="133.42499971389768" fill="rgb(0, 0, 0)" stroke="rgb(60, 60, 60)" stroke-width="1px" opacity="0.25"></line><line x1="0" y1="111.1874997615814" x2="288.850998878479" y2="111.1874997615814" fill="rgb(0, 0, 0)" stroke="rgb(60, 60, 60)" stroke-width="1px" opacity="0.25"></line><line x1="0" y1="88.94999980926512" x2="288.850998878479" y2="88.94999980926512" fill="rgb(0, 0, 0)" stroke="rgb(60, 60, 60)" stroke-width="1px" opacity="0.25"></line><line x1="0" y1="66.71249985694881" x2="288.850998878479" y2="66.71249985694881" fill="rgb(0, 0, 0)" stroke="rgb(60, 60, 60)" stroke-width="1px" opacity="0.25"></line><line x1="0" y1="44.47499990463257" x2="288.850998878479" y2="44.47499990463257" fill="rgb(0, 0, 0)" stroke="rgb(60, 60, 60)" stroke-width="1px" opacity="0.25"></line><line x1="0" y1="22.237499952316263" x2="288.850998878479" y2="22.237499952316263" fill="rgb(0, 0, 0)" stroke="rgb(60, 60, 60)" stroke-width="1px" opacity="0.25"></line><line x1="0" y1="0" x2="288.850998878479" y2="0" fill="rgb(0, 0, 0)" stroke="rgb(60, 60, 60)" stroke-width="1px" opacity="0.25"></line></g></g></g><g><g><line x1="0" y1="311.324999332428" x2="288.850998878479" y2="311.324999332428" fill="rgb(0, 0, 0)" stroke="rgb(153, 153, 153)" stroke-width="1.5px"></line></g></g><g><g><line x1="20.632214205605642" y1="0" x2="20.632214205605642" y2="177.89999961853027" fill="rgb(0, 0, 0)" stroke="rgb(153, 153, 153)" stroke-width="1.5px"></line></g></g><g><g><g><g><g><path style="fill: none;" stroke="rgb(255, 112, 67)" stroke-width="2px" d="M21.148019560745784,127.90869151642625L21.25118063177381,134.28475889341945L21.663824915885925,112.02643089248345L21.766985986913955,127.5975550466158L22.076469199998037,122.47947217570876L22.179630271026067,107.44033855160905L22.489113484110153,117.79293544195252L22.59227455513818,125.51618742383725L22.69543562616621,104.40088439567398L23.10807991027832,111.78451705941492L24.036529549530574,129.65238293173888L24.34601276261466,97.90420682121702L24.75865704672677,121.2904681684755L24.964979188782827,113.35326177832515L25.171301330838887,104.52909015179243L25.274462401866913,131.3185404436928L25.48078454392297,133.10079826228002L25.687106685979025,123.49588274895606L26.09975097009114,114.2486254617853L26.20291204111917,124.66916528833833L26.306073112147192,124.7492141779471L26.409234183175222,139.00642175793448L26.512395254203252,146.08804102446098L27.13136168037142,131.94773589356817L27.337683822427476,115.67567374101115L27.440844893455505,139.20068132622228L27.544005964483535,101.45444850066485L27.64716703551156,79.15486271192019L27.956650248595643,95.28634295947091L28.059811319623673,100.8536388883791L28.162972390651703,116.48496545923744L28.26613346167973,53.34802694495672L28.781938816819874,53.816063899282135L29.297744171960012,69.64806972033357L29.607227385044098,89.12826558374978L29.710388456072124,71.48744752536612L30.329354882240295,92.63824037250725L31.154643450464523,115.62592045698688L31.464126663548605,114.83378455569932L31.567287734576635,128.43796629585472L32.28941523177283,124.97213434860562L32.598898444856914,121.64648171621408L32.805220586912974,129.10373905200518L33.52734808410917,124.15766377899762L33.6305091551372,118.01822344773355L33.93999236822128,120.3111566950649L34.04315343924931,85.76582540390308L34.76528093644551,94.63515051077765L34.971603078501566,106.19676459979814L35.177925220557626,101.82869786760492L35.281086291585645,112.31823612226796L35.38424736261368,117.44673809271187L36.106374859809875,110.65890921473719L36.62218021495001,123.47780455998723L36.82850235700607,115.14292490411506L36.931663428034106,112.58655573176746L37.03482449906213,120.79185178813049L37.34430771214621,121.47688715820435L37.653790925230304,113.37114435672892L37.86011306728635,91.34674637108483L37.96327413831438,103.79628302613408L38.27275735139847,122.10593689224852L38.89172377756664,126.81624092326176L38.994884848594666,120.56693093457709L39.20120699065072,128.87541539335362L39.51069020373481,119.56275043171081L39.71701234579086,115.33717648325194L39.82017341681889,113.89812396382325L40.02649555887495,121.49359226877979L40.23281770093101,128.82010022900522L40.335978771959034,125.8495638128121L41.05810626915523,132.96258868391027L41.883394837379456,103.29467391940567L41.98655590840748,119.8511769917736L42.089716979435515,64.70846489585828L42.50236126354762,107.97161009574974L43.53397197382791,121.57954494376375L43.637133044855936,99.0597980953783L43.84345518691199,121.99891173045685L44.04977732896805,111.92364152115395L44.25609947102411,-19.39786787164726L44.565582684108186,39.405978915715295L44.66874375513621,75.95351644899708L44.771904826164246,88.89219767607295L45.08138803924833,102.56892794874385L46.112998749528614,120.30615107814243L46.319320891584674,102.25485265601628L46.93828731775284,110.53259068999546L47.24777053083692,115.16792195737675L47.35093160186495,86.08921776049536L47.454092672892976,15.415895591198119L47.55725374392101,62.03453721292209L47.76357588597707,73.32091161012801L48.176220170089174,95.60353540261362L48.38254231214523,111.21583811524961L48.588864454201286,112.7565264154977L48.795186596257345,124.23904172443399L49.31099195139748,125.20918675324862L49.929958377565654,116.51171380563228L50.65208587476185,72.62273537580174L50.75524694578988,86.212385153321L51.27105230093002,89.9510098493321L51.37421337195805,96.0701109922935L51.683696585042135,103.68742388072702L51.78685765607017,106.6139623427959L51.89001872709819,-178.72690285947328L53.437434792518616,-16.152753448566415L53.54059586354664,52.26499424220844L53.643756934574675,76.85954806073175L53.85007907663073,111.41300189002038L54.15956228971481,101.26297771288588L54.26272336074284,119.4756650151594L54.36588443177087,115.96503378503391L54.67536764485495,83.74754584584059L54.984850857939044,47.39007810104941L55.60381728410721,71.99533626423933L55.81013942616327,84.58587946830374L56.119622639247346,90.70871044256376L56.22278371027538,-131.95669691020566L56.42910585233144,-46.296627666247176L56.53226692335946,18.155374158657313L57.0480722784996,59.09991117346993L57.15123334952764,68.12863582418004L57.56387763363975,79.67664536766667L57.7701997756958,77.62949000002963L58.079682988779886,85.07293868752276L58.492327272892005,110.15825052991721L58.90497155700411,100.26452477838168L59.11129369906017,74.34779034710535L59.52393798317228,68.20057197194912L59.62709905420031,20.97813616249487L59.73026012522834,-214.29932888462278L60.96819297756468,-4.51169728117137L61.07135404859271,62.684611409296046L61.174515119620736,99.87934120796717L62.20612582990101,104.11052346055314L62.72193118504115,109.25078401442624L63.444058682237355,123.01705785454806L63.54721975326538,117.99167423705525L64.06302510840553,114.72639901194471L64.16618617943355,107.64586453194313L64.3725083214896,125.95064601766673L64.57883046354566,126.5092361506356L64.99147474765778,125.01742624638797L65.91992438691003,-71.80250821700889L66.12624652896609,26.946609740948652L66.22940759999412,71.4544925210483L66.5388908130782,76.53486333409559L67.15785723924637,-1.5769941746765324L67.98314580747059,20.445822237184178L68.08630687849862,47.46834857440857L68.18946794952664,75.4113961344572L68.39579009158271,107.26875485982639L68.49895116261074,113.55217189854132L68.80843437569482,126.95834627093409L68.91159544672284,-234.17348721748453L69.53056187289101,-8.147430798366614L70.66533365419933,41.34749970776435L70.97481686728341,75.53296343978842L71.07797793831145,110.31879119225162L71.28430008036749,120.3415814367956L71.49062222242355,108.94898745931083L71.80010543550765,72.15420348570369L72.93487721681595,78.63237018115532L73.34752150092807,92.94139111080301L73.4506825719561,102.76572543340822L73.65700471401215,106.1504753306635L73.96648792709622,-93.80082520121863L74.17281006915229,-4.920150845954086L74.68861542429242,50.86184141021586L74.79177649532046,78.02469180637976L75.41074292148862,94.1691684626253L75.61706506354469,40.490210995597934L75.7202261345727,32.43080962553701L75.82338720560074,44.75889926882498L75.92654827662876,68.69320978212731L76.0297093476568,73.66476917633307L76.13287041868482,85.13572759891598L76.33919256074088,83.72962879252297L76.54551470279694,92.40910098994145L77.06132005793708,101.91857507899728L77.16448112896511,100.2994907485938L77.26764219999313,75.23862048540992L77.4739643420492,89.66132593654964L77.8866086261613,80.2636017428748L78.09293076821736,115.13614171429644L78.29925291027341,121.52157796394096L78.71189719438553,124.26381667731792L78.81505826541355,47.47160833968581L78.91821933644158,81.43347748902306L79.3308636205537,91.31822347529192L79.74350790466582,117.49492149430237L79.84666897569383,115.8316047511605L80.15615218877792,122.61892722494022L80.36247433083398,123.27552987852935L80.46563540186202,121.47393344299729L80.56879647289003,129.2880625126681L80.67195754391807,125.93941156792168L80.7751186149461,138.11251331582903L80.87827968597414,124.53679052009943L81.08460182803017,103.69437838430346L81.18776289905821,119.24016148818L81.70356825419834,136.50067945065592L81.80672932522637,137.32148957016832L82.11621253831046,128.02348331896687L82.21937360933849,115.10307216235195L82.52885682242257,119.25494128961022L82.73517896447862,118.44395914333758L83.14782324859074,135.10297335338808L83.3541453906468,101.5141164517071L83.56046753270286,115.91663440208033L83.76678967475891,119.16611724550044L84.076272887843,115.15191800028384L84.48891717195511,112.59327704775508L84.59207824298313,115.36796324055004L84.7984003850392,120.37403791843707L85.10788359812328,116.69358215630622L85.5205278822354,45.4676460178611L86.03633323737554,82.55738542338132L86.75846073457174,98.10148353092546L86.86162180559975,108.7350987527984L87.06794394765582,117.635579099018L87.17110501868383,124.02364208131941L87.27426608971187,110.05475861613823L87.3774271607399,100.1712124365777L87.58374930279595,114.90188842873548L87.89323251588003,112.22372099810686L88.30587679999215,121.52248454010176L88.40903787102017,117.2046092705836L88.8216821551323,119.84291777941047L89.13116536821637,114.79908332110328L89.54380965232849,110.21323252207601L89.85329286541257,129.01173859336348L89.95645393644061,106.07771533718119L90.05961500746864,96.03857323609186L90.16277607849666,122.98697620849362L90.26593714952469,125.46833369094085L90.47225929158074,123.35750038005293L90.57542036260877,121.59813668286226L90.67858143363681,58.585349392451874L90.88490357569286,91.67954227399578L90.98806464672089,121.20380758677439L91.09122571774891,120.31246877082476L91.19438678877695,130.31506945345842L91.400708930833,114.22929903261938L91.60703107288904,124.62176159034162L91.71019214391708,90.29808834925184L92.43231964111328,106.5970508436996L92.74180285419736,123.41780353913094L92.8449639252254,132.5739885364501L92.94812499625343,119.39934593681906L93.15444713830948,106.2006163633525L93.46393035139356,112.55629926084124L93.67025249344962,121.00822979641596L93.87657463550568,114.1386207240271L94.28921891961778,115.94967018782063L94.7018632037299,69.25598872978603L95.01134641681398,54.62661163435015L95.11450748784202,65.14163512934444L95.21766855887005,94.73015025693594L95.32082962989807,94.6742374546931L95.4239907009261,92.83603590317747L95.93979605606624,99.86477504372816L96.55876248223441,97.41692503100747L96.76508462429047,103.36998084453394L96.86824569531849,107.53846672888383L96.97140676634652,89.39376935105612L97.28088997943061,88.91595510154441L97.59037319251469,99.35627468084361L97.69353426354272,100.17987371004402L98.00301747662681,116.21631986875316L98.10617854765484,128.54189978910188L98.20933961868286,129.83700094347876L98.41566176073891,143.14024684164596L98.62198390279497,136.14071964355549L99.24095032896315,118.4480394494917L99.55043354204723,83.34575061265944L99.65359461307524,96.29414709754322L99.96307782615935,84.4996168645252L100.06623889718736,79.48944724657015L100.1693999682154,73.08624890877502L100.37572211027145,7.992643959129439L100.47888318129948,56.63399164278179L101.09784960746765,10.953072467345033L101.51049389157976,31.770991960909036L101.6136549626078,85.00974572926727L101.81997710466385,96.1510753976634L102.0262992467199,99.41836457408459L102.23262138877597,106.2177105844289L102.33578245980398,100.77507741734898L102.43894353083202,101.66182430961648L102.54210460186005,113.72758629744641L102.64526567288807,115.15319111494425L102.95474888597217,74.50922385692184L103.16107102802822,89.39545674957196L103.36739317008427,90.89865492124844L103.67687638316836,100.09259314090927L103.88319852522442,118.07286594616794L103.98635959625244,123.25482885093919L104.08952066728048,123.55466594700256L104.50216495139257,126.46498576329705L104.70848709344864,138.81561800351702L104.81164816447668,138.79801247621523L105.01797030653272,119.61716041464882L105.32745351961681,114.367335957139L105.74009780372891,120.1470219400411L106.04958101681301,115.30107669724767L106.35906422989709,112.88381777865536L106.46222530092511,116.31767547418717L106.66854744298116,116.60606443731818L106.87486958503723,114.91975023434016L107.08119172709328,44.629470048162254L107.59699708223343,151.30768176186857L107.90648029531751,135.77970500815906L108.00964136634555,133.94102735788596L108.11280243737357,116.51605321625112L108.42228565045765,126.86110917312381L109.24757421868189,131.4674026815289L109.3507352897099,121.45161367337016L109.45389636073794,115.27422591105355L109.66021850279398,128.05688135724407L110.0728627869061,117.23499018053307L110.27918492896217,121.97251124278021L110.38234599999018,129.4661524364202L110.7949902841023,43.4729447888997L111.00131242615836,68.2447042966435L111.10447349718638,91.98131618789256L111.41395671027048,68.68108767770246L111.62027885232654,90.2369325558213L111.82660099438257,108.9526081030397L112.13608420746668,116.57064327793886L112.34240634952272,88.89663243400292L112.44556742055076,99.48424653593298L112.65188956260681,80.72031361233043L112.75505063363484,82.48842003893273L113.06453384671892,85.3293690702868L113.37401705980301,106.51357329258597L113.47717813083104,104.01140284384502L114.19930562802723,115.3759265130129L114.30246669905527,59.042613412839195L114.40562777008329,90.90814591008542L114.50878884111131,124.9986121744645L114.71511098316738,143.1225984197839L114.8182720541954,113.73280687807441L115.02459419625146,103.78998318129256L115.1277552672795,110.93945481244295L115.23091633830751,117.6406818973331L115.5403995513916,114.72265992995636L115.64356062241963,127.94083566947309L115.74672169344765,139.3439752594852L115.8498827644757,105.24818386063899L116.05620490653175,113.42052315557348L116.6751713326999,125.930615191832L116.77833240372794,67.01461557979061L117.08781561681202,100.13267692730953L117.80994311400822,121.65989123852525L118.1194263270923,124.6870603875843L118.8415538242885,125.62220251075178L118.94471489531654,111.36850798346032L119.04787596634456,105.75872383123347L119.25419810840062,121.58278007503846L119.35735917942864,125.63898041869031L119.46052025045668,124.19954715825966L119.77000346354076,114.5724659952448L119.87316453456879,95.61469900645176L120.07948667662484,77.46549427275374L120.2858088186809,93.7848889830482L120.38896988970892,110.27101797104504L120.80161417382104,118.47893389296348L120.90477524484908,124.19061333196031L121.31741952896118,123.43786782000247L121.42058059998921,116.87044994755738L121.52374167101723,121.60290753545678L121.62690274204527,125.65968827929548L121.93638595512935,72.71887712055138L122.03954702615738,113.30300930505464L122.14270809718542,87.6689244454084L122.4521913102695,66.07025034072585L122.55535238129751,92.85168374777028L123.38064094952175,105.06133944837016L123.79328523363385,117.8906371391651L123.9996073756899,117.75459293039273L124.20592951774597,127.12788450118632L124.30909058877401,114.95470306743518L124.61857380185809,85.60287190250533L124.7217348728861,110.03054896870678L124.92805701494217,120.36969221905694L125.03121808597021,98.54351033929899L125.13437915699822,123.72678730621129L125.23754022802625,119.28095784979566L125.54702344111034,126.80317523256963L126.37231200933456,122.90301604647641L126.57863415139062,132.46457100363693L126.78495629344668,119.0806230157926L126.99127843550274,112.92851874459117L127.09443950653076,-7.913374368840555L127.19760057755879,24.7474749489993L127.40392271961484,76.26963552979994L127.6102448616709,108.76815878022704L127.71340593269892,99.52267921056286L127.81656700372696,105.30018128446368L128.12605021681105,115.9904566931305L128.3323723588671,127.04503548984354L129.0544998560633,121.66425301610504L129.1576609270913,116.76738677342603L129.4671441401754,118.62586198001102L129.6734662822315,115.29259245799636L130.29243270839964,124.15861052409625L130.39559377942766,133.2016351569653L130.6019159214837,135.82243558573072L130.80823806353976,145.00920713101254L131.2208823476519,151.99796313389078L131.633526631764,140.46617050421153L131.83984877382005,118.45890489194306L132.0461709158761,129.8930230296474L132.3556541289602,143.15657611730617L132.45881519998824,114.85793646826178L132.56197627101625,104.53911163889093L132.6651373420443,-154.89696309821448L133.28410376821245,-41.6299081892665L133.3872648392405,37.029577788613274L134.00623126540864,-288.3051149952314L134.41887554952078,-37.04454843091493L134.5220366205488,28.38991647781728L134.62519769157683,74.98874073190932L135.55364733082908,101.37288186538647L135.75996947288513,108.93474952030395L136.06945268596922,48.51422400777839L136.48209697008133,62.92637465083148L136.68841911213738,87.91770558916139L136.79158018316542,-102.32039108306279L137.20422446727753,-10.174849003885432L137.30738553830557,14.60472099969523L137.51370768036162,3.97384789891592L137.61686875138963,24.488225824568318L137.72002982241767,61.341413412758385L138.02951303550176,77.71995541755881L138.13267410652978,101.61403685703624L139.16428481681007,94.07390805950737L139.37060695886612,116.5237763885095L139.47376802989416,125.79351624746104L139.78325124297822,126.10546377888282L139.88641231400626,118.54301702061211L139.9895733850343,106.63463832798314L140.29905659811837,63.379398184293855L140.4022176691464,74.77881907705128L140.50537874017442,85.56703305209768L142.05279480559486,76.97722550357643L142.36227801867895,95.75248622354094L142.56860016073497,75.19565840883679L142.671761231763,59.71683241052292L142.8780833738191,78.30057909574502L142.9812444448471,90.87704673108125L143.2907276579312,37.28795592008935L143.6002108710153,72.05413860944454L143.7033719420433,105.78627494373112L143.80653301307132,128.97316389759712L143.90969408409936,142.90751725261234L144.1160162261554,118.63771089787124L144.3223383682115,138.1636981760157L144.5286605102675,147.98587338227912L144.7349826523236,134.04296361279222L144.8381437233516,118.56602271169828L145.04446586540766,62.611648950805446L145.25078800746374,94.69483209330514L145.4571101495198,98.89757752919216L145.5602712205478,120.56301497386904L145.66343229157584,125.90253883896443L145.76659336260388,126.14699257548283L145.8697544336319,131.5102921983807L146.9013651439122,145.4641235588055L147.3140094280243,146.07796364025674L147.72665371213643,118.99753762196234L147.82981478316444,118.58821692010231L147.93297585419245,101.33393554021579L148.13929799624853,101.92289231202435L148.4487812093326,130.1351886687587L148.7582644224167,118.73426229747547L148.96458656447274,130.77625943347385L149.17090870652882,130.75354430445373L149.27406977755683,140.28626343562212L149.48039191961288,117.04391033010579L149.893036203725,137.20171306289632L149.996197274753,91.81155516590569L150.09935834578107,109.92227377568922L150.30568048783712,116.78818553738164L150.40884155886513,128.24089948193L150.71832477194923,139.8873799831385L150.82148584297724,101.38664801375832L150.92464691400528,109.07586254418433L151.02780798503332,81.13949713644139L151.23413012708937,69.71849011045353L151.74993548222952,105.77781525824459L152.0594186953136,125.27262555741748L152.57522405045373,123.02837860443587L152.78154619250978,135.13173812091506L153.1941904766219,135.73912615237262L153.40051261867794,125.99415608304979L153.81315690279007,123.76481096166113L153.91631797381808,117.0188834287805L154.01947904484615,85.44160073698573L154.12264011587416,110.84788062313734L154.32896225793021,109.71741406258998L154.6384454710143,111.4000245186286L154.74160654204232,129.65906250313907L154.9479286840984,98.44037493591857L155.0510897551264,126.58309864720857L155.15425082615442,128.64851339198754L155.7732172523226,142.26447286264042L155.97953939437866,148.5774897284079L156.0827004654067,126.00318048303362L156.28902260746273,149.15724241878573L156.3921836784908,149.88048805130668L156.70166689157486,133.72641512082012L156.80482796260287,146.69589366148006L157.32063331774302,140.34041237298723L157.42379438877106,143.81521430205626L157.5269554597991,126.93311610978566L157.83643867288316,140.65087174630708L158.04276081493924,130.97975828227965L158.14592188596725,127.9484538198707L158.24908295699527,126.83652744233652L158.35224402802334,141.43193364046454L158.45540509905135,147.4759165327304L158.55856617007936,157.52443795960312L159.17753259624752,157.49968975604853L159.69333795138766,119.14936370702706L159.79649902241573,110.01732073421286L159.89966009344374,100.6236879202293L160.4154654485839,114.9268596851838L160.828109732696,110.12320870655863L161.03443187475204,117.91100503295398L161.13759294578006,113.52738305747053L161.5502372298922,128.50311322149798L161.9628815140043,136.24894561862257L162.6850090112005,138.48914771904361L162.89133115325654,143.3782919927966L163.2008143663406,124.12914197407936L163.4071365083967,119.58583889505222L163.51029757942473,64.37416369649749L163.81978079250882,87.86739107082913L163.92294186353683,113.23008344556166L164.1292640055929,135.87755528893385L164.23242507662093,135.593341324661L164.541908289705,127.77065066394563L166.29564649718148,137.38188575716825L166.39880756820952,146.39281851232593L166.50196863923753,124.66211488981331L166.60512971026554,131.508138385638L167.01777399437768,132.20104322641492L167.32725720746177,134.7465961257801L167.43041827848978,139.12979739984755L167.73990149157387,142.76081559988077L167.84306256260192,123.55371377824893L167.94622363362993,135.61910565280368L168.35886791774206,119.88397614972874L168.46202898877007,124.92234260471514L168.56519005979808,139.1903862137939L168.77151220185416,136.0849526982367L168.97783434391022,139.48478523554044L169.18415648596627,129.10653500630397L169.39047862802232,133.52931347789922L170.00944505419048,125.44911185976518L170.21576719624656,79.61000580379446L170.7315725513867,107.76350050571455L170.83473362241472,112.44083649821836L171.76318326166697,129.71128572710936L171.866344332695,136.64511956172302L173.00111611400334,134.76722571974582L173.41376039811541,123.64682554383893L173.51692146914348,-3.8188657400427375L173.82640468222755,50.97640701986916L173.92956575325556,96.96231600510154L174.23904896633965,112.47953552384217L174.44537110839573,112.56080192902014L174.54853217942374,126.30582443914352L174.65169325045176,126.60617473756042L175.37382074764795,134.95126097270153L175.476981818676,147.67612229389468L175.58014288970404,149.88833475325058L175.68330396073205,152.33004923502233L175.99278717381614,119.54432921715924L176.1991093158722,132.7116935221481L176.3022703869002,128.82735115159346L176.40543145792827,135.88220450933218L176.50859252895629,141.44823065638215L177.02439788409643,140.49189819412922L177.23072002615245,151.30885394042213L177.7465253812926,137.6971535417367L177.84968645232067,138.61671184291666L178.15916966540473,119.7857295299627L178.88129716260093,133.19401659661304L179.08761930465698,98.7433276004835L180.11923001493727,111.26321145212117L180.32555215699333,123.94499107028403L180.42871322802137,126.3806626076299L180.6350353700774,139.47650891036034L180.73819644110543,140.18078871945175L180.94451858316148,130.93590922554336L181.04767965418952,144.14249317113806L181.66664608035768,135.67195074182322L181.76980715138572,138.36663513319976L182.3887735775539,142.13450551015544L182.49193464858192,143.6880321190966L183.42038428783417,143.67664976411677L183.8330285719463,128.5380704555782L184.03935071400232,84.7083891428101L184.45199499811446,98.30601054539962L185.07096142428261,93.1120703734927L185.3804446373667,111.44358300558319L185.58676677942276,129.42354682795047L185.89624999250685,130.3367336515136L186.10257213456288,91.13095476260342L186.20573320559095,105.485829899028L186.61837748970302,118.73975173404128L186.7215385607311,124.72982216375225L186.92786070278711,136.29806535057244L187.03102177381516,153.33647442262748L187.2373439158712,149.5645731269899L187.54682712895527,138.2334155270442L187.64998819998334,125.24098694546204L187.75314927101135,122.98654453642315L188.16579355512349,132.10469203894715L188.3721156971795,130.75599692750316L188.47527676820755,139.2089392091718L188.57843783923556,132.63291118200002L188.78475998129164,111.26363092694888L188.99108212334767,123.8448260354825L189.19740426540375,131.593289664205L189.5068874784878,136.94266577375376L189.8163706915719,135.74833964607663L189.91953176259995,140.03244359210728L190.02269283362796,132.70464327455147L190.33217604671205,143.5030380746096L190.53849818876813,154.28330903276935L190.64165925979614,148.61836961306082L190.9511424728802,150.5467833347133L191.05430354390828,141.1682620297683L191.36378675699234,136.75927192020424L191.77643104110444,125.14337764887244L191.87959211213249,117.78543409196736L191.9827531831605,131.10637078610964L192.7048806803567,142.12322567044626L192.91120282241275,113.79293274092164L193.01436389344082,133.5288260134013L193.11752496446883,148.82840311587162L193.4270081775529,140.26199133411362L193.53016924858093,131.70129018373012L193.73649139063698,135.7394531622054L194.14913567474912,152.9545979596315L194.25229674577713,148.37829140667554L194.35545781680514,138.49401329665503L194.66494102988923,147.83264635038427L195.07758531400137,145.12862771768303L195.18074638502938,135.35791931420448L195.38706852708543,127.64820836165738L195.49022959811347,136.97136693749695L195.5933906691415,120.97962781725295L195.69655174016953,130.67322591150744L195.9028738822256,144.5066259784956L196.21235709530967,127.90655365176114L196.31551816633768,135.2134143939767L196.41867923736572,147.15758967612524L196.52184030839376,151.02078240483053L196.93448459250587,142.75019500203345L197.0376456635339,137.64849447989977L197.55345101867402,133.20838253721055L197.75977316073008,142.68274040667532L197.86293423175815,146.1567239890477L197.96609530278616,154.9109368706843L198.37873958689826,162.69280483460193L198.68822279998233,166.65635235666156L198.8945449420384,159.2607370378821L199.20402815512247,152.63478172950988L199.30718922615048,154.98699941708162L199.41035029717855,158.17874922050524L199.51351136820657,158.04986820088482L199.6166724392346,145.3072873002725L199.82299458129066,152.28223288563038L200.0293167233467,158.5723567076366L200.3387999364308,151.91586426826933L200.44196100745884,154.2739519418683L200.64828314951487,152.534728104708L200.7514442205429,139.44497824932876L200.85460529157095,118.24134576670839L201.164088504655,128.8232890208398L201.3704106467111,128.03718961145486L201.4735717177391,120.1843867901944L201.57673278876712,141.4594811850273L201.67989385979516,151.52912296567013L202.40202135699136,147.00350628993837L202.5051824280194,143.6745498332117L202.8146656411035,91.65368042807022L203.33047099624363,19.71351575202847L203.74311528035574,23.13188492107713L204.3620817065239,78.86457138818288L204.46524277755194,73.34179618358564L204.67156491960796,44.35805467410664L205.0842092037201,88.12862229534402L205.18737027474813,104.97062862961083L205.29053134577615,120.85865317599442L205.4968534878322,127.07029358738734L205.6000145588602,124.94247409983882L205.70317562988828,137.00178021053483L206.11581991400035,139.79221684003736L206.5284641981125,128.4521697403683L206.73478634016854,134.8798999423989L206.83794741119658,135.9514320961072L207.66323597942082,136.22069939585873L207.76639705044883,146.3713481644292L208.0758802635329,130.07657081660085L208.385363476617,141.49301362485406L208.79800776072912,146.67559063449667L209.00432990278514,141.8143661973311L209.41697418689728,135.6991522411529L209.93277954203742,125.19614121050517L210.03594061306543,136.38429745429787L210.44858489717754,138.60304992359866L210.5517459682056,143.42261070956596L210.86122918128967,149.21335243003313L210.96439025231768,163.23342987955223L211.06755132334575,148.4861466686518L211.37703453642982,158.77045958482495L211.6865177495139,158.83959702057336L211.78967882054192,166.71861505813007L211.99600096259798,147.05460319632172L212.20232310465406,154.24893173434967L212.30548417568207,154.63970167828478L212.40864524671008,141.94102563267018L213.1307727439063,150.99311090661934L213.33709488596233,122.21008467424247L213.44025595699037,138.29612122580514L214.05922238315856,145.97218999709287L214.16238345418657,135.59850376529695L214.2655445252146,128.19467126508943L214.36870559624262,140.66513995854115L214.47186666727066,145.04963429575477L214.6781888093267,150.88624866385925L214.9876720224108,158.89329624346743L215.709799519607,149.47931255694414L215.81296059063502,160.92558583002165L215.91612166166308,115.1352037161393L216.8445713009153,135.6450032207459L217.1540545139994,147.45661422706948L217.2572155850274,141.5500496375742L217.66985986913954,138.29142373254848L217.77302094016756,145.73092155560428L217.8761820111956,141.68117517346525L217.97934308222364,137.45622737733274L218.2888262953077,142.9592194740053L218.39198736633574,129.56967759958326L218.49514843736378,133.53387893176122L218.5983095083918,144.9741338813586L219.0109537925039,141.53126343440698L219.11411486353194,156.62027972255274L219.21727593455995,139.45127343388134L219.52675914764404,137.80901441320987L219.7330812897001,152.27102702326533L219.93940343175618,129.70763345940253L220.1457255738122,139.25516789903358L220.24888664484024,135.98542795889045L220.35204771586828,136.63528820759194L220.55836985792433,121.21068969114549L220.66153092895235,116.8131997119402L221.1773362840925,122.0836728984388L221.48681949717658,130.15454238397618L221.69314163923264,128.34147676507004L222.00262485231673,109.06760746207664L222.31210806540082,113.31535640086977L222.41526913642883,105.0681268226326L222.62159127848489,125.64729386740552L222.82791342054097,134.21689866369906L223.44687984670912,148.32769844112153L223.55004091773714,135.81016425571477L223.75636305979322,128.93521159596256L223.96268520184927,128.92964771065175L224.89113484110152,141.4862195456188L224.99429591212953,147.58522680871164L225.09745698315754,143.081690279573L225.2006180541856,147.48828744541458L226.43855090652193,151.98541669016643L226.644873048578,148.43495369656077L226.85119519063406,117.43254678426048L227.05751733269008,110.3291828688064L227.47016161680222,122.09323293120949L227.57332268783023,136.30178406697738L227.6764837588583,137.77005289506937L227.7796448298863,116.23603007336672L227.88280590091432,129.33790944814857L227.98596697194236,132.38785677785327L228.08912804297037,145.54658606439833L228.29545018502645,149.9257804427759L228.39861125605447,118.94979615277869L228.50177232708248,110.19196978867333L228.70809446913856,128.71811104082292L229.2238998242787,124.53221227554344L229.53338303736277,128.37497835651098L229.73970517941885,135.90243997522438L229.84286625044686,137.1917547352785L230.0491883925029,116.38797488343067L230.358671605587,129.41492043969942L230.6681548186711,140.31545041080398L230.87447696072715,130.2016395260275L231.18396017381124,122.28612540486621L231.4934433868953,132.17365660946962L231.59660445792335,129.7037400385739L231.9060876710074,132.28022142361766L232.1124098130635,125.41163449792205L232.2155708840915,146.90258318382408L233.04085945231574,135.89915541599376L233.14402052334378,143.89126927947382L233.3503426653998,118.64838692230263L233.86614802053995,109.00412587450862L234.3819533756801,115.87867019932254L234.48511444670814,125.12630367075714L234.58827551773618,119.78833816355377L234.7945976597922,136.7339138768436L234.89775873082024,148.94560905131024L235.1040808728763,152.22457051586673L235.31040301493235,128.80298480470336L235.61988622801644,133.4882280239996L235.72304729904448,154.20260940929776L236.13569158315659,140.70969590785933L236.65149693829673,130.75636043474253L236.85781908035278,132.8059955809822L237.47678550652097,139.93955873767052L237.57994657754898,147.18494298383902L237.683107648577,140.5884052563808L237.78626871960503,130.1620447177357L237.88942979063307,130.48274946713943L238.19891300371714,138.1881190643064L238.40523514577322,146.10693379413652L238.71471835885728,137.6670550047332L238.8178794298853,102.09555274949219L239.1273626429694,123.51477746432103L239.33368478502547,128.0382723222007L239.54000692708152,133.57777443814635L239.64316799810953,120.4954249147939L239.74632906913757,111.02429047949025L240.15897335324968,127.73429442667323L240.5716176373618,125.32106165296092L240.67477870838982,134.35185057356102L240.77793977941784,100.89504595957362L241.19058406352997,124.59486458669414L241.293745134558,110.7208138098252L241.50006727661406,136.0416627058818L241.60322834764207,145.7656386644815L241.80955048969815,127.51769842744265L241.91271156072617,119.06521228868525L242.0158726317542,91.65413915780995L242.22219477381023,104.58943806663258L242.3253558448383,125.98988537267269L242.4285169158663,143.6932920162469L242.53167798689432,139.0116211488993L242.84116119997842,133.03264198958007L243.04748334203447,136.34311437144657L243.15064441306248,132.22530187187346L243.7696108392307,135.5965134446477L243.8727719102587,145.6904277509615L243.97593298128672,153.26759126586163L244.38857726539885,159.1785706217324L244.5948994074549,127.69794546110406L244.80122154951096,145.59877845959204L245.2138658336231,144.40040361938262L245.93599333081926,134.32617749692346L246.24547654390335,158.063173170997L246.4517986859594,149.6175541234267L246.65812082801548,142.56675631301962L246.7612818990435,138.63328101752361L246.96760404109955,141.8516574276141L247.17392618315563,150.53322111362633L247.38024832521165,154.15990675167924L247.4834093962397,138.17860823298827L247.5865704672677,142.59419191630346L247.8960536803518,149.8770632947217L247.9992147513798,145.1423298000286L248.30869796446393,135.8368479135718L248.41185903549194,136.7313067028642L248.72134224857604,143.97750483521568L249.0308254616601,127.06955963810033L249.4434697457722,134.64461635785793L250.06243617194042,150.91989259306737L250.16559724296843,155.1914684917325L250.4750804560525,157.30591075816778L250.57824152708054,157.44100707956517L250.7845636691366,138.13353146778553L250.99088581119264,107.9181446520061L251.09404688222068,129.29359234843432L251.30036902427673,137.12088118405583L251.40353009530475,145.7224628352234L251.60985223736083,152.9015068947005L251.71301330838884,149.89150228361754L251.81617437941688,140.75475026534727L251.9193354504449,146.33653264286465L252.12565759250097,124.521463713839L252.33197973455702,139.61009616036702L252.43514080558504,129.78597148432553L252.84778508969714,147.84027991773362L252.95094616072518,158.45237764292702L253.15726830278123,158.69975679208804L253.4667515158653,137.88139058376765L253.67307365792138,158.62070755197473L253.98255687100547,166.17814421528203L254.60152329717366,154.74507003947193L255.2204897233418,164.01802514863098L255.63313400745392,169.99800802122596L255.942617220538,164.02634723685065L256.4584225756782,160.37892819172433L256.6647447177342,131.97681402960615L256.9742279308183,146.7013250458861L257.59319435698643,160.7182872523852L257.6963554280145,144.64238826486883L257.9026775700706,86.42149604549608L258.2121607831546,109.41009340157657L258.5216439962387,108.11585705573512L258.6248050672667,119.15627953627911L258.72796613829473,116.51111016466676L259.656415777547,119.16673689110883L259.759576848575,130.93369450534814L259.8627379196031,68.65017016369458L259.9658989906311,102.95773275624087L260.1722211326871,122.81293423933793L260.3785432747432,125.75172700007471L260.6880264878273,121.01329044955118L260.7911875588553,145.88373213348385L261.2038318429674,161.36838909431768L261.4101539850235,155.36303943505186L261.5133150560515,162.03587444515716L261.6164761270795,142.11415208900834L261.7196371981076,157.04295023383983L262.5449257663318,135.10481444117988L263.4733754055841,146.78981697423535L263.6796975476401,155.691690774784L263.9891807607242,148.8091047321223L264.50498611586437,147.0871579507012L264.81446932894846,154.65520680547692L264.9176303999765,159.23254984318717L265.22711361306057,158.1140253423939L265.3302746840886,158.35317707213213L265.6397578971726,160.6349080195689L265.94924111025676,153.11710400757582L266.1555632523128,137.49451629080738L266.36188539436887,138.92758411620383L266.67136860745296,155.74513668842516L266.980851820537,150.11759391093275L267.084012891565,139.67406928610222L267.1871739625931,133.80650391210938L267.39349610464916,126.61213363804293L268.21878467287337,134.55843415450778L268.4251068149294,130.06181774226602L268.6314289569855,133.70525387502315L268.83775109904155,153.37105648256212L269.35355645418167,144.8344557216029L269.8693618093218,129.61686123749817L270.28200609343395,130.53299205100313L270.69465037754605,137.35382723008468L270.79781144857407,149.16249965120144L270.9009725196021,151.37795875982718L271.3136168037142,144.12513571168216L271.41677787474225,136.83628994445596L271.51993894577026,143.58649880827247L271.6231000167983,142.1939689950913L271.93258322988237,156.47379182916063L272.4483885850225,159.31836725712472L272.7578717981066,156.27133516616075L272.96419394016266,150.6354294805906L273.37683822427476,151.4313382490211L273.4799992953028,148.29959167523893L273.58316036633084,150.03218427789173L273.68632143735886,152.35157054881913L273.8926435794149,151.33932995773117L274.09896572147096,154.3169049109678L274.40844893455505,154.88404416588668L274.71793214763915,156.9630798030603L274.82109321866716,148.9398536019701L275.02741536072324,154.77293195188471L275.23373750277926,154.13688255022322L275.9558649999755,144.70057549884692L276.26534821305955,130.67122082910123L276.36850928408757,117.2726047147372L276.57483142614365,124.16113859138946L276.78115356819967,109.42093114827851L276.98747571025575,114.74086069116076L277.09063678128376,101.04645335235801L277.29695892333984,107.6879471416987L277.60644213642394,101.16760566476863L277.81276427847996,131.4868349074026L278.12224749156405,136.2652064683847L278.32856963362013,150.73429449030235L278.43173070464815,163.6672448848783" fill="none"></path></g></g></g></g><g opacity="0.2"><g><g><g><path style="fill: none;" stroke="rgb(255, 112, 67)" stroke-width="2px" d="M21.148019560745784,127.90869151642625L21.25118063177381,138.11039931961545L21.663824915885925,90.65843601158491L21.766985986913955,145.90919705187545L22.076469199998037,115.79730317945248L22.179630271026067,86.63580266137443L22.489113484110153,132.59731463669397L22.59227455513818,136.77676295664426L22.69543562616621,73.25991386559336L23.10807991027832,122.7483510469851L24.036529549530574,156.2921215118378L24.34601276261466,50.454714827828276L24.75865704672677,156.29349998845456L24.964979188782827,101.46300200670012L25.171301330838887,91.3032051944937L25.274462401866913,171.48382188563488L25.48078454392297,135.77343079838244L25.687106685979025,109.09094816597843L26.09975097009114,100.37914825760325L26.20291204111917,140.29902254955203L26.306073112147192,124.86928312228883L26.409234183175222,160.39176398842713L26.512395254203252,156.7103301100316L27.13136168037142,110.73744570262377L27.337683822427476,91.26769616702916L27.440844893455505,174.48809238062765L27.544005964483535,44.83519584459314L27.64716703551156,45.705518263920034L27.956650248595643,119.48354847142383L28.059811319623673,109.20457970478154L28.162972390651703,139.93195013200705L28.26613346167973,-41.35736826432695L28.781938816819874,54.51811927489613L29.297744171960012,93.39607731789656L29.607227385044098,118.34855854167813L29.710388456072124,45.02622089267786L30.329354882240295,124.36442931598165L31.154643450464523,150.10744037031202L31.464126663548605,113.64558070818006L31.567287734576635,148.84423886062436L32.28941523177283,119.77338643468144L32.598898444856914,116.65800277162774L32.805220586912974,140.2896250503089L33.52734808410917,116.73855087162849L33.6305091551372,108.80906295243292L33.93999236822128,123.75055656570439L34.04315343924931,33.947828470392075L34.76528093644551,107.93913817059163L34.971603078501566,123.53918573293953L35.177925220557626,95.2765977694034L35.281086291585645,128.05254350413534L35.38424736261368,125.1394910483404L36.106374859809875,100.47716589780492L36.62218021495001,142.70614757782866L36.82850235700607,102.64060542031984L36.931663428034106,108.75200197324858L37.03482449906213,133.09979587267037L37.34430771214621,122.5044402133149L37.653790925230304,101.21253015451742L37.86011306728635,58.310149392621305L37.96327413831438,122.47058800870704L38.27275735139847,149.57041769141938L38.89172377756664,133.88169696978153L38.994884848594666,111.1929659515502L39.20120699065072,141.33814208151833L39.51069020373481,105.59375298924664L39.71701234579086,108.99881556056371L39.82017341681889,111.73954518468022L40.02649555887495,132.88679472621453L40.23281770093101,139.8098621693434L40.335978771959034,121.39375918852252L41.05810626915523,143.63212599055743L41.883394837379456,58.792801772648865L41.98655590840748,144.6859316003254L42.089716979435515,-18.005603248014705L42.50236126354762,172.86632789558695L43.53397197382791,141.99144721578477L43.637133044855936,65.28017782280016L43.84345518691199,156.40758218307468L44.04977732896805,96.81073620719957L44.25609947102411,-216.38013196084898L44.565582684108186,127.61174909675916L44.66874375513621,130.77482274891977L44.771904826164246,108.30021951668684L45.08138803924833,123.08402335775014L46.112998749528614,146.91198577224029L46.319320891584674,75.17790502282706L46.93828731775284,122.94919774096428L47.24777053083692,122.1209188584487L47.35093160186495,42.47116146517326L47.454092672892976,-90.59408766274771L47.55725374392101,131.96249964550816L47.76357588597707,90.25047320593686L48.176220170089174,129.0274710913421L48.38254231214523,134.6342921842036L48.588864454201286,115.06755886586987L48.795186596257345,141.4628146878384L49.31099195139748,126.66440429647054L49.929958377565654,103.46550438420778L50.65208587476185,6.789267731055853L50.75524694578988,106.59685981959996L51.27105230093002,95.55894689334878L51.37421337195805,105.24876270673559L51.683696585042135,115.1133932133773L51.78685765607017,111.00377003589927L51.89001872709819,-606.738200662877L52.302663011210306,49.33202515097063L52.40582408223834,-92.38038128474898L52.612146224294385,-1119.1372577869142L52.92162943737848,87.98472155837571L53.33427372149058,125.06551722143499L53.437434792518616,123.6210990549742L53.54059586354664,154.89161577837066L53.643756934574675,113.75137878851675L53.85007907663073,163.24318263395327L54.15956228971481,86.0379414471842L54.26272336074284,146.7946959685696L54.36588443177087,110.69908693984573L54.67536764485495,35.421313937050606L54.984850857939044,-7.146123516137418L55.60381728410721,108.90322350902423L55.81013942616327,103.47169427440036L56.119622639247346,99.8929569039538L56.22278371027538,-465.9548079393596L56.42910585233144,82.19347619969055L56.53226692335946,114.83337689601413L57.0480722784996,120.5167166956889L57.15123334952764,81.67172280024515L57.56387763363975,96.99865968289657L57.7701997756958,74.5587569485741L58.079682988779886,96.23811171876241L58.492327272892005,147.78621829350897L58.90497155700411,85.4239361510784L59.11129369906017,35.472688700190794L59.52393798317228,58.97974440921471L59.62709905420031,-49.85551755168643L59.73026012522834,-567.2155264552993L59.93658226728439,61.492654263245164L60.45238762242454,94.70775083707949L60.55554869345256,-122.96347557761408L60.96819297756468,84.55462108004836L61.07135404859271,163.4790744449971L61.174515119620736,155.67143590597382L62.20612582990101,110.45729683943208L62.72193118504115,116.96117484523597L63.444058682237355,143.66646861473086L63.54721975326538,110.45359881081595L64.06302510840553,109.82848617427891L64.16618617943355,97.02506281194076L64.3725083214896,153.4078182462521L64.57883046354566,127.34712135008891L64.99147474765778,122.7797113900165L65.91992438691003,-367.0324099121041L66.12624652896609,175.07028667788504L66.22940759999412,138.21631669119782L66.5388908130782,84.15541955366648L67.15785723924637,-118.74478043783455L67.98314580747059,53.480046854975264L68.08630687849862,88.00213808024522L68.18946794952664,117.32596747453016L68.39579009158271,155.05479294788017L68.49895116261074,122.97729745661371L68.80843437569482,147.0676078295233L68.91159544672284,-775.8712374501125L69.42740080186299,96.71714559767096L69.53056187289101,132.35727414121698L70.66533365419933,115.58989546696083L70.97481686728341,126.81115903782455L71.07797793831145,162.49753282094645L71.28430008036749,135.37576680361155L71.49062222242355,91.86009649308374L71.80010543550765,16.962027525293003L72.93487721681595,88.34962022433272L73.34752150092807,114.40492250527456L73.4506825719561,117.50222691731608L73.65700471401215,111.22760017654642L73.96648792709622,-393.7277759990417L74.17281006915229,128.40086068694262L74.68861542429242,134.53482979447088L74.79177649532046,118.76896740062563L75.41074292148862,118.3858834469936L75.61706506354469,-40.0282252049431L75.7202261345727,20.341707570445614L75.82338720560074,63.25103373375695L75.92654827662876,104.59467555208079L76.0297093476568,81.12210826764168L76.13287041868482,102.34216523279031L76.33919256074088,81.6204805829335L76.54551470279694,105.42830928606918L77.06132005793708,116.182786212581L77.16448112896511,97.87086425298867L77.26764219999313,37.64731509063407L77.4739643420492,111.29538411325925L77.8866086261613,66.16701545236252L78.09293076821736,167.44495167142887L78.29925291027341,131.09973233840776L78.71189719438553,128.3771747473834L78.81505826541355,-67.71670416676244L78.91821933644158,132.3762812130289L79.3308636205537,106.14534245469528L79.74350790466582,156.75996852281799L79.84666897569383,113.3366296364477L80.15615218877792,132.7999109356098L80.36247433083398,124.26043385891305L80.46563540186202,118.7715387896992L80.56879647289003,141.0092561171743L80.67195754391807,120.91643515080207L80.7751186149461,156.3721659376901L80.87827968597414,104.17320632650501L81.08460182803017,72.43076018060945L81.18776289905821,142.5588361439948L81.70356825419834,162.39145639436984L81.80672932522637,138.55270474943694L82.11621253831046,114.07647394216468L82.21937360933849,95.72245542742962L82.52885682242257,125.48274498049764L82.73517896447862,117.22748592392861L83.14782324859074,160.0914946684638L83.3541453906468,51.130831099185606L83.56046753270286,137.5204113276402L83.76678967475891,124.04034151063058L84.076272887843,109.13061913245897L84.48891717195511,108.75531561896196L84.59207824298313,119.52999252974251L84.7984003850392,127.88314993526754L85.10788359812328,111.17289851311L85.5205278822354,-61.3712581898065L86.03633323737554,138.19199453166163L86.75846073457174,121.41763069224169L86.86162180559975,124.68552158560783L87.06794394765582,130.98629961834746L87.17110501868383,133.60573655477154L87.27426608971187,89.10143341836644L87.3774271607399,85.34589316723695L87.58374930279595,136.99790241697215L87.89323251588003,108.20646985216399L88.30587679999215,135.4706298530941L88.40903787102017,110.72779636630642L88.8216821551323,123.80038054265071L89.13116536821637,107.23333163364245L89.54380965232849,103.33445632353516L89.85329286541257,157.20949770029463L89.95645393644061,71.6766804529078L90.05961500746864,80.97986008445785L90.16277607849666,163.40958066709618L90.26593714952469,129.1903699146117L90.47225929158074,120.19125041372106L90.57542036260877,118.95909113707631L90.67858143363681,-35.93383154316375L90.88490357569286,141.32083159631165L90.98806464672089,165.4902055559424L91.09122571774891,118.9754605469004L91.19438678877695,145.31897047740884L91.400708930833,90.10064340136083L91.60703107288904,140.2104554269249L91.71019214391708,38.81257848761718L92.43231964111328,131.04549458537122L92.74180285419736,148.64893258227795L92.8449639252254,146.3082660324288L92.94812499625343,99.6373820373725L93.15444713830948,86.40252200315273L93.46393035139356,122.08982360707438L93.67025249344962,133.68612559977805L93.87657463550568,103.83420711544375L94.28921891961778,118.66624438351096L94.7018632037299,-0.7845334572659053L95.01134641681398,32.68254599119641L95.11450748784202,80.91417037183588L95.21766855887005,139.11292294832322L95.32082962989807,94.59036825132884L95.4239907009261,90.07873357590398L95.93979605606624,110.4078837545542L96.55876248223441,93.74515001192648L96.76508462429047,112.2995645648237L96.86824569531849,113.79119555540868L96.97140676634652,62.1767232843146L97.28088997943061,88.19923372727685L97.59037319251469,115.01675404979238L97.69353426354272,101.41527225384465L98.00301747662681,140.27098910681687L98.10617854765484,147.03026966962497L98.20933961868286,131.77965267504405L98.41566176073891,163.09511568889675L98.62198390279497,125.64142884641981L99.24095032896315,91.90901915839603L99.55043354204723,30.692317357411106L99.65359461307524,115.71674182486888L99.96307782615935,66.80782151499811L100.06623889718736,71.9741928196376L100.1693999682154,63.48145140208229L100.37572211027145,-89.64776346533881L100.47888318129948,129.59601316826038L101.09784960746765,-57.56830629581003L101.51049389157976,62.99787120125499L101.6136549626078,164.8678763818046L101.81997710466385,112.86306990025764L102.0262992467199,104.31929833871635L102.23262138877597,116.41672959994537L102.33578245980398,92.61112766672909L102.43894353083202,102.99194464801772L102.54210460186005,131.82622927919127L102.64526567288807,117.29159834119102L102.95474888597217,13.543272969888259L103.16107102802822,111.72480608854713L103.36739317008427,93.15345217876313L103.67687638316836,113.88350047040049L103.88319852522442,145.04327515405592L103.98635959625244,131.02777320809608L104.08952066728048,124.00442159109758L104.50216495139257,130.8304654877388L104.70848709344864,157.34156636384697L104.81164816447668,138.7716041852626L105.01797030653272,90.84588232229919L105.32745351961681,106.49259927087428L105.74009780372891,128.81655091439427L106.04958101681301,108.03215883305754L106.35906422989709,109.2579294007669L106.46222530092511,121.46846201748488L106.66854744298116,117.03864788201471L106.87486958503723,112.39027892987309L107.08119172709328,-60.805950231104475L107.59699708223343,311.324999332428L107.90648029531751,112.48773987759492L108.00964136634555,131.18301088247634L108.11280243737357,90.37859200379884L108.42228565045765,142.3786931084328L109.24757421868189,138.37684294413663L109.3507352897099,106.42793016113202L109.45389636073794,106.00814426757864L109.66021850279398,147.23086452652993L110.0728627869061,101.00215341546658L110.27918492896217,129.07879283615088L110.38234599999018,140.7066142268802L110.7949902841023,-85.51686668238091L111.00131242615836,105.40234355825916L111.10447349718638,127.58623402476616L111.41395671027048,33.73074491241736L111.62027885232654,122.57069987299957L111.82660099438257,137.02612142386727L112.13608420746668,127.99769604028754L112.34240634952272,47.38561616809901L112.44556742055076,115.36566768882807L112.65188956260681,52.57441422692663L112.75505063363484,85.14057967883615L113.06453384671892,89.59079261731787L113.37401705980301,138.28987962603478L113.47717813083104,100.2581471707336L114.19930562802723,132.42271201676473L114.30246669905527,-25.45735623742136L114.40562777008329,138.70644465595475L114.50878884111131,176.13431157103307L114.71511098316738,170.30857778776308L114.8182720541954,69.64811956551016L115.02459419625146,88.87574763611978L115.1277552672795,121.66366225916846L115.23091633830751,127.69252252466842L115.5403995513916,110.34562697889129L115.64356062241963,147.76809927874822L115.74672169344765,156.4486846445034L115.8498827644757,54.10449676236963L116.05620490653175,125.67903209797521L116.6751713326999,144.69575324621985L116.77833240372794,-21.359383838271565L117.08781561681202,149.809768948588L117.80994311400822,153.95071270534885L118.1194263270923,129.22781411117285L118.8415538242885,127.02491569550304L118.94471489531654,89.98796619252317L119.04787596634456,97.34404760289323L119.25419810840062,145.318864440746L119.35735917942864,131.7232809341681L119.46052025045668,122.04039726761366L119.77000346354076,100.13184425072254L119.87316453456879,67.17804852326223L120.07948667662484,50.24168717220673L120.2858088186809,118.26398104848991L120.38896988970892,135.00021145304032L120.80161417382104,130.7908077758411L120.90477524484908,132.75813249045555L121.31741952896118,122.30874955206573L121.42058059998921,107.01932313888975L121.52374167101723,128.70159391730581L121.62690274204527,131.7448593950536L121.93638595512935,-6.6923396175647945L122.03954702615738,174.17920758180955L122.14270809718542,49.21779715593912L122.4521913102695,33.67223918370198L122.55535238129751,133.02383385833693L123.38064094952175,123.37582299927007L123.79328523363385,137.1345836753575L123.9996073756899,117.55052661723425L124.20592951774597,141.18782185737672L124.30909058877401,96.69493091680849L124.61857380185809,41.57512515511056L124.7217348728861,146.67206456800898L124.92805701494217,135.8784070945822L125.03121808597021,65.80423751966207L125.13437915699822,161.5017027565797L125.23754022802625,112.61221366517219L125.54702344111034,138.08650130673058L126.37231200933456,117.05277726733655L126.57863415139062,146.8069034393777L126.78495629344668,99.00470103402611L126.99127843550274,103.70036233778904L127.09443950653076,-189.17621403898806L127.19760057755879,73.73874892575911L127.40392271961484,153.55287640100087L127.6102448616709,157.5159436558677L127.71340593269892,85.65445985606657L127.81656700372696,113.96643439531488L128.12605021681105,132.02586980613077L128.3323723588671,143.62690368491315L129.0544998560633,113.59307930549733L129.1576609270913,109.42208740940757L129.4671441401754,121.41357478988851L129.6734662822315,110.29268817497439L130.29243270839964,137.457637623246L130.39559377942766,146.76617210626887L130.6019159214837,139.75363622887883L130.80823806353976,158.7893644489354L131.2208823476519,162.4810971382081L131.633526631764,123.16848155969268L131.83984877382005,85.44800647354036L132.0461709158761,147.044200236204L132.3556541289602,163.05190574879433L132.45881519998824,72.40997699469516L132.56197627101625,89.06087439483471L132.6651373420443,-544.0510752038728L133.28410376821245,128.2706741741555L133.3872648392405,155.0188067554329L134.00623126540864,-776.3071541709986L134.2125534074647,145.0156260942235L134.41887554952078,79.85385676188683L134.5220366205488,126.54161384091566L134.62519769157683,144.88697711304738L135.55364733082908,140.94909356560223L135.75996947288513,120.27755100268024L136.06945268596922,-42.116564261010055L136.48209697008133,84.54460061541111L136.68841911213738,125.4047019966562L136.79158018316542,-387.677536091399L137.20422446727753,128.0434641148807L137.30738553830557,51.77407600506624L137.51370768036162,-11.972461752253064L137.61686875138963,55.2597927130469L137.72002982241767,116.62119479504355L138.02951303550176,102.28776842475952L138.13267410652978,137.4551590162524L139.16428481681007,82.76371486321408L139.37060695886612,150.19857888201273L139.47376802989416,139.69812603588835L139.78325124297822,126.57338507601551L139.88641231400626,107.19934688320606L139.9895733850343,88.77207028903966L140.29905659811837,-1.5034620312400588L140.4022176691464,91.87795041618742L140.50537874017442,101.74935401466726L142.05279480559486,64.09251418079462L142.36227801867895,123.91537730348773L142.56860016073497,44.36041668678056L142.671761231763,36.49859341305214L142.8780833738191,106.17619912357824L142.9812444448471,109.74174818408557L143.2907276579312,-43.09568029639853L143.6002108710153,124.20341264347726L143.7033719420433,156.38447944516102L143.80653301307132,163.7534973283961L143.90969408409936,163.80904728513514L144.1160162261554,82.2330013657597L144.3223383682115,167.45267909323246L144.5286605102675,162.7191361916742L144.7349826523236,113.12859895856192L144.8381437233516,95.35061136005737L145.04446586540766,-21.319911690533825L145.25078800746374,142.81960680705467L145.4571101495198,105.20169568302279L145.5602712205478,153.06117114088437L145.66343229157584,133.91182463660755L145.76659336260388,126.51367318026047L145.8697544336319,139.55524163272756L146.9013651439122,166.39487059944273L147.3140094280243,146.99872376243363L147.72665371213643,78.37689859452068L147.82981478316444,117.97423586731227L147.93297585419245,75.452513470386L148.13929799624853,102.80632746973723L148.4487812093326,172.4536332038602L148.7582644224167,101.63287274055065L148.96458656447274,148.83925513747144L149.17090870652882,130.71947161092353L149.27406977755683,154.5853421323747L149.48039191961288,82.18038067183129L149.893036203725,167.4384171620821L149.996197274753,23.72631832041973L150.09935834578107,137.08835169036448L150.30568048783712,127.08705317992028L150.40884155886513,145.41997039875255L150.71832477194923,157.35710073495127L150.82148584297724,43.635550059688036L150.92464691400528,120.60968433982339L151.02780798503332,39.234949024826996L151.23413012708937,52.58697957147175L151.74993548222952,159.86680297993118L152.0594186953136,154.5148410061769L152.57522405045373,119.66200817496343L152.78154619250978,153.2867773956339L153.1941904766219,136.650208199559L153.40051261867794,111.3767009790655L153.81315690279007,120.42079327957808L153.91631797381808,106.89999212945963L154.01947904484615,38.07567669929367L154.12264011587416,148.95730045236476L154.32896225793021,108.02171422176897L154.6384454710143,113.92394020268654L154.74160654204232,157.04761947990477L154.9479286840984,51.612343585087764L155.0510897551264,168.79718421414353L155.15425082615442,131.74663550915596L155.7732172523226,162.68841206861978L155.97953939437866,158.0470150270591L156.0827004654067,92.14171661497218L156.28902260746273,183.88833532241392L156.3921836784908,150.96535650008803L156.70166689157486,109.49530572509033L156.80482796260287,166.1501114724699L157.32063331774302,130.80719044024804L157.42379438877106,149.0274171956598L157.5269554597991,101.6099688213798L157.83643867288316,161.22750520108923L158.04276081493924,116.47308808623848L158.14592188596725,123.40149712625731L158.24908295699527,125.16863787603526L158.35224402802334,163.32504293765652L158.45540509905135,156.54189087112925L158.55856617007936,172.59722009991222L159.17753259624752,157.46256745071662L159.69333795138766,61.62387463349487L159.79649902241573,96.31925627499157L159.89966009344374,86.533238699254L160.4154654485839,136.38161733261555L160.828109732696,102.91773223862094L161.03443187475204,129.592699522547L161.13759294578006,106.95195009424538L161.5502372298922,150.9667084675391L161.9628815140043,147.86769421430947L162.6850090112005,141.84945086967517L162.89133115325654,150.71200840342613L163.2008143663406,95.25541694600349L163.4071365083967,112.77088427651151L163.51029757942473,-18.443349101334586L163.81978079250882,123.10723213232663L163.92294186353683,151.27412200766045L164.1292640055929,169.84876305399212L164.23242507662093,135.1670203782517L164.541908289705,116.03661467287253L166.29564649718148,151.7987383970022L166.39880756820952,159.9092176450624L166.50196863923753,92.06605945604437L166.60512971026554,141.777173629375L167.01777399437768,133.24040048758036L167.32725720746177,138.56492547482787L167.43041827848978,145.70459931094874L167.73990149157387,148.20734289993055L167.84306256260192,94.74306104580123L167.94622363362993,153.71719346463578L168.35886791774206,96.28128189511628L168.46202898877007,132.47989228719476L168.56519005979808,160.59245162741206L168.77151220185416,131.42680242490087L168.97783434391022,144.58453404149608L169.18415648596627,113.53915966244926L169.39047862802232,140.16348118529208L170.00944505419048,113.32880943256413L170.21576719624656,10.851346719838356L170.7315725513867,149.99374255859465L170.83473362241472,119.45684048697402L171.76318326166697,155.6169595704459L171.866344332695,147.04587031364355L173.00111611400334,131.95038495678006L173.41376039811541,106.9662252799786L173.51692146914348,-195.01740266586523L173.82640468222755,133.169316159737L173.92956575325556,165.94117948295008L174.23904896633965,135.7553648019531L174.44537110839573,112.68270153678714L174.54853217942374,146.9233582043286L174.65169325045176,127.05670018518575L175.37382074764795,147.46889032541318L175.476981818676,166.76341427568445L175.58014288970404,153.20665344228445L175.68330396073205,155.99262095767997L175.99278717381614,70.36574919036467L176.1991093158722,152.46273997963144L176.3022703869002,123.00083759576154L176.40543145792827,146.46448454594022L176.50859252895629,149.79726987695713L177.02439788409643,139.05739950074988L177.23072002615245,167.5342875598615L177.7465253812926,117.2796029437086L177.84968645232067,139.9960492946866L178.15916966540473,91.53925606053178L178.88129716260093,153.3064471965885L179.08761930465698,47.06729410628922L180.11923001493727,130.04303722957772L180.32555215699333,142.96766049752833L180.42871322802137,130.03416991364873L180.6350353700774,159.12027836445603L180.73819644110543,141.23720843308888L180.94451858316148,117.06858998468078L181.04767965418952,163.9523690895301L181.66664608035768,122.96613709785106L181.76980715138572,142.40866172026458L182.3887735775539,147.78631107558894L182.49193464858192,146.01832203250837L183.42038428783417,143.65957623164704L183.8330285719463,105.83020149277033L184.03935071400232,18.96386717365798L184.45199499811446,118.70244264928388L185.07096142428261,85.32116011563231L185.3804446373667,138.940851953719L185.58676677942276,156.3934925615014L185.89624999250685,131.7065138868584L186.10257213456288,32.322286429238126L186.20573320559095,127.0181426036649L186.61837748970302,138.62063448656116L186.7215385607311,133.71492780831872L186.92786070278711,153.65043013080268L187.03102177381516,178.89408803071007L187.2373439158712,143.9067211835335L187.54682712895527,121.23667912712563L187.64998819998334,105.75234407308884L187.75314927101135,119.60488092286482L188.16579355512349,145.78191329273324L188.3721156971795,128.7329542603372L188.47527676820755,151.88835263167476L188.57843783923556,122.76886914124233L188.78475998129164,79.20971054437216L188.99108212334767,142.71661869828293L189.19740426540375,143.21598510728876L189.5068874784878,144.96672993807692L189.8163706915719,133.9568504545609L189.91953176259995,146.45859951115327L190.02269283362796,121.7129427982178L190.33217604671205,159.70063027469678L190.53849818876813,170.45371547000897L190.64165925979614,140.12096048349804L190.9511424728802,153.439403917192L191.05430354390828,127.10048007235088L191.36378675699234,130.1457867558581L191.77643104110444,107.71953624187475L191.87959211213249,106.74851875660977L191.9827531831605,151.08777582732301L192.7048806803567,158.6485079969512L192.91120282241275,71.29749334663471L193.01436389344082,163.13266592212074L193.11752496446883,171.77776876957708L193.4270081775529,127.41237366147672L193.53016924858093,118.86023845815487L193.73649139063698,141.7966976299182L194.14913567474912,178.77731515577068L194.25229674577713,141.51383157724155L194.35545781680514,123.6675961316243L194.66494102988923,161.84059593097814L195.07758531400137,141.0725997686312L195.18074638502938,120.70185670898667L195.38706852708543,116.08364193283677L195.49022959811347,150.9561048012563L195.5933906691415,96.99201913688697L195.69655174016953,145.21362305288918L195.9028738822256,165.2567260789779L196.21235709530967,103.00644516165946L196.31551816633768,146.1737055073L196.41867923736572,165.07385259934807L196.52184030839376,156.81557149788844L196.93448459250587,130.3443138978379L197.0376456635339,129.99594369669921L197.55345101867402,126.5482146231767L197.75977316073008,156.89427721087256L197.86293423175815,151.3676993626062L197.96609530278616,168.04225619313925L198.37873958689826,174.3656067804784L198.68822279998233,172.601673639751L198.8945449420384,148.16731405971296L199.20402815512247,142.69584876695149L199.30718922615048,158.51532594843917L199.41035029717855,162.96637392564065L199.51351136820657,157.85654667145423L199.6166724392346,126.19341594935406L199.82299458129066,162.7446512636672L200.0293167233467,168.00754244064592L200.3387999364308,141.93112560921847L200.44196100745884,157.8110834522667L200.64828314951487,149.92589234896755L200.7514442205429,119.81035346625987L200.85460529157095,86.43589704277785L201.164088504655,144.69620390203687L201.3704106467111,126.8580404973774L201.4735717177391,108.40518255830375L201.57673278876712,173.37212277727673L201.67989385979516,166.63358563663436L202.40202135699136,140.21508127634078L202.5051824280194,138.6811151481217L202.8146656411035,13.622376320357981L203.33047099624363,-88.19673126203412L203.74311528035574,28.25943867465012L204.3620817065239,162.46360108884147L204.46524277755194,65.0576333766898L204.67156491960796,0.8824424098881225L205.0842092037201,153.78447372720018L205.18737027474813,130.23363813101113L205.29053134577615,144.6906899955698L205.4968534878322,136.38775420447672L205.6000145588602,121.750744868516L205.70317562988828,155.09073937657888L206.11581991400035,143.97787178429112L206.5284641981125,111.4420990908647L206.73478634016854,144.5214952454448L206.83794741119658,137.5587303266697L207.66323597942082,136.62460034548602L207.76639705044883,161.5973213172849L208.0758802635329,105.63440479485834L208.385363476617,158.61767783723394L208.79800776072912,154.44945614896056L209.00432990278514,134.52252954158283L209.41697418689728,126.52633130688557L209.93277954203742,109.44162466453363L210.03594061306543,153.1665318199869L210.44858489717754,141.93117862754988L210.5517459682056,150.6519518885169L210.86122918128967,157.89946501073388L210.96439025231768,184.26354605383096L211.06755132334575,126.3652218523012L211.37703453642982,174.1969289590847L211.6865177495139,158.94330317419602L211.78967882054192,178.53714211446515L211.99600096259798,117.55858540360919L212.20232310465406,165.04042454139153L212.30548417568207,155.22585659418752L212.40864524671008,122.89301156424827L213.1307727439063,164.57123881754313L213.33709488596233,79.03554532567709L213.44025595699037,162.42517605314916L214.05922238315856,157.4862931540244L214.16238345418657,120.03797441760312L214.2655445252146,117.08892251477806L214.36870559624262,159.3708429987187L214.47186666727066,151.62637580157522L214.6781888093267,159.64117021601595L214.9876720224108,170.90386761287974L215.709799519607,135.3583370271592L215.81296059063502,178.0949957396379L215.91612166166308,46.44963054531585L216.8445713009153,166.4097024776558L217.1540545139994,165.17403073655487L217.2572155850274,132.69020275333133L217.66985986913954,133.4034848750099L217.77302094016756,156.89016829018797L217.8761820111956,135.6065556002568L217.97934308222364,131.11880568313396L218.2888262953077,151.21370761901417L218.39198736633574,109.4853647879502L218.49514843736378,139.48018093002815L218.5983095083918,162.13451630575463L219.0109537925039,136.36695776397957L219.11411486353194,179.25380415477136L219.21727593455995,113.69776400087432L219.52675914764404,135.34562588220268L219.7330812897001,173.9640459383486L219.93940343175618,95.86254311360833L220.1457255738122,153.5764695584801L220.24888664484024,131.0808180486758L220.35204771586828,137.61007858064417L220.55836985792433,98.07379191647584L220.66153092895235,110.21696474313231L221.1773362840925,129.98938267818673L221.48681949717658,142.26084661228228L221.69314163923264,125.62187833671089L222.00262485231673,80.15680350758656L222.31210806540082,119.68697980905944L222.41526913642883,92.69728245527688L222.62159127848489,156.51604443456492L222.82791342054097,147.07130585813943L223.44687984670912,169.4938981072552L223.55004091773714,117.0338629776046L223.75636305979322,118.62278260633431L223.96268520184927,128.92130188268553L224.89113484110152,160.32107729806938L224.99429591212953,156.7337377033509L225.09745698315754,136.326385485865L225.2006180541856,154.09818319417695L226.43855090652193,158.73111055729424L226.644873048578,143.10925920615233L226.85119519063406,70.92893641581013L227.05751733269008,99.67413699562528L227.47016161680222,139.7393080248142L227.57332268783023,157.61461077062918L227.6764837588583,139.97245613720736L227.7796448298863,83.93499584081268L227.88280590091432,148.9907285103213L227.98596697194236,136.96277777241036L228.08912804297037,165.28467999421594L228.29545018502645,156.49457201034224L228.39861125605447,72.48581971778292L228.50177232708248,97.05523024251534L228.70809446913856,156.5073229190473L229.2238998242787,118.25336412762425L229.53338303736277,134.13912747796232L229.73970517941885,147.19363240329443L229.84286625044686,139.1257268753597L230.0491883925029,85.18230510565898L230.358671605587,148.95533877410244L230.6681548186711,156.66624536746085L230.87447696072715,115.03092319886278L231.18396017381124,110.41285422312427L231.4934433868953,147.00495341637478L231.59660445792335,125.9988651822303L231.9060876710074,136.14494350118335L232.1124098130635,115.10875410937857L232.2155708840915,179.13900621267715L233.04085945231574,119.3940137642484L233.14402052334378,155.8794400746939L233.3503426653998,80.78406338654587L233.86614802053995,94.53773430281757L234.3819533756801,126.19048668654344L234.48511444670814,138.9977538779091L234.58827551773618,111.78138990274874L234.7945976597922,162.15227744677833L234.89775873082024,167.26315181301018L235.1040808728763,157.14301271270145L235.31040301493235,93.67060623795837L235.61988622801644,140.5160928529439L235.72304729904448,185.27418148724507L236.13569158315659,120.47032565570163L236.65149693829673,115.82635722506737L236.85781908035278,135.88044830034164L237.47678550652097,150.63990347270305L237.57994657754898,158.05301935309174L237.683107648577,130.6935986651935L237.78626871960503,114.522503909768L237.88942979063307,130.96380659124506L238.19891300371714,149.74617346005687L238.40523514577322,157.9851558888818L238.71471835885728,125.00723682062812L238.8178794298853,48.73829936663069L239.1273626429694,155.64361453656431L239.33368478502547,134.82351460902024L239.54000692708152,141.88702761206486L239.64316799810953,100.87190062976518L239.74632906913757,96.81758882653483L240.15897335324968,152.79930034744766L240.5716176373618,121.70121249239244L240.67477870838982,147.89803395446114L240.77793977941784,50.709839038592555L241.19058406352997,160.14459252737495L241.293745134558,89.90973764452178L241.50006727661406,174.02293604996672L241.60322834764207,160.351602602381L241.80955048969815,100.14578807188443L241.91271156072617,106.38648308054911L242.0158726317542,50.53752946149698L242.22219477381023,123.9923864298666L242.3253558448383,158.09055633173287L242.4285169158663,170.24840198160817L242.53167798689432,131.989114847878L242.84116119997842,124.06417325060119L243.04748334203447,141.30882294424637L243.15064441306248,126.0485831225138L243.7696108392307,140.6533308038091L243.8727719102587,160.83129921043223L243.97593298128672,164.6333365382118L244.38857726539885,168.0450396555385L244.5948994074549,80.47700772016155L244.80122154951096,172.45002795732404L245.2138658336231,142.60284135906844L245.93599333081926,119.21483831323471L246.24547654390335,193.66866668210733L246.4517986859594,136.94912555207125L246.65812082801548,131.99055959740903L246.7612818990435,132.73306807427957L246.96760404109955,146.67922204274987L247.17392618315563,163.5555666426447L247.38024832521165,159.5999352087587L247.4834093962397,114.20666045495182L247.5865704672677,149.2175674412762L247.8960536803518,160.80137036234902L247.9992147513798,138.040229557989L248.30869796446393,121.87862508388662L248.41185903549194,138.07299488680286L248.72134224857604,154.84680203374296L249.0308254616601,101.70764184242728L249.4434697457722,146.00720143749427L250.06243617194042,175.33280694588157L250.16559724296843,161.5988323397302L250.4750804560525,160.47757415782073L250.57824152708054,157.64365156166122L250.7845636691366,109.1723180501161L250.99088581119264,62.59506442833695L251.09404688222068,161.35676389307662L251.30036902427673,148.8618144374881L251.40353009530475,158.62483531197483L251.60985223736083,163.67007298391613L251.71301330838884,145.37649536699305L251.81617437941688,127.04962223794197L251.9193354504449,154.70920620914072L252.12565759250097,91.79886032030055L252.33197973455702,162.24304483015914L252.43514080558504,115.04978447026332L252.84778508969714,174.9217425678458L252.95094616072518,174.37052423071705L253.15726830278123,159.0708255158296L253.4667515158653,106.65384127128718L253.67307365792138,189.72968300428533L253.98255687100547,177.51429921024297L254.60152329717366,137.59545877575675L255.2204897233418,177.9274578123696L255.63313400745392,178.96798233011836L255.942617220538,155.06885606028774L256.4584225756782,154.9077996240348L256.6647447177342,89.37364278642889L256.9742279308183,168.78809157030602L257.59319435698643,181.74373056213383L257.6963554280145,120.52853978359423L257.9026775700706,-0.9098422835629489L258.2121607831546,143.89298943569727L258.5216439962387,106.174502536973L258.6248050672667,135.7169132570951L258.72796613829473,112.54335610724823L259.656415777547,123.15017698077199L259.759576848575,148.58413092670716L259.8627379196031,-24.775116348785712L259.9658989906311,154.41907664506033L260.1722211326871,152.5957364639835L260.3785432747432,130.15991614117993L260.6880264878273,113.90563562376585L260.7911875588553,183.18939465938286L261.2038318429674,184.59537453556848L261.4101539850235,146.35501494615312L261.5133150560515,172.04512696031514L261.6164761270795,112.23156855478521L261.7196371981076,179.43614745108704L262.5449257663318,102.19761075218997L263.4733754055841,164.31732077381852L263.6796975476401,169.0445014756071L263.9891807607242,138.48522566812974L264.50498611586437,144.50423777856955L264.81446932894846,166.0072800876405L264.9176303999765,166.0985643997526L265.22711361306057,156.43623859120396L265.3302746840886,158.7119046667395L265.6397578971726,164.0575044407241L265.94924111025676,141.84039798958622L266.1555632523128,114.06063471565474L266.36188539436887,141.0771858542985L266.67136860745296,180.97146554675717L266.980851820537,141.6762797446941L267.084012891565,124.00878234885639L267.1871739625931,125.00515585112012L267.39349610464916,115.82057822694324L268.21878467287337,146.47788492920512L268.4251068149294,123.31689312390338L268.6314289569855,139.17040807415887L268.83775109904155,182.86976039387056L269.35355645418167,132.02955458016405L269.8693618093218,106.79046951134112L270.28200609343395,131.90718827126048L270.69465037754605,147.58507999870702L270.79781144857407,166.87550828287655L270.9009725196021,154.70114742276579L271.3136168037142,133.24590113946456L271.41677787474225,125.9030212936166L271.51993894577026,153.71181210399726L271.6231000167983,140.1051742753195L271.93258322988237,177.89352608026462L272.4483885850225,163.58523039907084L272.7578717981066,151.7007870297148L272.96419394016266,142.18157095223546L273.37683822427476,152.62520140166686L273.4799992953028,143.6019718145657L273.58316036633084,152.63107318187096L273.68632143735886,155.83064995521013L273.8926435794149,149.8209690710992L274.09896572147096,158.7832673408228L274.40844893455505,155.73475304826502L274.71793214763915,160.0816332588208L274.82109321866716,136.90501430033478L275.02741536072324,163.5225494767566L275.23373750277926,153.182808447731L275.9558649999755,130.54611492178253L276.26534821305955,109.62718882448272L276.36850928408757,97.17468054319113L276.57483142614365,134.49393940636782L276.78115356819967,87.31061998361211L276.98747571025575,122.72075500548411L277.09063678128376,80.50484234415391L277.29695892333984,117.65018782570976L277.60644213642394,91.38709344937354L277.81276427847996,176.9656787713535L278.12224749156405,143.43276380985785L278.32856963362013,172.4379265231788L278.43173070464815,183.06667047674225" fill="none"></path></g></g></g></g></g></g><g transform="translate(41, 177)" clip-path="url(#clip_1)"><clipPath id="clip_1"><rect width="288" height="22"></rect></clipPath><g><g><line x1="0" y1="0" x2="0" y2="5" style="visibility: inherit;" fill="rgb(0, 0, 0)" stroke="rgb(204, 204, 204)" stroke-width="1px"></line><line x1="20.632214205605642" y1="0" x2="20.632214205605642" y2="5" style="visibility: inherit;" fill="rgb(0, 0, 0)" stroke="rgb(204, 204, 204)" stroke-width="1px"></line><line x1="41.264428411211284" y1="0" x2="41.264428411211284" y2="5" style="visibility: inherit;" fill="rgb(0, 0, 0)" stroke="rgb(204, 204, 204)" stroke-width="1px"></line><line x1="61.896642616816926" y1="0" x2="61.896642616816926" y2="5" style="visibility: inherit;" fill="rgb(0, 0, 0)" stroke="rgb(204, 204, 204)" stroke-width="1px"></line><line x1="82.52885682242257" y1="0" x2="82.52885682242257" y2="5" style="visibility: inherit;" fill="rgb(0, 0, 0)" stroke="rgb(204, 204, 204)" stroke-width="1px"></line><line x1="103.16107102802822" y1="0" x2="103.16107102802822" y2="5" style="visibility: inherit;" fill="rgb(0, 0, 0)" stroke="rgb(204, 204, 204)" stroke-width="1px"></line><line x1="123.79328523363385" y1="0" x2="123.79328523363385" y2="5" style="visibility: inherit;" fill="rgb(0, 0, 0)" stroke="rgb(204, 204, 204)" stroke-width="1px"></line><line x1="144.4254994392395" y1="0" x2="144.4254994392395" y2="5" style="visibility: inherit;" fill="rgb(0, 0, 0)" stroke="rgb(204, 204, 204)" stroke-width="1px"></line><line x1="165.05771364484514" y1="0" x2="165.05771364484514" y2="5" style="visibility: inherit;" fill="rgb(0, 0, 0)" stroke="rgb(204, 204, 204)" stroke-width="1px"></line><line x1="185.6899278504508" y1="0" x2="185.6899278504508" y2="5" style="visibility: inherit;" fill="rgb(0, 0, 0)" stroke="rgb(204, 204, 204)" stroke-width="1px"></line><line x1="206.32214205605644" y1="0" x2="206.32214205605644" y2="5" style="visibility: inherit;" fill="rgb(0, 0, 0)" stroke="rgb(204, 204, 204)" stroke-width="1px"></line><line x1="226.95435626166207" y1="0" x2="226.95435626166207" y2="5" style="visibility: inherit;" fill="rgb(0, 0, 0)" stroke="rgb(204, 204, 204)" stroke-width="1px"></line><line x1="247.5865704672677" y1="0" x2="247.5865704672677" y2="5" style="visibility: inherit;" fill="rgb(0, 0, 0)" stroke="rgb(204, 204, 204)" stroke-width="1px"></line><line x1="268.21878467287337" y1="0" x2="268.21878467287337" y2="5" style="visibility: inherit;" fill="rgb(0, 0, 0)" stroke="rgb(204, 204, 204)" stroke-width="1px"></line><line x1="288.850998878479" y1="0" x2="288.850998878479" y2="5" style="visibility: inherit;" fill="rgb(0, 0, 0)" stroke="rgb(204, 204, 204)" stroke-width="1px"></line></g><g transform="translate(0, 8)"><text style="text-anchor: middle; visibility: hidden; font-family: Roboto, sans-serif; font-size: 12px; font-weight: 200;" x="0" y="0" dx="0em" dy="0.95em" fill="rgb(50, 49, 63)" stroke="none" stroke-width="1px">-200</text><text style="text-anchor: middle; visibility: hidden; font-family: Roboto, sans-serif; font-size: 12px; font-weight: 200;" x="20.632214205605642" y="0" dx="0em" dy="0.95em" fill="rgb(50, 49, 63)" stroke="none" stroke-width="1px">0</text><text style="text-anchor: middle; visibility: hidden; font-family: Roboto, sans-serif; font-size: 12px; font-weight: 200;" x="41.264428411211284" y="0" dx="0em" dy="0.95em" fill="rgb(50, 49, 63)" stroke="none" stroke-width="1px">200</text><text style="text-anchor: middle; visibility: hidden; font-family: Roboto, sans-serif; font-size: 12px; font-weight: 200;" x="61.896642616816926" y="0" dx="0em" dy="0.95em" fill="rgb(50, 49, 63)" stroke="none" stroke-width="1px">400</text><text style="text-anchor: middle; visibility: hidden; font-family: Roboto, sans-serif; font-size: 12px; font-weight: 200;" x="82.52885682242257" y="0" dx="0em" dy="0.95em" fill="rgb(50, 49, 63)" stroke="none" stroke-width="1px">600</text><text style="text-anchor: middle; visibility: hidden; font-family: Roboto, sans-serif; font-size: 12px; font-weight: 200;" x="103.16107102802822" y="0" dx="0em" dy="0.95em" fill="rgb(50, 49, 63)" stroke="none" stroke-width="1px">800</text><text style="text-anchor: middle; visibility: hidden; font-family: Roboto, sans-serif; font-size: 12px; font-weight: 200;" x="123.79328523363385" y="0" dx="0em" dy="0.95em" fill="rgb(50, 49, 63)" stroke="none" stroke-width="1px">1k</text><text style="text-anchor: middle; visibility: hidden; font-family: Roboto, sans-serif; font-size: 12px; font-weight: 200;" x="144.4254994392395" y="0" dx="0em" dy="0.95em" fill="rgb(50, 49, 63)" stroke="none" stroke-width="1px">1.2k</text><text style="text-anchor: middle; visibility: hidden; font-family: Roboto, sans-serif; font-size: 12px; font-weight: 200;" x="165.05771364484514" y="0" dx="0em" dy="0.95em" fill="rgb(50, 49, 63)" stroke="none" stroke-width="1px">1.4k</text><text style="text-anchor: middle; visibility: hidden; font-family: Roboto, sans-serif; font-size: 12px; font-weight: 200;" x="185.6899278504508" y="0" dx="0em" dy="0.95em" fill="rgb(50, 49, 63)" stroke="none" stroke-width="1px">1.6k</text><text style="text-anchor: middle; visibility: hidden; font-family: Roboto, sans-serif; font-size: 12px; font-weight: 200;" x="206.32214205605644" y="0" dx="0em" dy="0.95em" fill="rgb(50, 49, 63)" stroke="none" stroke-width="1px">1.8k</text><text style="text-anchor: middle; visibility: hidden; font-family: Roboto, sans-serif; font-size: 12px; font-weight: 200;" x="226.95435626166207" y="0" dx="0em" dy="0.95em" fill="rgb(50, 49, 63)" stroke="none" stroke-width="1px">2k</text><text style="text-anchor: middle; visibility: hidden; font-family: Roboto, sans-serif; font-size: 12px; font-weight: 200;" x="247.5865704672677" y="0" dx="0em" dy="0.95em" fill="rgb(50, 49, 63)" stroke="none" stroke-width="1px">2.2k</text><text style="text-anchor: middle; visibility: hidden; font-family: Roboto, sans-serif; font-size: 12px; font-weight: 200;" x="268.21878467287337" y="0" dx="0em" dy="0.95em" fill="rgb(50, 49, 63)" stroke="none" stroke-width="1px">2.4k</text><text style="text-anchor: middle; visibility: hidden; font-family: Roboto, sans-serif; font-size: 12px; font-weight: 200;" x="288.850998878479" y="0" dx="0em" dy="0.95em" fill="rgb(50, 49, 63)" stroke="none" stroke-width="1px">2.6k</text></g><line x1="0" y1="0" x2="288.850998878479" y2="0" fill="rgb(0, 0, 0)" stroke="rgb(204, 204, 204)" stroke-width="1px"></line></g></g></g></g></svg>