<svg viewBox="0 0 330 200" xmlns="http://www.w3.org/2000/svg"><g><g><g><g><g><line x1="41.149001121520996" y1="177.89999961853027" x2="36.149001121520996" y2="177.89999961853027" style="visibility: inherit;" fill="rgb(0, 0, 0)" stroke="rgb(204, 204, 204)" stroke-width="1px"></line><line x1="41.149001121520996" y1="152.48571395874023" x2="36.149001121520996" y2="152.48571395874023" style="visibility: inherit;" fill="rgb(0, 0, 0)" stroke="rgb(204, 204, 204)" stroke-width="1px"></line><line x1="41.149001121520996" y1="127.0714282989502" x2="36.149001121520996" y2="127.0714282989502" style="visibility: inherit;" fill="rgb(0, 0, 0)" stroke="rgb(204, 204, 204)" stroke-width="1px"></line><line x1="41.149001121520996" y1="101.65714263916016" x2="36.149001121520996" y2="101.65714263916016" style="visibility: inherit;" fill="rgb(0, 0, 0)" stroke="rgb(204, 204, 204)" stroke-width="1px"></line><line x1="41.149001121520996" y1="76.24285697937012" x2="36.149001121520996" y2="76.24285697937012" style="visibility: inherit;" fill="rgb(0, 0, 0)" stroke="rgb(204, 204, 204)" stroke-width="1px"></line><line x1="41.149001121520996" y1="50.82857131958008" x2="36.149001121520996" y2="50.82857131958008" style="visibility: inherit;" fill="rgb(0, 0, 0)" stroke="rgb(204, 204, 204)" stroke-width="1px"></line><line x1="41.149001121520996" y1="25.414285659790046" x2="36.149001121520996" y2="25.414285659790046" style="visibility: inherit;" fill="rgb(0, 0, 0)" stroke="rgb(204, 204, 204)" stroke-width="1px"></line><line x1="41.149001121520996" y1="0" x2="36.149001121520996" y2="0" style="visibility: inherit;" fill="rgb(0, 0, 0)" stroke="rgb(204, 204, 204)" stroke-width="1px"></line></g><g transform="translate(31.149001121520996, 0)"><text style="text-anchor: end; visibility: hidden; font-family: Roboto, sans-serif; font-size: 12px; font-weight: 200;" x="0" y="177.89999961853027" dx="0em" dy="0.3em" fill="rgb(50, 49, 63)" stroke="none" stroke-width="1px">3.5</text><text style="text-anchor: end; visibility: inherit; font-family: Roboto, sans-serif; font-size: 12px; font-weight: 200;" x="0" y="152.48571395874023" dx="0em" dy="0.3em" fill="rgb(50, 49, 63)" stroke="none" stroke-width="1px">4</text><text style="text-anchor: end; visibility: inherit; font-family: Roboto, sans-serif; font-size: 12px; font-weight: 200;" x="0" y="127.0714282989502" dx="0em" dy="0.3em" fill="rgb(50, 49, 63)" stroke="none" stroke-width="1px">4.5</text><text style="text-anchor: end; visibility: inherit; font-family: Roboto, sans-serif; font-size: 12px; font-weight: 200;" x="0" y="101.65714263916016" dx="0em" dy="0.3em" fill="rgb(50, 49, 63)" stroke="none" stroke-width="1px">5</text><text style="text-anchor: end; visibility: inherit; font-family: Roboto, sans-serif; font-size: 12px; font-weight: 200;" x="0" y="76.24285697937012" dx="0em" dy="0.3em" fill="rgb(50, 49, 63)" stroke="none" stroke-width="1px">5.5</text><text style="text-anchor: end; visibility: inherit; font-family: Roboto, sans-serif; font-size: 12px; font-weight: 200;" x="0" y="50.82857131958008" dx="0em" dy="0.3em" fill="rgb(50, 49, 63)" stroke="none" stroke-width="1px">6</text><text style="text-anchor: end; visibility: inherit; font-family: Roboto, sans-serif; font-size: 12px; font-weight: 200;" x="0" y="25.414285659790046" dx="0em" dy="0.3em" fill="rgb(50, 49, 63)" stroke="none" stroke-width="1px">6.5</text><text style="text-anchor: end; visibility: hidden; font-family: Roboto, sans-serif; font-size: 12px; font-weight: 200;" x="0" y="0" dx="0em" dy="0.3em" fill="rgb(50, 49, 63)" stroke="none" stroke-width="1px">7</text></g><line x1="41.149001121520996" y1="0" x2="41.149001121520996" y2="177.89999961853027" fill="rgb(0, 0, 0)" stroke="rgb(204, 204, 204)" stroke-width="1px"></line></g></g><g transform="translate(41, 0)" clip-path="url(#clip_0)"><clipPath id="clip_0"><rect width="288" height="177"></rect></clipPath><g><g><g><line x1="0" y1="0" x2="0" y2="177.89999961853027" fill="rgb(0, 0, 0)" stroke="rgb(60, 60, 60)" stroke-width="1px" opacity="0.25"></line><line x1="20.632214205605642" y1="0" x2="20.632214205605642" y2="177.89999961853027" fill="rgb(0, 0, 0)" stroke="rgb(60, 60, 60)" stroke-width="1px" opacity="0.25"></line><line x1="41.264428411211284" y1="0" x2="41.264428411211284" y2="177.89999961853027" fill="rgb(0, 0, 0)" stroke="rgb(60, 60, 60)" stroke-width="1px" opacity="0.25"></line><line x1="61.896642616816926" y1="0" x2="61.896642616816926" y2="177.89999961853027" fill="rgb(0, 0, 0)" stroke="rgb(60, 60, 60)" stroke-width="1px" opacity="0.25"></line><line x1="82.52885682242257" y1="0" x2="82.52885682242257" y2="177.89999961853027" fill="rgb(0, 0, 0)" stroke="rgb(60, 60, 60)" stroke-width="1px" opacity="0.25"></line><line x1="103.16107102802822" y1="0" x2="103.16107102802822" y2="177.89999961853027" fill="rgb(0, 0, 0)" stroke="rgb(60, 60, 60)" stroke-width="1px" opacity="0.25"></line><line x1="123.79328523363385" y1="0" x2="123.79328523363385" y2="177.89999961853027" fill="rgb(0, 0, 0)" stroke="rgb(60, 60, 60)" stroke-width="1px" opacity="0.25"></line><line x1="144.4254994392395" y1="0" x2="144.4254994392395" y2="177.89999961853027" fill="rgb(0, 0, 0)" stroke="rgb(60, 60, 60)" stroke-width="1px" opacity="0.25"></line><line x1="165.05771364484514" y1="0" x2="165.05771364484514" y2="177.89999961853027" fill="rgb(0, 0, 0)" stroke="rgb(60, 60, 60)" stroke-width="1px" opacity="0.25"></line><line x1="185.6899278504508" y1="0" x2="185.6899278504508" y2="177.89999961853027" fill="rgb(0, 0, 0)" stroke="rgb(60, 60, 60)" stroke-width="1px" opacity="0.25"></line><line x1="206.32214205605644" y1="0" x2="206.32214205605644" y2="177.89999961853027" fill="rgb(0, 0, 0)" stroke="rgb(60, 60, 60)" stroke-width="1px" opacity="0.25"></line><line x1="226.95435626166207" y1="0" x2="226.95435626166207" y2="177.89999961853027" fill="rgb(0, 0, 0)" stroke="rgb(60, 60, 60)" stroke-width="1px" opacity="0.25"></line><line x1="247.5865704672677" y1="0" x2="247.5865704672677" y2="177.89999961853027" fill="rgb(0, 0, 0)" stroke="rgb(60, 60, 60)" stroke-width="1px" opacity="0.25"></line><line x1="268.21878467287337" y1="0" x2="268.21878467287337" y2="177.89999961853027" fill="rgb(0, 0, 0)" stroke="rgb(60, 60, 60)" stroke-width="1px" opacity="0.25"></line><line x1="288.850998878479" y1="0" x2="288.850998878479" y2="177.89999961853027" fill="rgb(0, 0, 0)" stroke="rgb(60, 60, 60)" stroke-width="1px" opacity="0.25"></line></g><g><line x1="0" y1="177.89999961853027" x2="288.850998878479" y2="177.89999961853027" fill="rgb(0, 0, 0)" stroke="rgb(60, 60, 60)" stroke-width="1px" opacity="0.25"></line><line x1="0" y1="152.48571395874023" x2="288.850998878479" y2="152.48571395874023" fill="rgb(0, 0, 0)" stroke="rgb(60, 60, 60)" stroke-width="1px" opacity="0.25"></line><line x1="0" y1="127.0714282989502" x2="288.850998878479" y2="127.0714282989502" fill="rgb(0, 0, 0)" stroke="rgb(60, 60, 60)" stroke-width="1px" opacity="0.25"></line><line x1="0" y1="101.65714263916016" x2="288.850998878479" y2="101.65714263916016" fill="rgb(0, 0, 0)" stroke="rgb(60, 60, 60)" stroke-width="1px" opacity="0.25"></line><line x1="0" y1="76.24285697937012" x2="288.850998878479" y2="76.24285697937012" fill="rgb(0, 0, 0)" stroke="rgb(60, 60, 60)" stroke-width="1px" opacity="0.25"></line><line x1="0" y1="50.82857131958008" x2="288.850998878479" y2="50.82857131958008" fill="rgb(0, 0, 0)" stroke="rgb(60, 60, 60)" stroke-width="1px" opacity="0.25"></line><line x1="0" y1="25.414285659790046" x2="288.850998878479" y2="25.414285659790046" fill="rgb(0, 0, 0)" stroke="rgb(60, 60, 60)" stroke-width="1px" opacity="0.25"></line><line x1="0" y1="0" x2="288.850998878479" y2="0" fill="rgb(0, 0, 0)" stroke="rgb(60, 60, 60)" stroke-width="1px" opacity="0.25"></line></g></g></g><g><g><line x1="0" y1="355.79999923706055" x2="288.850998878479" y2="355.79999923706055" fill="rgb(0, 0, 0)" stroke="rgb(153, 153, 153)" stroke-width="1.5px"></line></g></g><g><g><line x1="20.632214205605642" y1="0" x2="20.632214205605642" y2="177.89999961853027" fill="rgb(0, 0, 0)" stroke="rgb(153, 153, 153)" stroke-width="1.5px"></line></g></g><g><g><g><g><g><path style="fill: none;" stroke="rgb(255, 112, 67)" stroke-width="2px" d="M21.25118063177381,-76.44179993654915L21.663824915885925,11.247679181628788L21.766985986913955,-470.8904623562504L25.274462401866913,-11.231761436563335L25.48078454392297,28.094111575243314L25.687106685979025,25.402705003439L26.09975097009114,55.70418063733868L26.20291204111917,54.39774860909254L26.306073112147192,58.16974272973551L26.409234183175222,34.9982751718782L26.512395254203252,66.64003164915559L27.13136168037142,26.904796095029166L27.337683822427476,50.80612952098768L27.440844893455505,68.65365902381201L27.544005964483535,-10.680643142643762L27.64716703551156,1.3135917872810525L27.956650248595643,38.02040150493582L28.059811319623673,57.566046250066115L28.162972390651703,19.17236775733846L28.26613346167973,25.466823350365292L28.781938816819874,9.94827417137543L29.297744171960012,36.61469026609498L29.607227385044098,34.726001414548634L29.710388456072124,-12.937059787754583L30.329354882240295,23.05437924699255L31.154643450464523,42.13733455691322L31.464126663548605,34.885459000142674L31.567287734576635,56.61641524846297L32.28941523177283,66.32473489179854L32.598898444856914,76.58281052665879L32.805220586912974,93.43991810902679L33.52734808410917,93.06258803446276L33.6305091551372,99.81178822360653L33.93999236822128,106.27404838507006L34.04315343924931,91.46217483923357L34.76528093644551,75.71809720381738L34.971603078501566,87.67199657568513L35.177925220557626,92.45611425054864L35.281086291585645,90.14095335430322L35.38424736261368,99.07146602777617L36.106374859809875,95.87858935015062L36.62218021495001,95.87835809480971L36.82850235700607,91.62576864205927L36.931663428034106,85.14839112410843L37.03482449906213,86.40927264673694L37.34430771214621,87.29280318619246L37.653790925230304,79.86831524727641L37.86011306728635,74.00058882170875L37.96327413831438,79.09583051899958L38.27275735139847,86.29030071727546L38.89172377756664,88.25758848441481L38.994884848594666,47.65863376541321L39.20120699065072,64.30303494952564L39.51069020373481,55.29120190661154L39.71701234579086,65.68534383448241L39.82017341681889,75.2506676376314L40.02649555887495,86.28553887524114L40.23281770093101,90.59204603439085L40.335978771959034,91.22336334807085L41.05810626915523,101.92840387217375L41.883394837379456,99.9143611674171L41.98655590840748,57.85627945627093L42.089716979435515,60.84680497778078L42.50236126354762,79.26140619385583L43.53397197382791,93.71608877048922L43.637133044855936,95.54982198378316L43.84345518691199,105.74000454101942L44.04977732896805,101.37464762684134L44.25609947102411,66.16669024573277L44.565582684108186,64.53274869807282L44.66874375513621,80.75741036462072L44.771904826164246,91.81767776837582L45.08138803924833,94.41598147969808L46.112998749528614,104.46824106363681L46.319320891584674,103.1189991212604L46.93828731775284,105.02882052497206L47.24777053083692,106.3674843846777L47.35093160186495,101.04222409111857L47.454092672892976,82.3308817953874L47.55725374392101,93.8611778313788L47.76357588597707,95.63262910641346L48.176220170089174,100.15162129237679L48.38254231214523,105.76009819629692L48.588864454201286,105.10123961788119L48.795186596257345,109.17575154102013L49.31099195139748,110.43673567825057L49.929958377565654,109.60429345133221L50.65208587476185,98.3689831936568L50.75524694578988,103.45586563791272L51.27105230093002,73.21691349119453L51.37421337195805,76.64750228677687L51.683696585042135,61.08163635055753L51.78685765607017,68.6237642822288L51.89001872709819,-130.32974527433367L52.92162943737848,-21.30274835821988L53.33427372149058,1.964248006758412L53.437434792518616,40.646979805282236L53.54059586354664,60.51031024332624L53.643756934574675,71.95731667497441L53.85007907663073,84.6364556890881L54.15956228971481,86.18299494028206L54.26272336074284,92.52899205181181L54.36588443177087,91.68963960695338L54.67536764485495,-62.84864999973285L54.984850857939044,-12.339868732479047L55.60381728410721,9.051369192626154L55.81013942616327,37.94290811796192L56.119622639247346,58.09455302910037L56.22278371027538,-29.4718408791603L56.42910585233144,-15.486936183075592L56.53226692335946,29.385921692412104L57.0480722784996,57.658296736729675L57.15123334952764,71.82683285329769L57.56387763363975,66.39085426800231L57.7701997756958,76.33260820746203L58.079682988779886,84.44822466760937L58.492327272892005,93.84812063523161L58.90497155700411,92.78527110881362L59.11129369906017,73.48365451813648L59.52393798317228,68.49304130008682L59.62709905420031,55.875226963500886L59.73026012522834,-37.94224638306022L59.93658226728439,5.548423727885224L60.45238762242454,35.6837363812727L60.55554869345256,32.96762245845246L60.96819297756468,50.192363418404646L61.07135404859271,61.641739361876546L61.174515119620736,24.26701354861549L62.20612582990101,49.79960132600563L62.72193118504115,66.42724165464767L63.444058682237355,81.80068723269032L63.54721975326538,86.1306257415258L64.06302510840553,89.24064776863294L64.16618617943355,90.01126711430388L64.3725083214896,96.39292274483265L64.57883046354566,96.93952517058491L64.99147474765778,99.97627618953756L65.91992438691003,50.021024251673985L66.12624652896609,62.38448554155229L66.22940759999412,80.903493284892L66.5388908130782,80.95236798744533L67.15785723924637,66.48288666047542L67.98314580747059,72.05119716344049L68.08630687849862,80.27875037434059L68.18946794952664,79.86450990700234L68.39579009158271,91.308006758842L68.49895116261074,97.09941905071702L68.80843437569482,101.95587930413123L68.91159544672284,13.509623494620604L69.42740080186299,39.06914858242338L69.53056187289101,64.6198370792569L70.66533365419933,71.90980632732338L70.97481686728341,82.25712030114241L71.07797793831145,92.16442619175835L71.28430008036749,96.24223483781384L71.49062222242355,73.85907451943316L71.80010543550765,67.57221511728723L72.93487721681595,70.07801282313368L73.34752150092807,67.94841119538127L73.4506825719561,73.1446695878694L73.65700471401215,62.23159522927158L73.96648792709622,-331.6880966234857L74.79177649532046,-5.85513999044356L75.41074292148862,31.63806730953606L75.61706506354469,30.16176586507277L75.7202261345727,44.775117998912584L75.82338720560074,57.20506119754657L75.92654827662876,68.00113397340836L76.0297093476568,72.73257314655861L76.13287041868482,74.2248316249113L76.33919256074088,77.03321898887901L76.54551470279694,80.57067191589564L77.06132005793708,84.47518976835588L77.16448112896511,85.16186714183901L77.26764219999313,80.43313859378041L77.4739643420492,83.01339333892248L77.8866086261613,81.33237957894457L78.09293076821736,90.73614019493519L78.29925291027341,74.47742183644978L78.71189719438553,84.39316242071877L78.81505826541355,71.62321666707186L78.91821933644158,83.29972861873755L79.3308636205537,87.64150038568577L79.74350790466582,95.97629511866195L79.84666897569383,92.31427471989977L80.15615218877792,95.96894838902763L80.36247433083398,97.95870510558815L80.46563540186202,98.76230543719491L80.56879647289003,100.30339743691039L80.67195754391807,101.41687787851353L80.7751186149461,104.16653248640661L80.87827968597414,99.73633084998649L81.08460182803017,95.09657732364268L81.18776289905821,98.33650927106535L81.70356825419834,102.21468381208916L81.80672932522637,104.41456752126358L82.11621253831046,102.8770678070859L82.21937360933849,99.44444385916229L82.52885682242257,102.1777557345776L82.73517896447862,102.05635634103818L83.14782324859074,107.57101625151827L83.3541453906468,99.65261640584073L83.56046753270286,101.22193359504124L83.76678967475891,99.89152299027664L84.076272887843,98.58737389129392L84.48891717195511,98.6434344800242L84.59207824298313,102.54262222856413L84.7984003850392,104.96316385395474L85.10788359812328,105.40978137393947L85.5205278822354,73.44156904467987L86.03633323737554,88.9965461082062L86.75846073457174,94.35635919156393L86.86162180559975,98.9115228129813L87.06794394765582,103.30704318424108L87.17110501868383,88.78241241684576L87.27426608971187,91.88022968542984L87.3774271607399,89.3442469156142L87.58374930279595,98.73480176048605L87.89323251588003,101.0047258709561L88.30587679999215,100.3333067486766L88.40903787102017,98.79449844267916L88.8216821551323,96.90363557593645L89.13116536821637,97.12759898766498L89.54380965232849,97.58350443334828L89.85329286541257,105.93233459227334L89.95645393644061,96.23556182464874L90.05961500746864,96.65842592321356L90.16277607849666,106.02783634888972L90.26593714952469,104.60768840923362L90.47225929158074,102.73264517550037L90.57542036260877,104.78428860536694L90.67858143363681,85.70726872538789L90.88490357569286,88.0332003607034L90.98806464672089,100.92384131143685L91.09122571774891,101.16416047697824L91.19438678877695,106.0261812290563L91.400708930833,103.1377518753868L91.60703107288904,107.84647848682494L91.71019214391708,99.46239583715118L92.43231964111328,104.32064185035796L92.74180285419736,109.19437140489619L92.8449639252254,111.53688352241143L92.94812499625343,104.6410894812445L93.15444713830948,100.71672372372481L93.46393035139356,103.74920300600475L93.67025249344962,107.77624059221941L93.87657463550568,107.2234268899823L94.28921891961778,109.06892463264305L94.7018632037299,63.909404938510406L95.01134641681398,72.83478617354041L95.11450748784202,81.76060261006184L95.21766855887005,95.47101561515724L95.32082962989807,94.68919321113361L95.4239907009261,95.63486879666544L95.93979605606624,99.25665355558475L96.55876248223441,100.85421315009414L96.76508462429047,101.99104561684055L96.86824569531849,103.26645597491475L96.97140676634652,98.78320973122601L97.28088997943061,99.4861831312146L97.59037319251469,103.94396250426306L97.69353426354272,104.94952822584845L98.00301747662681,108.31752824290699L98.10617854765484,109.11698948775565L98.20933961868286,112.10539430567525L98.41566176073891,115.0311365827747L98.62198390279497,113.09305474072428L99.24095032896315,104.20392115084944L99.55043354204723,95.52490793830243L99.65359461307524,99.30651997397332L99.96307782615935,93.9350015190539L100.06623889718736,96.66021644151765L100.1693999682154,90.13869020989303L100.37572211027145,44.62612046051952L100.47888318129948,62.94410660340164L101.09784960746765,59.80869164348342L101.51049389157976,72.64626216700306L101.6136549626078,92.55247796481684L101.81997710466385,92.81757419283429L102.0262992467199,98.15379019251282L102.23262138877597,102.0120988085512L102.33578245980398,103.53566025855778L102.43894353083202,67.57258708648246L102.54210460186005,86.33410479979311L102.64526567288807,88.0965192988029L102.95474888597217,80.05205231490615L103.16107102802822,91.11482668687967L103.36739317008427,97.95267883470254L103.67687638316836,102.56158370293825L103.88319852522442,109.49720436304533L103.98635959625244,112.45673419751256L104.08952066728048,114.27787214531054L104.50216495139257,114.55158832268425L104.70848709344864,117.81288355569673L104.81164816447668,118.59095957520285L105.01797030653272,111.67561755014816L105.32745351961681,108.43792530204159L105.74009780372891,111.31562273166858L106.04958101681301,111.33849014133159L106.35906422989709,112.17426011866567L106.46222530092511,111.32797309541778L106.66854744298116,110.2729402112994L106.87486958503723,109.23677272429889L107.08119172709328,93.7359204510417L107.59699708223343,-26.886247048456536L107.90648029531751,26.1716208208403L108.00964136634555,58.82509484855022L108.11280243737357,75.79142549752598L108.42228565045765,90.27581311652914L109.24757421868189,97.52677076861998L109.3507352897099,98.88822152050243L109.45389636073794,96.30255360307346L109.66021850279398,101.50149285845737L110.0728627869061,100.70958443106964L110.27918492896217,98.9368996337234L110.38234599999018,99.77694617943013L110.7949902841023,82.55370907027292L111.00131242615836,87.51904190319806L111.10447349718638,94.62501886156016L111.41395671027048,83.26442875586257L111.62027885232654,92.61367538540648L111.82660099438257,99.81694834620052L112.13608420746668,103.62704709648308L112.34240634952272,97.8402722346296L112.44556742055076,101.44483485928025L112.65188956260681,97.96676128893968L112.75505063363484,97.67344186321765L113.06453384671892,99.31067471844884L113.37401705980301,105.218806423022L113.47717813083104,105.20495446693792L114.19930562802723,108.52357206793542L114.30246669905527,95.50857952681784L114.40562777008329,103.63189918949776L114.50878884111131,111.86171020794593L114.71511098316738,116.71382709503406L114.8182720541954,109.67625520542472L115.02459419625146,108.41698962594776L115.1277552672795,110.26331549607103L115.23091633830751,111.7557417437258L115.5403995513916,110.9454105402792L115.64356062241963,114.57339555681698L115.74672169344765,118.10287991449478L115.8498827644757,110.65163787466713L116.05620490653175,112.68982292485586L116.6751713326999,115.82723983857657L116.77833240372794,100.77560342513304L117.08781561681202,110.06199821407608L117.80994311400822,114.31998872555668L118.1194263270923,112.69899865789783L118.8415538242885,115.57388494156321L118.94471489531654,113.61960869440061L119.04787596634456,107.46389663263066L119.25419810840062,114.34259855707691L119.35735917942864,117.56276634389505L119.46052025045668,118.13598839820712L119.77000346354076,115.17636697217642L119.87316453456879,98.72069916120213L120.07948667662484,98.5088453681373L120.2858088186809,105.94717147198476L120.38896988970892,110.99237748853099L120.80161417382104,114.75246529104861L120.90477524484908,117.40833072456178L121.31741952896118,118.16609203336296L121.42058059998921,117.78014347703622L121.52374167101723,119.67114960811539L121.62690274204527,121.03474400456841L121.93638595512935,101.719032353704L122.03954702615738,96.45388884593594L122.14270809718542,98.28640290343198L122.4521913102695,95.26735525327253L122.55535238129751,106.16545440909985L123.38064094952175,109.74707619662226L123.79328523363385,114.64939604428118L123.9996073756899,114.73941725107012L124.20592951774597,119.59286019621892L124.30909058877401,117.3589267252931L124.61857380185809,110.7618336206931L124.7217348728861,115.91928911403159L124.92805701494217,120.22721931879221L125.03121808597021,115.72416212307184L125.13437915699822,122.10839252265892L125.23754022802625,121.22850832203737L125.54702344111034,121.79363523013289L126.37231200933456,121.7656475918592L126.57863415139062,123.55266588759545L126.78495629344668,121.28877682794025L126.99127843550274,119.70457439369525L127.09443950653076,67.51119455412763L127.19760057755879,80.5084188354655L127.40392271961484,99.75569791293019L127.6102448616709,111.48473729069707L127.71340593269892,111.25312106499808L127.81656700372696,109.23469207784535L128.12605021681105,115.3325879496489L128.3323723588671,120.41560508044701L129.0544998560633,119.85866613177912L129.1576609270913,121.52465233801883L129.4671441401754,118.85946187793571L129.6734662822315,119.75735468314915L130.29243270839964,122.15272810447485L130.39559377942766,124.36031881342038L130.6019159214837,124.11912739253576L130.80823806353976,125.81032283727674L131.2208823476519,122.51313131514956L131.633526631764,119.09631455101496L131.83984877382005,116.02239749234049L132.0461709158761,120.250130717321L132.3556541289602,123.87864531754441L132.45881519998824,117.11519832270588L132.56197627101625,116.02633119103886L132.6651373420443,-106.88181211078899L133.28410376821245,-13.9579771881593L133.3872648392405,44.78550577347415L134.00623126540864,-23.73108862406446L134.2125534074647,29.281323587928508L134.41887554952078,62.226094711818774L134.5220366205488,87.31033126085937L134.62519769157683,104.75579423181406L135.55364733082908,113.14523816198724L135.75996947288513,115.88971475579989L136.06945268596922,103.28178669737417L136.48209697008133,108.74570978564051L136.68841911213738,114.40607123236954L136.79158018316542,-2.576542305963952L137.20422446727753,48.8556781035345L137.30738553830557,66.32138010495191L137.51370768036162,76.39059574899505L137.61686875138963,89.21089993276615L137.72002982241767,102.38233976421776L138.02951303550176,107.57995269450687L138.13267410652978,115.59798142000125L139.16428481681007,113.81840313981886L139.37060695886612,119.93158985796283L139.47376802989416,123.03764087909383L139.78325124297822,123.44096607934156L139.88641231400626,120.79496361657161L139.9895733850343,114.95742238754212L140.29905659811837,105.73217530369197L140.4022176691464,109.61178361191185L140.50537874017442,113.58572234296511L142.05279480559486,112.74633835689L142.36227801867895,118.56401515035091L142.56860016073497,113.04782103560541L142.671761231763,92.50429416800858L142.8780833738191,101.02359475842809L142.9812444448471,107.89787042684961L143.2907276579312,93.13614038086016L143.6002108710153,106.43200565005479L143.7033719420433,118.10533998810362L143.80653301307132,124.82697041113592L143.90969408409936,130.68815161164892L144.1160162261554,120.25747391450246L144.3223383682115,124.22454018775778L144.5286605102675,128.85862254592942L144.7349826523236,126.78621380386251L144.8381437233516,123.61494204646853L145.04446586540766,104.65092599320738L145.25078800746374,116.20914572185782L145.4571101495198,119.81570426209052L145.5602712205478,126.44673252828883L145.66343229157584,127.14716607022386L145.76659336260388,127.32940963683933L145.8697544336319,127.22517976015929L146.9013651439122,131.30923522430763L147.3140094280243,131.6910640815296L147.72665371213643,125.20711721099511L147.82981478316444,127.0757880832398L147.93297585419245,120.54201123326547L148.13929799624853,122.26275016402391L148.4487812093326,128.8849422581823L148.7582644224167,124.7160766370124L148.96458656447274,127.32628186250687L149.17090870652882,127.54948398889468L149.27406977755683,131.90908867503006L149.48039191961288,127.58529844787209L149.893036203725,130.4285456022771L149.996197274753,119.93340891763872L150.09935834578107,124.50045316529807L150.30568048783712,127.56844085646655L150.40884155886513,130.7710011335657L150.71832477194923,133.26698213480122L150.82148584297724,120.37665348755971L150.92464691400528,123.0049939989008L151.02780798503332,118.43115444791431L151.23413012708937,116.63360421173479L151.74993548222952,125.53389235350893L152.0594186953136,130.67045545638234L152.57522405045373,130.1627456839405L152.78154619250978,131.8258694391459L153.1941904766219,132.8604966055291L153.40051261867794,131.35457735872825L153.81315690279007,130.59572041112395L153.91631797381808,125.28397071154957L154.01947904484615,117.27962319008105L154.12264011587416,125.3398169044314L154.32896225793021,125.25710199407904L154.6384454710143,127.09159548907026L154.74160654204232,132.5403619066801L154.9479286840984,124.54178544499915L155.0510897551264,125.18466893167005L155.15425082615442,128.3315404024216L155.7732172523226,128.99380675172583L155.97953939437866,134.04680379650353L156.0827004654067,127.66370973791183L156.28902260746273,134.60504539435402L156.3921836784908,136.9607716436523L156.70166689157486,130.37240693867486L156.80482796260287,135.2030629309688L157.32063331774302,134.78214784924992L157.42379438877106,136.93568822900173L157.5269554597991,131.79074959136588L157.83643867288316,135.9713914336145L158.04276081493924,134.39394033883644L158.14592188596725,133.5626242859533L158.24908295699527,130.45596775678288L158.35224402802334,135.90629801182897L158.45540509905135,136.26129502757044L158.55856617007936,139.353216505291L159.17753259624752,140.9104487840416L159.69333795138766,129.03623791630616L159.79649902241573,125.49308938197774L159.89966009344374,125.11827153360942L160.4154654485839,130.5524957154949L160.828109732696,129.94216608955492L161.03443187475204,131.26059155997746L161.13759294578006,131.32399538941073L161.5502372298922,133.24681937335419L161.9628815140043,135.71926568458986L162.6850090112005,137.36130130284806L162.89133115325654,138.86958517159152L163.2008143663406,133.97304366445744L163.4071365083967,133.75809178769816L163.51029757942473,114.23965640660586L163.81978079250882,121.6970281300554L163.92294186353683,130.22807699030034L164.1292640055929,136.7424153957309L164.23242507662093,137.6090095714364L164.541908289705,134.30853419047702L166.29564649718148,138.38101072434796L166.39880756820952,140.75383138886681L166.50196863923753,133.93839510389896L166.60512971026554,135.4180867642315L167.01777399437768,136.27535350675598L167.32725720746177,137.51037506827728L167.43041827848978,139.65606476653L167.73990149157387,141.0123115277517L167.84306256260192,126.99465459788989L167.94622363362993,133.58100380533693L168.35886791774206,131.9891632758616L168.46202898877007,134.23612865345868L168.56519005979808,134.67028396491492L168.77151220185416,136.31547297030906L168.97783434391022,138.1765223708607L169.18415648596627,136.79129753962766L169.39047862802232,135.16365885623625L170.00944505419048,133.0855740638291L170.21576719624656,123.36491295068707L170.7315725513867,132.2399153307239L170.83473362241472,133.12300096190918L171.76318326166697,138.01017148192918L171.866344332695,138.9901582659882L173.00111611400334,139.09612584492095L173.41376039811541,134.23527167013035L173.51692146914348,75.42563445949337L173.82640468222755,100.06642244463097L173.92956575325556,117.8873489939817L174.23904896633965,125.38287651422263L174.44537110839573,126.6480016477563L174.54853217942374,131.00639005830203L174.65169325045176,132.5263782461377L175.37382074764795,136.17704003615404L175.476981818676,136.0808552418544L175.58014288970404,139.04170155855257L175.68330396073205,141.42850548221153L175.99278717381614,134.17813622538594L176.1991093158722,138.28867573429883L176.3022703869002,136.89617622208226L176.40543145792827,137.8428389483698L176.50859252895629,140.46253330804052L177.02439788409643,140.56904200462174L177.23072002615245,143.93965268488387L177.7465253812926,135.3789929981369L177.84968645232067,138.42540888925427L178.15916966540473,131.8150474205953L178.88129716260093,138.36808436750803L179.08761930465698,121.87679446767598L180.11923001493727,129.1267746719216L180.32555215699333,133.93450186056506L180.42871322802137,134.08481255814561L180.6350353700774,139.59692136540608L180.73819644110543,140.17348688210183L180.94451858316148,138.50168058988726L181.04767965418952,141.01521366645386L181.66664608035768,139.73902160800745L181.76980715138572,141.48338201845357L182.3887735775539,143.06735086911624L182.49193464858192,140.0048492034123L183.42038428783417,141.42776108893153L183.8330285719463,138.82567764271863L184.03935071400232,126.39869198296864L184.45199499811446,131.14403152430776L185.07096142428261,128.45768715655433L185.3804446373667,134.30015856121275L185.58676677942276,138.63021157850048L185.89624999250685,139.2937371728849L186.10257213456288,129.27123339924637L186.20573320559095,132.00911263616035L186.61837748970302,137.33580833294582L186.7215385607311,139.3231580638767L186.92786070278711,142.95877864614118L187.03102177381516,147.05358075846067L187.2373439158712,146.8536849602776L187.54682712895527,142.55576239162403L187.64998819998334,131.63973020794396L187.75314927101135,133.2682884957739L188.16579355512349,138.6980132187509L188.3721156971795,137.8519213918076L188.47527676820755,140.8252451340462L188.57843783923556,140.07129123964626L188.78475998129164,134.6216279046364L188.99108212334767,137.8839210085726L189.19740426540375,139.59087099321897L189.5068874784878,141.4000564536457L189.8163706915719,141.73994215384644L189.91953176259995,144.28955482482257L190.02269283362796,142.52436703918377L190.33217604671205,145.83634979234395L190.53849818876813,138.04077870886078L190.64165925979614,140.56423435047662L190.9511424728802,121.82472829584349L191.05430354390828,129.47068419897465L191.36378675699234,134.76763453223998L191.77643104110444,93.86296839767469L191.87959211213249,92.33935882914439L191.9827531831605,113.02801453348982L192.7048806803567,127.70119704121686L192.91120282241275,125.21035752265674L193.01436389344082,134.94043201272393L193.11752496446883,139.8643170647338L193.4270081775529,140.20991836302565L193.53016924858093,139.72815474729055L193.73649139063698,142.68678991064206L194.14913567474912,146.78321171761246L194.25229674577713,145.60601651007235L194.35545781680514,144.43028780360808L194.66494102988923,146.97084732591685L195.07758531400137,145.59201312474224L195.18074638502938,140.69019990765273L195.38706852708543,138.87680885695627L195.49022959811347,142.4664670876019L195.5933906691415,139.9655361001706L195.69655174016953,140.82166233455013L195.9028738822256,144.3655774790805L196.21235709530967,141.77752926537832L196.31551816633768,144.77862962906272L196.41867923736572,141.95544179767023L196.52184030839376,144.1496596381572L196.93448459250587,142.4960004095919L197.0376456635339,143.82996083517716L197.55345101867402,142.94041079955275L197.75977316073008,145.98035141391284L197.86293423175815,146.34719025813527L197.96609530278616,148.97858424324457L198.37873958689826,151.94586348553295L198.68822279998233,151.79206413223886L198.8945449420384,149.2485368034378L199.20402815512247,149.51348264836676L199.30718922615048,150.1489874010064L199.41035029717855,150.2430629877119L199.51351136820657,150.583100061888L199.6166724392346,147.6229010345793L199.82299458129066,150.1959959229201L200.0293167233467,152.2306220395298L200.3387999364308,148.767044534159L200.44196100745884,149.9019422178596L200.64828314951487,150.25373333188114L200.7514442205429,147.67482464925575L200.85460529157095,142.16181973988856L201.164088504655,145.22784060589214L201.3704106467111,144.2073280368047L201.4735717177391,139.92873562053214L201.57673278876712,146.2223381866109L201.67989385979516,149.38803393395756L202.40202135699136,148.74279930183656L202.5051824280194,148.78608739170588L202.8146656411035,132.78750891563507L203.33047099624363,111.8831133594049L203.74311528035574,109.3634346452269L204.3620817065239,125.30953266907146L204.46524277755194,123.89824024349252L204.67156491960796,113.80519382168731L205.0842092037201,127.26061605755598L205.18737027474813,134.52160190116768L205.29053134577615,140.06672503516597L205.4968534878322,142.7728869971663L205.6000145588602,142.01971481431605L205.70317562988828,143.9383307833624L206.11581991400035,144.62315233352004L206.5284641981125,141.88584946413454L206.73478634016854,145.12126087517996L206.83794741119658,145.39723525790103L207.66323597942082,146.63803891969553L207.76639705044883,145.462925473349L208.0758802635329,143.30344641971584L208.385363476617,146.34945983729585L208.79800776072912,147.42358953950142L209.00432990278514,147.54145657333615L209.41697418689728,143.25874525934933L209.93277954203742,141.47025602835558L210.03594061306543,144.85009155735938L210.44858489717754,146.95851772243702L210.5517459682056,148.94523349989225L210.86122918128967,151.09602829394294L210.96439025231768,153.8635243845611L211.06755132334575,150.54456943686878L211.37703453642982,152.92569763598402L211.6865177495139,153.8007153300866L211.78967882054192,156.1176219398895L211.99600096259798,150.70804068754626L212.20232310465406,152.08616422269498L212.30548417568207,150.3258940398792L212.40864524671008,146.63947008955986L213.1307727439063,150.3078588610126L213.33709488596233,111.07677361705856L213.44025595699037,129.1024196162316L214.05922238315856,135.92871523122977L214.16238345418657,138.57696490863043L214.2655445252146,139.95844641020042L214.36870559624262,145.61255364861765L214.47186666727066,147.7084768131563L214.6781888093267,148.43495063053365L214.9876720224108,151.60190309028343L215.709799519607,147.39568127739963L215.81296059063502,151.74977456041933L215.91612166166308,135.9253366379677L216.8445713009153,143.59006714734966L217.1540545139994,149.09766025482398L217.2572155850274,146.61483443365495L217.66985986913954,144.89855252873713L217.77302094016756,147.91689719459353L217.8761820111956,147.05105873268772L217.97934308222364,146.20801174253302L218.2888262953077,149.57268412923898L218.39198736633574,144.15743769567692L218.49514843736378,146.63353282492847L218.5983095083918,149.8397323105942L219.0109537925039,149.84985742776274L219.11411486353194,152.05167911952827L219.21727593455995,147.67305065513207L219.52675914764404,144.6428227677708L219.7330812897001,149.75248900010436L219.93940343175618,142.95841571922153L220.1457255738122,147.55473827589196L220.24888664484024,144.76663256685114L220.35204771586828,143.81234627960396L220.55836985792433,139.6066942559954L220.66153092895235,139.8613618127288L221.1773362840925,130.89982764951577L221.48681949717658,138.6813614080403L221.69314163923264,140.40070283385617L222.00262485231673,136.94854921943315L222.31210806540082,138.29020761370373L222.41526913642883,137.04129551639073L222.62159127848489,144.62430195194537L222.82791342054097,146.17092454203407L223.44687984670912,150.76670505146183L223.55004091773714,147.51599789065776L223.75636305979322,145.1361917613384L223.96268520184927,143.27199448277983L224.89113484110152,146.53539091533926L224.99429591212953,148.99430961464736L225.09745698315754,145.28160563796828L225.2006180541856,148.02698882492408L226.43855090652193,148.01278540630958L226.644873048578,145.69871849597504L226.85119519063406,136.09731587893842L227.05751733269008,126.67929283288106L227.47016161680222,132.34578778290248L227.57332268783023,135.88140198655466L227.6764837588583,138.27766601269929L227.7796448298863,129.82483834315775L227.88280590091432,135.80942824617603L227.98596697194236,137.2280665942385L228.08912804297037,141.27666580366957L228.29545018502645,144.31233080375313L228.39861125605447,137.95848002950692L228.50177232708248,135.2299975622951L228.70809446913856,139.26390877389179L229.2238998242787,138.24561376933167L229.53338303736277,139.20745980268657L229.73970517941885,132.07664485251408L229.84286625044686,137.96579940766628L230.0491883925029,136.17827302854502L230.358671605587,141.49919355385288L230.6681548186711,139.94035328584212L230.87447696072715,139.3944787670142L231.18396017381124,140.65153686067796L231.4934433868953,143.58785354508296L231.59660445792335,137.35630664463463L231.9060876710074,140.02543458629313L232.1124098130635,140.7802467718049L232.2155708840915,145.60666289758635L233.04085945231574,142.16961043034993L233.14402052334378,145.69524689827477L233.3503426653998,139.46061119483147L233.86614802053995,137.84632172900365L234.3819533756801,140.18449229094273L234.48511444670814,143.7577360770046L234.58827551773618,143.84565205781468L234.7945976597922,121.68121225934446L234.89775873082024,135.19711906577984L235.1040808728763,142.84996627245965L235.31040301493235,139.18088292553446L235.61988622801644,143.12076619540056L235.72304729904448,150.36052609692516L236.13569158315659,147.16153734434516L236.65149693829673,142.39921754489455L236.85781908035278,145.21040266199765L237.47678550652097,147.42744731549908L237.57994657754898,148.96634456526488L237.683107648577,148.10332264150648L237.78626871960503,144.29347222798802L237.88942979063307,144.1992804200015L238.19891300371714,147.59145570682105L238.40523514577322,150.0233016424624L238.71471835885728,147.66286923727986L238.8178794298853,138.79966102299457L239.1273626429694,143.23821427959214L239.33368478502547,145.86131648444746L239.54000692708152,148.05931808769952L239.64316799810953,143.3992412101676L239.74632906913757,140.73670190731062L240.15897335324968,143.8607885427843L240.5716176373618,142.95944063705014L240.67477870838982,145.96076540804796L240.77793977941784,137.63006858225364L241.19058406352997,145.24960133513898L241.293745134558,139.2677476354331L241.50006727661406,145.3068952799343L241.60322834764207,139.24817254826337L241.80955048969815,138.93970287263858L241.91271156072617,139.8669614143484L242.0158726317542,132.8314307982072L242.22219477381023,136.19232277864938L242.3253558448383,144.23886607928975L242.4285169158663,148.56404497463572L242.53167798689432,148.49082391518203L242.84116119997842,146.80832793616057L243.04748334203447,147.53398279122885L243.15064441306248,147.45198465313317L243.7696108392307,149.29355883097097L243.8727719102587,152.5826598489291L243.97593298128672,149.96608780483862L244.38857726539885,152.99991473736188L244.5948994074549,145.44637600726455L244.80122154951096,150.75057716740824L245.2138658336231,149.2959097957838L245.93599333081926,146.43600897205823L246.24547654390335,148.05326977551994L246.4517986859594,148.86487422524868L246.65812082801548,149.06052812757446L246.7612818990435,148.3190210763676L246.96760404109955,149.78164248721797L247.17392618315563,152.35840014017808L247.38024832521165,153.7977685188258L247.4834093962397,148.38847385828043L247.5865704672677,149.72272111284528L247.8960536803518,152.5199192252275L247.9992147513798,151.04052201862612L248.30869796446393,148.29220323295692L248.41185903549194,145.8849250020346L248.72134224857604,149.37621449417753L249.0308254616601,143.79046791664769L249.4434697457722,144.69549400362266L250.06243617194042,149.16040711596486L250.16559724296843,151.50075507608494L250.4750804560525,152.9174167978395L250.57824152708054,153.8864318049456L250.7845636691366,147.35422767945207L250.99088581119264,137.33654888854085L251.09404688222068,144.39579042313983L251.30036902427673,147.74244999489673L251.40353009530475,150.30410496331746L251.60985223736083,153.01846118494828L251.71301330838884,150.93639279534247L251.81617437941688,149.57757165644108L251.9193354504449,150.49548276468056L252.12565759250097,144.4049654003296L252.33197973455702,148.05478993985523L252.43514080558504,145.3865816302954L252.84778508969714,147.87744543997601L252.95094616072518,151.09742138766413L253.15726830278123,152.9673118865249L253.4667515158653,147.48976666093878L253.67307365792138,153.3709003635383L253.98255687100547,153.6968322551737L254.60152329717366,152.2001625887865L255.2204897233418,154.8236250311503L255.63313400745392,157.03170236877912L255.942617220538,155.5497692129262L256.4584225756782,154.03118053625747L256.6647447177342,142.75513379888397L256.9742279308183,147.2130757004806L257.59319435698643,152.93839565809154L257.6963554280145,145.74416716518581L257.9026775700706,127.77988993081682L258.2121607831546,136.71874288341706L258.5216439962387,138.60163811384757L258.6248050672667,141.95686061306512L258.72796613829473,140.9929693594142L259.656415777547,143.52500137279702L259.759576848575,146.45064240267493L259.8627379196031,128.07374867588408L259.9658989906311,137.9420847406303L260.1722211326871,144.09331802920062L260.3785432747432,143.74177075667717L260.6880264878273,143.83838022340137L260.7911875588553,140.0856184924352L261.2038318429674,148.9749512567133L261.4101539850235,149.3529862526188L261.5133150560515,152.70492947181089L261.6164761270795,147.43501463346007L261.7196371981076,150.45067687748127L262.5449257663318,144.91310772506068L263.4733754055841,148.23375952424266L263.6796975476401,152.17425859692383L263.9891807607242,150.92902641135316L264.50498611586437,150.57671673478427L264.81446932894846,151.69010330846592L264.9176303999765,153.917724913245L265.22711361306057,154.13837046020524L265.3302746840886,154.21483344648206L265.6397578971726,155.20538035483128L265.94924111025676,153.45561234561342L266.1555632523128,150.4188935088468L266.36188539436887,149.92163458640988L266.67136860745296,154.15876905214947L266.980851820537,153.7235402393817L267.084012891565,149.29610007260197L267.1871739625931,142.30932648998092L267.39349610464916,140.90024605985226L268.21878467287337,144.73039659022857L268.4251068149294,144.60362838442683L268.6314289569855,146.62303611925944L268.83775109904155,146.39050746264883L269.35355645418167,140.546998238372L269.8693618093218,141.26077863530898L270.28200609343395,145.2146798713259L270.69465037754605,147.70326103234706L270.79781144857407,151.55601268475914L270.9009725196021,151.89696684423302L271.3136168037142,150.15599076882413L271.41677787474225,149.28282823417314L271.51993894577026,151.03965693420872L271.6231000167983,149.4599052447777L271.93258322988237,153.12281432691032L272.4483885850225,153.2351591475308L272.7578717981066,144.79636069282566L272.96419394016266,145.9201160937789L273.37683822427476,147.61898161177328L273.4799992953028,149.50696295923785L273.58316036633084,151.44564494738069L273.68632143735886,151.56238497997802L273.8926435794149,152.68011970218055L274.09896572147096,153.89493826544046L274.40844893455505,152.73218865983733L274.71793214763915,154.08218804947256L274.82109321866716,152.41566082601094L275.02741536072324,152.15961531270042L275.23373750277926,153.59291694658015L275.9558649999755,150.43777545648751L276.26534821305955,145.1169457643098L276.36850928408757,142.60508941068716L276.57483142614365,144.24753836205855L276.78115356819967,140.22781548832134L276.98747571025575,142.239506562115L277.09063678128376,137.753028623472L277.29695892333984,140.7969133814082L277.60644213642394,138.30506292414898L277.81276427847996,145.1525488794413L278.12224749156405,147.00468206283213L278.32856963362013,151.93462456178963L278.43173070464815,153.12748559401484" fill="none"></path></g></g></g></g><g opacity="0.2"><g><g><g><path style="fill: none;" stroke="rgb(255, 112, 67)" stroke-width="2px" d="M21.25118063177381,-99.21173118025762L21.663824915885925,95.42957913507962L21.766985986913955,-1037.8849168047964L22.69543562616621,-414.95953789695704L23.10807991027832,121.92594773169732L24.036529549530574,46.43453319674336L24.34601276261466,26.563989691312596L24.75865704672677,40.506877730567794L24.964979188782827,-8.674889682151854L25.171301330838887,-56.02124123141039L25.274462401866913,15.254397959015472L25.48078454392297,87.06627970145746L25.687106685979025,21.366278493569556L26.09975097009114,101.15177796335955L26.20291204111917,52.43821997978558L26.306073112147192,63.827527045577874L26.409234183175222,0.24183630210244764L26.512395254203252,114.10204165378673L27.13136168037142,-32.697586534413865L27.337683822427476,86.6579597794771L27.440844893455505,95.42487716648793L27.544005964483535,-129.68189339759192L27.64716703551156,19.304925768192337L27.956650248595643,93.08058226925824L28.059811319623673,86.88450256518082L28.162972390651703,-38.41813724999157L28.26613346167973,34.9085054875195L28.781938816819874,-13.329547744506254L29.297744171960012,76.61431249811358L29.607227385044098,31.892968218398888L29.710388456072124,-84.43165036216669L30.329354882240295,77.04153724226671L31.154643450464523,70.76176734464752L31.464126663548605,24.007645705378316L31.567287734576635,89.21284954832117L32.28941523177283,80.88721433733552L32.598898444856914,91.9699239666079L32.805220586912974,118.7255794704106L33.52734808410917,92.49659292278011L33.6305091551372,109.93558850556838L33.93999236822128,115.96743862625772L34.04315343924931,69.24436452186455L34.76528093644551,52.101980751576775L34.971603078501566,105.60284563308414L35.177925220557626,99.6322907627473L35.281086291585645,86.6682120099631L35.38424736261368,112.46723503792055L36.106374859809875,91.08927433372628L36.62218021495001,95.87801121179837L36.82850235700607,85.24688446294022L36.931663428034106,75.43232484718828L37.03482449906213,88.30059493067893L37.34430771214621,88.61809899537548L37.653790925230304,68.73158333890387L37.86011306728635,65.19899918335796L37.96327413831438,86.73869306493543L38.27275735139847,97.08200601468887L38.89172377756664,91.20852013512376L38.994884848594666,-13.239798313088595L39.20120699065072,89.269636725694L39.51069020373481,41.773452342240496L39.71701234579086,81.27655672628862L39.82017341681889,89.59865334235474L40.02649555887495,102.83784573165575L40.23281770093101,97.05180677311544L40.335978771959034,92.17033931859078L41.05810626915523,117.98596465832817L41.883394837379456,96.89329711028222L41.98655590840748,-5.230843110448393L42.089716979435515,65.33259326004556L42.50236126354762,106.88330801796837L43.53397197382791,115.39811263543925L43.637133044855936,98.30042180372402L43.84345518691199,121.02527837687376L44.04977732896805,94.82661225557422L44.25609947102411,13.354754174069958L44.565582684108186,62.08183637658294L44.66874375513621,105.0944028644426L44.771904826164246,108.40807887400841L45.08138803924833,98.31343704668143L46.112998749528614,119.54663043954497L46.319320891584674,101.09513620769576L46.93828731775284,107.89355263053949L47.24777053083692,108.37548017423616L47.35093160186495,93.05433365077988L47.454092672892976,54.26386835179073L47.55725374392101,111.1566218853659L47.76357588597707,98.28980601896545L48.176220170089174,106.93010957132174L48.38254231214523,114.1728135521771L48.588864454201286,104.11295175025771L48.795186596257345,115.28751942572853L49.31099195139748,112.32821188409615L49.929958377565654,108.35563011095475L50.65208587476185,81.51601780714373L50.75524694578988,111.08618930429657L51.27105230093002,27.858485271117384L51.37421337195805,81.7933854801504L51.683696585042135,37.73283744622858L51.78685765607017,79.9369561797357L51.89001872709819,-428.76000960917736L52.302663011210306,73.11025523448735L52.40582408223834,17.45428909918701L52.612146224294385,-200.3438045020448L52.92162943737848,87.10089006820454L53.33427372149058,36.86474255422582L53.437434792518616,98.67107750306786L53.54059586354664,90.30530590039236L53.643756934574675,89.12782632244671L53.85007907663073,103.65516421025859L54.15956228971481,88.50280381707307L54.26272336074284,102.04798771910646L54.36588443177087,90.43061093966571L54.67536764485495,-294.6560844097622L54.984850857939044,63.42330316840162L55.60381728410721,41.13822608028385L55.81013942616327,81.28021650596565L56.119622639247346,88.32202039580808L56.22278371027538,-160.82143174155135L56.42910585233144,5.49042086105147L56.53226692335946,96.69520850564368L57.0480722784996,100.066859303206L57.15123334952764,93.07963702814959L57.56387763363975,58.236886390059226L57.7701997756958,91.24523911665163L58.079682988779886,96.62164935783039L58.492327272892005,107.94796458666495L58.90497155700411,91.1909968191867L59.11129369906017,44.531229632120805L59.52393798317228,61.00712147301237L59.62709905420031,36.94850545862209L59.73026012522834,-178.66845640290194L59.93658226728439,70.78442889430335L60.45238762242454,80.88670536135395L60.55554869345256,28.89345157422212L60.96819297756468,76.02947485833283L61.07135404859271,78.81580327708434L61.174515119620736,-31.795075171276057L62.20612582990101,88.0984829920908L62.72193118504115,91.36870214761075L63.444058682237355,104.86085559975434L63.54721975326538,92.62553350477901L64.06302510840553,93.9056808092937L64.16618617943355,91.16719613281019L64.3725083214896,105.9654061906258L64.57883046354566,97.75942880921322L64.99147474765778,104.53140271796656L65.91992438691003,-24.911853655121394L66.12624652896609,80.92967747636976L66.22940759999412,108.68200489990159L66.5388908130782,81.02568004127535L67.15785723924637,44.77866467002059L67.98314580747059,80.40366291788814L68.08630687849862,92.62008019069071L68.18946794952664,79.243149205995L68.39579009158271,108.47325203660148L68.49895116261074,105.78653748852958L68.80843437569482,109.24056968425249L68.91159544672284,-119.15976021964525L69.42740080186299,77.4084362141275L69.53056187289101,102.9458698245071L70.66533365419933,82.84476019942305L70.97481686728341,97.77809126187096L71.07797793831145,107.0253850276822L71.28430008036749,102.35894780689705L71.49062222242355,40.28433404186216L71.80010543550765,58.1419260140683L72.93487721681595,73.83670938190333L73.34752150092807,64.75400875375271L73.4506825719561,80.93905717660164L73.65700471401215,45.86198369137492L73.96648792709622,-922.5676344026215L74.17281006915229,85.80753362512041L74.68861542429242,90.20990925927435L74.79177649532046,79.45706453996536L75.41074292148862,87.87787825950545L75.61706506354469,27.94731369837792L75.7202261345727,66.69514619967231L75.82338720560074,75.84997599549752L75.92654827662876,84.19524313720105L76.0297093476568,79.82973190628398L76.13287041868482,76.46321934244044L76.33919256074088,81.24580003483061L76.54551470279694,85.87685130642058L77.06132005793708,90.33196654704624L77.16448112896511,86.19188320206376L77.26764219999313,73.34004577169253L77.4739643420492,86.8837754566357L77.8866086261613,78.81085893897762L78.09293076821736,104.84178111892106L78.29925291027341,50.0893442987217L78.71189719438553,99.2667732971222L78.81505826541355,52.46829803660148L78.91821933644158,100.8144965462361L79.3308636205537,94.15415803610813L79.74350790466582,108.47848721812623L79.84666897569383,86.82124412175654L80.15615218877792,101.45095889271943L80.36247433083398,100.943340180429L80.46563540186202,99.96770593460498L80.56879647289003,102.6150354364836L80.67195754391807,103.0870985409183L80.7751186149461,108.29101439824625L80.87827968597414,93.09102839535626L81.08460182803017,88.13694703412693L81.18776289905821,103.19640719219933L81.70356825419834,108.03194562362476L81.80672932522637,107.71439308502522L82.11621253831046,100.57081823581939L82.21937360933849,94.29550793727687L82.52885682242257,106.27772354770059L82.73517896447862,101.87425725072899L83.14782324859074,115.84300611723849L83.3541453906468,87.77501663732436L83.56046753270286,103.57590937884197L83.76678967475891,97.89590708312971L84.076272887843,96.63115024281979L84.48891717195511,98.72752536311963L84.59207824298313,108.39140385137398L84.7984003850392,108.59397629204068L85.10788359812328,106.07970765391656L85.5205278822354,25.489250550790523L86.03633323737554,112.32901170349578L86.75846073457174,102.3960788166005L86.86162180559975,105.74426824510736L87.06794394765582,109.9003237411307L87.17110501868383,66.99546626575284L87.27426608971187,96.52695558830601L87.3774271607399,85.54027276089072L87.58374930279595,112.82063402779386L87.89323251588003,104.4096120366612L88.30587679999215,99.32617806525741L88.40903787102017,96.48628598368305L88.8216821551323,94.06734127582239L89.13116536821637,97.46354410525784L89.54380965232849,98.26736260187317L89.85329286541257,118.45557983066102L89.95645393644061,81.6904026732118L90.05961500746864,97.29272207106077L90.16277607849666,120.08195198740394L90.26593714952469,102.47746649974944L90.47225929158074,99.92008032490048L90.57542036260877,107.86175375016684L90.67858143363681,57.09173890541933L90.88490357569286,91.52209781367675L90.98806464672089,120.25980273753703L91.09122571774891,101.52463922529023L91.19438678877695,113.31921235717346L91.400708930833,98.80510784488251L91.60703107288904,114.9095684039821L91.71019214391708,86.88627186264057L92.43231964111328,111.60801087016806L92.74180285419736,116.50496573670353L92.8449639252254,115.0506516986843L92.94812499625343,94.29739841949412L93.15444713830948,94.83017508744524L93.46393035139356,108.29792192942477L93.67025249344962,113.8167969715414L93.87657463550568,106.39420633662668L94.28921891961778,111.83717124663417L94.7018632037299,-3.8298746026885055L95.01134641681398,86.2228580260853L95.11450748784202,95.14932726484403L95.21766855887005,116.03663512280036L95.32082962989807,93.51645960509812L95.4239907009261,97.05338217496319L95.93979605606624,104.6893306939637L96.55876248223441,103.25055254185827L96.76508462429047,103.69629431696013L96.86824569531849,105.17957151202609L96.97140676634652,92.05834036569286L97.28088997943061,100.54064323119748L97.59037319251469,110.63063156383578L97.69353426354272,106.4578768082265L98.00301747662681,113.36952826849483L98.10617854765484,110.31618135502868L98.20933961868286,116.58800153255469L98.41566176073891,119.41974999842388L98.62198390279497,110.18593197764856L99.24095032896315,90.87022076603716L99.55043354204723,82.50638811948193L99.65359461307524,104.97893802747966L99.96307782615935,85.87772383667469L100.06623889718736,100.74803882521337L100.1693999682154,80.35640086245621L100.37572211027145,-23.642734163540815L100.47888318129948,90.42108581772482L101.09784960746765,55.105569203606144L101.51049389157976,91.90261795228253L101.6136549626078,122.41180166153754L101.81997710466385,93.21521853486047L102.0262992467199,106.15811419203055L102.23262138877597,107.79956173260871L102.33578245980398,105.82100243356763L102.43894353083202,13.627977328369528L102.54210460186005,114.47638136975911L102.64526567288807,90.7401410473176L102.95474888597217,67.98535183906095L103.16107102802822,107.70898824483993L103.36739317008427,108.2094570564368L103.67687638316836,109.47494100529184L103.88319852522442,119.90063535320587L103.98635959625244,116.89602894921336L104.08952066728048,117.00957906700752L104.50216495139257,114.96216258874482L104.70848709344864,122.7048264052155L104.81164816447668,119.75807360446196L105.01797030653272,101.30260451256616L105.32745351961681,103.58138692988177L105.74009780372891,115.63216887610906L106.04958101681301,111.37279125582609L106.35906422989709,113.4279150846669L106.46222530092511,110.0585425605459L106.66854744298116,108.6903908851218L106.87486958503723,107.68252149379805L107.08119172709328,70.4846420411559L107.59699708223343,-207.8194982977038L107.90648029531751,105.75842262478545L108.00964136634555,107.80530589011505L108.11280243737357,101.24092147098963L108.42228565045765,112.0023945450339L109.24757421868189,108.40320724675621L109.3507352897099,100.9303976483261L109.45389636073794,92.42405172692997L109.66021850279398,109.29990174153318L110.0728627869061,99.52172178998808L110.27918492896217,96.27787243770399L110.38234599999018,101.03701599799024L110.7949902841023,56.71885340653717L111.00131242615836,94.9670411525858L111.10447349718638,105.28398429910338L111.41395671027048,66.22354359731617L111.62027885232654,106.63754532972234L111.82660099438257,110.62185778739149L112.13608420746668,109.34219522190689L112.34240634952272,89.16010994184946L112.44556742055076,106.85167879625624L112.65188956260681,92.74965093342871L112.75505063363484,97.23346272463459L113.06453384671892,101.76652400129569L113.37401705980301,114.08100397988164L113.47717813083104,105.18417653281176L114.19930562802723,113.50149846943168L114.30246669905527,75.98609071514147L114.40562777008329,115.81687868351766L114.50878884111131,124.20642673561815L114.71511098316738,123.99200242566621L114.8182720541954,99.11989737101067L115.02459419625146,106.52809125673228L115.1277552672795,113.03280430125595L115.23091633830751,113.99438111520794L115.5403995513916,109.72991373510922L115.64356062241963,120.0153730816237L115.74672169344765,123.3971064510115L115.8498827644757,99.4747748149257L116.05620490653175,115.74710050013891L116.6751713326999,120.53336520915764L116.77833240372794,78.1981488049678L117.08781561681202,123.99159039749065L117.80994311400822,120.70697449277758L118.1194263270923,110.26751355640955L118.8415538242885,119.88621436706126L118.94471489531654,110.68819432365672L119.04787596634456,98.23032853997574L119.25419810840062,124.66065144374625L119.35735917942864,122.3930180241223L119.46052025045668,118.99582147967521L119.77000346354076,110.73693483313036L119.87316453456879,74.03719744474074L120.07948667662484,98.19106467853997L120.2858088186809,117.10466062775595L120.38896988970892,118.56018651335035L120.80161417382104,120.39259699482498L120.90477524484908,121.39212887483154L121.31741952896118,119.30273399656471L121.42058059998921,117.2012206425461L121.52374167101723,122.50765880473409L121.62690274204527,123.08013559924804L121.93638595512935,72.74546487740734L122.03954702615738,88.5561735842839L122.14270809718542,101.03517398967597L122.4521913102695,90.73878377803341L122.55535238129751,122.51260314284082L123.38064094952175,115.1195088779059L123.79328523363385,122.00287581576958L123.9996073756899,114.87444906125346L124.20592951774597,126.87302461394212L124.30909058877401,114.00802651890444L124.61857380185809,100.8661939637932L124.7217348728861,123.65547235403936L124.92805701494217,126.68911462593316L125.03121808597021,108.96957632949125L125.13437915699822,131.68473812203956L125.23754022802625,119.90868202110505L125.54702344111034,122.64132559227619L126.37231200933456,121.72366613444865L126.57863415139062,126.2331933311998L126.78495629344668,117.89294323845752L126.99127843550274,117.32827074232773L127.09443950653076,-10.778875205223818L127.19760057755879,100.00425525747232L127.40392271961484,128.6266165291272L127.6102448616709,129.07829635734743L127.71340593269892,110.9056967264496L127.81656700372696,106.20704859711623L128.12605021681105,124.47943175735418L128.3323723588671,128.04013077664422L129.0544998560633,119.02325770877725L129.1576609270913,124.02363164737834L129.4671441401754,114.8616761878111L129.6734662822315,121.10419389096933L130.29243270839964,125.74578823646334L130.39559377942766,127.6717048768387L130.6019159214837,123.75734026120881L130.80823806353976,128.34711600438823L131.2208823476519,117.56734403195878L131.633526631764,113.97108940481303L131.83984877382005,111.41152190432878L132.0461709158761,126.59173055479188L132.3556541289602,129.32141721787957L132.45881519998824,106.9700278304481L132.56197627101625,114.39303049353839L132.6651373420443,-441.24402706353067L133.28410376821245,125.42777519578522L133.3872648392405,132.90073021592434L134.00623126540864,-126.5059802203723L134.2125534074647,108.79994190591788L134.41887554952078,111.64325139765424L134.5220366205488,124.93668608442022L134.62519769157683,130.92398868824603L135.55364733082908,125.72940405724694L135.75996947288513,120.0064296465189L136.06945268596922,84.36989460973564L136.48209697008133,116.94159441804004L136.68841911213738,122.89661340246312L136.79158018316542,-178.05046261346436L137.20422446727753,126.0040087177822L137.30738553830557,92.51993310707803L137.51370768036162,91.49441921505968L137.61686875138963,108.4413562084228L137.72002982241767,122.13949951139512L138.02951303550176,115.37637208994056L138.13267410652978,127.62502450824286L139.16428481681007,111.14903571954528L139.37060695886612,129.1013699351788L139.47376802989416,127.69671741079038L139.78325124297822,124.04595387971312L139.88641231400626,116.82595992241659L139.9895733850343,106.20111054399786L140.29905659811837,91.89430467791681L140.4022176691464,115.4311960742416L140.50537874017442,119.54663043954497L142.05279480559486,111.48726237777737L142.36227801867895,127.29053034054232L142.56860016073497,104.77352986348706L142.671761231763,61.689003866613355L142.8780833738191,113.8025456440573L142.9812444448471,118.2092839294819L143.2907276579312,70.993545311876L143.6002108710153,126.37580355384671L143.7033719420433,135.61534149517684L143.80653301307132,134.90941604568434L143.90969408409936,139.47992341241843L144.1160162261554,104.61145736878278L144.3223383682115,130.17513959764074L144.5286605102675,135.80974608318684L144.7349826523236,123.67760069076212L144.8381437233516,118.8580344103775L145.04446586540766,76.20490191331555L145.25078800746374,133.54647531483351L145.4571101495198,125.22554207243957L145.5602712205478,136.3932749275864L145.66343229157584,128.19781638312634L145.76659336260388,127.6027749867626L145.8697544336319,127.0688349451393L146.9013651439122,137.43531842053017L147.3140094280243,132.26380736736246L147.72665371213643,115.48119690519343L147.82981478316444,129.8787943916068L147.93297585419245,110.74134595830401L148.13929799624853,124.8438585601616L148.4487812093326,138.81823039941992L148.7582644224167,118.46277820525756L148.96458656447274,131.2415897007486L149.17090870652882,127.88428717847637L149.27406977755683,138.4484957042332L149.48039191961288,121.09961310713516L149.893036203725,134.69341633388467L149.996197274753,104.19070389068109L150.09935834578107,131.35101953678713L150.30568048783712,132.17042239321927L150.40884155886513,135.5748415492144L150.71832477194923,137.01095363665445L150.82148584297724,101.04116051669733L150.92464691400528,126.94750476591254L151.02780798503332,111.57039512143456L151.23413012708937,113.93727885746557L151.74993548222952,138.8843245661701L152.0594186953136,138.37530011069248L152.57522405045373,129.40118102527777L152.78154619250978,134.320555071954L153.1941904766219,134.41243735510398L153.40051261867794,129.09569848852698L153.81315690279007,129.4574349897175L153.91631797381808,117.31634616218797L154.01947904484615,105.27310190787831L154.12264011587416,137.4301074759569L154.32896225793021,125.13302962855049L154.6384454710143,129.8433357315571L154.74160654204232,140.7135115330948L154.9479286840984,112.54392075247779L155.0510897551264,126.14899416167646L155.15425082615442,133.051847608549L155.7732172523226,129.98720627568218L155.97953939437866,141.6262993636701L156.0827004654067,118.08906865002427L156.28902260746273,145.01704887901724L156.3921836784908,140.49436101759966L156.70166689157486,120.48985988120876L156.80482796260287,142.44904691940974L157.32063331774302,134.1507752266716L157.42379438877106,140.16599879862952L157.5269554597991,124.07334163491213L157.83643867288316,142.24235419698743L158.04276081493924,132.02776369666935L158.14592188596725,132.31565020662856L158.24908295699527,125.7959829630272L158.35224402802334,144.08179339439812L158.45540509905135,136.7937905511826L158.55856617007936,143.99109872187182L159.17753259624752,143.24629720216763L159.69333795138766,111.2249216147029L159.79649902241573,120.17836658048509L159.89966009344374,124.55604476105691L160.4154654485839,138.70383198832315L160.828109732696,129.02667165064486L161.03443187475204,133.23822976561132L161.13759294578006,131.41910113356062L161.5502372298922,136.13105534926945L161.9628815140043,139.4279351514433L162.6850090112005,139.82435473023543L162.89133115325654,141.13201097470665L163.2008143663406,126.6282314037562L163.4071365083967,133.43566397255927L163.51029757942473,84.96200333496745L163.81978079250882,132.88308571522975L163.92294186353683,143.02465028066763L164.1292640055929,146.5139230038767L164.23242507662093,138.9089008349947L164.541908289705,129.3578211190379L166.29564649718148,144.48972552515443L166.39880756820952,144.31306238564503L166.50196863923753,123.71524067644714L166.60512971026554,137.63762425473033L167.01777399437768,137.56125362054263L167.32725720746177,139.36290741055927L167.43041827848978,142.87459931390913L167.73990149157387,143.04668166958436L167.84306256260192,105.9681692030972L167.94622363362993,143.46052761650753L168.35886791774206,129.60140248164862L168.46202898877007,137.60657671985427L168.56519005979808,135.32151693209926L168.77151220185416,138.7832564784003L168.97783434391022,140.9680964716881L169.18415648596627,134.7134602927781L169.39047862802232,132.72220083114917L170.00944505419048,129.96844687521843L170.21576719624656,108.78392128097403L170.7315725513867,145.55241890077923L170.83473362241472,134.44762940868713L171.76318326166697,145.34092726195922L171.866344332695,140.46013844207664L173.00111611400334,139.25507721331996L173.41376039811541,126.94399040794451L173.51692146914348,-12.788821356462L173.82640468222755,137.0276044223374L173.92956575325556,144.61873881800784L174.23904896633965,136.62616779458403L174.44537110839573,128.54568934805684L174.54853217942374,137.5439726741206L174.65169325045176,134.80636052789123L175.37382074764795,141.65303272117853L175.476981818676,135.93657805040493L175.58014288970404,143.48297103359982L175.68330396073205,145.00871136770002L175.99278717381614,123.30258234014762L176.1991093158722,144.45448499766826L176.3022703869002,134.80742695375739L176.40543145792827,139.2628330378011L176.50859252895629,144.3920748475466L177.02439788409643,140.72880504949353L177.23072002615245,148.99556870527704L177.7465253812926,122.53800346801654L177.84968645232067,142.9950327259303L178.15916966540473,121.89950521760692L178.88129716260093,148.19763978787705L179.08761930465698,97.13985961792785L180.11923001493727,140.00174497828993L180.32555215699333,141.1460926435302L180.42871322802137,134.3102786045165L180.6350353700774,147.8650845762968L180.73819644110543,141.0383351571454L180.94451858316148,135.99397115156535L181.04767965418952,144.7855132813038L181.66664608035768,137.82473352033776L181.76980715138572,144.09992263412278L182.3887735775539,145.44330414511023L182.49193464858192,135.4110967048564L183.42038428783417,143.56212891721043L183.8330285719463,134.92255247339926L184.03935071400232,107.75821349334365L184.45199499811446,138.26204083631637L185.07096142428261,124.42817060492416L185.3804446373667,143.06386566820038L185.58676677942276,145.1252911044321L185.89624999250685,140.28902556446155L186.10257213456288,114.23747773878858L186.20573320559095,136.11593149153123L186.61837748970302,145.325851878124L186.7215385607311,142.304182660273L186.92786070278711,148.412209519538L187.03102177381516,153.19578392693984L187.2373439158712,146.55384126300305L187.54682712895527,136.1088785386437L187.64998819998334,115.26568193242382L187.75314927101135,135.71112592751888L188.16579355512349,146.8426003032164L188.3721156971795,136.58278365139267L188.47527676820755,145.28523074740406L188.57843783923556,138.94036039804632L188.78475998129164,126.44713290212167L188.99108212334767,142.77736066447687L189.19740426540375,142.15129597018858L189.5068874784878,144.11383464428582L189.8163706915719,142.24977070414752L189.91953176259995,148.11397383128678L190.02269283362796,139.87658536072558L190.33217604671205,150.80432392208422L190.53849818876813,126.34742208363606L190.64165925979614,144.34941781290036L190.9511424728802,93.7154692138938L191.05430354390828,140.93961805367144L191.36378675699234,142.71306003213795L191.77643104110444,32.50596919582676L191.87959211213249,90.05394447634899L191.9827531831605,144.06099809000807L192.7048806803567,149.71097080280742L192.91120282241275,121.47409824481656L193.01436389344082,149.5355437478247L193.11752496446883,147.25014464274864L193.4270081775529,140.72832031046346L193.53016924858093,139.00550932368787L193.73649139063698,147.12474265566925L194.14913567474912,152.92784442806806L194.25229674577713,143.8402236987622L194.35545781680514,142.66669474391165L194.66494102988923,150.7816866093799L195.07758531400137,143.5237618229803L195.18074638502938,133.33748008201837L195.38706852708543,136.1567222809117L195.49022959811347,147.85095443357022L195.5933906691415,136.21413961902363L195.69655174016953,142.10585168611942L195.9028738822256,149.6814501958761L196.21235709530967,137.89545694482513L196.31551816633768,149.28028017458928L196.41867923736572,137.7206600505815L196.52184030839376,147.44098639888762L196.93448459250587,140.01551156674395L197.0376456635339,145.83090147355506L197.55345101867402,141.60608574611615L197.75977316073008,150.540262335453L197.86293423175815,146.89744852446893L197.96609530278616,152.9256752209085L198.37873958689826,156.39678234896564L198.68822279998233,151.5613651022977L198.8945449420384,145.43324581023626L199.20402815512247,149.91090141576024L199.30718922615048,151.1022445299659L199.41035029717855,150.38417636777012L199.51351136820657,151.09315567315207L199.6166724392346,143.1826024936163L199.82299458129066,154.0556382554314L200.0293167233467,155.28256121444429L200.3387999364308,143.57167827610283L200.44196100745884,151.6042887434105L200.64828314951487,150.78142000291336L200.7514442205429,143.80646162531775L200.85460529157095,133.89231237583772L201.164088504655,149.82687190489742L201.3704106467111,142.6765591831736L201.4735717177391,133.5108469961233L201.57673278876712,155.66274203572902L201.67989385979516,154.13657755497752L202.40202135699136,147.77494735365508L202.5051824280194,148.85101952650984L202.8146656411035,108.78964120152885L203.33047099624363,80.52652002505964L203.74311528035574,105.58391657395988L204.3620817065239,149.2286797048382L204.46524277755194,121.7813016051241L204.67156491960796,98.66562418897956L205.0842092037201,147.44374941135902L205.18737027474813,145.4130806665853L205.29053134577615,148.38440973616343L205.4968534878322,146.83212994016685L205.6000145588602,140.88995654004066L205.70317562988828,146.81625473693202L206.11581991400035,145.6503846587566L206.5284641981125,137.77989516005618L206.73478634016854,149.97437799174804L206.83794741119658,145.81119683198267L207.66323597942082,148.49924441238727L207.76639705044883,143.70025530382918L208.0758802635329,140.0642278392661L208.385363476617,150.91847996366596L208.79800776072912,149.0347840928098L209.00432990278514,147.71825712408827L209.41697418689728,136.8346782883691L209.93277954203742,138.78752218186492L210.03594061306543,149.91984485086505L210.44858489717754,150.12115697005356L210.5517459682056,151.92530716607507L210.86122918128967,154.322220485019L210.96439025231768,158.01476852048836L211.06755132334575,145.56613701533024L211.37703453642982,156.4973899346569L211.6865177495139,155.11324187124046L211.78967882054192,159.59298185459375L211.99600096259798,142.59366880903144L212.20232310465406,154.15334952541798L212.30548417568207,147.68548876565546L212.40864524671008,141.1098341640809L213.1307727439063,155.81044201819168L213.33709488596233,52.23014575112756L213.44025595699037,156.14088861499113L214.05922238315856,146.168158653727L214.16238345418657,142.54933942473144L214.2655445252146,142.0306686625554L214.36870559624262,154.0937145062435L214.47186666727066,150.85236155996427L214.6781888093267,149.5246613565996L214.9876720224108,156.35233177990813L215.709799519607,141.08634855807395L215.81296059063502,158.28091448494888L215.91612166166308,112.1886797542902L216.8445713009153,155.08716291142264L217.1540545139994,157.35904991603547L217.2572155850274,142.89059570190147L217.66985986913954,142.32412967136042L217.77302094016756,152.44441419337818L217.8761820111956,145.75230103982904L217.97934308222364,144.94344125730095L218.2888262953077,154.61969270929785L218.39198736633574,136.0345680453338L218.49514843736378,150.34767551880577L218.5983095083918,154.6490315390929L219.0109537925039,149.8650451035155L219.11411486353194,155.35441165717657L219.21727593455995,141.1051079585377L219.52675914764404,140.09748093672897L219.7330812897001,157.41698834860472L219.93940343175618,132.76730579789728L220.1457255738122,154.4492221108976L220.24888664484024,140.58447400328987L220.35204771586828,142.38091684873325L220.55836985792433,133.29821622058262L220.66153092895235,140.24336314782886L221.1773362840925,117.45752640469618L221.48681949717658,150.35366204582715L221.69314163923264,142.97971497258004L222.00262485231673,131.7703187977986L222.31210806540082,140.30269520510956L222.41526913642883,135.16792737042124L222.62159127848489,155.9988116052773L222.82791342054097,148.49085842716704L223.44687984670912,157.6603758156034L223.55004091773714,142.63993714945173L223.75636305979322,141.56648256735934L223.96268520184927,140.47569856494192L224.89113484110152,151.43048556417853L224.99429591212953,152.6826876636096L225.09745698315754,139.71254967294954L225.2006180541856,152.1450636053578L226.43855090652193,147.99148027838783L226.644873048578,142.22761813047327L226.85119519063406,121.69521195338349L227.05751733269008,112.55225826379501L227.47016161680222,140.84553020793464L227.57332268783023,141.1848232920329L227.6764837588583,141.87206205191615L227.7796448298863,117.14559683884545L227.88280590091432,144.7863131007034L227.98596697194236,139.35602411633226L228.08912804297037,147.3495646178162L228.29545018502645,148.86582830387852L228.39861125605447,128.42770386813754L228.50177232708248,131.1372738614773L228.70809446913856,145.3147755912869L229.2238998242787,136.71817126249152L229.53338303736277,140.650228852719L229.73970517941885,121.38042242725533L229.84286625044686,146.79953124039457L230.0491883925029,133.49698345986326L230.358671605587,149.48057434181464L230.6681548186711,137.60209288382612L230.87447696072715,138.57566698877235L231.18396017381124,142.53712400117365L231.4934433868953,147.99232857169045L231.59660445792335,128.00898629396215L231.9060876710074,144.0291264987809L232.1124098130635,141.91246505007257L232.2155708840915,152.8462870862586L233.04085945231574,137.0140317294954L233.14402052334378,150.98370160016202L233.3503426653998,130.1086576396665L233.86614802053995,135.4248875302619L234.3819533756801,143.69174813385143L234.48511444670814,149.11760175609743L234.58827551773618,143.97752602902983L234.7945976597922,88.43455256163907L234.89775873082024,155.4709792754329L235.1040808728763,154.32923708247927L235.31040301493235,133.6772579051467L235.61988622801644,149.03059110019967L235.72304729904448,161.22016594921206L236.13569158315659,142.36305421547513L236.65149693829673,135.2557378457186L236.85781908035278,149.42718033765232L237.47678550652097,150.7530142957512L237.57994657754898,151.27469043991368L237.683107648577,146.80878975586893L237.78626871960503,138.5786966077103L237.88942979063307,144.05799270802163L238.19891300371714,152.67971863705043L238.40523514577322,153.67107054592452L238.71471835885728,144.12222062950605L238.8178794298853,125.50484870156652L239.1273626429694,149.89604416448856L239.33368478502547,149.79596979173039L239.54000692708152,151.35632049257765L239.64316799810953,136.4091258938697L239.74632906913757,136.74289295302515L240.15897335324968,148.54691849599476L240.5716176373618,141.60741877844885L240.67477870838982,150.46275256454464L240.77793977941784,125.13402334356216L241.19058406352997,156.678900464467L241.293745134558,130.2949670858743L241.50006727661406,154.3656167466861L241.60322834764207,130.16008845075703L241.80955048969815,138.4769983592014L241.91271156072617,141.2578492269131L242.0158726317542,122.27813487399544L242.22219477381023,141.23366074931255L242.3253558448383,156.30868103025023L242.4285169158663,155.0518133176547L242.53167798689432,148.38099232600143L242.84116119997842,144.28458396762835L243.04748334203447,148.62246507383134L243.15064441306248,147.3289874459897L243.7696108392307,152.05592009772772L243.8727719102587,157.51631137586628L243.97593298128672,146.0412297387029L244.38857726539885,157.55065513614682L244.5948994074549,134.11606791211852L244.80122154951096,158.70687890762383L245.2138658336231,147.11390873834716L245.93599333081926,142.14615773646983L246.24547654390335,150.47916098071255L246.4517986859594,150.08228089984186L246.65812082801548,149.3540089810631L246.7612818990435,147.20676049955728L246.96760404109955,151.97557460349344L247.17392618315563,156.22353661961824L247.38024832521165,155.9568210867974L247.4834093962397,140.27453186746243L247.5865704672677,151.72409199469257L247.8960536803518,156.7157163938009L247.9992147513798,148.821426208724L248.30869796446393,144.169725054453L248.41185903549194,142.27400765565108L248.72134224857604,154.6131487323919L249.0308254616601,135.411848050353L249.4434697457722,146.05303313408513L250.06243617194042,155.85777678447812L250.16559724296843,155.011277016265L250.4750804560525,155.04240938047133L250.57824152708054,155.3399543156047L250.7845636691366,137.55592149121185L250.99088581119264,122.31003070217412L251.09404688222068,154.98465272503836L251.30036902427673,152.76243935253206L251.40353009530475,154.1465874159485L251.60985223736083,157.08999551739453L251.71301330838884,147.8132902109337L251.81617437941688,147.53933994808904L251.9193354504449,151.8723494270398L252.12565759250097,135.26918935380309L252.33197973455702,153.52952674914377L252.43514080558504,141.38426916595563L252.84778508969714,151.6137411544969L252.95094616072518,155.92738530919632L253.15726830278123,155.77214763481606L253.4667515158653,139.27344882255966L253.67307365792138,162.19260091743763L253.98255687100547,154.18573009262673L254.60152329717366,149.95515808920572L255.2204897233418,158.75881869469595L255.63313400745392,160.34381837522233L255.942617220538,153.3268694791468L256.4584225756782,151.75329752125435L256.6647447177342,125.84106369282381L256.9742279308183,153.89998855287558L257.59319435698643,161.52637559450795L257.6963554280145,134.9528244258272L257.9026775700706,100.83347407926341L258.2121607831546,150.12702231231742L258.5216439962387,141.42598095949324L258.6248050672667,146.98969436189145L258.72796613829473,139.54713247893778L259.656415777547,147.32304939287133L259.759576848575,150.83910394749182L259.8627379196031,100.50840808569775L259.9658989906311,152.7445888377497L260.1722211326871,153.32016796205608L260.3785432747432,143.21444984789196L260.6880264878273,143.98329442348768L260.7911875588553,134.45647589598593L261.2038318429674,162.30895040313044L261.4101539850235,149.92003874647708L261.5133150560515,157.73284430059903L261.6164761270795,139.5301423759338L261.7196371981076,154.97417024351307L262.5449257663318,136.6067539964297L263.4733754055841,153.21473722301562L263.6796975476401,158.08500720594566L263.9891807607242,149.06117813299716L264.50498611586437,150.04825221993087L264.81446932894846,153.36018316898844L264.9176303999765,157.25915732041358L265.22711361306057,154.46933878064556L265.3302746840886,154.3295279258973L265.6397578971726,156.69120071735506L265.94924111025676,150.83096033178663L266.1555632523128,145.86381525369688L266.36188539436887,149.17574620275445L266.67136860745296,160.51447075075885L266.980851820537,153.07069702023L267.084012891565,142.65493982243242L267.1871739625931,131.82916611604924L267.39349610464916,138.78662541465928L268.21878467287337,150.47562238579303L268.4251068149294,144.41347607572425L268.6314289569855,149.6521477215083L268.83775109904155,146.04171447773297L269.35355645418167,131.78173440195678L269.8693618093218,142.3314492307145L270.28200609343395,151.14553172535125L270.69465037754605,151.43613277387885L270.79781144857407,157.33514016337722L270.9009725196021,152.4083980834439L271.3136168037142,147.5445266557108L271.41677787474225,147.97308443219663L271.51993894577026,153.67489998426208L271.6231000167983,147.0902777106312L271.93258322988237,158.61717795010918L272.4483885850225,153.40367637846157L272.7578717981066,132.13816301076804L272.96419394016266,147.60574919520877L273.37683822427476,150.16727988876482L273.4799992953028,152.33893498043471L273.58316036633084,154.35366792959485L273.68632143735886,151.73749502887404L273.8926435794149,154.3567217854843L274.09896572147096,155.71716611033025L274.40844893455505,150.98806425143266L274.71793214763915,156.10718713392544L274.82109321866716,149.91586999081846L275.02741536072324,151.77554704273462L275.23373750277926,155.74286939739977L275.9558649999755,145.7050632213486L276.26534821305955,137.13570122604324L276.36850928408757,138.8373048802532L276.57483142614365,146.71121178911562L276.78115356819967,134.19823117771557L276.98747571025575,145.25704317280542L277.09063678128376,131.0233117155076L277.29695892333984,145.36274051831242L277.60644213642394,134.56728723826018L277.81276427847996,155.42377781237974L278.12224749156405,149.78288183791847L278.32856963362013,159.32953831022587L278.43173070464815,154.91677714235266" fill="none"></path></g></g></g></g></g></g><g transform="translate(41, 177)" clip-path="url(#clip_1)"><clipPath id="clip_1"><rect width="288" height="22"></rect></clipPath><g><g><line x1="0" y1="0" x2="0" y2="5" style="visibility: inherit;" fill="rgb(0, 0, 0)" stroke="rgb(204, 204, 204)" stroke-width="1px"></line><line x1="20.632214205605642" y1="0" x2="20.632214205605642" y2="5" style="visibility: inherit;" fill="rgb(0, 0, 0)" stroke="rgb(204, 204, 204)" stroke-width="1px"></line><line x1="41.264428411211284" y1="0" x2="41.264428411211284" y2="5" style="visibility: inherit;" fill="rgb(0, 0, 0)" stroke="rgb(204, 204, 204)" stroke-width="1px"></line><line x1="61.896642616816926" y1="0" x2="61.896642616816926" y2="5" style="visibility: inherit;" fill="rgb(0, 0, 0)" stroke="rgb(204, 204, 204)" stroke-width="1px"></line><line x1="82.52885682242257" y1="0" x2="82.52885682242257" y2="5" style="visibility: inherit;" fill="rgb(0, 0, 0)" stroke="rgb(204, 204, 204)" stroke-width="1px"></line><line x1="103.16107102802822" y1="0" x2="103.16107102802822" y2="5" style="visibility: inherit;" fill="rgb(0, 0, 0)" stroke="rgb(204, 204, 204)" stroke-width="1px"></line><line x1="123.79328523363385" y1="0" x2="123.79328523363385" y2="5" style="visibility: inherit;" fill="rgb(0, 0, 0)" stroke="rgb(204, 204, 204)" stroke-width="1px"></line><line x1="144.4254994392395" y1="0" x2="144.4254994392395" y2="5" style="visibility: inherit;" fill="rgb(0, 0, 0)" stroke="rgb(204, 204, 204)" stroke-width="1px"></line><line x1="165.05771364484514" y1="0" x2="165.05771364484514" y2="5" style="visibility: inherit;" fill="rgb(0, 0, 0)" stroke="rgb(204, 204, 204)" stroke-width="1px"></line><line x1="185.6899278504508" y1="0" x2="185.6899278504508" y2="5" style="visibility: inherit;" fill="rgb(0, 0, 0)" stroke="rgb(204, 204, 204)" stroke-width="1px"></line><line x1="206.32214205605644" y1="0" x2="206.32214205605644" y2="5" style="visibility: inherit;" fill="rgb(0, 0, 0)" stroke="rgb(204, 204, 204)" stroke-width="1px"></line><line x1="226.95435626166207" y1="0" x2="226.95435626166207" y2="5" style="visibility: inherit;" fill="rgb(0, 0, 0)" stroke="rgb(204, 204, 204)" stroke-width="1px"></line><line x1="247.5865704672677" y1="0" x2="247.5865704672677" y2="5" style="visibility: inherit;" fill="rgb(0, 0, 0)" stroke="rgb(204, 204, 204)" stroke-width="1px"></line><line x1="268.21878467287337" y1="0" x2="268.21878467287337" y2="5" style="visibility: inherit;" fill="rgb(0, 0, 0)" stroke="rgb(204, 204, 204)" stroke-width="1px"></line><line x1="288.850998878479" y1="0" x2="288.850998878479" y2="5" style="visibility: inherit;" fill="rgb(0, 0, 0)" stroke="rgb(204, 204, 204)" stroke-width="1px"></line></g><g transform="translate(0, 8)"><text style="text-anchor: middle; visibility: hidden; font-family: Roboto, sans-serif; font-size: 12px; font-weight: 200;" x="0" y="0" dx="0em" dy="0.95em" fill="rgb(50, 49, 63)" stroke="none" stroke-width="1px">-200</text><text style="text-anchor: middle; visibility: hidden; font-family: Roboto, sans-serif; font-size: 12px; font-weight: 200;" x="20.632214205605642" y="0" dx="0em" dy="0.95em" fill="rgb(50, 49, 63)" stroke="none" stroke-width="1px">0</text><text style="text-anchor: middle; visibility: hidden; font-family: Roboto, sans-serif; font-size: 12px; font-weight: 200;" x="41.264428411211284" y="0" dx="0em" dy="0.95em" fill="rgb(50, 49, 63)" stroke="none" stroke-width="1px">200</text><text style="text-anchor: middle; visibility: hidden; font-family: Roboto, sans-serif; font-size: 12px; font-weight: 200;" x="61.896642616816926" y="0" dx="0em" dy="0.95em" fill="rgb(50, 49, 63)" stroke="none" stroke-width="1px">400</text><text style="text-anchor: middle; visibility: hidden; font-family: Roboto, sans-serif; font-size: 12px; font-weight: 200;" x="82.52885682242257" y="0" dx="0em" dy="0.95em" fill="rgb(50, 49, 63)" stroke="none" stroke-width="1px">600</text><text style="text-anchor: middle; visibility: hidden; font-family: Roboto, sans-serif; font-size: 12px; font-weight: 200;" x="103.16107102802822" y="0" dx="0em" dy="0.95em" fill="rgb(50, 49, 63)" stroke="none" stroke-width="1px">800</text><text style="text-anchor: middle; visibility: hidden; font-family: Roboto, sans-serif; font-size: 12px; font-weight: 200;" x="123.79328523363385" y="0" dx="0em" dy="0.95em" fill="rgb(50, 49, 63)" stroke="none" stroke-width="1px">1k</text><text style="text-anchor: middle; visibility: hidden; font-family: Roboto, sans-serif; font-size: 12px; font-weight: 200;" x="144.4254994392395" y="0" dx="0em" dy="0.95em" fill="rgb(50, 49, 63)" stroke="none" stroke-width="1px">1.2k</text><text style="text-anchor: middle; visibility: hidden; font-family: Roboto, sans-serif; font-size: 12px; font-weight: 200;" x="165.05771364484514" y="0" dx="0em" dy="0.95em" fill="rgb(50, 49, 63)" stroke="none" stroke-width="1px">1.4k</text><text style="text-anchor: middle; visibility: hidden; font-family: Roboto, sans-serif; font-size: 12px; font-weight: 200;" x="185.6899278504508" y="0" dx="0em" dy="0.95em" fill="rgb(50, 49, 63)" stroke="none" stroke-width="1px">1.6k</text><text style="text-anchor: middle; visibility: hidden; font-family: Roboto, sans-serif; font-size: 12px; font-weight: 200;" x="206.32214205605644" y="0" dx="0em" dy="0.95em" fill="rgb(50, 49, 63)" stroke="none" stroke-width="1px">1.8k</text><text style="text-anchor: middle; visibility: hidden; font-family: Roboto, sans-serif; font-size: 12px; font-weight: 200;" x="226.95435626166207" y="0" dx="0em" dy="0.95em" fill="rgb(50, 49, 63)" stroke="none" stroke-width="1px">2k</text><text style="text-anchor: middle; visibility: hidden; font-family: Roboto, sans-serif; font-size: 12px; font-weight: 200;" x="247.5865704672677" y="0" dx="0em" dy="0.95em" fill="rgb(50, 49, 63)" stroke="none" stroke-width="1px">2.2k</text><text style="text-anchor: middle; visibility: hidden; font-family: Roboto, sans-serif; font-size: 12px; font-weight: 200;" x="268.21878467287337" y="0" dx="0em" dy="0.95em" fill="rgb(50, 49, 63)" stroke="none" stroke-width="1px">2.4k</text><text style="text-anchor: middle; visibility: hidden; font-family: Roboto, sans-serif; font-size: 12px; font-weight: 200;" x="288.850998878479" y="0" dx="0em" dy="0.95em" fill="rgb(50, 49, 63)" stroke="none" stroke-width="1px">2.6k</text></g><line x1="0" y1="0" x2="288.850998878479" y2="0" fill="rgb(0, 0, 0)" stroke="rgb(204, 204, 204)" stroke-width="1px"></line></g></g></g></g></svg>