<svg viewBox="0 0 330 200" xmlns="http://www.w3.org/2000/svg"><g><g><g><g><g><line x1="41.149001121520996" y1="177.89999961853027" x2="36.149001121520996" y2="177.89999961853027" style="visibility: inherit;" fill="rgb(0, 0, 0)" stroke="rgb(204, 204, 204)" stroke-width="1px"></line><line x1="41.149001121520996" y1="161.72727238048205" x2="36.149001121520996" y2="161.72727238048205" style="visibility: inherit;" fill="rgb(0, 0, 0)" stroke="rgb(204, 204, 204)" stroke-width="1px"></line><line x1="41.149001121520996" y1="145.55454514243382" x2="36.149001121520996" y2="145.55454514243382" style="visibility: inherit;" fill="rgb(0, 0, 0)" stroke="rgb(204, 204, 204)" stroke-width="1px"></line><line x1="41.149001121520996" y1="129.38181790438568" x2="36.149001121520996" y2="129.38181790438568" style="visibility: inherit;" fill="rgb(0, 0, 0)" stroke="rgb(204, 204, 204)" stroke-width="1px"></line><line x1="41.149001121520996" y1="113.20909066633746" x2="36.149001121520996" y2="113.20909066633746" style="visibility: inherit;" fill="rgb(0, 0, 0)" stroke="rgb(204, 204, 204)" stroke-width="1px"></line><line x1="41.149001121520996" y1="97.03636342828923" x2="36.149001121520996" y2="97.03636342828923" style="visibility: inherit;" fill="rgb(0, 0, 0)" stroke="rgb(204, 204, 204)" stroke-width="1px"></line><line x1="41.149001121520996" y1="80.86363619024102" x2="36.149001121520996" y2="80.86363619024102" style="visibility: inherit;" fill="rgb(0, 0, 0)" stroke="rgb(204, 204, 204)" stroke-width="1px"></line><line x1="41.149001121520996" y1="64.69090895219281" x2="36.149001121520996" y2="64.69090895219281" style="visibility: inherit;" fill="rgb(0, 0, 0)" stroke="rgb(204, 204, 204)" stroke-width="1px"></line><line x1="41.149001121520996" y1="48.51818171414465" x2="36.149001121520996" y2="48.51818171414465" style="visibility: inherit;" fill="rgb(0, 0, 0)" stroke="rgb(204, 204, 204)" stroke-width="1px"></line><line x1="41.149001121520996" y1="32.34545447609644" x2="36.149001121520996" y2="32.34545447609644" style="visibility: inherit;" fill="rgb(0, 0, 0)" stroke="rgb(204, 204, 204)" stroke-width="1px"></line><line x1="41.149001121520996" y1="16.17272723804821" x2="36.149001121520996" y2="16.17272723804821" style="visibility: inherit;" fill="rgb(0, 0, 0)" stroke="rgb(204, 204, 204)" stroke-width="1px"></line><line x1="41.149001121520996" y1="0" x2="36.149001121520996" y2="0" style="visibility: inherit;" fill="rgb(0, 0, 0)" stroke="rgb(204, 204, 204)" stroke-width="1px"></line></g><g transform="translate(31.149001121520996, 0)"><text style="text-anchor: end; visibility: hidden; font-family: Roboto, sans-serif; font-size: 12px; font-weight: 200;" x="0" y="177.89999961853027" dx="0em" dy="0.3em" fill="rgb(50, 49, 63)" stroke="none" stroke-width="1px">2.5</text><text style="text-anchor: end; visibility: inherit; font-family: Roboto, sans-serif; font-size: 12px; font-weight: 200;" x="0" y="161.72727238048205" dx="0em" dy="0.3em" fill="rgb(50, 49, 63)" stroke="none" stroke-width="1px">2.6</text><text style="text-anchor: end; visibility: hidden; font-family: Roboto, sans-serif; font-size: 12px; font-weight: 200;" x="0" y="145.55454514243382" dx="0em" dy="0.3em" fill="rgb(50, 49, 63)" stroke="none" stroke-width="1px">2.7</text><text style="text-anchor: end; visibility: inherit; font-family: Roboto, sans-serif; font-size: 12px; font-weight: 200;" x="0" y="129.38181790438568" dx="0em" dy="0.3em" fill="rgb(50, 49, 63)" stroke="none" stroke-width="1px">2.8</text><text style="text-anchor: end; visibility: hidden; font-family: Roboto, sans-serif; font-size: 12px; font-weight: 200;" x="0" y="113.20909066633746" dx="0em" dy="0.3em" fill="rgb(50, 49, 63)" stroke="none" stroke-width="1px">2.9</text><text style="text-anchor: end; visibility: inherit; font-family: Roboto, sans-serif; font-size: 12px; font-weight: 200;" x="0" y="97.03636342828923" dx="0em" dy="0.3em" fill="rgb(50, 49, 63)" stroke="none" stroke-width="1px">3</text><text style="text-anchor: end; visibility: hidden; font-family: Roboto, sans-serif; font-size: 12px; font-weight: 200;" x="0" y="80.86363619024102" dx="0em" dy="0.3em" fill="rgb(50, 49, 63)" stroke="none" stroke-width="1px">3.1</text><text style="text-anchor: end; visibility: inherit; font-family: Roboto, sans-serif; font-size: 12px; font-weight: 200;" x="0" y="64.69090895219281" dx="0em" dy="0.3em" fill="rgb(50, 49, 63)" stroke="none" stroke-width="1px">3.2</text><text style="text-anchor: end; visibility: hidden; font-family: Roboto, sans-serif; font-size: 12px; font-weight: 200;" x="0" y="48.51818171414465" dx="0em" dy="0.3em" fill="rgb(50, 49, 63)" stroke="none" stroke-width="1px">3.3</text><text style="text-anchor: end; visibility: inherit; font-family: Roboto, sans-serif; font-size: 12px; font-weight: 200;" x="0" y="32.34545447609644" dx="0em" dy="0.3em" fill="rgb(50, 49, 63)" stroke="none" stroke-width="1px">3.4</text><text style="text-anchor: end; visibility: hidden; font-family: Roboto, sans-serif; font-size: 12px; font-weight: 200;" x="0" y="16.17272723804821" dx="0em" dy="0.3em" fill="rgb(50, 49, 63)" stroke="none" stroke-width="1px">3.5</text><text style="text-anchor: end; visibility: hidden; font-family: Roboto, sans-serif; font-size: 12px; font-weight: 200;" x="0" y="0" dx="0em" dy="0.3em" fill="rgb(50, 49, 63)" stroke="none" stroke-width="1px">3.6</text></g><line x1="41.149001121520996" y1="0" x2="41.149001121520996" y2="177.89999961853027" fill="rgb(0, 0, 0)" stroke="rgb(204, 204, 204)" stroke-width="1px"></line></g></g><g transform="translate(41, 0)" clip-path="url(#clip_0)"><clipPath id="clip_0"><rect width="288" height="177"></rect></clipPath><g><g><g><line x1="0" y1="0" x2="0" y2="177.89999961853027" fill="rgb(0, 0, 0)" stroke="rgb(60, 60, 60)" stroke-width="1px" opacity="0.25"></line><line x1="20.632214205605642" y1="0" x2="20.632214205605642" y2="177.89999961853027" fill="rgb(0, 0, 0)" stroke="rgb(60, 60, 60)" stroke-width="1px" opacity="0.25"></line><line x1="41.264428411211284" y1="0" x2="41.264428411211284" y2="177.89999961853027" fill="rgb(0, 0, 0)" stroke="rgb(60, 60, 60)" stroke-width="1px" opacity="0.25"></line><line x1="61.896642616816926" y1="0" x2="61.896642616816926" y2="177.89999961853027" fill="rgb(0, 0, 0)" stroke="rgb(60, 60, 60)" stroke-width="1px" opacity="0.25"></line><line x1="82.52885682242257" y1="0" x2="82.52885682242257" y2="177.89999961853027" fill="rgb(0, 0, 0)" stroke="rgb(60, 60, 60)" stroke-width="1px" opacity="0.25"></line><line x1="103.16107102802822" y1="0" x2="103.16107102802822" y2="177.89999961853027" fill="rgb(0, 0, 0)" stroke="rgb(60, 60, 60)" stroke-width="1px" opacity="0.25"></line><line x1="123.79328523363385" y1="0" x2="123.79328523363385" y2="177.89999961853027" fill="rgb(0, 0, 0)" stroke="rgb(60, 60, 60)" stroke-width="1px" opacity="0.25"></line><line x1="144.4254994392395" y1="0" x2="144.4254994392395" y2="177.89999961853027" fill="rgb(0, 0, 0)" stroke="rgb(60, 60, 60)" stroke-width="1px" opacity="0.25"></line><line x1="165.05771364484514" y1="0" x2="165.05771364484514" y2="177.89999961853027" fill="rgb(0, 0, 0)" stroke="rgb(60, 60, 60)" stroke-width="1px" opacity="0.25"></line><line x1="185.6899278504508" y1="0" x2="185.6899278504508" y2="177.89999961853027" fill="rgb(0, 0, 0)" stroke="rgb(60, 60, 60)" stroke-width="1px" opacity="0.25"></line><line x1="206.32214205605644" y1="0" x2="206.32214205605644" y2="177.89999961853027" fill="rgb(0, 0, 0)" stroke="rgb(60, 60, 60)" stroke-width="1px" opacity="0.25"></line><line x1="226.95435626166207" y1="0" x2="226.95435626166207" y2="177.89999961853027" fill="rgb(0, 0, 0)" stroke="rgb(60, 60, 60)" stroke-width="1px" opacity="0.25"></line><line x1="247.5865704672677" y1="0" x2="247.5865704672677" y2="177.89999961853027" fill="rgb(0, 0, 0)" stroke="rgb(60, 60, 60)" stroke-width="1px" opacity="0.25"></line><line x1="268.21878467287337" y1="0" x2="268.21878467287337" y2="177.89999961853027" fill="rgb(0, 0, 0)" stroke="rgb(60, 60, 60)" stroke-width="1px" opacity="0.25"></line><line x1="288.850998878479" y1="0" x2="288.850998878479" y2="177.89999961853027" fill="rgb(0, 0, 0)" stroke="rgb(60, 60, 60)" stroke-width="1px" opacity="0.25"></line></g><g><line x1="0" y1="177.89999961853027" x2="288.850998878479" y2="177.89999961853027" fill="rgb(0, 0, 0)" stroke="rgb(60, 60, 60)" stroke-width="1px" opacity="0.25"></line><line x1="0" y1="161.72727238048205" x2="288.850998878479" y2="161.72727238048205" fill="rgb(0, 0, 0)" stroke="rgb(60, 60, 60)" stroke-width="1px" opacity="0.25"></line><line x1="0" y1="145.55454514243382" x2="288.850998878479" y2="145.55454514243382" fill="rgb(0, 0, 0)" stroke="rgb(60, 60, 60)" stroke-width="1px" opacity="0.25"></line><line x1="0" y1="129.38181790438568" x2="288.850998878479" y2="129.38181790438568" fill="rgb(0, 0, 0)" stroke="rgb(60, 60, 60)" stroke-width="1px" opacity="0.25"></line><line x1="0" y1="113.20909066633746" x2="288.850998878479" y2="113.20909066633746" fill="rgb(0, 0, 0)" stroke="rgb(60, 60, 60)" stroke-width="1px" opacity="0.25"></line><line x1="0" y1="97.03636342828923" x2="288.850998878479" y2="97.03636342828923" fill="rgb(0, 0, 0)" stroke="rgb(60, 60, 60)" stroke-width="1px" opacity="0.25"></line><line x1="0" y1="80.86363619024102" x2="288.850998878479" y2="80.86363619024102" fill="rgb(0, 0, 0)" stroke="rgb(60, 60, 60)" stroke-width="1px" opacity="0.25"></line><line x1="0" y1="64.69090895219281" x2="288.850998878479" y2="64.69090895219281" fill="rgb(0, 0, 0)" stroke="rgb(60, 60, 60)" stroke-width="1px" opacity="0.25"></line><line x1="0" y1="48.51818171414465" x2="288.850998878479" y2="48.51818171414465" fill="rgb(0, 0, 0)" stroke="rgb(60, 60, 60)" stroke-width="1px" opacity="0.25"></line><line x1="0" y1="32.34545447609644" x2="288.850998878479" y2="32.34545447609644" fill="rgb(0, 0, 0)" stroke="rgb(60, 60, 60)" stroke-width="1px" opacity="0.25"></line><line x1="0" y1="16.17272723804821" x2="288.850998878479" y2="16.17272723804821" fill="rgb(0, 0, 0)" stroke="rgb(60, 60, 60)" stroke-width="1px" opacity="0.25"></line><line x1="0" y1="0" x2="288.850998878479" y2="0" fill="rgb(0, 0, 0)" stroke="rgb(60, 60, 60)" stroke-width="1px" opacity="0.25"></line></g></g></g><g><g><line x1="0" y1="582.2181805697354" x2="288.850998878479" y2="582.2181805697354" fill="rgb(0, 0, 0)" stroke="rgb(153, 153, 153)" stroke-width="1.5px"></line></g></g><g><g><line x1="20.632214205605642" y1="0" x2="20.632214205605642" y2="177.89999961853027" fill="rgb(0, 0, 0)" stroke="rgb(153, 153, 153)" stroke-width="1.5px"></line></g></g><g><g><g><g><g><path style="fill: none;" stroke="rgb(255, 112, 67)" stroke-width="2px" d="M24.34601276261466,188.20396808815167L24.75865704672677,158.11732961839047L24.964979188782827,137.66039442468147L25.171301330838887,123.37519050274615L25.274462401866913,113.92314789253834L25.48078454392297,106.67647752381339L25.687106685979025,100.99096495176433L26.09975097009114,95.50323215323392L26.20291204111917,91.79680880655353L26.306073112147192,89.19484865435942L26.409234183175222,87.28935917492997L26.512395254203252,85.83429272904917L27.13136168037142,83.60850361155923L27.337683822427476,81.95814952176458L27.440844893455505,80.83188901647104L27.544005964483535,80.03384077048564L27.64716703551156,79.44737157119597L27.956650248595643,78.83779410534399L28.059811319623673,78.40416886684784L28.162972390651703,78.08441274032617L28.26613346167973,77.84247893568829L28.781938816819874,77.53464684904642L29.297744171960012,76.95758880749194L29.607227385044098,76.1915259186973L29.710388456072124,75.5975031098124L30.329354882240295,74.61773265874741L31.154643450464523,73.68589516825486L31.464126663548605,73.10410468615684L31.567287734576635,72.75712799571491L32.28941523177283,72.65812504163931L32.598898444856914,72.68302820005162L32.805220586912974,72.76240953908017L33.52734808410917,73.07899359000493L33.6305091551372,73.3105258158722L33.93999236822128,73.57579458293222L34.04315343924931,73.77787948427209L34.76528093644551,74.17080021112142L34.971603078501566,74.47441611143621L35.177925220557626,74.72719450143055L35.281086291585645,74.91544611204112L35.38424736261368,75.06581452480994L36.106374859809875,75.44249650901038L36.62218021495001,75.91005336157416L36.82850235700607,76.27658899048365L36.931663428034106,76.53906384459175L37.03482449906213,76.73945697465483L37.34430771214621,76.99174898463934L37.653790925230304,77.28227513928964L37.86011306728635,77.55567148982637L37.96327413831438,77.76954267579889L38.27275735139847,78.04816753709287L38.89172377756664,78.52618796697995L38.994884848594666,78.86668947921105L39.20120699065072,78.94487230772143L39.51069020373481,78.29522523877084L39.71701234579086,77.32990855035635L39.82017341681889,76.46137340353982L40.02649555887495,75.38958657392988L40.23281770093101,74.25499791310875L40.335978771959034,73.35438251609041L41.05810626915523,71.73731314764484L41.883394837379456,70.15387885689672L41.98655590840748,69.1548023530709L42.089716979435515,68.4934001926546L42.50236126354762,67.41693714937135L43.53397197382791,65.07826690274258L43.637133044855936,63.57347006414008L43.84345518691199,62.50525188453978L44.04977732896805,61.74565245549979L44.25609947102411,61.21374690652935L44.565582684108186,60.847191693287655L44.66874375513621,60.62361861589862L44.771904826164246,60.48928968729006L45.08138803924833,60.42821849959984L46.112998749528614,60.67248425827117L46.319320891584674,60.90672639393609L46.93828731775284,61.355649426110986L47.24777053083692,61.798255584840916L47.35093160186495,62.12326150532102L47.454092672892976,62.37803117665762L47.55725374392101,62.59235568511332L47.76357588597707,62.84253395572468L48.176220170089174,63.23313978114285L48.38254231214523,63.54398848526127L48.588864454201286,63.77625927553031L48.795186596257345,63.9509261745954L49.31099195139748,64.15901759126498L49.929958377565654,64.48752452795492L50.65208587476185,64.37746939684595L50.75524694578988,64.05175060297536L51.27105230093002,62.11437216498572L51.37421337195805,60.43550413955426L51.683696585042135,57.786211384221005L51.78685765607017,55.66583547629712L51.89001872709819,53.8848498791725L52.302663011210306,51.04182943749721L52.40582408223834,48.9588813936598L52.612146224294385,47.04715074453314L52.92162943737848,45.060548761692466L53.33427372149058,42.95886241073916L53.437434792518616,41.51488144654833L53.54059586354664,40.482612968584334L53.643756934574675,39.71675934019995L53.85007907663073,39.011319222981214L54.15956228971481,38.30582025910958L54.26272336074284,37.81047764412193L54.36588443177087,37.452148686796626L54.67536764485495,37.1154289352321L54.984850857939044,36.836665099192345L55.60381728410721,35.83391501205646L55.81013942616327,34.87315926950218L56.119622639247346,33.80088610034297L56.22278371027538,33.010921692639336L56.42910585233144,32.27876883724206L56.53226692335946,31.723430600204654L57.0480722784996,30.95426659449173L57.15123334952764,30.433927482891008L57.56387763363975,29.96668684724002L57.7701997756958,29.659783173719983L58.079682988779886,29.48754792287383L58.492327272892005,29.473786545123282L58.90497155700411,29.612592930118865L59.11129369906017,29.78406841755998L59.52393798317228,30.105520335324496L59.62709905420031,30.355859501357354L59.73026012522834,30.564888285635398L59.93658226728439,30.81619228231174L60.45238762242454,31.273193139050303L60.55554869345256,31.609180252553656L60.96819297756468,32.06769742674869L61.07135404859271,32.40792580987811L61.174515119620736,32.67094981847246L62.20612582990101,33.102223137365996L62.72193118504115,33.37565489108025L63.444058682237355,33.34093568723199L63.54721975326538,33.303400498618664L64.06302510840553,33.27504929693438L64.16618617943355,33.27185804499932L64.3725083214896,33.3108310310248L64.57883046354566,33.39118928554725L64.99147474765778,33.590878575080204L65.91992438691003,34.17208658785468L66.12624652896609,34.63835400023391L66.22940759999412,34.978127342943495L66.5388908130782,35.35916126070097L67.15785723924637,35.94474343309984L67.98314580747059,35.3125043639035L68.08630687849862,34.76549189524334L68.18946794952664,34.27854560185435L68.39579009158271,33.702477192704414L68.49895116261074,33.233216677750235L68.80843437569482,32.65645429946444L68.91159544672284,32.23630230838735L69.42740080186299,31.680059405963792L69.53056187289101,31.289231237000315L70.66533365419933,30.653553297539293L70.97481686728341,30.248594827078957L71.07797793831145,30.00669939082417L71.28430008036749,29.875736338982406L71.49062222242355,29.827912995976195L71.80010543550765,29.869025817221182L72.93487721681595,29.84928921145442L73.34752150092807,29.912590611092252L73.4506825719561,29.97933630559123L73.65700471401215,30.08538094123482L73.96648792709622,30.269249442389306L74.17281006915229,30.501215802678256L74.68861542429242,30.91075440615543L74.79177649532046,31.209734964131876L75.41074292148862,31.719448710959725L75.61706506354469,32.140907047961434L75.7202261345727,32.453671557327745L75.82338720560074,32.70157451094837L75.92654827662876,32.91086900141363L76.0297093476568,33.09732230779201L76.13287041868482,33.27056445618526L76.33919256074088,33.49931682530918L76.54551470279694,33.76299479590378L77.06132005793708,34.25124936703976L77.16448112896511,34.6147029949267L77.26764219999313,34.90073117695637L77.4739643420492,35.203000678292874L77.8866086261613,35.63517957340897L78.09293076821736,36.016008781958234L78.29925291027341,36.36538039095443L78.71189719438553,36.818293875544796L78.81505826541355,37.14983893237677L78.91821933644158,37.40834700334929L79.3308636205537,37.80566271910399L79.74350790466582,38.29291055651766L79.84666897569383,38.647369752232514L80.15615218877792,39.04741012493931L80.36247433083398,39.412519051913975L80.46563540186202,39.694126759774115L80.56879647289003,39.92575712428217L80.67195754391807,40.127478200351995L80.7751186149461,40.311253703358965L80.87827968597414,40.48441609767414L81.08460182803017,40.714539577693685L81.18776289905821,40.91575753444991L81.70356825419834,41.353750003685164L81.80672932522637,41.680152059408535L82.11621253831046,42.06721402676873L82.21937360933849,42.363212016513L82.52885682242257,42.732093238344L82.73517896447862,43.080897319555156L83.14782324859074,43.545145888021544L83.3541453906468,43.951509694534984L83.56046753270286,44.3230501027891L83.76678967475891,44.67363477802927L84.076272887843,45.075406822789205L84.48891717195511,45.571035158005415L84.59207824298313,45.931864498171414L84.7984003850392,46.2748811924788L85.10788359812328,46.6701382388112L85.5205278822354,47.15934354209217L86.03633323737554,47.69860958207379L86.75846073457174,48.00517249298104L86.86162180559975,48.1052525906824L87.06794394765582,47.986249068391054L87.17110501868383,47.82701003940815L87.27426608971187,47.64893539543029L87.3774271607399,47.46543574151549L87.58374930279595,47.22348032290971L87.89323251588003,46.93971136961196L88.30587679999215,46.69285682416362L88.40903787102017,46.541705664519775L88.8216821551323,46.491995247007544L89.13116536821637,46.536417795751746L89.54380965232849,46.704705459507316L89.85329286541257,46.93589879147079L89.95645393644061,47.121286345807796L90.05961500746864,47.280840749630414L90.16277607849666,47.4259286386221L90.26593714952469,47.563416264736844L90.47225929158074,47.7492618116945L90.57542036260877,47.9136872184383L90.67858143363681,48.06595459921041L90.88490357569286,48.2661896171869L90.98806464672089,48.44224086837293L91.09122571774891,48.60422914140802L91.19438678877695,48.758473685709255L91.400708930833,48.96620321927177L91.60703107288904,49.20739643918985L91.71019214391708,49.4108296911969L92.43231964111328,49.94762794981153L92.74180285419736,50.44767883987087L92.8449639252254,50.80721329320688L92.94812499625343,51.082453308023574L93.15444713830948,51.36702159040854L93.46393035139356,51.71548771849658L93.67025249344962,52.0418015297721L93.87657463550568,52.35568766777733L94.28921891961778,52.78047725280831L94.7018632037299,53.26537730046953L95.01134641681398,53.7140073422668L95.11450748784202,54.02964099329978L95.21766855887005,54.26410411707544L95.32082962989807,54.44909374876697L95.4239907009261,54.604260473576716L95.93979605606624,54.92259009206673L96.55876248223441,55.406125664449334L96.76508462429047,55.79986217891581L96.86824569531849,56.08866742532919L96.97140676634652,56.314976616348545L97.28088997943061,56.6120920936047L97.59037319251469,56.954884010123784L97.69353426354272,57.216083812570666L98.00301747662681,57.54152152017353L98.10617854765484,57.79346556086506L98.20933961868286,58.00132882492448L98.41566176073891,58.23962554482428L98.62198390279497,58.4965370790639L99.24095032896315,58.994088552024564L99.55043354204723,59.46645786878068L99.65359461307524,59.80754797989813L99.96307782615935,60.18462151620571L100.06623889718736,60.468395347422735L100.1693999682154,60.69592715583738L100.37572211027145,60.94744396569288L100.47888318129948,61.15767288873143L101.09784960746765,61.62999102759829L101.51049389157976,62.14015384598183L101.6136549626078,62.501853307120385L101.81997710466385,62.82928992477605L102.0262992467199,63.136338495002434L102.23262138877597,63.43160151869447L102.33578245980398,63.664299408959735L102.43894353083202,63.85922686645002L102.54210460186005,64.03291102761786L102.64526567288807,64.19327854095233L102.95474888597217,64.4565202884824L103.16107102802822,64.7258076888485L103.36739317008427,64.9981055403326L103.67687638316836,65.32685517469098L103.88319852522442,65.63427512004505L103.98635959625244,65.87380445786972L104.08952066728048,66.0725377371183L104.50216495139257,66.41182498736825L104.70848709344864,66.72566004334479L104.81164816447668,66.96903844754293L105.01797030653272,67.22522023128623L105.32745351961681,67.54385294307698L105.74009780372891,67.95347580733447L106.04958101681301,68.36275420409119L106.35906422989709,68.77111643867613L106.46222530092511,69.07017777456164L106.66854744298116,69.35852001263518L106.87486958503723,69.63908894625222L107.08119172709328,69.91338985167748L107.59699708223343,70.34111097740669L107.90648029531751,70.74619498080341L108.00964136634555,71.01984563579437L108.11280243737357,71.20525878486912L108.42228565045765,71.35171855813019L109.24757421868189,71.5468958131115L109.3507352897099,71.68658219146468L109.45389636073794,71.79513333588409L109.66021850279398,71.91640561565482L110.0728627869061,72.11625874376503L110.27918492896217,72.29272864864427L110.38234599999018,72.42646545892707L110.7949902841023,72.62249186914771L111.00131242615836,72.8037142894623L111.10447349718638,72.94622523861011L111.41395671027048,73.14327466563664L111.62027885232654,73.34392758383846L111.82660099438257,73.54836206577767L112.13608420746668,73.80130518270974L112.34240634952272,74.0427742137429L112.44556742055076,74.23341720016073L112.65188956260681,74.44072966743526L112.75505063363484,74.61203547919247L113.06453384671892,74.8616508251737L113.37401705980301,75.16099727728705L113.47717813083104,75.3907315709828L114.19930562802723,75.88047505615806L114.30246669905527,76.22322911203814L114.40562777008329,76.47728053435954L114.50878884111131,76.67784817679768L114.71511098316738,76.89415387005928L114.8182720541954,77.0718581458572L115.02459419625146,77.27444581913466L115.1277552672795,77.44407351808806L115.23091633830751,77.59412573813675L115.5403995513916,77.82921522491468L115.64356062241963,78.01889925849379L115.74672169344765,78.18144798475562L115.8498827644757,78.32780806771467L116.05620490653175,78.51328581189408L116.6751713326999,78.91711025969035L116.77833240372794,79.20834374017228L117.08781561681202,79.53003907550516L117.80994311400822,80.06678472292832L118.1194263270923,80.53546346461947L118.8415538242885,81.16374605852427L118.94471489531654,81.59044102591552L119.04787596634456,81.89542766518358L119.25419810840062,82.17443102708694L119.35735917942864,82.3893220456613L119.46052025045668,82.56559142309237L119.77000346354076,82.81287921945794L119.87316453456879,83.00835531084485L120.07948667662484,83.21162705953385L120.2858088186809,83.40692892063782L120.38896988970892,83.55845820429917L120.80161417382104,83.78396136283598L120.90477524484908,83.95373481307378L121.31741952896118,84.19974705060429L121.42058059998921,84.38514200387577L121.52374167101723,84.5349069152925L121.62690274204527,84.66395701272381L121.93638595512935,84.862723860487L122.03954702615738,85.02319560013788L122.14270809718542,85.16156941525317L122.4521913102695,85.37202278189106L122.55535238129751,85.54126471353044L123.38064094952175,85.99617801535814L123.79328523363385,86.44999755208889L123.9996073756899,86.8133959748292L124.20592951774597,87.1224183410585L124.30909058877401,87.35339282290434L124.61857380185809,87.62904628620132L124.7217348728861,87.84016908494822L124.92805701494217,88.0582425116755L125.03121808597021,88.23477101793688L125.13437915699822,88.38626460731649L125.23754022802625,88.52266012899416L125.54702344111034,88.74077961694603L126.37231200933456,89.23256155119734L126.57863415139062,89.61654727337766L126.78495629344668,89.93466765769188L126.99127843550274,90.21339222740306L127.09443950653076,90.42476906799544L127.19760057755879,90.59618455303973L127.40392271961484,90.78196608203372L127.6102448616709,90.971462559757L127.71340593269892,91.12311771580481L127.81656700372696,91.25165164395328L128.12605021681105,91.44140992791624L128.3323723588671,91.6309635079173L129.0544998560633,92.02037555575625L129.1576609270913,92.29467916892719L129.4671441401754,92.58240267734165L129.6734662822315,92.83795359684322L130.29243270839964,93.24231727206265L130.39559377942766,93.5270108250045L130.6019159214837,93.78293391029464L130.80823806353976,94.02242758478187L131.2208823476519,94.33823478881939L131.633526631764,94.70061670983137L131.83984877382005,95.0040011092663L132.0461709158761,95.27008990346002L132.3556541289602,95.55288452048815L132.45881519998824,95.76327936923097L132.56197627101625,95.93012639240051L132.6651373420443,96.07075217913844L133.28410376821245,96.40302980123727L133.3872648392405,96.63952077412232L134.00623126540864,97.00103078214556L134.2125534074647,97.29564045347985L134.41887554952078,97.54662420850275L134.5220366205488,97.73336717972288L134.62519769157683,97.87996163514366L135.55364733082908,98.27208543968801L135.75996947288513,98.57673469105478L136.06945268596922,98.86511362277963L136.48209697008133,99.18322998359247L136.68841911213738,99.4475774236021L136.79158018316542,99.64334113426276L137.20422446727753,99.90784714879051L137.30738553830557,100.10267262868432L137.51370768036162,100.2894827082715L137.61686875138963,100.43551591164336L137.72002982241767,100.55649689573148L138.02951303550176,100.72932290752534L138.13267410652978,100.86645669423969L139.16428481681007,101.27603936944996L139.37060695886612,101.54919656000818L139.47376802989416,101.72246837121571L139.78325124297822,101.85123246940616L139.88641231400626,101.9377450370763L139.9895733850343,102.00015599111627L140.29905659811837,102.0780121717744L140.4022176691464,102.14139869944455L140.50537874017442,102.19735274000381L142.05279480559486,102.63142756778022L142.36227801867895,102.99121532194073L142.56860016073497,103.27505940324907L142.671761231763,103.47986825417904L142.8780833738191,103.67337783805912L142.9812444448471,103.82478801329091L143.2907276579312,104.0221180631813L143.6002108710153,104.24849611878231L143.7033719420433,104.4200129649115L143.80653301307132,104.55859766184304L143.90969408409936,104.67740764574134L144.1160162261554,104.82004281458836L144.3223383682115,104.97766715256124L144.5286605102675,105.14408448631995L144.7349826523236,105.31605524081282L144.8381437233516,105.4554983763171L145.04446586540766,105.6114542705179L145.25078800746374,105.77687053801334L145.4571101495198,105.94793218245636L145.5602712205478,106.08650595812426L145.66343229157584,106.20557158901256L145.76659336260388,106.31285521546003L145.8697544336319,106.41308506275766L146.9013651439122,106.83121816835838L147.3140094280243,107.22491977685152L147.72665371213643,107.60295995863157L147.82981478316444,107.86525815126386L147.93297585419245,108.05808030337838L148.13929799624853,108.24581683131179L148.4487812093326,108.46639250319488L148.7582644224167,108.70400339342312L148.96458656447274,108.91636133109412L149.17090870652882,109.11359834426003L149.27406977755683,109.26684396568386L149.48039191961288,109.42833596583884L149.893036203725,109.66362636237632L149.996197274753,109.8393184259583L150.09935834578107,109.97912810165033L150.30568048783712,110.13149431185917L150.40884155886513,110.25706169929377L150.71832477194923,110.43484511568238L150.82148584297724,110.5756474033102L150.92464691400528,110.69419931962322L151.02780798503332,110.79937016611818L151.23413012708937,110.93087596123586L151.74993548222952,111.17933013422922L152.0594186953136,111.42851667124944L152.57522405045373,111.7440164575133L152.78154619250978,111.99954490093465L153.1941904766219,112.2846867462153L153.40051261867794,112.52146060203599L153.81315690279007,112.79400784898668L153.91631797381808,112.98995642483192L154.01947904484615,113.13979156286796L154.12264011587416,113.26215914390822L154.32896225793021,113.40025048922153L154.6384454710143,113.57973361533574L154.74160654204232,113.71965863650402L154.9479286840984,113.86802224614601L155.0510897551264,113.98910589877045L155.15425082615442,114.09375988312593L155.7732172523226,114.34832825419069L155.97953939437866,114.56435195720533L156.0827004654067,114.72556896041554L156.28902260746273,114.88533506648386L156.3921836784908,115.01265869989497L156.70166689157486,115.18316716598916L156.80482796260287,115.31692079190118L157.32063331774302,115.55344401730638L157.42379438877106,115.72645175796937L157.5269554597991,115.86133478427233L157.83643867288316,116.03537635765309L158.04276081493924,116.2014953600543L158.14592188596725,116.3318904025645L158.24908295699527,116.4409127631987L158.35224402802334,116.53720405579472L158.45540509905135,116.6258258605386L158.55856617007936,116.70972258445457L159.17753259624752,116.94236656129542L159.69333795138766,117.232270520625L159.79649902241573,117.43621163210643L159.89966009344374,117.58846707027689L160.4154654485839,117.82930503661619L160.828109732696,118.0925071847288L161.03443187475204,118.30925375825466L161.13759294578006,118.46865265064095L161.5502372298922,118.681695779156L161.9628815140043,118.92629308524991L162.6850090112005,119.27621000312749L162.89133115325654,119.54382867491786L163.2008143663406,119.79091037134518L163.4071365083967,119.99648859294447L163.51029757942473,120.14841529844516L163.81978079250882,120.32409218171611L163.92294186353683,120.45763080229666L164.1292640055929,120.59388014424954L164.23242507662093,120.70360800489324L164.541908289705,120.8531172879474L166.29564649718148,121.41268480634628L166.39880756820952,121.77567866767173L166.50196863923753,122.0207283347531L166.60512971026554,122.19484182662755L167.01777399437768,122.40738248850654L167.32725720746177,122.61547932586866L167.43041827848978,122.76708180259052L167.73990149157387,122.9381684469352L167.84306256260192,123.06751853730275L167.94622363362993,123.17210431854674L168.35886791774206,123.34194124911352L168.46202898877007,123.47035642903916L168.56519005979808,123.5737643234343L168.77151220185416,123.68817189211525L168.97783434391022,123.80907130076542L169.18415648596627,123.9338966604264L169.39047862802232,124.06092335554796L170.00944505419048,124.29287059946812L170.21576719624656,124.483908225397L170.7315725513867,124.72747138295324L170.83473362241472,124.89916604116792L171.76318326166697,125.22952544120002L171.866344332695,125.45277344540399L173.00111611400334,125.85836118694131L173.41376039811541,126.19977653764704L173.51692146914348,126.42899490112775L173.82640468222755,126.63793679178248L173.92956575325556,126.7870541386488L174.23904896633965,126.94787372527668L174.44537110839573,127.09171566705439L174.54853217942374,127.20160338593396L174.65169325045176,127.29108772404552L175.37382074764795,127.50902333381512L175.476981818676,127.66305878319791L175.58014288970404,127.7788158304071L175.68330396073205,127.87160583631207L175.99278717381614,127.99674734958265L176.1991093158722,128.11788687212024L176.3022703869002,128.21352077535747L176.40543145792827,128.29386673052903L176.50859252895629,128.36496279928826L177.02439788409643,128.5216310604165L177.23072002615245,128.66117765568706L177.7465253812926,128.85802166887572L177.84968645232067,128.99866183160952L178.15916966540473,129.15044668802196L178.88129716260093,129.3971100170853L179.08761930465698,129.58925011328904L180.11923001493727,129.9232087609132L180.32555215699333,130.1665692846589L180.42871322802137,130.33397801364703L180.6350353700774,130.47714638646298L180.73819644110543,130.58450151895164L180.94451858316148,130.69163773386794L181.04767965418952,130.7772039129562L181.66664608035768,130.95554083956938L181.76980715138572,131.08362693998612L182.3887735775539,131.2868280317834L182.49193464858192,131.42950873750425L183.42038428783417,131.69982917170452L183.8330285719463,131.9430565778972L184.03935071400232,132.1291867006426L184.45199499811446,132.32165314372892L185.07096142428261,132.55615627169615L185.3804446373667,132.75600732694133L185.58676677942276,132.91503199309673L185.89624999250685,133.06851632523325L186.10257213456288,133.19905774639594L186.20573320559095,133.29650775718912L186.61837748970302,133.4309694200655L186.7215385607311,133.53060191722642L186.92786070278711,133.62821529681997L187.03102177381516,133.7055845888652L187.2373439158712,133.78946988103914L187.54682712895527,133.89574214377294L187.64998819998334,133.97809083649796L187.75314927101135,134.04597742261555L188.16579355512349,134.16003276266204L188.3721156971795,134.26483461410066L188.47527676820755,134.3458846251546L188.57843783923556,134.41271437900687L188.78475998129164,134.48908833764133L188.99108212334767,134.57106543102847L189.19740426540375,134.6564969463547L189.5068874784878,134.762062050433L189.8163706915719,134.87947595504366L189.91953176259995,134.96781557473804L190.02269283362796,135.03871062348279L190.33217604671205,135.13448962510526L190.53849818876813,135.2271226393512L190.64165925979614,135.30025440750583L190.9511424728802,135.3966505355883L191.05430354390828,135.47176254878215L191.36378675699234,135.56849853058557L191.77643104110444,135.69511306554887L191.87959211213249,135.78877255776524L191.9827531831605,135.8626590243334L192.7048806803567,136.02686245969238L192.91120282241275,136.15883812406034L193.01436389344082,136.25465007141256L193.11752496446883,136.32874836504078L193.4270081775529,136.42316410498503L193.53016924858093,136.49647094471217L193.73649139063698,136.57358475789462L194.14913567474912,136.68492485387264L194.25229674577713,136.7677385196072L194.35545781680514,136.8334517507102L194.66494102988923,136.92070800812542L195.07758531400137,137.036467831067L195.18074638502938,137.12168655674625L195.38706852708543,137.20432803246757L195.49022959811347,137.26958320872706L195.5933906691415,137.32440660530946L195.69655174016953,137.37295551057102L195.9028738822256,137.43337916483742L196.21235709530967,137.51632033607083L196.31551816633768,137.58157024746237L196.41867923736572,137.63618997943422L196.52184030839376,137.68435448618135L196.93448459250587,137.77439200207692L197.0376456635339,137.84362209700316L197.55345101867402,137.96092045764053L197.75977316073008,138.06166837425698L197.86293423175815,138.13723216852813L197.96609530278616,138.19763921884837L198.37873958689826,138.29391176783705L198.68822279998233,138.39624925440455L198.8945449420384,138.48720320030563L199.20402815512247,138.58565546686378L199.30718922615048,138.65925577754544L199.41035029717855,138.71791406767204L199.51351136820657,138.76749918086338L199.6166724392346,138.8116403878936L199.82299458129066,138.86664319059454L200.0293167233467,138.9280241390666L200.3387999364308,139.00722110273725L200.44196100745884,139.06877467921933L200.64828314951487,139.1337776216682L200.7514442205429,139.18679936190279L200.85460529157095,139.23261695729403L201.164088504655,139.30187439204713L201.3704106467111,139.37114490862285L201.4735717177391,139.42646499358548L201.57673278876712,139.47347651363847L201.67989385979516,139.51545662420202L202.40202135699136,139.6359928577551L202.5051824280194,139.7217947496414L202.8146656411035,139.81360837543437L203.33047099624363,139.93461665228128L203.74311528035574,140.05896750984957L204.3620817065239,140.2099861156851L204.46524277755194,140.31330625521116L204.67156491960796,140.40057747934497L205.0842092037201,140.50277358947588L205.18737027474813,140.5764917612873L205.29053134577615,140.6331231701071L205.4968534878322,140.69184133280638L205.6000145588602,140.7394418891296L205.70317562988828,140.7803256110836L206.11581991400035,140.8538871971476L206.5284641981125,140.9467470313858L206.73478634016854,141.02670869686932L206.83794741119658,141.08670061402742L207.66323597942082,141.2179668139643L207.76639705044883,141.308494675561L208.0758802635329,141.39797700579146L208.385363476617,141.48644642933738L208.79800776072912,141.58556727452546L209.00432990278514,141.66797454783838L209.41697418689728,141.76294912690514L209.93277954203742,141.87604462043515L210.03594061306543,141.95502227057491L210.44858489717754,142.04641214779306L210.5517459682056,142.1121504989413L210.86122918128967,142.18430678408237L210.96439025231768,142.2384895564698L211.06755132334575,142.28184195066126L211.37703453642982,142.3401502267342L211.6865177495139,142.40706186758584L211.78967882054192,142.4577739595932L211.99600096259798,142.5092388887026L212.20232310465406,142.5610012849275L212.30548417568207,142.60234620689604L212.40864524671008,142.63742522079622L213.1307727439063,142.73013027793615L213.33709488596233,142.80603523391014L213.44025595699037,142.86200450335957L214.05922238315856,142.95660148875984L214.16238345418657,143.02336954097092L214.2655445252146,143.07339396272477L214.36870559624262,143.1132796651167L214.47186666727066,143.14705128886231L214.6781888093267,143.18690212664302L214.9876720224108,143.2400093424363L215.709799519607,143.33858037252773L215.81296059063502,143.4071621815136L215.91612166166308,143.4577041872924L216.8445713009153,143.57153229876704L217.1540545139994,143.6669745513358L217.2572155850274,143.73320096485577L217.66985986913954,143.8084725905903L217.77302094016756,143.86242696934917L217.8761820111956,143.90357557640803L217.97934308222364,143.93699444990304L218.2888262953077,143.9831577842063L218.39198736633574,144.01950837647502L218.49514843736378,144.04994047649387L218.5983095083918,144.0768060576482L219.0109537925039,144.1271193381938L219.11411486353194,144.16582108657659L219.21727593455995,144.19749422160334L219.52675914764404,144.24174639600844L219.7330812897001,144.28503221398506L219.93940343175618,144.3276148299879L220.1457255738122,144.3696212896605L220.24888664484024,144.40304589874222L220.35204771586828,144.43130597395484L220.55836985792433,144.4646417915803L220.66153092895235,144.49278689786087L221.1773362840925,144.55011441689246L221.48681949717658,144.60854076404752L221.69314163923264,144.6593594042548L222.00262485231673,144.7133868716483L222.31210806540082,144.76892320045968L222.41526913642883,144.80987963747006L222.62159127848489,144.84966108506512L222.82791342054097,144.88858330386512L223.44687984670912,144.9562329690567L223.55004091773714,145.0041180905742L223.75636305979322,145.0473626907169L223.96268520184927,145.0876841664033L224.89113484110152,145.1756687081725L224.99429591212953,145.2354617088593L225.09745698315754,145.2783243613822L225.2006180541856,145.31098253446285L226.43855090652193,145.40684671797445L226.644873048578,145.47656522812457L226.85119519063406,145.53068887534542L227.05751733269008,145.5755172988671L227.47016161680222,145.62750841122318L227.57332268783023,145.6649958725908L227.6764837588583,145.69375029633622L227.7796448298863,145.71731116805205L227.88280590091432,145.7377713320648L227.98596697194236,145.75634022442648L228.08912804297037,145.77375893028287L228.29545018502645,145.79671862413173L228.39861125605447,145.81672554033673L228.50177232708248,145.83496078995537L228.70809446913856,145.8582715984303L229.2238998242787,145.90254986617623L229.53338303736277,145.94699268023717L229.73970517941885,145.98542651030837L229.84286625044686,146.01440943795492L230.0491883925029,146.04350564211902L230.358671605587,146.078268547991L230.6681548186711,146.11621554568345L230.87447696072715,146.15027375698114L231.18396017381124,146.18752031466624L231.4934433868953,146.22637140989204L231.59660445792335,146.25514199119348L231.9060876710074,146.28861445381182L232.1124098130635,146.3193555799667L232.2155708840915,146.34305967413582L233.04085945231574,146.39901816112646L233.14402052334378,146.43774470719498L233.3503426653998,146.4711755779822L233.86614802053995,146.51662120547488L234.3819533756801,146.5685662053196L234.48511444670814,146.604560765294L234.58827551773618,146.63096963783173L234.7945976597922,146.65637754040216L234.89775873082024,146.67649611255584L235.1040808728763,146.69819152895417L235.31040301493235,146.72066339323882L235.61988622801644,146.74815106306022L235.72304729904448,146.76925529581646L236.13569158315659,146.80011758269004L236.65149693829673,146.8408756628576L236.85781908035278,146.87407564373245L237.47678550652097,146.91961408999663L237.57994657754898,146.9511015066953L237.683107648577,146.97417372916922L237.78626871960503,146.99216598807917L237.88942979063307,147.00707942182152L238.19891300371714,147.02828917616847L238.40523514577322,147.04908152690888L238.71471835885728,147.07354100819202L238.8178794298853,147.09216511669771L239.1273626429694,147.1150151823482L239.33368478502547,147.13643697903507L239.54000692708152,147.15690927325622L239.64316799810953,147.17297141086422L239.74632906913757,147.18640287801898L240.15897335324968,147.20940714395257L240.5716176373618,147.23792373643465L240.67477870838982,147.25865821785322L240.77793977941784,147.2747234326338L241.19058406352997,147.2985984654716L241.293745134558,147.31645547001614L241.50006727661406,147.33414110133904L241.60322834764207,147.34820734740157L241.80955048969815,147.36347971200394L241.91271156072617,147.3760208804612L242.0158726317542,147.38693875474604L242.22219477381023,147.40018328465044L242.3253558448383,147.41143063471594L242.4285169158663,147.4214796768783L242.53167798689432,147.430794310784L242.84116119997842,147.4460844818065L243.04748334203447,147.46165934297622L243.15064441306248,147.47418150368424L243.7696108392307,147.5004189468251L243.8727719102587,147.5192152685991L243.97593298128672,147.53351607052375L244.38857726539885,147.55397265791532L244.5948994074549,147.57196873426432L244.80122154951096,147.58844223344397L245.2138658336231,147.60953922806098L245.93599333081926,147.64129173589757L246.24547654390335,147.66833262115873L246.4517986859594,147.68978572376253L246.65812082801548,147.70782446271363L246.7612818990435,147.72123885653588L246.96760404109955,147.73437725264498L247.17392618315563,147.74730377958235L247.38024832521165,147.76002606744385L247.4834093962397,147.770111778981L247.5865704672677,147.77860012120905L247.8960536803518,147.79089590786086L247.9992147513798,147.80066402461387L248.30869796446393,147.8135734408348L248.41185903549194,147.82366346478554L248.72134224857604,147.83665806072287L249.0308254616601,147.85125658822088L249.4434697457722,147.86894591966907L250.06243617194042,147.89248442376712L250.16559724296843,147.90870512421057L250.4750804560525,147.9246223738285L250.57824152708054,147.93620862752562L250.7845636691366,147.9471704935381L250.99088581119264,147.95766518585225L251.09404688222068,147.96592078759411L251.30036902427673,147.97471460377287L251.40353009530475,147.98188798577516L251.60985223736083,147.98998619956637L251.71301330838884,147.99669594959224L251.81617437941688,148.00255719784445L251.9193354504449,148.00790934503235L252.12565759250097,148.01477600630366L252.33197973455702,148.02245883493745L252.43514080558504,148.02882681278135L252.84778508969714,148.03960360456918L252.95094616072518,148.0477816897618L253.15726830278123,148.05606629057323L253.4667515158653,148.06603426978822L253.67307365792138,148.0753002659256L253.98255687100547,148.08564115313195L254.60152329717366,148.10105352366782L255.2204897233418,148.1190306552491L255.63313400745392,148.13543109350977L255.942617220538,148.14935858783335L256.4584225756782,148.16428550164423L256.6647447177342,148.17578652983866L256.9742279308183,148.18638879025767L257.59319435698643,148.1998912337657L257.6963554280145,148.20918031049422L257.9026775700706,148.2170210131765L258.2121607831546,148.22507233745262L258.5216439962387,148.23317291711206L258.6248050672667,148.2390974874146L258.72796613829473,148.24371645210306L259.656415777547,148.2555414339823L259.759576848575,148.26360810452923L259.8627379196031,148.2694043647622L259.9658989906311,148.27380753177755L260.1722211326871,148.27831567725252L260.3785432747432,148.28284053925947L260.6880264878273,148.2881928774591L260.7911875588553,148.29228342071073L261.2038318429674,148.29806922581378L261.4101539850235,148.30312933087876L261.5133150560515,148.3069674166765L261.6164761270795,148.3100568673994L261.7196371981076,148.3126662900483L262.5449257663318,148.32009287918302L263.4733754055841,148.330456038753L263.6796975476401,148.33789239214784L263.9891807607242,148.34415875539216L264.50498611586437,148.35075650002392L264.81446932894846,148.35635003934988L264.9176303999765,148.36019971541236L265.22711361306057,148.36405187250918L265.3302746840886,148.36682587220506L265.6397578971726,148.36992465887977L265.94924111025676,148.3731874707126L266.1555632523128,148.37599345111485L266.36188539436887,148.37855617968813L266.67136860745296,148.38131227448488L266.980851820537,148.38413811847198L267.084012891565,148.38623463624373L267.1871739625931,148.38784728774235L267.39349610464916,148.38953978382744L268.21878467287337,148.3932543965323L268.4251068149294,148.39610010473893L268.6314289569855,148.39839362321752L268.83775109904155,148.40035582785913L269.35355645418167,148.40285957289913L269.8693618093218,148.40554943054678L270.28200609343395,148.4080424854672L270.69465037754605,148.41034034117834L270.79781144857407,148.41188871326554L270.9009725196021,148.41301824220753L271.3136168037142,148.4143900177294L271.41677787474225,148.41535189467388L271.51993894577026,148.41611410301567L271.6231000167983,148.41669481613752L271.93258322988237,148.41750594944844L272.4483885850225,148.41868668759173L272.7578717981066,148.41973444779873L272.96419394016266,148.42059445664182L273.37683822427476,148.4215114733271L273.4799992953028,148.42215422442578L273.58316036633084,148.42261699265796L273.68632143735886,148.4229871946848L273.8926435794149,148.42337897456144L274.09896572147096,148.4237374306042L274.40844893455505,148.42418385694876L274.71793214763915,148.42465221844515L274.82109321866716,148.42499492940138L275.02741536072324,148.4252930970627L275.23373750277926,148.42556453874707L275.9558649999755,148.4260050270203L276.26534821305955,148.42634643755727L276.36850928408757,148.42658213090868L276.57483142614365,148.42680066449248L276.78115356819967,148.4269780551865L276.98747571025575,148.42709991311747L277.09063678128376,148.42718845139075L277.29695892333984,148.4272878448984L277.60644213642394,148.42737832803223L277.81276427847996,148.42743261791253L278.12224749156405,148.42748061535528L278.32856963362013,148.42750941382093L278.43173070464815,148.4275266929003" fill="none"></path></g></g></g></g><g opacity="0.2"><g><g><g><path style="fill: none;" stroke="rgb(255, 112, 67)" stroke-width="2px" d="M23.10807991027832,226.23683164808838L24.036529549530574,145.17681555828983L24.34601276261466,129.05172384506264L24.75865704672677,113.08561000850453L24.964979188782827,107.01506889977861L25.171301330838887,101.96417634080717L25.274462401866913,99.75175028998984L25.48078454392297,95.809538518762L25.687106685979025,92.46413964471685L26.09975097009114,87.27246895629627L26.20291204111917,86.23751256830805L26.306073112147192,85.2920511237467L26.409234183175222,84.43118765672891L26.512395254203252,83.65172178797656L27.13136168037142,80.26984630191858L27.337683822427476,79.48263011708316L27.440844893455505,79.14250306151727L27.544005964483535,78.83677044349415L27.64716703551156,78.56766867262981L27.956650248595643,77.92342846807308L28.059811319623673,77.75373124876172L28.162972390651703,77.60477865657819L28.26613346167973,77.47957827686812L28.781938816819874,77.07289875583271L29.297744171960012,76.09200178649355L29.607227385044098,75.04243161842831L29.710388456072124,74.70646891180257L30.329354882240295,73.14807699730864L31.154643450464523,72.28813894116642L31.464126663548605,72.23141896625005L31.567287734576635,72.23666296121172L32.28941523177283,72.50962061072435L32.598898444856914,72.72038293764003L32.805220586912974,72.8814815475657L33.52734808410917,73.55386966625495L33.6305091551372,73.65782415461292L33.93999236822128,73.97369773348105L34.04315343924931,74.08100683626303L34.76528093644551,74.7601813013733L34.971603078501566,74.92983996189817L35.177925220557626,75.106362086417L35.281086291585645,75.1978235279545L35.38424736261368,75.29136714396208L36.106374859809875,76.00751948530946L36.62218021495001,76.61138864041857L36.82850235700607,76.82639243384736L36.931663428034106,76.93277612575375L37.03482449906213,77.04004666974924L37.34430771214621,77.37018699961607L37.653790925230304,77.71806437126502L37.86011306728635,77.96576601563133L37.96327413831438,78.09034945475767L38.27275735139847,78.46610482903378L38.89172377756664,79.24321861181068L38.994884848594666,79.37744174755774L39.20120699065072,79.06214655048684L39.51069020373481,77.32075463534495L39.71701234579086,75.88193351773457L39.82017341681889,75.15857068331488L40.02649555887495,73.78190632951498L40.23281770093101,72.5531149218771L40.335978771959034,72.00345942056299L41.05810626915523,69.31170909497641L41.883394837379456,67.77872742077473L41.98655590840748,67.65618759733199L42.089716979435515,67.50129695203007L42.50236126354762,65.80224258444643L43.53397197382791,61.57026153279938L43.637133044855936,61.31627480623636L43.84345518691199,60.90292461513939L44.04977732896805,60.60625331193976L44.25609947102411,60.41588858307354L44.565582684108186,60.297358873425026L44.66874375513621,60.288258999815056L44.771904826164246,60.28779629437726L45.08138803924833,60.336611718064646L46.112998749528614,61.03888289627819L46.319320891584674,61.25808959743361L46.93828731775284,62.02903397437324L47.24777053083692,62.46216482293593L47.35093160186495,62.610770386041146L47.454092672892976,62.76018568366247L47.55725374392101,62.913842447796924L47.76357588597707,63.21780136164183L48.176220170089174,63.8190485192701L48.38254231214523,64.01026154143892L48.588864454201286,64.12466546093377L48.795186596257345,64.21292652319319L49.31099195139748,64.47115471626934L49.929958377565654,64.98028493298989L50.65208587476185,64.21238670018242L50.75524694578988,63.563172412169415L51.27105230093002,59.20830450800126L51.37421337195805,57.91720210140697L51.683696585042135,53.81227225122118L51.78685765607017,52.485271614411275L51.89001872709819,51.213371483485474L52.302663011210306,46.7772987749843L52.40582408223834,45.83445932790381L52.612146224294385,44.1795547708431L52.92162943737848,42.08064578743151L53.33427372149058,39.80633288430911L53.437434792518616,39.34891000026214L53.54059586354664,38.93421025163828L53.643756934574675,38.567978897623455L53.85007907663073,37.95315904715319L54.15956228971481,37.24757181330213L54.26272336074284,37.06746372164038L54.36588443177087,36.91465525080856L54.67536764485495,36.61034930788531L54.984850857939044,36.41851934513274L55.60381728410721,34.32978988135264L55.81013942616327,33.43202565567069L56.119622639247346,32.192476346604074L56.22278371027538,31.825975081083858L56.42910585233144,31.180539554146154L56.53226692335946,30.89042324464862L57.0480722784996,29.80052058592225L57.15123334952764,29.653418815489875L57.56387763363975,29.26582589376351L57.7701997756958,29.19942766343991L58.079682988779886,29.229195046604737L58.492327272892005,29.45314447849757L58.90497155700411,29.82080250761226L59.11129369906017,30.041281648721625L59.52393798317228,30.587698211971176L59.62709905420031,30.73136825040655L59.73026012522834,30.878431462052436L59.93658226728439,31.193148277326078L60.45238762242454,31.958694424158086L60.55554869345256,32.113160922808696L60.96819297756468,32.75547318804127L61.07135404859271,32.91826838457217L61.174515119620736,33.065485831363986L62.20612582990101,33.74913311570626L62.72193118504115,33.78580252165152L63.444058682237355,33.28885688145959L63.54721975326538,33.24709771569858L64.06302510840553,33.232522494408016L64.16618617943355,33.26707116709674L64.3725083214896,33.36929051006295L64.57883046354566,33.5117266673309L64.99147474765778,33.8904125093797L65.91992438691003,35.04389860701643L66.12624652896609,35.337755118802804L66.22940759999412,35.487787357007875L66.5388908130782,35.93071213733724L67.15785723924637,36.823116691698075L67.98314580747059,34.364145760108926L68.08630687849862,33.944973192253045L68.18946794952664,33.54812616177077L68.39579009158271,32.838374578979554L68.49895116261074,32.5293259053189L68.80843437569482,31.7913107320357L68.91159544672284,31.606074321771732L69.42740080186299,30.845695052328427L69.53056187289101,30.70298898355512L70.66533365419933,29.700036388347726L70.97481686728341,29.641157121388307L71.07797793831145,29.643856236442108L71.28430008036749,29.67929176121992L71.49062222242355,29.756177981466884L71.80010543550765,29.9306950490886L72.93487721681595,29.81968430280425L73.34752150092807,30.00754271054906L73.4506825719561,30.079454847339722L73.65700471401215,30.244447894700162L73.96648792709622,30.54505219412106L74.17281006915229,30.849165343111896L74.68861542429242,31.525062311371105L74.79177649532046,31.658205801096646L75.41074292148862,32.48401933120147L75.61706506354469,32.77309455346397L75.7202261345727,32.92281832137717L75.82338720560074,33.07342894137948L75.92654827662876,33.22481073711145L76.0297093476568,33.37700226735954L76.13287041868482,33.53042767877512L76.33919256074088,33.84244537899494L76.54551470279694,34.15851175179549L77.06132005793708,34.983631223743615L77.16448112896511,35.15988343675707L77.26764219999313,35.32977345000084L77.4739643420492,35.65640493029771L77.8866086261613,36.28344791608305L78.09293076821736,36.587252594782036L78.29925291027341,36.889437804448725L78.71189719438553,37.4976641024304L78.81505826541355,37.6471565176247L78.91821933644158,37.79610910980823L79.3308636205537,38.4016362927361L79.74350790466582,39.023782312638126L79.84666897569383,39.17905854580485L80.15615218877792,39.64747068399945L80.36247433083398,39.96018244237597L80.46563540186202,40.11653832156424L80.56879647289003,40.27320267104436L80.67195754391807,40.4300598144569L80.7751186149461,40.586916957869455L80.87827968597414,40.74415968914681L81.08460182803017,41.05972479772308L81.18776289905821,41.21758446958418L81.70356825419834,42.01073870753797L81.80672932522637,42.16975514299355L82.11621253831046,42.64780697780887L82.21937360933849,42.80720900112928L82.52885682242257,43.285415071090526L82.73517896447862,43.604103441371926L83.14782324859074,44.24151874072116L83.3541453906468,44.561055404305165L83.56046753270286,44.88036071517029L83.76678967475891,45.19951179088947L84.076272887843,45.67806488992905L84.48891717195511,46.31447766082974L84.59207824298313,46.473108508420495L84.7984003850392,46.78940623393994L85.10788359812328,47.26302380830973L85.5205278822354,47.89315149701369L86.03633323737554,48.50750864204615L86.75846073457174,48.46501685934198L86.86162180559975,48.255372737234296L87.06794394765582,47.80774378495401L87.17110501868383,47.588151495933765L87.27426608971187,47.38182342946361L87.3774271607399,47.19018626064347L87.58374930279595,46.86054719500093L87.89323251588003,46.51405793966536L88.30587679999215,46.322575005991155L88.40903787102017,46.31497892505402L88.8216821551323,46.417429620739156L89.13116536821637,46.60305161886797L89.54380965232849,46.95713695514067L89.85329286541257,47.282688789416014L89.95645393644061,47.39936767731336L90.05961500746864,47.52017235536435L90.16277607849666,47.64356047210971L90.26593714952469,47.769647703908895L90.47225929158074,48.028030132130965L90.57542036260877,48.1603253285539L90.67858143363681,48.29435567036855L90.88490357569286,48.56654214415151L90.98806464672089,48.70631774515212L91.09122571774891,48.84721155096074L91.19438678877695,48.98984050216107L91.400708930833,49.27779751961556L91.60703107288904,49.56918626906703L91.71019214391708,49.71597956920753L92.43231964111328,50.75282533773341L92.74180285419736,51.197755174959894L92.8449639252254,51.346514973211036L92.94812499625343,51.495313330248635L93.15444713830948,51.79387401398593L93.46393035139356,52.238186910628684L93.67025249344962,52.531272246685404L93.87657463550568,52.82651687478518L94.28921891961778,53.4176616303549L94.7018632037299,53.99272737196127L95.01134641681398,54.386952404962706L95.11450748784202,54.50309146984927L95.21766855887005,54.61579880273887L95.32082962989807,54.7265781963043L95.4239907009261,54.83701056079142L95.93979605606624,55.40008451980159L96.55876248223441,56.13142902302323L96.76508462429047,56.39046695061552L96.86824569531849,56.52187529494934L96.97140676634652,56.65444040287765L97.28088997943061,57.05776530948904L97.59037319251469,57.469071884902405L97.69353426354272,57.607883516240946L98.00301747662681,58.02967808157767L98.10617854765484,58.17138162190243L98.20933961868286,58.31312372101365L98.41566176073891,58.59707062467394L98.62198390279497,58.88190438042329L99.24095032896315,59.74041576146564L99.55043354204723,60.1750118439147L99.65359461307524,60.31918314657436L99.96307782615935,60.750231820667004L100.06623889718736,60.8940560942483L100.1693999682154,61.037224868459404L100.37572211027145,61.324719180476116L100.47888318129948,61.47301627328943L101.09784960746765,62.33846823589872L101.51049389157976,62.905398073557166L101.6136549626078,63.04440249882812L101.81997710466385,63.32044485125938L102.0262992467199,63.596911350341976L102.23262138877597,63.87449605423256L102.33578245980398,64.01334624435756L102.43894353083202,64.15161805268534L102.54210460186005,64.29343726936953L102.64526567288807,64.43382981095387L102.95474888597217,64.85138290977747L103.16107102802822,65.12973878939772L103.36739317008427,65.40655231755863L103.67687638316836,65.81997962622857L103.88319852522442,66.09540503807611L103.98635959625244,66.23309846460664L104.08952066728048,66.37063765599123L104.50216495139257,66.92075586274314L104.70848709344864,67.19641262730958L104.81164816447668,67.3341060538401L105.01797030653272,67.60949290690117L105.32745351961681,68.0218020107631L105.74009780372891,68.56791010372078L106.04958101681301,68.97667179922627L106.35906422989709,69.38365979055355L106.46222530092511,69.51876977838972L106.66854744298116,69.79103336974566L106.87486958503723,70.05994234667759L107.08119172709328,70.32484120981529L107.59699708223343,70.98269266600049L107.90648029531751,71.35382098589865L108.00964136634555,71.43032161828077L108.11280243737357,71.48337850848128L108.42228565045765,71.5714082180218L109.24757421868189,71.83966169558352L109.3507352897099,71.89611175899452L109.45389636073794,71.95796005251313L109.66021850279398,72.09831403531098L110.0728627869061,72.41603843593029L110.27918492896217,72.55743350596319L110.38234599999018,72.62707067435134L110.7949902841023,72.91653148447867L111.00131242615836,73.07554791993425L111.10447349718638,73.15999166233186L111.41395671027048,73.43884880617638L111.62027885232654,73.64490696114115L111.82660099438257,73.8550137886866L112.13608420746668,74.18071985810788L112.34240634952272,74.40497776029258L112.44556742055076,74.51938167978741L112.65188956260681,74.75169836834705L112.75505063363484,74.86899419682811L113.06453384671892,75.23607384414557L113.37401705980301,75.61001695545698L113.47717813083104,75.73533301152649L114.19930562802723,76.61509028392092L114.30246669905527,76.73736019585829L114.40562777008329,76.8583576678417L114.50878884111131,76.97869964045492L114.71511098316738,77.21861240995167L114.8182720541954,77.33841455955414L115.02459419625146,77.5783273290509L115.1277552672795,77.69851506651818L115.23091633830751,77.81920406820973L115.5403995513916,78.18184945508165L115.64356062241963,78.30342530886232L115.74672169344765,78.42527107414837L115.8498827644757,78.54734819215331L116.05620490653175,78.7915024281632L116.6751713326999,79.52284693138485L116.77833240372794,79.64519396089517L117.08781561681202,80.0125820785045L117.80994311400822,80.87190319406298L118.1194263270923,81.23848157715615L118.8415538242885,82.10616994938144L118.94471489531654,82.2304834770024L119.04787596634456,82.35290762408567L119.25419810840062,82.5929360699419L119.35735917942864,82.71165857352283L119.46052025045668,82.82999548923893L119.77000346354076,83.18381091400624L119.87316453456879,83.3015694479251L120.07948667662484,83.51653468256741L120.2858088186809,83.69988171229373L120.38896988970892,83.7857521297912L120.80161417382104,84.12221610064121L120.90477524484908,84.20839498843056L121.31741952896118,84.56876540689998L121.42058059998921,84.66323443378315L121.52374167101723,84.7595542824175L121.62690274204527,84.85753215887061L121.93638595512935,85.1608741321318L122.03954702615738,85.26390320961417L122.14270809718542,85.36913013792608L122.4521913102695,85.68770283184801L122.55535238129751,85.79512761098944L123.38064094952175,86.67854796809975L123.79328523363385,87.13072685718502L123.9996073756899,87.35849360893967L124.20592951774597,87.58595189040246L124.30909058877401,87.69985454567302L124.61857380185809,88.04252648114678L124.7217348728861,88.15685328306866L124.92805701494217,88.38535265176647L125.03121808597021,88.4995637773289L125.13437915699822,88.61350499138594L125.23754022802625,88.72725341151057L125.54702344111034,89.0679588488737L126.37231200933456,89.97023445257418L126.57863415139062,90.19252585664825L126.78495629344668,90.41184823416313L126.99127843550274,90.63147908196987L127.09443950653076,90.74183432888401L127.19760057755879,90.85330778060614L127.40392271961484,91.06063837552483L127.6102448616709,91.25570727634195L127.71340593269892,91.35060044987644L127.81656700372696,91.44445253617587L128.12605021681105,91.72604735386068L128.3323723588671,91.91529387791888L129.0544998560633,92.6044936275147L129.1576609270913,92.70613458868371L129.4671441401754,93.01398793996339L129.6734662822315,93.22127997609559L130.29243270839964,93.8488627848917L130.39559377942766,93.95405115441712L130.6019159214837,94.1668185382299L130.80823806353976,94.38166809651275L131.2208823476519,94.81194559487574L131.633526631764,95.24418959134934L131.83984877382005,95.45907770841868L132.0461709158761,95.66922309475062L132.3556541289602,95.97707644603031L132.45881519998824,96.07887164234523L132.56197627101625,96.18039692715477L132.6651373420443,96.28169085924542L133.28410376821245,96.90144623438549L133.3872648392405,96.99425723344989L134.00623126540864,97.54329579418027L134.2125534074647,97.73755496048125L134.41887554952078,97.9230998410371L134.5220366205488,98.01348163655307L134.62519769157683,98.09985331827482L135.55364733082908,98.8602711465046L135.75996947288513,99.0337085681048L136.06945268596922,99.29768202036692L136.48209697008133,99.66040452481181L136.68841911213738,99.84409858361646L136.79158018316542,99.93698670025383L137.20422446727753,100.30460617058205L137.30738553830557,100.39491084852506L137.51370768036162,100.56969782765216L137.61686875138963,100.65456571670109L137.72002982241767,100.73796837186364L138.02951303550176,100.98856192521617L138.13267410652978,101.07215737431116L139.16428481681007,101.89041338226534L139.37060695886612,101.9589323458455L139.47376802989416,101.98237608802711L139.78325124297822,102.04437861669166L139.88641231400626,102.06751388858142L139.9895733850343,102.09377242217629L140.29905659811837,102.19479644276156L140.4022176691464,102.2364784909496L140.50537874017442,102.28128380084276L142.05279480559486,103.2825398094449L142.36227801867895,103.53089695318141L142.56860016073497,103.70082552521168L142.671761231763,103.78708153057397L142.8780833738191,103.9636422138793L142.9812444448471,104.05190327613872L143.2907276579312,104.31811313801683L143.6002108710153,104.5880632021838L143.7033719420433,104.67728823410529L143.80653301307132,104.76647470724029L143.90969408409936,104.85562262158882L144.1160162261554,105.03399556785884L144.3223383682115,105.21410365952059L144.5286605102675,105.39371048695806L144.7349826523236,105.5740113725522L144.8381437233516,105.66466307957357L145.04446586540766,105.84538811181905L145.25078800746374,106.02499493925652L145.4571101495198,106.20452464912103L145.5602712205478,106.29436662162624L145.66343229157584,106.38417003534497L145.76659336260388,106.47378065513129L145.8697544336319,106.56342983370409L146.9013651439122,107.45841782675929L147.3140094280243,107.81547218959119L147.72665371213643,108.17002023130169L147.82981478316444,108.25870544021242L147.93297585419245,108.34731353155018L148.13929799624853,108.52742162321192L148.4487812093326,108.79725601101944L148.7582644224167,109.06041972876541L148.96458656447274,109.23489823760065L149.17090870652882,109.40945386400885L149.27406977755683,109.49671239781972L149.48039191961288,109.67057396607123L149.893036203725,110.01656195718252L149.996197274753,110.10285652133132L150.09935834578107,110.18884261518824L150.30568048783712,110.36004362717243L150.40884155886513,110.44541278044562L150.71832477194923,110.70152024026521L150.82148584297724,110.78685083475193L150.92464691400528,110.87202719409271L151.02780798503332,110.95712643586054L151.23413012708937,111.12813465391231L151.74993548222952,111.55201139371911L152.0594186953136,111.80229647677979L152.57522405045373,112.21726613690905L152.78154619250978,112.38283756606671L153.1941904766219,112.71239951413628L153.40051261867794,112.87662138576707L153.81315690279007,113.20282871941262L153.91631797381808,113.28387928859973L154.01947904484615,113.36454426992202L154.12264011587416,113.44571051546858L154.32896225793021,113.60738750719148L154.6384454710143,113.84895830450702L154.74160654204232,113.92954616825634L154.9479286840984,114.09056766060903L155.0510897551264,114.17073137770703L155.15425082615442,114.2507408596591L155.7732172523226,114.7301808107878L155.97953939437866,114.88838751172725L156.0827004654067,114.96739446523077L156.28902260746273,115.12498422558647L156.3921836784908,115.20364415001166L156.70166689157486,115.43892986513046L156.80482796260287,115.51755123076916L157.32063331774302,115.90822885541415L157.42379438877106,115.98596336896372L157.5269554597991,116.06365932372682L157.83643867288316,116.29643871772424L158.04276081493924,116.45067386365596L158.14592188596725,116.52748296632994L158.24908295699527,116.60444630414986L158.35224402802334,116.68164099468868L158.45540509905135,116.75875856765452L158.55856617007936,116.83556767032852L159.17753259624752,117.29133252655672L159.69333795138766,117.66712645961931L159.79649902241573,117.7421232993286L159.89966009344374,117.81685022753251L160.4154654485839,118.19056198612502L160.828109732696,118.48731040689762L161.03443187475204,118.63437361854349L161.13759294578006,118.7077509892205L161.5502372298922,119.00126047192853L161.9628815140043,119.29318904439077L162.6850090112005,119.80108537994387L162.89133115325654,119.94525668260353L163.2008143663406,120.16153291598627L163.4071365083967,120.3048559253433L163.51029757942473,120.37630535669615L163.81978079250882,120.58760750662259L163.92294186353683,120.65793873316744L164.1292640055929,120.79825415717882L164.23242507662093,120.86819979585884L164.541908289705,121.07738121252872L166.29564649718148,122.25203608394457L166.39880756820952,122.3201694596599L166.50196863923753,122.38830283537524L166.60512971026554,122.45601206443925L167.01777399437768,122.72619348132511L167.32725720746177,122.92762458191191L167.43041827848978,122.99448551767331L167.73990149157387,123.1947984134521L167.84306256260192,123.26154367285406L167.94622363362993,123.3289829904127L168.35886791774206,123.59669664496366L168.46202898877007,123.6629791989278L168.56519005979808,123.72887616502712L168.77151220185416,123.85978324513665L168.97783434391022,123.99042041374081L169.18415648596627,124.12113469991792L169.39047862802232,124.25146339823021L170.00944505419048,124.64079146534831L170.21576719624656,124.77046466429039L170.7315725513867,125.09281611928765L170.83473362241472,125.15670802848987L171.76318326166697,125.7250645412482L171.866344332695,125.78764545170998L173.00111611400334,126.46674279924727L173.41376039811541,126.71189956370571L173.51692146914348,126.77282244634874L173.82640468222755,126.95134962776469L173.92956575325556,127.01073015894839L174.23904896633965,127.18910310521841L174.44537110839573,127.30747857972099L174.54853217942374,127.36643496425339L174.65169325045176,127.42531423121281L175.37382074764795,127.83592674846949L175.476981818676,127.89411195727223L175.58014288970404,127.95245140122088L175.68330396073205,128.01079084516957L175.99278717381614,128.18445961948865L176.1991093158722,128.29959615592668L176.3022703869002,128.35697163021328L176.40543145792827,128.41438566328634L176.50859252895629,128.471606902427L177.02439788409643,128.7566334521088L177.23072002615245,128.87049754859288L177.7465253812926,129.15328768865865L177.84968645232067,129.2096220757102L178.15916966540473,129.3781239726406L178.88129716260093,129.76710501068035L179.08761930465698,129.8774602575945L180.11923001493727,130.4241467323494L180.32555215699333,130.5316100702773L180.42871322802137,130.58509110712913L180.6350353700774,130.69189894568686L180.73819644110543,130.7455342176846L180.94451858316148,130.8523420562423L181.04767965418952,130.90555318158874L181.66664608035768,131.22304622948914L181.76980715138572,131.2757560906113L182.3887735775539,131.59162966947943L182.49193464858192,131.64352979608546L183.42038428783417,132.10530982300497L183.8330285719463,132.30789768718628L184.03935071400232,132.4083818847608L184.45199499811446,132.61035280835833L185.07096142428261,132.90791096364708L185.3804446373667,133.0557839098091L185.58676677942276,133.1535689923298L185.89624999250685,133.298742823438L186.10257213456288,133.39486987813996L186.20573320559095,133.44268277337878L186.61837748970302,133.63266191438015L186.7215385607311,133.6800506629677L186.92786070278711,133.7746353662103L187.03102177381516,133.821638526933L187.2373439158712,133.9152978193L187.54682712895527,134.05515053787357L187.64998819998334,134.1016138755855L187.75314927101135,134.14780730179206L188.16579355512349,134.3311157727319L188.3721156971795,134.4220373912586L188.47527676820755,134.4674596417355L188.57843783923556,134.51295900978533L188.78475998129164,134.6036492755932L188.99108212334767,134.69403107110918L189.19740426540375,134.78464421934405L189.5068874784878,134.92040970655043L189.8163706915719,135.05559681195956L189.91953176259995,135.10032500427977L190.02269283362796,135.14505319659997L190.33217604671205,135.27815812753903L190.53849818876813,135.36607216072008L190.64165925979614,135.40995205973766L190.9511424728802,135.541244727712L191.05430354390828,135.5844305685729L191.36378675699234,135.7136025032907L191.77643104110444,135.8850348679938L191.87959211213249,135.92926179608972L191.9827531831605,135.97348872418561L192.7048806803567,136.2731676127309L192.91120282241275,136.3568016206124L193.01436389344082,136.398367992441L193.11752496446883,136.4398958054831L193.4270081775529,136.56478771490129L193.53016924858093,136.60643120430285L193.73649139063698,136.68925547766815L194.14913567474912,136.85193499783963L194.25229674577713,136.89195901820892L194.35545781680514,136.93202159736467L194.66494102988923,137.05159239424825L195.07758531400137,137.21010756547952L195.18074638502938,137.2495146452651L195.38706852708543,137.3282902460497L195.49022959811347,137.36746597311634L195.5933906691415,137.406641700183L195.69655174016953,137.44577886846318L195.9028738822256,137.52401464623705L196.21235709530967,137.64073209292087L196.31551816633768,137.6794451145497L196.41867923736572,137.7181195773921L196.52184030839376,137.75660124630204L196.93448459250587,137.90944827592037L197.0376456635339,137.94746723939252L197.55345101867402,138.13686799859664L197.75977316073008,138.21279024918152L197.86293423175815,138.25057785993482L197.96609530278616,138.28824979432864L198.37873958689826,138.43832059132018L198.68822279998233,138.54975548425583L198.8945449420384,138.62363411915712L199.20402815512247,138.73333386670106L199.30718922615048,138.76965624356797L199.41035029717855,138.8059015028619L199.51351136820657,138.8418768506505L199.6166724392346,138.87785219843903L199.82299458129066,138.949147394646L200.0293167233467,139.02009556177455L200.3387999364308,139.12601654824317L200.44196100745884,139.16110504394263L200.64828314951487,139.23128203534156L200.7514442205429,139.26633197225453L200.85460529157095,139.30134335038102L201.164088504655,139.4057605441768L201.3704106467111,139.4750506834866L201.4735717177391,139.5094451210294L201.57673278876712,139.54399379371807L201.67989385979516,139.57842679004733L202.40202135699136,139.81679720808478L202.5051824280194,139.85049758747087L202.8146656411035,139.9513288141237L203.33047099624363,140.11612906755173L203.74311528035574,140.24549379620194L204.3620817065239,140.43651402443837L204.46524277755194,140.4682864645003L204.67156491960796,140.5314843155458L205.0842092037201,140.65606775467214L205.18737027474813,140.6870690190044L205.29053134577615,140.7180702833367L205.4968534878322,140.7799185768553L205.6000145588602,140.8108427236146L205.70317562988828,140.84165119401445L206.11581991400035,140.96422957624367L206.5284641981125,141.08603678274326L206.73478634016854,141.14665119509442L206.83794741119658,141.17668848976462L207.66323597942082,141.41486611386964L207.76639705044883,141.44428646795612L208.0758802635329,141.5322005011372L208.385363476617,141.6191505646562L208.79800776072912,141.7342485423077L209.00432990278514,141.79158545780783L209.41697418689728,141.9054109955054L209.93277954203742,142.0456878607303L210.03594061306543,142.07348874578452L210.44858489717754,142.18349696362029L210.5517459682056,142.21075802566372L210.86122918128967,142.292541211794L210.96439025231768,142.31976371505095L211.06755132334575,142.34687054194845L211.37703453642982,142.4276126408437L211.6865177495139,142.50742932886334L211.78967882054192,142.53384209760415L211.99600096259798,142.58643628236686L212.20232310465406,142.63864487926475L212.30548417568207,142.66436358984885L212.40864524671008,142.6900437416465L213.1307727439063,142.86918786364618L213.33709488596233,142.9198926678712L213.44025595699037,142.94595840753368L214.05922238315856,143.09849696686013L214.16238345418657,143.12352161928754L214.2655445252146,143.1484305953555L214.36870559624262,143.17310821870458L214.47186666727066,143.1977087244807L214.6781888093267,143.24667838331402L214.9876720224108,143.31967016612617L215.709799519607,143.48643691766483L215.81296059063502,143.5100348949924L215.91612166166308,143.53351719596048L216.8445713009153,143.74227446597905L217.1540545139994,143.810137930189L217.2572155850274,143.83254058513558L217.66985986913954,143.92138002919222L217.77302094016756,143.9433585374875L217.8761820111956,143.9652984869963L217.97934308222364,143.9871227601456L218.2888262953077,144.05240278566123L218.39198736633574,144.07403426487815L218.49514843736378,144.0955886265221L218.5983095083918,144.11710442937957L219.0109537925039,144.2025892590122L219.11411486353194,144.2238737091508L219.21727593455995,144.24500392414342L219.52675914764404,144.308124657616L219.7330812897001,144.34996094094996L219.93940343175618,144.39148875399206L220.1457255738122,144.43263097916935L220.24888664484024,144.45318281236476L220.35204771586828,144.47369608677369L220.55836985792433,144.51464551801854L220.66153092895235,144.53500455728152L221.1773362840925,144.63610569543977L221.48681949717658,144.69618028478016L221.69314163923264,144.7355873645657L222.00262485231673,144.79442807273864L222.31210806540082,144.85222769367655L222.41526913642883,144.8713142929856L222.62159127848489,144.90933325645778L222.82791342054097,144.94696663206508L223.44687984670912,145.05770746684408L223.55004091773714,145.0759457728505L223.75636305979322,145.11222959093092L223.96268520184927,145.148166379933L224.89113484110152,145.30764552082638L224.99429591212953,145.32515120988964L225.09745698315754,145.3426183401664L225.2006180541856,145.35996979408372L226.43855090652193,145.5506429932418L226.644873048578,145.5811429933498L226.85119519063406,145.61187434617668L227.05751733269008,145.6427599341495L227.47016161680222,145.7054950797572L227.57332268783023,145.72122706464225L227.6764837588583,145.73688193195431L227.7796448298863,145.75265247562584L227.88280590091432,145.76846157808384L227.98596697194236,145.78419356296888L228.08912804297037,145.79988698906743L228.29545018502645,145.83115816490508L228.39861125605447,145.84673591464417L228.50177232708248,145.8623136643833L228.70809446913856,145.89323781114257L229.2238998242787,145.96896726779505L229.53338303736277,146.01365690132877L229.73970517941885,146.04307725541526L229.84286625044686,146.0578838294247L230.0491883925029,146.08714994836524L230.358671605587,146.13041290679908L230.6681548186711,146.17313604222215L230.87447696072715,146.20136107392764L231.18396017381124,146.24339015119403L231.4934433868953,146.28464805273077L231.59660445792335,146.2982978631457L231.9060876710074,146.33882314773928L232.1124098130635,146.36546726919897L232.2155708840915,146.37861581538965L233.04085945231574,146.48295589161245L233.14402052334378,146.49583452629776L233.3503426653998,146.52132188416297L233.86614802053995,146.58478964671386L234.3819533756801,146.64648370508655L234.48511444670814,146.6585526052557L234.58827551773618,146.67058294663838L234.7945976597922,146.6944893942578L234.89775873082024,146.7066739707864L235.1040808728763,146.73073465355174L235.31040301493235,146.7543711896658L235.61988622801644,146.78938256779227L235.72304729904448,146.80091164495065L236.13569158315659,146.84641101300053L236.65149693829673,146.9020127831089L236.85781908035278,146.92387561504472L237.47678550652097,146.98792175939286L237.57994657754898,146.99833263174324L237.683107648577,147.00878206288013L237.78626871960503,147.01915437644402L237.88942979063307,147.02944957243497L238.19891300371714,147.0601038076889L238.40523514577322,147.08027005301946L238.71471835885728,147.1102302301167L238.8178794298853,147.12010127945632L239.1273626429694,147.1492902808239L239.33368478502547,147.16856967406537L239.54000692708152,147.18761771458793L239.64316799810953,147.19706461727623L239.74632906913757,147.20655007875104L240.15897335324968,147.243913542853L240.5716176373618,147.28069862515773L240.67477870838982,147.2897599399812L240.77793977941784,147.2988212548047L241.19058406352997,147.33441101472843L241.293745134558,147.34324097683302L241.50006727661406,147.3606695483233L241.60322834764207,147.3693067164955L241.80955048969815,147.3863882589074L241.91271156072617,147.3948326331472L242.0158726317542,147.40331556617343L242.22219477381023,147.420050079507L242.3253558448383,147.42830165981437L242.4285169158663,147.4365532401217L242.53167798689432,147.44476626164254L242.84116119997842,147.46901973834034L243.04748334203447,147.48502163473074L243.15064441306248,147.49296474474622L243.7696108392307,147.53977511153647L243.8727719102587,147.5474097512601L243.97593298128672,147.55496727341077L244.38857726539885,147.58465753900262L244.5948994074549,147.59896284878778L244.80122154951096,147.61315248221348L245.2138658336231,147.6411847199866L245.93599333081926,147.68892049765245L246.24547654390335,147.7088939490506L246.4517986859594,147.7219653776683L246.65812082801548,147.73488257114008L246.7612818990435,147.74136044726924L246.96760404109955,147.7540848468086L247.17392618315563,147.7666935699885L247.38024832521165,147.77910949923603L247.4834093962397,147.7852403462868L247.5865704672677,147.7913326345511L247.8960536803518,147.80933958783862L247.9992147513798,147.81531619974348L248.30869796446393,147.8329375651662L248.41185903549194,147.83879850071156L248.72134224857604,147.8561499546289L249.0308254616601,147.87315437946785L249.4434697457722,147.89547991684148L250.06243617194042,147.92779217991418L250.16559724296843,147.93303617487587L250.4750804560525,147.9484982482555L250.57824152708054,147.95358800807125L250.7845636691366,147.96361329255683L250.99088581119264,147.97340722432347L251.09404688222068,147.9783041902068L251.30036902427673,147.98790532804105L251.40353009530475,147.99264805877846L251.60985223736083,148.00213352025327L251.71301330838884,148.0067605746312L251.81617437941688,148.01134907022268L251.9193354504449,148.01593756581414L252.12565759250097,148.0250759982106L252.33197973455702,148.03398307788817L252.43514080558504,148.0383787795472L252.84778508969714,148.055768792251L252.95094616072518,148.0600488175506L253.15726830278123,148.06849319179037L253.4667515158653,148.08098623861082L253.67307365792138,148.0891992601317L253.98255687100547,148.1011524839414L254.60152329717366,148.12417207947172L255.2204897233418,148.14599635262107L255.63313400745392,148.16003175090083L255.942617220538,148.1702498293188L256.4584225756782,148.18667587236055L256.6647447177342,148.19303807213024L256.9742279308183,148.2022921808861L257.59319435698643,148.22014489902773L257.6963554280145,148.22311392558692L257.9026775700706,148.2287820671999L258.2121607831546,148.2371493238667L258.5216439962387,148.24532378660106L258.6248050672667,148.2479843428684L258.72796613829473,148.2506448991357L259.656415777547,148.27327890680118L259.759576848575,148.27570811034963L259.8627379196031,148.27809875511156L259.9658989906311,148.28041228230055L260.1722211326871,148.28507789546498L260.3785432747432,148.28962783226996L260.6880264878273,148.29622138475852L260.7911875588553,148.29841923558806L261.2038318429674,148.3067479334684L261.4101539850235,148.3107194884761L261.5133150560515,148.31272454537321L261.6164761270795,148.31469104348383L261.7196371981076,148.3165804240215L262.5449257663318,148.331232762885L263.4733754055841,148.346000778108L263.6796975476401,148.34904692224012L263.9891807607242,148.35355830025864L264.50498611586437,148.3606531169715L264.81446932894846,148.36474034833867L264.9176303999765,148.36597422950615L265.22711361306057,148.36983010815442L265.3302746840886,148.37098687174893L265.6397578971726,148.37457283889185L265.94924111025676,148.37808168846178L266.1555632523128,148.38020242171834L266.36188539436887,148.38240027254787L266.67136860745296,148.38544641668003L266.980851820537,148.38837688445273L267.084012891565,148.3893794129013L267.1871739625931,148.3902662649904L267.39349610464916,148.39207852795508L268.21878467287337,148.3988263155896L268.4251068149294,148.4003686670489L268.6314289569855,148.40183390093526L268.83775109904155,148.40329913482162L269.35355645418167,148.40661519045915L269.8693618093218,148.40958421701833L270.28200609343395,148.41178206784787L270.69465037754605,148.41378712474497L270.79781144857407,148.41421127139628L270.9009725196021,148.41471253562057L271.3136168037142,148.4164476810123L271.41677787474225,148.41679471009064L271.51993894577026,148.41725741552844L271.6231000167983,148.4175658858203L271.93258322988237,148.4187226494148L272.4483885850225,148.4204577948065L272.7578717981066,148.42130608810913L272.96419394016266,148.4218844699064L273.37683822427476,148.42288699835495L273.4799992953028,148.42311835107384L273.58316036633084,148.42331114500627L273.68632143735886,148.42354249772515L273.8926435794149,148.42396664437646L274.09896572147096,148.42427511466832L274.40844893455505,148.42485349646557L274.71793214763915,148.42535476068986L274.82109321866716,148.4255089958358L275.02741536072324,148.42574034855468L275.23373750277926,148.42597170127357L275.9558649999755,148.42666575943025L276.26534821305955,148.42685855336268L276.36850928408757,148.42693567093565L276.57483142614365,148.42712846486808L276.78115356819967,148.4272441412275L276.98747571025575,148.427282700014L277.09063678128376,148.42732125880048L277.29695892333984,148.42743693515993L277.60644213642394,148.42751405273287L277.81276427847996,148.42751405273287L278.12224749156405,148.4275526115194L278.32856963362013,148.4275526115194L278.43173070464815,148.4275526115194" fill="none"></path></g></g></g></g></g></g><g transform="translate(41, 177)" clip-path="url(#clip_1)"><clipPath id="clip_1"><rect width="288" height="22"></rect></clipPath><g><g><line x1="0" y1="0" x2="0" y2="5" style="visibility: inherit;" fill="rgb(0, 0, 0)" stroke="rgb(204, 204, 204)" stroke-width="1px"></line><line x1="20.632214205605642" y1="0" x2="20.632214205605642" y2="5" style="visibility: inherit;" fill="rgb(0, 0, 0)" stroke="rgb(204, 204, 204)" stroke-width="1px"></line><line x1="41.264428411211284" y1="0" x2="41.264428411211284" y2="5" style="visibility: inherit;" fill="rgb(0, 0, 0)" stroke="rgb(204, 204, 204)" stroke-width="1px"></line><line x1="61.896642616816926" y1="0" x2="61.896642616816926" y2="5" style="visibility: inherit;" fill="rgb(0, 0, 0)" stroke="rgb(204, 204, 204)" stroke-width="1px"></line><line x1="82.52885682242257" y1="0" x2="82.52885682242257" y2="5" style="visibility: inherit;" fill="rgb(0, 0, 0)" stroke="rgb(204, 204, 204)" stroke-width="1px"></line><line x1="103.16107102802822" y1="0" x2="103.16107102802822" y2="5" style="visibility: inherit;" fill="rgb(0, 0, 0)" stroke="rgb(204, 204, 204)" stroke-width="1px"></line><line x1="123.79328523363385" y1="0" x2="123.79328523363385" y2="5" style="visibility: inherit;" fill="rgb(0, 0, 0)" stroke="rgb(204, 204, 204)" stroke-width="1px"></line><line x1="144.4254994392395" y1="0" x2="144.4254994392395" y2="5" style="visibility: inherit;" fill="rgb(0, 0, 0)" stroke="rgb(204, 204, 204)" stroke-width="1px"></line><line x1="165.05771364484514" y1="0" x2="165.05771364484514" y2="5" style="visibility: inherit;" fill="rgb(0, 0, 0)" stroke="rgb(204, 204, 204)" stroke-width="1px"></line><line x1="185.6899278504508" y1="0" x2="185.6899278504508" y2="5" style="visibility: inherit;" fill="rgb(0, 0, 0)" stroke="rgb(204, 204, 204)" stroke-width="1px"></line><line x1="206.32214205605644" y1="0" x2="206.32214205605644" y2="5" style="visibility: inherit;" fill="rgb(0, 0, 0)" stroke="rgb(204, 204, 204)" stroke-width="1px"></line><line x1="226.95435626166207" y1="0" x2="226.95435626166207" y2="5" style="visibility: inherit;" fill="rgb(0, 0, 0)" stroke="rgb(204, 204, 204)" stroke-width="1px"></line><line x1="247.5865704672677" y1="0" x2="247.5865704672677" y2="5" style="visibility: inherit;" fill="rgb(0, 0, 0)" stroke="rgb(204, 204, 204)" stroke-width="1px"></line><line x1="268.21878467287337" y1="0" x2="268.21878467287337" y2="5" style="visibility: inherit;" fill="rgb(0, 0, 0)" stroke="rgb(204, 204, 204)" stroke-width="1px"></line><line x1="288.850998878479" y1="0" x2="288.850998878479" y2="5" style="visibility: inherit;" fill="rgb(0, 0, 0)" stroke="rgb(204, 204, 204)" stroke-width="1px"></line></g><g transform="translate(0, 8)"><text style="text-anchor: middle; visibility: hidden; font-family: Roboto, sans-serif; font-size: 12px; font-weight: 200;" x="0" y="0" dx="0em" dy="0.95em" fill="rgb(50, 49, 63)" stroke="none" stroke-width="1px">-200</text><text style="text-anchor: middle; visibility: hidden; font-family: Roboto, sans-serif; font-size: 12px; font-weight: 200;" x="20.632214205605642" y="0" dx="0em" dy="0.95em" fill="rgb(50, 49, 63)" stroke="none" stroke-width="1px">0</text><text style="text-anchor: middle; visibility: hidden; font-family: Roboto, sans-serif; font-size: 12px; font-weight: 200;" x="41.264428411211284" y="0" dx="0em" dy="0.95em" fill="rgb(50, 49, 63)" stroke="none" stroke-width="1px">200</text><text style="text-anchor: middle; visibility: hidden; font-family: Roboto, sans-serif; font-size: 12px; font-weight: 200;" x="61.896642616816926" y="0" dx="0em" dy="0.95em" fill="rgb(50, 49, 63)" stroke="none" stroke-width="1px">400</text><text style="text-anchor: middle; visibility: hidden; font-family: Roboto, sans-serif; font-size: 12px; font-weight: 200;" x="82.52885682242257" y="0" dx="0em" dy="0.95em" fill="rgb(50, 49, 63)" stroke="none" stroke-width="1px">600</text><text style="text-anchor: middle; visibility: hidden; font-family: Roboto, sans-serif; font-size: 12px; font-weight: 200;" x="103.16107102802822" y="0" dx="0em" dy="0.95em" fill="rgb(50, 49, 63)" stroke="none" stroke-width="1px">800</text><text style="text-anchor: middle; visibility: hidden; font-family: Roboto, sans-serif; font-size: 12px; font-weight: 200;" x="123.79328523363385" y="0" dx="0em" dy="0.95em" fill="rgb(50, 49, 63)" stroke="none" stroke-width="1px">1k</text><text style="text-anchor: middle; visibility: hidden; font-family: Roboto, sans-serif; font-size: 12px; font-weight: 200;" x="144.4254994392395" y="0" dx="0em" dy="0.95em" fill="rgb(50, 49, 63)" stroke="none" stroke-width="1px">1.2k</text><text style="text-anchor: middle; visibility: hidden; font-family: Roboto, sans-serif; font-size: 12px; font-weight: 200;" x="165.05771364484514" y="0" dx="0em" dy="0.95em" fill="rgb(50, 49, 63)" stroke="none" stroke-width="1px">1.4k</text><text style="text-anchor: middle; visibility: hidden; font-family: Roboto, sans-serif; font-size: 12px; font-weight: 200;" x="185.6899278504508" y="0" dx="0em" dy="0.95em" fill="rgb(50, 49, 63)" stroke="none" stroke-width="1px">1.6k</text><text style="text-anchor: middle; visibility: hidden; font-family: Roboto, sans-serif; font-size: 12px; font-weight: 200;" x="206.32214205605644" y="0" dx="0em" dy="0.95em" fill="rgb(50, 49, 63)" stroke="none" stroke-width="1px">1.8k</text><text style="text-anchor: middle; visibility: hidden; font-family: Roboto, sans-serif; font-size: 12px; font-weight: 200;" x="226.95435626166207" y="0" dx="0em" dy="0.95em" fill="rgb(50, 49, 63)" stroke="none" stroke-width="1px">2k</text><text style="text-anchor: middle; visibility: hidden; font-family: Roboto, sans-serif; font-size: 12px; font-weight: 200;" x="247.5865704672677" y="0" dx="0em" dy="0.95em" fill="rgb(50, 49, 63)" stroke="none" stroke-width="1px">2.2k</text><text style="text-anchor: middle; visibility: hidden; font-family: Roboto, sans-serif; font-size: 12px; font-weight: 200;" x="268.21878467287337" y="0" dx="0em" dy="0.95em" fill="rgb(50, 49, 63)" stroke="none" stroke-width="1px">2.4k</text><text style="text-anchor: middle; visibility: hidden; font-family: Roboto, sans-serif; font-size: 12px; font-weight: 200;" x="288.850998878479" y="0" dx="0em" dy="0.95em" fill="rgb(50, 49, 63)" stroke="none" stroke-width="1px">2.6k</text></g><line x1="0" y1="0" x2="288.850998878479" y2="0" fill="rgb(0, 0, 0)" stroke="rgb(204, 204, 204)" stroke-width="1px"></line></g></g></g></g></svg>