<svg viewBox="0 0 330 200" xmlns="http://www.w3.org/2000/svg"><g><g><g><g><g><line x1="51.53200149536133" y1="177.89999961853027" x2="46.53200149536133" y2="177.89999961853027" style="visibility: inherit;" fill="rgb(0, 0, 0)" stroke="rgb(204, 204, 204)" stroke-width="1px"></line><line x1="51.53200149536133" y1="158.1333329942491" x2="46.53200149536133" y2="158.1333329942491" style="visibility: inherit;" fill="rgb(0, 0, 0)" stroke="rgb(204, 204, 204)" stroke-width="1px"></line><line x1="51.53200149536133" y1="138.3666663699679" x2="46.53200149536133" y2="138.3666663699679" style="visibility: inherit;" fill="rgb(0, 0, 0)" stroke="rgb(204, 204, 204)" stroke-width="1px"></line><line x1="51.53200149536133" y1="118.5999997456867" x2="46.53200149536133" y2="118.5999997456867" style="visibility: inherit;" fill="rgb(0, 0, 0)" stroke="rgb(204, 204, 204)" stroke-width="1px"></line><line x1="51.53200149536133" y1="98.83333312140552" x2="46.53200149536133" y2="98.83333312140552" style="visibility: inherit;" fill="rgb(0, 0, 0)" stroke="rgb(204, 204, 204)" stroke-width="1px"></line><line x1="51.53200149536133" y1="79.06666649712433" x2="46.53200149536133" y2="79.06666649712433" style="visibility: inherit;" fill="rgb(0, 0, 0)" stroke="rgb(204, 204, 204)" stroke-width="1px"></line><line x1="51.53200149536133" y1="59.29999987284314" x2="46.53200149536133" y2="59.29999987284314" style="visibility: inherit;" fill="rgb(0, 0, 0)" stroke="rgb(204, 204, 204)" stroke-width="1px"></line><line x1="51.53200149536133" y1="39.533333248561945" x2="46.53200149536133" y2="39.533333248561945" style="visibility: inherit;" fill="rgb(0, 0, 0)" stroke="rgb(204, 204, 204)" stroke-width="1px"></line><line x1="51.53200149536133" y1="19.766666624280756" x2="46.53200149536133" y2="19.766666624280756" style="visibility: inherit;" fill="rgb(0, 0, 0)" stroke="rgb(204, 204, 204)" stroke-width="1px"></line><line x1="51.53200149536133" y1="0" x2="46.53200149536133" y2="0" style="visibility: inherit;" fill="rgb(0, 0, 0)" stroke="rgb(204, 204, 204)" stroke-width="1px"></line></g><g transform="translate(41.53200149536133, 0)"><text style="text-anchor: end; visibility: hidden; font-family: Roboto, sans-serif; font-size: 12px; font-weight: 200;" x="0" y="177.89999961853027" dx="0em" dy="0.3em" fill="rgb(50, 49, 63)" stroke="none" stroke-width="1px">1.29</text><text style="text-anchor: end; visibility: inherit; font-family: Roboto, sans-serif; font-size: 12px; font-weight: 200;" x="0" y="158.1333329942491" dx="0em" dy="0.3em" fill="rgb(50, 49, 63)" stroke="none" stroke-width="1px">1.3</text><text style="text-anchor: end; visibility: hidden; font-family: Roboto, sans-serif; font-size: 12px; font-weight: 200;" x="0" y="138.3666663699679" dx="0em" dy="0.3em" fill="rgb(50, 49, 63)" stroke="none" stroke-width="1px">1.31</text><text style="text-anchor: end; visibility: inherit; font-family: Roboto, sans-serif; font-size: 12px; font-weight: 200;" x="0" y="118.5999997456867" dx="0em" dy="0.3em" fill="rgb(50, 49, 63)" stroke="none" stroke-width="1px">1.32</text><text style="text-anchor: end; visibility: hidden; font-family: Roboto, sans-serif; font-size: 12px; font-weight: 200;" x="0" y="98.83333312140552" dx="0em" dy="0.3em" fill="rgb(50, 49, 63)" stroke="none" stroke-width="1px">1.33</text><text style="text-anchor: end; visibility: inherit; font-family: Roboto, sans-serif; font-size: 12px; font-weight: 200;" x="0" y="79.06666649712433" dx="0em" dy="0.3em" fill="rgb(50, 49, 63)" stroke="none" stroke-width="1px">1.34</text><text style="text-anchor: end; visibility: hidden; font-family: Roboto, sans-serif; font-size: 12px; font-weight: 200;" x="0" y="59.29999987284314" dx="0em" dy="0.3em" fill="rgb(50, 49, 63)" stroke="none" stroke-width="1px">1.35</text><text style="text-anchor: end; visibility: inherit; font-family: Roboto, sans-serif; font-size: 12px; font-weight: 200;" x="0" y="39.533333248561945" dx="0em" dy="0.3em" fill="rgb(50, 49, 63)" stroke="none" stroke-width="1px">1.36</text><text style="text-anchor: end; visibility: hidden; font-family: Roboto, sans-serif; font-size: 12px; font-weight: 200;" x="0" y="19.766666624280756" dx="0em" dy="0.3em" fill="rgb(50, 49, 63)" stroke="none" stroke-width="1px">1.37</text><text style="text-anchor: end; visibility: hidden; font-family: Roboto, sans-serif; font-size: 12px; font-weight: 200;" x="0" y="0" dx="0em" dy="0.3em" fill="rgb(50, 49, 63)" stroke="none" stroke-width="1px">1.38</text></g><line x1="51.53200149536133" y1="0" x2="51.53200149536133" y2="177.89999961853027" fill="rgb(0, 0, 0)" stroke="rgb(204, 204, 204)" stroke-width="1px"></line></g></g><g transform="translate(51, 0)" clip-path="url(#clip_0)"><clipPath id="clip_0"><rect width="278" height="177"></rect></clipPath><g><g><g><line x1="0" y1="0" x2="0" y2="177.89999961853027" fill="rgb(0, 0, 0)" stroke="rgb(60, 60, 60)" stroke-width="1px" opacity="0.25"></line><line x1="19.890571321759904" y1="0" x2="19.890571321759904" y2="177.89999961853027" fill="rgb(0, 0, 0)" stroke="rgb(60, 60, 60)" stroke-width="1px" opacity="0.25"></line><line x1="39.78114264351981" y1="0" x2="39.78114264351981" y2="177.89999961853027" fill="rgb(0, 0, 0)" stroke="rgb(60, 60, 60)" stroke-width="1px" opacity="0.25"></line><line x1="59.671713965279714" y1="0" x2="59.671713965279714" y2="177.89999961853027" fill="rgb(0, 0, 0)" stroke="rgb(60, 60, 60)" stroke-width="1px" opacity="0.25"></line><line x1="79.56228528703961" y1="0" x2="79.56228528703961" y2="177.89999961853027" fill="rgb(0, 0, 0)" stroke="rgb(60, 60, 60)" stroke-width="1px" opacity="0.25"></line><line x1="99.45285660879952" y1="0" x2="99.45285660879952" y2="177.89999961853027" fill="rgb(0, 0, 0)" stroke="rgb(60, 60, 60)" stroke-width="1px" opacity="0.25"></line><line x1="119.34342793055943" y1="0" x2="119.34342793055943" y2="177.89999961853027" fill="rgb(0, 0, 0)" stroke="rgb(60, 60, 60)" stroke-width="1px" opacity="0.25"></line><line x1="139.23399925231934" y1="0" x2="139.23399925231934" y2="177.89999961853027" fill="rgb(0, 0, 0)" stroke="rgb(60, 60, 60)" stroke-width="1px" opacity="0.25"></line><line x1="159.12457057407923" y1="0" x2="159.12457057407923" y2="177.89999961853027" fill="rgb(0, 0, 0)" stroke="rgb(60, 60, 60)" stroke-width="1px" opacity="0.25"></line><line x1="179.01514189583915" y1="0" x2="179.01514189583915" y2="177.89999961853027" fill="rgb(0, 0, 0)" stroke="rgb(60, 60, 60)" stroke-width="1px" opacity="0.25"></line><line x1="198.90571321759904" y1="0" x2="198.90571321759904" y2="177.89999961853027" fill="rgb(0, 0, 0)" stroke="rgb(60, 60, 60)" stroke-width="1px" opacity="0.25"></line><line x1="218.79628453935896" y1="0" x2="218.79628453935896" y2="177.89999961853027" fill="rgb(0, 0, 0)" stroke="rgb(60, 60, 60)" stroke-width="1px" opacity="0.25"></line><line x1="238.68685586111886" y1="0" x2="238.68685586111886" y2="177.89999961853027" fill="rgb(0, 0, 0)" stroke="rgb(60, 60, 60)" stroke-width="1px" opacity="0.25"></line><line x1="258.57742718287875" y1="0" x2="258.57742718287875" y2="177.89999961853027" fill="rgb(0, 0, 0)" stroke="rgb(60, 60, 60)" stroke-width="1px" opacity="0.25"></line><line x1="278.4679985046387" y1="0" x2="278.4679985046387" y2="177.89999961853027" fill="rgb(0, 0, 0)" stroke="rgb(60, 60, 60)" stroke-width="1px" opacity="0.25"></line></g><g><line x1="0" y1="177.89999961853027" x2="278.4679985046387" y2="177.89999961853027" fill="rgb(0, 0, 0)" stroke="rgb(60, 60, 60)" stroke-width="1px" opacity="0.25"></line><line x1="0" y1="158.1333329942491" x2="278.4679985046387" y2="158.1333329942491" fill="rgb(0, 0, 0)" stroke="rgb(60, 60, 60)" stroke-width="1px" opacity="0.25"></line><line x1="0" y1="138.3666663699679" x2="278.4679985046387" y2="138.3666663699679" fill="rgb(0, 0, 0)" stroke="rgb(60, 60, 60)" stroke-width="1px" opacity="0.25"></line><line x1="0" y1="118.5999997456867" x2="278.4679985046387" y2="118.5999997456867" fill="rgb(0, 0, 0)" stroke="rgb(60, 60, 60)" stroke-width="1px" opacity="0.25"></line><line x1="0" y1="98.83333312140552" x2="278.4679985046387" y2="98.83333312140552" fill="rgb(0, 0, 0)" stroke="rgb(60, 60, 60)" stroke-width="1px" opacity="0.25"></line><line x1="0" y1="79.06666649712433" x2="278.4679985046387" y2="79.06666649712433" fill="rgb(0, 0, 0)" stroke="rgb(60, 60, 60)" stroke-width="1px" opacity="0.25"></line><line x1="0" y1="59.29999987284314" x2="278.4679985046387" y2="59.29999987284314" fill="rgb(0, 0, 0)" stroke="rgb(60, 60, 60)" stroke-width="1px" opacity="0.25"></line><line x1="0" y1="39.533333248561945" x2="278.4679985046387" y2="39.533333248561945" fill="rgb(0, 0, 0)" stroke="rgb(60, 60, 60)" stroke-width="1px" opacity="0.25"></line><line x1="0" y1="19.766666624280756" x2="278.4679985046387" y2="19.766666624280756" fill="rgb(0, 0, 0)" stroke="rgb(60, 60, 60)" stroke-width="1px" opacity="0.25"></line><line x1="0" y1="0" x2="278.4679985046387" y2="0" fill="rgb(0, 0, 0)" stroke="rgb(60, 60, 60)" stroke-width="1px" opacity="0.25"></line></g></g></g><g><g><line x1="0" y1="2727.799994150802" x2="278.4679985046387" y2="2727.799994150802" fill="rgb(0, 0, 0)" stroke="rgb(153, 153, 153)" stroke-width="1.5px"></line></g></g><g><g><line x1="19.890571321759904" y1="0" x2="19.890571321759904" y2="177.89999961853027" fill="rgb(0, 0, 0)" stroke="rgb(153, 153, 153)" stroke-width="1.5px"></line></g></g><g><g><g><g><g><path style="fill: none;" stroke="rgb(255, 112, 67)" stroke-width="2px" d="M20.4872884614127,-0.5572721469375801L20.586741318021502,29.13903164377091L20.9845527444567,13.814735158180152L21.084005601065503,23.531281863797112L21.3823641708919,23.802590335826693L21.481817027500696,19.773859725518058L21.780175597327094,40.03399525473723L21.879628453935894,61.378922720505535L21.979081310544696,75.56207513640086L22.376892736979894,48.05009615966024L23.27196844645909,95.52536688750865L23.57032701628549,75.48426748925598L23.968138442720686,82.61507466270193L24.167044155938285,53.95243423344169L24.365949869155884,57.28938694443378L24.465402725764683,59.79741099322027L24.66430843898228,47.88421406812307L24.86321415219988,50.84159749570286L25.26102557863508,52.2052363367095L25.360478435243877,33.40794027038765L25.45993129185268,30.420743315700193L25.55938414846148,53.90775172146914L25.658837005070275,64.02877234928768L26.255554144723078,75.1635949690719L26.454459857940673,92.59434083130925L26.553912714549476,48.29674436670206L26.65336557115827,68.73446799325458L26.75281842776707,56.634749953313765L27.05117699759347,30.380593037516096L27.150629854202272,42.99730150601084L27.250082710811068,69.29811468254015L27.34953556741987,59.19207987261232L27.846799850463867,9.441729349374022L28.344064133507864,43.26781084846138L28.64242270333426,83.28703279122372L28.741875559943065,59.44162708135921L29.33859269959586,65.94019101064318L30.13421555246626,87.19493910455725L30.432574122292657,65.85280639610978L30.532026978901452,74.11149782709518L31.22819697516305,45.39955380225107L31.52655554498945,34.68350977691488L31.72546125820705,96.20415627588542L32.42163125446864,96.74238712474373L32.52108411107744,90.27916772192215L32.81944268090384,70.5798119472364L32.91889553751265,52.428348762563424L33.61506553377424,51.470985426148786L33.81397124699184,78.17145921952817L34.01287696020944,53.24745342165847L34.11232981681824,87.45013875340406L34.21178267342704,68.91934245337L34.90795266968863,77.52933924811876L35.40521695273263,78.98791857324106L35.60412266595023,66.87503592144647L35.703575522559035,75.4738785174778L35.80302837916783,52.13533610229129L36.101386948994225,77.03343343455876L36.39974551882063,84.04763005561077L36.59865123203822,90.16198031480477L36.69810408864702,65.33575865148755L36.996462658473426,79.99004008598395L37.59317979812622,95.0459354192034L37.69263265473502,122.98340610368443L37.89153836795262,146.369928150133L38.18989693777902,102.09996225598789L38.38880265099662,91.83709023612653L38.488255507605416,107.09669930962389L38.687161220823015,104.58334208282118L38.88606693404062,135.4819227484072L38.98551979064942,104.86492488577296L39.68168978691101,95.76496963408285L40.4773126397814,115.02756223994231L40.57676549639021,75.08070717018555L40.67621835299901,84.26389639489156L41.0740297794342,111.77260014667314L42.0685583455222,102.53306321120648L42.168011202131005,108.25844630123422L42.3669169153486,81.15879319841821L42.565822628566195,131.83254757737893L42.7647283417838,140.4638445159187L43.06308691161019,110.71725635226016L43.16253976821899,95.83163792164085L43.2619926248278,101.10663480231953L43.56035119465419,91.19735953143449L44.55487976074219,100.96048974690156L44.75378547395979,99.23726488543895L45.35050261361258,116.98209306356857L45.64886118343898,92.88591244891697L45.74831404004778,130.7908047712207L45.84776689665658,136.84837643084987L45.94721975326539,80.49557576711055L46.14612546648298,68.46457995223909L46.54393689291818,60.619564986733664L46.742842606135774,65.5633061469542L46.94174831935337,126.33423583495028L47.14065403257098,131.46903921739585L47.637918315614975,79.18511630296923L48.23463545526777,80.1990191656787L48.930805451529366,61.2142362177779L49.030258308138166,69.93272471661663L49.52752259118216,97.54349172575604L49.62697544779096,115.96714873511847L49.92533401761737,115.04871977711834L50.02478687422616,131.52224920230967L50.12423973083496,78.48788707290636L50.52205115727016,84.85809406309338L50.621504013878955,95.76506966591293L50.82040972709655,112.00901766905743L51.11876829692296,95.52436671238182L51.516579723358156,137.72952996801243L51.616032579966955,145.89627289505898L51.715485436575754,144.7658015629303L51.814938293184554,132.90399688109864L52.01384400640215,98.70816653968181L52.31220257622855,126.03158295850402L52.41165543283735,133.12503929463495L52.511108289446156,152.5991179261491L52.80946685927255,103.81231724379948L53.10782542909895,141.17301597185408L53.70454256875175,144.8012466325398L53.90344828196934,142.63171865592676L54.201806851795745,89.07419188018365L54.301259708404544,107.23253510224018L54.500165421622135,99.63229641316654L54.599618278230935,91.45832947573085L55.09688256127494,100.18489162870661L55.19633541788373,92.85694532494503L55.594146844318935,119.21957546028236L55.793052557536534,103.39006381010006L56.09141112736293,186.0345408799183L56.48922255379813,178.98680986832093L56.88703398023333,167.67577047775185L57.085939693450925,129.20020797576296L57.48375111988613,137.89570778333456L57.58320397649493,121.51527167343836L57.68265683310373,154.7002874459377L57.88156254632132,121.28899372864022L58.378826829365316,91.49890913394107L58.478279685974115,62.72117902962197L58.87609111240932,78.76815001882622L58.97554396901812,48.47810041594302L59.07499682562692,60.03184966100439L60.06952539171491,76.83097563011017L60.56678967475891,92.03565083640763L61.26295967102051,101.07815086087109L61.36241252762931,62.328494376950744L61.85967681067331,48.72257002488914L61.959129667282106,40.61519128124853L62.158035380499705,66.97559221136447L62.3569410937173,110.59492852738202L62.7547525201525,143.76231092892425L63.649828229631694,126.27628666253146L63.84873394284929,127.12003848641947L63.9481867994581,128.13818746148064L64.24654536928449,122.29733500600207L64.84326250893729,120.28864738967575L65.63888536180768,125.5558184640925L65.73833821841649,118.54725227093851L65.8377910750253,93.5075577685349L66.03669678824289,72.64258189484384L66.13614964485168,72.74412710782909L66.43450821467809,105.51760035510071L66.53396107128688,118.5709345961124L67.03122535433089,120.46478776753715L67.13067821093968,105.15090169108886L68.22465963363648,124.51489729900793L68.52301820346288,125.22113238323355L68.62247106007167,96.73221003598862L68.82137677328927,78.52740389158095L69.02028248650687,84.97285430211315L69.31864105633326,84.87859482517675L70.41262247903006,68.09859646145487L70.81043390546526,102.88042988184114L70.90988676207405,106.03452664055673L71.10879247529165,121.81222649238741L71.40715104511807,66.52777032086468L71.60605675833565,82.94888861824047L72.10332104137966,91.37133708844117L72.20277389798845,111.84385651311923L72.79949103764126,109.89602270385369L72.99839675085884,150.0277071691106L73.09784960746765,122.65348757758336L73.19730246407644,98.42993570796084L73.29675532068525,104.51197097467906L73.39620817729404,78.67809861832053L73.49566103390285,65.31924451957472L73.69456674712045,73.16390641062691L73.89347246033805,62.4164019032359L74.39073674338204,69.18016164198694L74.49018959999086,70.06674308153697L74.58964245659965,116.39465418074612L74.78854816981725,112.22243092794668L75.18635959625244,118.69102396406778L75.38526530947004,82.2091591343248L75.58417102268763,84.90555949757257L75.98198244912284,74.82590634638825L76.08143530573163,61.66300725250997L76.18088816234044,87.4721079211508L76.57869958877563,91.9305094267103L76.97651101521083,72.9327875057299L77.07596387181964,136.99549891026365L77.37432244164603,142.65526104920082L77.57322815486363,105.72683640863399L77.67268101147242,96.58156408362588L77.77213386808124,56.13670496152803L77.87158672469003,76.88155169287793L77.97103958129884,81.53594319896918L78.07049243790763,60.08030255672941L78.26939815112523,44.884668128045384L78.36885100773402,88.61153024819754L78.86611529077801,64.02733830817634L78.96556814738683,80.0705298131082L79.26392671721322,78.26493842471278L79.36337957382202,89.26863209633625L79.66173814364842,64.75337635319737L79.86064385686602,55.72637421272644L80.25845528330122,68.84651264852307L80.45736099651882,75.81082762138156L80.65626670973641,86.4986538805674L80.85517242295401,91.161320552765L81.15353099278042,103.40966198581013L81.55134241921562,98.99048236795234L81.65079527582441,73.86843904920923L81.849700989042,100.91241000439469L82.1480595588684,75.83294104762949L82.54587098530361,101.28306470529171L83.0431352683476,95.60623237818544L83.7393052646092,91.60736447301024L83.83875812121799,61.72965579723944L84.03766383443559,101.63137354130282L84.1371166910444,126.82090341958165L84.23656954765319,112.5779235322496L84.33602240426201,120.83456380936569L84.5349281174796,115.68037923637465L84.833286687306,88.90860924312322L85.23109811374118,74.4623000271631L85.33055097034999,88.88788583936459L85.7283623967852,72.9974935960037L86.02672096661159,83.07231197864073L86.42453239304677,105.76081186052467L86.7228909628732,113.14027558272521L86.82234381948199,88.673575851677L86.92179667609079,90.7018236659719L87.02124953269958,87.41669128789859L87.12070238930838,61.06038407419186L87.31960810252598,39.61610007720383L87.41906095913478,11.753494930029232L87.51851381574357,0.6145913642165313L87.71741952896119,42.45541697625935L87.81687238556998,73.73181164894609L87.91632524217879,42.14908457151647L88.01577809878758,73.19333135079172L88.21468381200518,57.55731292535852L88.41358952522278,50.60983237457352L88.51304238183157,78.65330286022358L89.20921237809317,56.944248057730505L89.50757094791958,92.1473055843948L89.60702380452837,116.83074665886774L89.70647666113716,120.2591658074291L89.90538237435477,101.26204879948594L90.20374094418118,110.49370618567634L90.40264665739876,106.88423436783216L90.60155237061636,72.71866578666082L90.99936379705157,90.63683172721042L91.39717522348677,96.84361257900443L91.69553379331316,96.04985946992625L91.79498664992195,82.53533954314256L91.89443950653077,83.57273746634533L91.99389236313957,95.15229804583205L92.09334521974837,96.7207237971491L92.59060950279236,94.44571082806736L93.18732664244516,81.98568643197082L93.38623235566276,84.94952321489983L93.48568521227155,89.08494960821595L93.58513806888035,91.56790203081124L93.88349663870675,65.67768757480728L94.18185520853315,98.19494451873977L94.28130806514196,115.32593022604905L94.57966663496835,83.896484840302L94.67911949157715,48.76506463649622L94.77857234818595,95.84073558177438L94.97747806140354,113.73743113098087L95.17638377462116,123.84497802703206L95.77310091427394,134.167184505346L96.07145948410033,145.98912296486967L96.17091234070914,130.75360398371674L96.46927091053554,101.50943790943266L96.56872376714435,98.20540579667968L96.66817662375314,111.3590839277544L96.86708233697074,60.24608228169916L96.96653519357953,39.69776061069486L97.56325233323234,64.6198714062362L97.96106375966754,51.401600067840114L98.06051661627633,20.97427589844958L98.25942232949393,81.89776677339705L98.45832804271154,44.23156984298274L98.65723375592913,87.84057842569818L98.75668661253793,97.11344776611105L98.85613946914673,116.21564771580998L98.95559232575553,79.21538512886987L99.05504518236432,62.44637831935227L99.35340375219072,85.94374004989633L99.55230946540831,111.12878502465469L99.75121517862593,84.68239438799907L100.04957374845232,73.56255187560566L100.24847946166992,45.7596601997962L100.34793231827872,60.51756008579787L100.44738517488751,38.79745302053145L100.84519660132273,51.4141965698992L101.04410231454032,89.71941713058344L101.14355517114912,85.7619794881921L101.34246088436672,126.94521013185651L101.6408194541931,141.26751426298523L102.03863088062832,109.15695643740334L102.33698945045471,91.88043506557693L102.6353480202811,91.80686488322233L102.7348008768899,80.13139628228119L102.93370659010752,105.14051585313784L103.13261230332512,82.46790950185337L103.3315180165427,71.86890631416644L103.82878229958669,79.33941862386267L104.12714086941311,108.33598863335378L104.2265937260219,100.56054411923586L104.32604658263071,111.53441273794809L104.6244051524571,113.60524801034525L105.4200280053275,100.78889001457829L105.5194808619363,71.88241142517995L105.6189337185451,55.671372849790444L105.81783943176269,90.09973567351464L106.2156508581979,67.72698133731662L106.41455657141549,75.11215195859643L106.5140094280243,92.6931200894018L106.91182085445949,83.59683041089852L107.11072656767708,74.71336548336477L107.2101794242859,127.37148563650989L107.50853799411229,101.3135172377028L107.70744370732989,88.16885406086656L107.90634942054749,77.35157981344317L108.20470799037388,75.01596735162074L108.40361370359149,89.7944750547271L108.50306656020028,95.70018775712924L108.70197227341788,99.45069319922246L108.80142513002669,128.10073233545126L109.09978369985308,115.41084954479383L109.39814226967948,119.54964655901406L109.49759512628829,74.6646980230585L110.19376512254988,90.67461864476479L110.29321797915867,98.61951847643846L110.39267083576746,99.07637435961955L110.49212369237628,76.48643850389405L110.69102940559388,87.45701338857512L110.79048226220267,95.89353896929747L110.98938797542027,102.67937481828625L111.08884083202906,114.79637277420325L111.18829368863787,111.83257263527041L111.48665225846426,88.90492669531397L111.58610511507307,88.79228861075036L111.68555797168187,104.10907033197383L111.78501082829067,97.95511585202671L111.98391654150826,117.12123151582053L112.58063368116107,64.3345010516912L112.68008653776987,71.2632954706444L112.97844510759626,83.1934836539637L113.67461510385785,81.56997004037619L113.97297367368427,112.56643411634259L114.66914366994585,103.43464130205733L114.76859652655466,95.02160184414241L114.86804938316345,64.93244264035606L115.06695509638105,79.87548298432151L115.16640795298986,101.60039250066274L115.26586080959865,87.57138868353934L115.56421937942504,147.06429524448234L115.66367223603385,99.98857421596632L115.86257794925146,109.69823458336704L116.06148366246904,161.3414831362871L116.16093651907785,127.36098394136283L116.55874794551305,97.82497221334123L116.65820080212184,112.4719754892008L117.05601222855705,120.79107125836545L117.15546508516584,114.40635000280254L117.25491794177465,114.82461840231082L117.35437079838344,162.8414672358115L117.65272936820983,143.7747508290945L117.75218222481864,133.80207988898184L117.85163508142743,137.87367486016652L118.14999365125384,103.69251105018414L118.24944650786264,121.65419680264466L119.04506936073302,111.73633909810768L119.44288078716824,707.277510437148L120.23850364003863,204.10688636377995L120.33795649664744,152.55234499405557L120.53686220986503,113.0629798834605L120.63631506647383,116.49853467352172L120.73576792308262,113.61365780957861L120.83522077969143,97.56749944499263L121.13357934951782,108.55842143982885L121.92920220238821,104.90342368036558L122.12810791560581,92.63769609451447L122.32701362882341,58.75420157579087L122.52591934204102,84.76919563126783L122.62537219864981,87.11276990773734L122.72482505525862,42.27297976850303L122.92373076847622,35.410034959463125L123.1226364816938,38.95066001013202L123.22208933830261,57.413258303890224L123.3215421949114,76.84782587835502L123.61990076473782,74.73341424615042L123.8188064779554,54.97235028886249L124.514976474217,64.50523903054047L124.61442933082581,49.09360908792802L124.9127879006522,60.17909052853034L125.1116936138698,83.66400594498106L125.7084107535226,60.90782751837957L125.8078636101314,104.8961216498018L126.006769323349,123.67707955977265L126.2056750365666,100.47318234776277L126.60348646300179,54.06752560240743L127.001297889437,61.31943930693548L127.2002036026546,77.43622712742919L127.3991093158722,89.94195582077572L127.69746788569859,75.88121175520388L127.79692074230738,65.34580492073385L127.8963735989162,31.313646267655557L127.99582645552499,41.225926404445936L128.5925435951778,90.07337189646267L128.6919964517866,112.83876443890779L129.28871359143938,124.58632387950514L129.487619304657,105.7025332826367L129.68652501787457,73.46286581775047L129.7859778744834,44.06273674582954L129.88543073109219,104.80675130658554L130.78050644057137,79.97405419324858L130.97941215378899,60.08072176231953L131.27777072361536,66.47634057347467L131.6755821500506,83.84898554203117L131.87448786326817,71.75679466566342L131.97394071987696,43.15257684750606L132.37175214631216,64.54780440523152L132.47120500292095,62.240454862925446L132.67011071613857,43.083452154258445L132.7695635727474,40.99211051459229L132.86901642935618,25.651583750338062L133.16737499918256,13.622262484423231L133.26682785579138,20.016101294350854L134.26135642187936,83.5837521720544L134.46026213509697,109.40627565126785L134.55971499170576,126.42766023163409L134.85807356153214,128.88803274198108L134.95752641814096,113.28471889315004L135.05697927474975,96.29289785561376L135.35533784457616,96.94446041969275L135.45479070118495,81.41133033608665L135.55424355779374,73.56738837767827L137.04603640692577,38.173164686893635L137.34439497675214,38.72315885410169L137.54330068996975,89.64433112001878L137.64275354657855,90.55766648587348L137.84165925979613,68.7049749726077L137.94111211640495,41.75524567374818L138.23947068623136,58.12226324545828L138.53782925605773,34.765062939165716L138.63728211266653,53.240470500714906L138.73673496927535,57.1172955711884L138.83618782588414,85.5828889501624L139.03509353910172,49.0329538760109L139.23399925231934,71.60068929473869L139.43290496553692,78.45310338365059L139.63181067875453,66.18146328341335L139.73126353536333,57.14866098446027L139.9301692485809,92.98365077237412L140.12907496179852,98.50402413622761L140.3279806750161,109.23702371108638L140.42743353162496,128.23882195532045L140.52688638823375,93.20441977101393L140.62633924484254,103.77865102629754L140.72579210145133,115.23462820183629L141.7203206675393,104.60830069326481L142.1181320939745,97.16346611719258L142.51594352040973,72.56213532413636L142.61539637701853,46.19536490104187L142.71484923362732,16.155550524915995L142.91375494684493,28.983429532008955L143.2121135166713,59.23976328106839L143.5104720864977,90.82949264114856L143.70937779971533,131.95479528864453L143.9082835129329,77.24716089161072L144.0077363695417,58.63413220706756L144.20664208275932,52.96325559734779L144.60445350919449,63.38611962287652L144.70390636580333,54.04962095812849L144.80335922241213,93.52574509630439L145.0022649356297,95.85243102205422L145.1017177922385,101.85241309528044L145.4000763620649,56.19530917421854L145.4995292186737,43.87729241506683L145.59898207528252,41.58500787278282L145.6984349318913,61.870900884737146L145.8973406451089,31.71674810265533L146.3946049281529,31.06658055753436L146.6929634979793,25.83790928710376L147.1902277810233,58.10158837515409L147.3891334942409,83.4397923374289L147.7869449206761,55.344976255543095L147.9858506338937,98.5625217116645L148.38366206032887,65.77079340446804L148.4831149169377,40.564318558170676L148.5825677735465,29.368691425223176L148.68202063015528,25.281966931704083L148.8809263433729,67.11612090202308L149.1792849131993,91.68982314328495L149.2787377698081,65.86592536701401L149.4776434830257,81.56842119856553L149.5770963396345,88.40102179269817L149.6765491962433,87.5919800809477L150.27326633589607,44.80876588881804L150.47217204911368,36.88928047614382L150.57162490572247,18.923818708370746L150.77053061894009,52.42488651583052L150.86998347554888,62.70587243874963L151.16834204537525,106.18655065362285L151.2677949019841,118.03051069968964L151.7650591850281,93.04350046395336L151.86451204163689,91.11887563019435L151.96396489824568,87.22948588671244L152.26232346807208,74.90521905118169L152.46122918128967,89.77326838393714L152.56068203789846,64.20051294784402L152.66013489450728,46.2965219892449L152.75958775111607,32.83572439842002L152.85904060772486,83.09533946247758L152.95849346433366,55.908554849355674L153.55521060398647,58.54961857758446L154.05247488703048,69.95843580702616L154.15192774363928,92.34521348726088L154.25138060024807,87.3597956925011L154.74864488329206,92.76316128360459L155.14645630972726,73.29203320568767L155.34536202294484,45.462093343482344L155.44481487955363,42.496772683099664L155.84262630598886,23.66669639449773L156.24043773242406,38.1862687770865L156.93660772868566,61.161027287343146L157.13551344190324,53.28895437749675L157.43387201172965,25.6444485754327L157.63277772494723,29.854220936899516L157.73223058155602,47.09015000496566L158.03058915138246,30.96429662024523L158.13004200799125,20.201084065825814L158.32894772120886,21.701561533961883L158.42840057781765,47.46796384948297L158.72675914764403,36.43673645557331L160.41745770999364,53.81433245424277L160.51691056660243,78.22764428192649L160.61636342321123,52.91300516595993L160.71581627982005,35.8401622712511L161.11362770625524,40.92822692162431L161.41198627608162,28.507818852734093L161.5114391326904,2.5556166485220504L161.80979770251682,16.567204687660414L161.9092505591256,12.106961932502578L162.0087034157344,45.79121210979675L162.40651484216963,70.36283808496496L162.50596769877842,57.0109050160153L162.60542055538724,55.9919441037433L162.80432626860483,64.07463136016585L163.00323198182244,78.53964829926691L163.20213769504002,96.36099814954478L163.4010434082576,68.71472097354629L163.99776054791042,83.45621717528144L164.196666261128,71.07757050315199L164.69393054417202,66.60913528461698L164.7933834007808,97.67327598670471L165.68845911026,65.37061652762699L165.7879119668688,90.1781270628665L166.88189338956562,106.52018978754141L167.27970481600082,101.8752222861973L167.3791576726096,103.93341036554709L167.67751624243598,57.65503831392026L167.7769690990448,69.61613532475151L168.07532766887118,71.87071302498946L168.2742333820888,79.44182657261464L168.3736862386976,69.81177572980964L168.47313909530638,64.84150895784822L169.169309091568,676.0477349716239L169.4676676613944,229.77938287601708L169.7660262312208,174.4603674362989L169.96493194443838,157.60887802242985L170.0643848010472,161.17134135467663L170.163837657656,117.1787238121228L170.26329051426478,66.55514252514688L170.76055479730877,76.91226795252804L170.95946051052638,55.056989099173066L171.4567247935704,97.13566915212981L171.5561776501792,69.75834237192099L171.85453622000557,91.18090837066717L172.55070621626717,94.76608960025241L172.74961192948476,95.77907149031594L173.74414049557276,99.39820759385891L173.94304620879038,77.20425497951653L174.04249906539917,85.7034422745021L174.24140477861675,60.14902786785911L174.34085763522557,88.71065638449153L174.53976334844316,68.81859403199174L174.63921620505195,103.83017010319797L175.2359333447048,113.98612483799637L175.33538620131358,125.64902597503887L175.93210334096636,113.90268933285338L176.03155619757516,108.3878476001958L176.92663190705434,125.86750099914805L177.32444333348957,127.89055119087666L177.52334904670715,101.16508734548913L177.92116047314235,93.45420547172104L178.51787761279516,70.07181717162351L178.81623618262154,82.1056303858303L179.01514189583915,110.07545526098077L179.31350046566553,88.84589282434185L179.51240617888317,74.5482382336435L179.61185903549196,67.76312603059505L180.00967046192716,88.04627666267753L180.10912331853595,115.95502395957367L180.30802903175353,102.8068876272857L180.40748188836235,70.5488956137996L180.60638760157994,87.67551941393789L180.90474617140634,53.763047267014215L181.00419902801514,51.61682784440274L181.10365188462393,43.80487240035198L181.50146331105913,31.822093966917723L181.7003690242767,61.09933067413075L181.79982188088553,93.12219290697195L181.89927473749435,88.73243186558767L182.09818045071194,93.7232239543675L182.29708616392955,133.59753330366448L182.49599187714713,118.14538060834445L182.79435044697354,73.95211583758098L183.09270901679992,69.95872117904521L183.1921618734087,60.43089407913813L183.29161473001753,58.56610919678817L183.5899732998439,57.669302603042965L183.78887901306155,51.34812043837166L183.88833186967034,34.03964820366581L184.18669043949674,49.17443206937126L184.28614329610554,88.38583220470957L184.5845018659319,100.2082983155472L184.9823132923671,93.73737956346316L185.0817661489759,84.70238904688381L185.18121900558472,99.28066338479653L185.8773890018463,87.17742690233992L186.07629471506394,77.03600052451357L186.17574757167273,119.52668132156239L186.27520042828152,113.01366392441506L186.57355899810793,130.7930372965866L186.67301185471672,108.53415677852455L186.8719175679343,79.03024588487295L187.2697289943695,87.96723095024092L187.3691818509783,61.54754787777128L187.4686347075871,58.579805224171004L187.7669932774135,87.35562694065472L188.1648047038487,90.27911935788627L188.2642575604575,102.01263147510954L188.46316327367512,76.76179439736717L188.5626161302839,89.86124996952988L188.6620689868927,138.85721043699132L188.7615218435015,124.47135321505966L188.9604275567191,80.51398386146809L189.2587861265455,55.64415180373494L189.3582389831543,53.05370379972202L189.4576918397631,53.54212527003446L189.5571446963719,15.174116630304349L189.9549561228071,66.24060936295943L190.05440897941588,29.320352775697117L190.5516732624599,32.74197978199088L190.7505789756775,24.248596628295143L190.8500318322863,27.83079573154785L190.9494846888951,64.06293776115277L191.3472961153303,94.73145253715107L191.64565468515667,101.21093009210196L191.84456039837428,110.0618864839156L192.14291896820066,91.63627116346021L192.24237182480948,101.44231937894828L192.34182468141827,115.66768762700397L192.44127753802707,133.25005090313735L192.54073039463586,136.6252638989004L192.7396361078535,114.40051381866903L192.93854182107108,91.56751217066865L193.2369003908975,127.67836285423422L193.33635324750628,97.09330474111128L193.53525896072387,60.39547657888948L193.6347118173327,31.082022807854592L193.73416467394148,31.337046127446808L194.03252324376786,64.50799182762772L194.23142895698547,67.30538458399563L194.33088181359426,64.07267328967795L194.43033467020305,93.77023948927467L194.52978752681187,110.38269464232373L195.22595752307348,111.73075374099815L195.32541037968227,116.7624875154786L195.62376894950867,70.20830397772352L196.12103323255266,76.85609331730751L196.51884465898786,42.75149638303071L197.11556179864067,41.561867803278766L197.21501465524946,42.13429181182966L197.41392036846707,54.94426459232751L197.81173179490227,73.69859076364602L197.91118465151106,92.54623916926762L198.01063750811986,38.06053987741435L198.20954322133744,110.1413548353818L198.30899607794626,104.9297693303851L198.40844893455505,72.67138921234081L198.80626036099025,114.5741654039278L199.20407178742545,116.56175967855926L199.40297750064306,83.3601700336216L199.50243035725185,55.89562667085467L200.29805321012225,65.28673597446155L200.39750606673104,94.77295860132654L200.69586463655745,90.61642689429817L200.99422320638382,91.98365621919255L201.39203463281905,104.40449898232914L201.59094034603666,64.2315565154054L201.98875177247183,92.9615715285476L202.48601605551582,96.11423577522362L202.58546891212464,128.8217851276646L202.98328033855984,114.04170624534723L203.08273319516863,119.50274661945384L203.381091764995,100.35021315809476L203.48054462160385,110.14699052988381L203.57999747821265,83.32598927150688L203.87835604803902,77.00327673761677L204.17671461786543,115.8142377934778L204.27616747447422,92.45571059558822L204.47507318769183,72.96608632096245L204.67397890090942,52.73659603555803L204.7734317575182,35.21242790227309L204.87288461412703,59.59765604038296L205.5690546103886,104.28127975532247L205.76796032360622,94.34715830705434L205.86741318021504,119.01488065821482L206.46413031986782,53.866509431283475L206.5635831764766,94.62912611257339L206.6630360330854,64.36075028914108L206.76248888969423,78.98842880217602L206.86194174630302,76.63118631305218L207.0608474595206,98.99648144317848L207.359206029347,143.45565301239384L208.0553760256086,140.0771610448672L208.15482888221743,85.38707508931604L208.25428173882622,89.74250264745478L209.1493574483054,61.54273027705599L209.44771601813179,83.53266682402574L209.54716887474058,94.48769996214735L209.94498030117578,79.42019216620442L210.04443315778462,52.6433826077455L210.14388601439342,55.11778380445097L210.2433388710022,80.63118061261254L210.5416974408286,69.61177626688195L210.6411502974374,97.12226048345225L210.7406031540462,123.67394604826059L210.840056010655,109.21673491685563L211.2378674370902,106.87293839106404L211.33732029369898,75.33104089985872L211.43677315030777,72.90690372778428L211.73513172013418,52.70174626333079L211.9340374333518,67.35493562718528L212.1329431465694,73.82968896197427L212.331848859787,91.60967951464619L212.4313017163958,53.44274798152372L212.5307545730046,91.3251605649716L212.72966028622218,60.443319682482695L212.82911314283098,79.60784529066935L213.326377425875,100.09253161028094L213.62473599570137,123.46723794894942L213.82364170891898,125.25986083793008L214.12200027874536,100.64411786284805L214.4203588485718,112.00088048608107L214.5198117051806,87.718956210908L214.71871741839817,83.43092796398864L214.91762313161578,90.53873993057519L215.51434027126857,101.34169486790975L215.61379312787736,124.95512809605526L215.81269884109497,114.38431619369663L216.01160455431256,104.18718428515648L216.90668026379177,107.67243361904274L217.00613312040056,92.11078810138395L217.10558597700938,99.64908796951826L217.20503883361818,84.14094111628405L218.39847311292374,88.87954862929L218.59737882614138,98.1218607928463L218.79628453935896,118.10981858740578L218.99519025257658,129.96931696081805L219.39300167901175,133.26458571427946L219.49245453562057,107.81491641552783L219.59190739222936,121.72649870136645L219.69136024883815,108.13432115152982L219.79081310544694,110.7399921846636L219.89026596205574,112.65543652513307L219.98971881866456,88.92887904920083L220.18862453188214,116.80693684648519L220.28807738849093,108.57745383570361L220.38753024509975,106.792021941787L220.58643595831734,100.23852595500978L221.08370024136136,141.0927330586769L221.38205881118776,127.61802344567805L221.58096452440535,149.8953115654105L221.68041738101414,157.21759465605095L221.87932309423175,93.41298997481749L222.17768166405813,94.76249026468814L222.47604023388453,79.52973877343551L222.67494594710212,105.87589331406637L222.97330451692852,121.54069574435891L223.27166308675496,106.62475775978884L223.37111594336375,102.1486225730308L223.66947451319015,90.59601433307773L223.86838022640774,76.41050484874188L223.96783308301653,89.60316032503036L224.76345593588692,110.79360124876094L224.86290879249572,99.18230131175444L225.0618145057133,44.037551520302216L225.55907878875735,41.84799435210667L226.05634307180134,50.790408844352115L226.15579592841013,55.44988900229328L226.25524878501892,93.50969521602151L226.4541544982365,131.93523049545493L226.55360735484533,147.8742191473994L226.7525130680629,136.6028690424317L226.9514187812805,132.54611461482264L227.2497773511069,110.88191257144254L227.3492302077157,107.82350375594396L227.74704163415092,126.63525766884212L228.2443059171949,102.21425173591062L228.44321163041252,38.20125173785622L229.0399287700653,68.67958065269283L229.1393816266741,91.84794042932973L229.2388344832829,109.0236512078758L229.3382873398917,114.12640059519703L229.4377401965005,95.9201118182482L229.7360987663269,89.81690662645926L229.93500447954452,110.1496193597962L230.2333630493709,91.84320601525481L230.33281590597971,91.13200139368793L230.6311744758061,135.9315647761095L230.8300801890237,134.22240468495025L231.0289859022413,111.47230565966728L231.12843875885008,62.66086586996308L231.2278916154589,64.98037364899862L231.62570304189407,87.17562326998016L232.0235144683293,104.62273611380192L232.1229673249381,108.95774898730926L232.2224201815469,146.20861622446577L232.6202316079821,117.2855559666119L232.7196844645909,99.44762710053544L232.91859017780848,103.5983912550309L233.01804303441727,69.28404248157545L233.2169487476349,50.19210536776615L233.31640160424368,36.154549776668986L233.41585446085247,70.57007416605059L233.61476017407008,69.64022100308648L233.71421303067888,74.97615671713058L233.81366588728767,105.5089743176235L233.91311874389646,160.38266009092865L234.2114773137229,91.50027040780711L234.41038302694048,115.77595552667502L234.5098358835493,120.07051405425389L235.10655302320208,133.79306912879443L235.20600587981087,99.42220210694653L235.30545873641967,111.4198582981443L235.70327016285486,78.18191260855286L235.90217587607248,63.27310616219383L236.1010815892901,105.49008796225966L236.4988930157253,114.16856227621678L237.19506301198686,109.41479839555254L237.49342158181327,113.00674152275747L237.69232729503085,109.34223832383147L237.89123300824846,117.7544603077586L237.99068586485726,64.00338002963183L238.18959157807484,75.33502559763117L238.38849729129248,119.78221225701466L238.58740300451007,99.03884604010005L238.68685586111886,125.28376660708317L238.78630871772768,258.8813740913462L239.08466728755405,204.36366854471066L239.18412014416285,163.60302453925823L239.48247871398925,132.0246503315868L239.58193157059804,119.25442636263757L239.88029014042445,110.8778405108356L240.17864871025085,105.14554344310244L240.57646013668605,114.59155195970412L241.17317727633886,96.13539212963344L241.27263013294765,72.51524977615375L241.57098870277406,69.70397954686784L241.67044155938285,51.81933956011849L241.86934727260044,90.06759703942868L242.06825298581805,71.91438464457947L242.16770584242684,91.04402846160292L242.36661155564443,129.47360105317608L242.46606441225322,155.2156273820575L242.66497012547086,141.131753315032L242.76442298207965,138.0489576197667L242.86387583868844,160.05404191089607L242.96332869529726,163.21952060005398L243.16223440851485,137.13851301016356L243.36114012173243,164.58424503247298L243.46059297834125,86.33690936350541L243.85840440477642,139.22838821450014L243.95785726138524,84.47364675980135L244.15676297460283,97.73675920717339L244.45512154442923,105.80537607899481L244.65402725764682,72.76883641773843L244.95238582747325,100.17517097053938L245.54910296712603,63.44116114730344L246.1458201067788,91.78457043386774L246.543631533214,64.07179775503741L246.84199010304042,66.57701256918648L247.33925438608443,64.59412725794641L247.53816009930202,67.24056689529259L247.83651866912842,77.02388652916609L248.4332358087812,85.17682409647509L248.53268866539,40.84891263198924L248.7315943786076,67.2168661796325L249.029952948434,79.54021927630987L249.32831151826042,51.75588489372921L249.4277643748692,109.6109613085077L249.527217231478,94.40760158661469L250.4222929409572,118.51794715784581L250.521745797566,108.01596070519602L250.6211986541748,128.23760148827117L250.7206515107836,80.95150455654635L250.91955722400118,56.80302747722121L251.1184629372188,43.374779131963855L251.4168215070452,81.0784468060124L251.51627436365402,83.30041879487396L251.91408579008922,94.82122753346383L252.1129915033068,125.85672367815857L252.2124443599156,141.9396450390889L252.3118972165244,81.12318128362313L252.4113500731332,85.50595944701408L253.20697292600357,90.35447886027971L254.1020486354828,110.58715356999944L254.3009543487004,105.74986453040985L254.59931291852678,81.75317005991899L255.09657720157077,89.05016033743128L255.39493577139717,79.45489020386415L255.49438862800596,58.88445345405156L255.7927471978324,96.00381750990611L255.8922000544412,82.05915571966509L256.19055862426757,76.97308586601417L256.488917194094,70.00251740532208L256.6878229073116,94.47052858655384L256.8867286205292,139.3150428048218L257.1850871903556,142.67614540889497L257.48344576018195,108.56767115021154L257.58289861679077,153.24265228428135L257.6823514733996,128.35820813666672L257.8812571866172,110.45427362239934L258.67688003948757,94.59491345759781L258.87578575270516,95.80851105030995L259.0746914659228,107.67881362628503L259.2735971791404,80.30034102526882L259.77086146218437,93.79105417123806L260.26812574522836,107.82447772530413L260.66593717166353,75.25839264814482L261.06374859809875,112.6711745890099L261.1632014547076,97.00738203690119L261.26265431131634,101.69256617061718L261.66046573775157,116.54180690838888L261.75991859436033,110.94289674145632L261.85937145096915,82.83138887364305L261.95882430757797,81.09709412365957L262.2571828774044,102.24409987786694L262.75444716044836,129.98046099007928L263.0528057302747,97.17724039847172L263.25171144349235,122.02439135892297L263.6495228699275,117.52354266152476L263.74897572653634,103.93358657210803L263.84842858314516,82.44576176856266L263.9478814397539,64.31579829084424L264.14678715297157,103.03338239695829L264.34569286618915,106.82246418664708L264.64405143601556,119.38137529996945L264.9424100058419,115.70935361812415L265.0418628624507,84.65285774242021L265.2407685756683,95.85315290586249L265.4396742888859,88.34396389089562L266.1358442851475,89.22369913140886L266.43420285497393,121.11134134194631L266.53365571158275,139.25924665354435L266.73256142480034,114.30326208329896L266.9314671380179,120.94682382674007L267.1303728512355,112.65137043740881L267.2298257078443,112.88290204635801L267.4287314210619,119.93776779840131L267.7270899908883,73.22247425844184L267.92599570410596,72.94917223190103L268.2243542739323,91.44000903398945L268.42325998714995,117.46522727992237L268.5227128437587,54.67411634289413" fill="none"></path></g></g></g></g><g opacity="0.2"><g><g><g><path style="fill: none;" stroke="rgb(255, 112, 67)" stroke-width="2px" d="M20.4872884614127,-0.5572721469375801L20.586741318021502,46.956813918195984L20.9845527444567,-0.8965894679873281L21.084005601065503,34.95794078960276L21.3823641708919,24.15681067690944L21.481817027500696,14.200674948441412L21.780175597327094,69.00631322368847L21.879628453935894,92.50003187689893L21.979081310544696,96.47947001432127L22.376892736979894,7.198013735277217L23.27196844645909,166.30767576796043L23.57032701628549,45.53168116978704L23.968138442720686,93.28800210022558L24.167044155938285,11.01462668600137L24.365949869155884,62.290893548274035L24.465402725764683,63.55767821352644L24.66430843898228,30.019459946157873L24.86321415219988,55.27692175774152L25.26102557863508,54.25048686156603L25.360478435243877,5.213714318221726L25.45993129185268,25.940111708648693L25.55938414846148,89.13749148010734L25.658837005070275,79.21010346911712L26.255554144723078,91.86569699615872L26.454459857940673,118.74033573438433L26.553912714549476,-18.149461421195987L26.65336557115827,99.39100113855092L26.75281842776707,38.485191469320604L27.05117699759347,-9.000618152392155L27.150629854202272,61.92235723568944L27.250082710811068,108.74932572569729L27.34953556741987,44.033029668483984L27.846799850463867,-65.18379049628979L28.344064133507864,94.00693067419974L28.64242270333426,143.31586398546938L28.741875559943065,23.673519131442074L29.33859269959586,75.68803680402642L30.13421555246626,119.0770610481205L30.432574122292657,33.839607452309636L30.532026978901452,86.49953494597403L31.22819697516305,2.331637822555409L31.52655554498945,18.60944375180307L31.72546125820705,188.48512597993206L32.42163125446864,97.549733397799L32.52108411107744,80.58433861936861L32.81944268090384,41.030778288279244L32.91889553751265,25.201153987251452L33.61506553377424,50.034940421579925L33.81397124699184,118.22216990869792L34.01287696020944,15.86144472535712L34.11232981681824,138.7541667506068L34.21178267342704,41.12314800345389L34.90795266968863,90.44433444020588L35.40521695273263,81.17578756092058L35.60412266595023,48.70571194377323L35.703575522559035,88.37214241151733L35.80302837916783,17.127522479523993L36.101386948994225,114.38057943295208L36.39974551882063,94.56892498718838L36.59865123203822,99.33350570359526L36.69810408864702,28.096426156514124L36.996462658473426,101.97146223772855L37.59317979812622,117.6297784190319L37.69263265473502,164.88961213040668L37.89153836795262,181.44971121980547L38.18989693777902,35.69501341477194L38.38880265099662,76.4427822063336L38.488255507605416,129.9861129198699L38.687161220823015,100.81330624261778L38.88606693404062,181.8297937467869L38.98551979064942,58.939428091822236L39.68168978691101,82.11503675654858L40.4773126397814,143.92145114873176L40.57676549639021,15.160424565549492L40.67621835299901,98.03868023195055L41.0740297794342,153.03565577434512L42.0685583455222,88.67375780800602L42.168011202131005,116.84652093627543L42.3669169153486,40.509313544193766L42.565822628566195,207.84317914582024L42.7647283417838,153.4107899237279L43.06308691161019,66.09737410677239L43.16253976821899,73.50321027571167L43.2619926248278,109.01913012333753L43.56035119465419,76.33344662510648L44.55487976074219,115.60518507010174L44.75378547395979,96.65242759324525L45.35050261361258,143.599335330763L45.64886118343898,56.74164152693961L45.74831404004778,187.64814325467603L45.84776689665658,145.9347339202936L45.94721975326539,-4.033625228497945L46.14612546648298,50.41808622993194L46.54393689291818,48.852042538475935L46.742842606135774,72.97891788728411L46.94174831935337,217.4906303669444L47.14065403257098,139.1712442910638L47.637918315614975,0.7592319313297451L48.23463545526777,81.71987345974273L48.930805451529366,32.73706179592646L49.030258308138166,83.0104574648743L49.52752259118216,138.9596422394647L49.62697544779096,143.60263424916212L49.92533401761737,113.67107634011818L50.02478687422616,156.23254334009644L50.12423973083496,-1.063656121198632L50.52205115727016,94.41340454837392L50.621504013878955,112.12553307014228L50.82040972709655,136.37493967377395L51.11876829692296,70.79739027736842L51.516579723358156,201.0372748514592L51.616032579966955,158.14638728562844L51.715485436575754,143.07009456473682L51.814938293184554,115.11128985835155L52.01384400640215,47.41442102755614L52.31220257622855,167.01670758673728L52.41165543283735,143.76522379883176L52.511108289446156,181.81023587342082L52.80946685927255,30.632116220275478L53.10782542909895,197.21406406393683L53.70454256875175,150.2435926235684L53.90344828196934,139.3774266910072L54.201806851795745,8.737901716568974L54.301259708404544,134.47004993532522L54.500165421622135,88.23193837955581L54.599618278230935,79.19737906957775L55.09688256127494,113.2747348581698L55.19633541788373,81.86502586930291L55.594146844318935,158.76352066328766L55.793052557536534,79.64579633482614L56.09141112736293,310.00125648464524L56.48922255379813,168.41521335092497L56.88703398023333,150.70921139189778L57.085939693450925,71.48686422277923L57.48375111988613,150.9389574946919L57.58320397649493,96.94461750859364L57.68265683310373,204.47781110468654L57.88156254632132,71.1720531526942L58.378826829365316,46.81378224189238L58.478279685974115,19.554583873143727L58.87609111240932,102.83860650263347L58.97554396901812,3.0430260116173566L59.07499682562692,77.36247352859554L60.06952539171491,102.02966458376973L60.56678967475891,114.84266364585383L61.26295967102051,114.64190089756607L61.36241252762931,4.2040096510702005L61.85967681067331,28.313683496797378L61.959129667282106,28.454123165787408L62.158035380499705,106.51619360653864L62.3569410937173,176.02393300140855L62.7547525201525,193.51338453123802L63.649828229631694,100.04725026294227L63.84873394284929,128.38566622225193L63.9481867994581,129.6654109240722L64.24654536928449,113.53605632278379L64.84326250893729,117.27561596518622L65.63888536180768,133.4565750757176L65.73833821841649,108.03440298120773L65.8377910750253,55.94801601492881L66.03669678824289,41.34511808430727L66.13614964485168,72.89644492730673L66.43450821467809,154.6778102260088L66.53396107128688,138.15093595762949L67.03122535433089,123.30556752467446L67.13067821093968,82.18007257641645L68.22465963363648,153.56089071088672L68.52301820346288,126.28048500957243L68.62247106007167,53.9988265151208L68.82137677328927,51.22019467496898L69.02028248650687,94.64102991791145L69.31864105633326,84.7372056097719L70.41262247903006,42.92859891587277L70.81043390546526,155.05318001242009L70.90988676207405,110.76567177862971L71.10879247529165,145.478776270133L71.40715104511807,-16.398913936419206L71.60605675833565,107.5805660643037L72.10332104137966,104.00500979374198L72.20277389798845,142.55263565013595L72.79949103764126,106.9742719899558L72.99839675085884,210.22523386699515L73.09784960746765,81.59215819029205L73.19730246407644,62.09460790352791L73.29675532068525,113.63502387475664L73.39620817729404,39.92729008378203L73.49566103390285,45.28096337145585L73.69456674712045,84.93089924720447L73.89347246033805,46.295145142148975L74.39073674338204,79.32580125011394L74.49018959999086,71.39661524086114L74.58964245659965,185.8865208295594L74.78854816981725,105.96409604874725L75.18635959625244,128.39391351824966L75.38526530947004,27.486361889710114L75.58417102268763,88.95016004244445L75.98198244912284,59.70642661961178L76.08143530573163,41.91865861169274L76.18088816234044,126.18575892411272L76.57869958877563,98.6181116850487L76.97651101521083,44.436204624259084L77.07596387181964,233.08956601706407L77.37432244164603,151.14490425760678L77.57322815486363,50.33419944778352L77.67268101147242,82.8636555961146L77.77213386808124,-4.5305837216187355L77.87158672469003,107.9988217899032L77.97103958129884,88.51753045810602L78.07049243790763,27.896841593368894L78.26939815112523,22.0912164850191L78.36885100773402,154.20182342842512L78.86611529077801,27.15105039814498L78.96556814738683,104.1353170705062L79.26392671721322,75.55655134211965L79.36337957382202,105.7741726037708L79.66173814364842,27.98049273848881L79.86064385686602,42.18587100201942L80.25845528330122,88.52672030221778L80.45736099651882,86.25730008066908L80.65626670973641,102.53039326934659L80.85517242295401,98.1553205610614L81.15353099278042,121.78217413537821L81.55134241921562,92.36171294116546L81.65079527582441,36.18537407109452L81.849700989042,141.47836643717358L82.1480595588684,38.213737612480806L82.54587098530361,139.45825019178503L83.0431352683476,87.09098388752604L83.7393052646092,85.60906261524696L83.83875812121799,16.913092783582833L84.03766383443559,161.48395015739834L84.1371166910444,164.605198236999L84.23656954765319,91.21345370125196L84.33602240426201,133.2195242250398L84.5349281174796,107.94910237688828L84.833286687306,48.750954253246526L85.23109811374118,52.79283620322317L85.33055097034999,110.52626455766682L85.7283623967852,49.16190523096234L86.02672096661159,98.18453955259625L86.42453239304677,139.79356168335016L86.7228909628732,124.20947116602645L86.82234381948199,51.973526255105114L86.92179667609079,93.74419538741468L87.02124953269958,82.48899272078883L87.12070238930838,21.52592325363137L87.31960810252598,7.4496740817224545L87.41906095913478,-30.040412790733132L87.51851381574357,-16.093763984502957L87.71741952896119,105.2166553943238L87.81687238556998,120.64640365797558L87.91632524217879,-5.225006044628176L88.01577809878758,119.75970151970459L88.21468381200518,34.103285287208706L88.41358952522278,40.18861154839603L88.51304238183157,120.71850858869865L89.20921237809317,24.38066585399088L89.50757094791958,144.95189187439186L89.60702380452837,153.85590827057717L89.70647666113716,125.40179453027069L89.90538237435477,72.76637328757099L90.20374094418118,124.34119226496173L90.40264665739876,101.47002664106613L90.60155237061636,21.470312914903758L90.99936379705157,117.51408063803508L91.39717522348677,106.1537838566952L91.69553379331316,94.85922980630872L91.79498664992195,62.263559652967245L91.89443950653077,85.12883435115018L91.99389236313957,112.52163891506216L92.09334521974837,99.0733624241238L92.59060950279236,91.03319137444429L93.18732664244516,63.2956498378269L93.38623235566276,89.39527838929374L93.48568521227155,95.28808919819103L93.58513806888035,95.29233066470415L93.88349663870675,26.842365890801105L94.18185520853315,146.97082993463786L94.28130806514196,141.02240878701298L94.57966663496835,36.752316761681826L94.67911949157715,-3.932065669211545L94.77857234818595,166.45424199969162L94.97747806140354,140.58247445479083L95.17638377462116,139.00629837110904L95.77310091427394,149.65049422281686L96.07145948410033,163.72203065415565L96.17091234070914,107.90032551198738L96.46927091053554,57.643188798006506L96.56872376714435,93.24935762755045L96.66817662375314,131.0896011243671L96.86708233697074,-16.42342018738392L96.96653519357953,8.875278104188405L97.56325233323234,102.00303759954846L97.96106375966754,31.57419306024556L98.06051661627633,-24.666710355636233L98.25942232949393,173.28300308581782L98.45832804271154,-12.267725552638522L98.65723375592913,153.2540912997709L98.75668661253793,111.0227517767306L98.85613946914673,144.86894764035748L98.95559232575553,23.714991248459253L99.05504518236432,37.29286810507635L99.35340375219072,121.1897826457122L99.55230946540831,148.90635248679249L99.75121517862593,45.01280843301513L100.04957374845232,56.88278810701517L100.24847946166992,4.055322686082431L100.34793231827872,82.65440991480058L100.44738517488751,6.2172924226320525L100.84519660132273,70.33931189395126L101.04410231454032,147.1772479716098L101.14355517114912,79.82582302460531L101.34246088436672,188.72005609735334L101.6408194541931,162.75097045967925L102.03863088062832,60.99111969903069L102.33698945045471,65.9656530078371L102.6353480202811,91.69650960969085L102.7348008768899,62.61819338086993L102.93370659010752,142.65419520942237L103.13261230332512,48.458999974926655L103.3315180165427,55.97040153263694L103.82878229958669,90.54518708840678L104.12714086941311,151.83084364759L104.2265937260219,88.89737734805894L104.32604658263071,127.99521566601621L104.6244051524571,116.71150091894101L105.4200280053275,81.56435302092827L105.5194808619363,28.52269354108289L105.6189337185451,31.354814986705744L105.81783943176269,141.74227990910117L106.2156508581979,34.16784983301957L106.41455657141549,86.18990789051614L106.5140094280243,119.06457228560963L106.91182085445949,69.95239589314315L107.11072656767708,61.388168092064596L107.2101794242859,206.3586658662276L107.50853799411229,62.22656463949169L107.70744370732989,68.45185929561204L107.90634942054749,61.12566844230807L108.20470799037388,71.51254865888647L108.40361370359149,111.96223660938709L108.50306656020028,104.55875681073287L108.70197227341788,105.07645136236225L108.80142513002669,171.07579103979492L109.09978369985308,96.37602535880679L109.39814226967948,125.75784208034443L109.49759512628829,7.3372752191247255L110.19376512254988,114.68949957732444L110.29321797915867,110.53686822394963L110.39267083576746,99.76165818439206L110.49212369237628,42.60153472030536L110.69102940559388,103.91287571559583L110.79048226220267,108.54832734038101L110.98938797542027,112.85812859176981L111.08884083202906,132.9718697080792L111.18829368863787,107.38687242687114L111.48665225846426,54.513457785379586L111.58610511507307,88.62333148390556L111.68555797168187,127.08424291380902L111.78501082829067,88.72418413210644L111.98391654150826,145.87040501151128L112.58063368116107,-14.845594644502588L112.68008653776987,81.6564870990744L112.97844510759626,101.08876592894218L113.67461510385785,79.13469961999496L113.97297367368427,159.06113023029172L114.66914366994585,89.73695208062855L114.76859652655466,82.40204265726983L114.86804938316345,19.79870383467674L115.06695509638105,102.29004350026972L115.16640795298986,134.18775677517414L115.26586080959865,66.52788295785426L115.56421937942504,236.30365508589637L115.66367223603385,29.37499267319186L115.86257794925146,124.26272513446898L116.06148366246904,238.8063559656668L116.16093651907785,76.39023514897661L116.55874794551305,53.52095462130907L116.65820080212184,134.44248040298993L117.05601222855705,133.26971491211174L117.15546508516584,104.82926811945866L117.25491794177465,115.45202100157235L117.35437079838344,234.86674048606213L117.65272936820983,115.17467621901987L117.75218222481864,118.84307347881327L117.85163508142743,143.98106731694398L118.14999365125384,52.420765335210966L118.24944650786264,148.5967254313346L119.04506936073302,96.85955254130268L119.44288078716824,1600.589267445708L119.64178650038583,135.68216680996406L119.84069221360343,22.8292316583023L119.94014507021222,192.5260653817947L120.23850364003863,128.06779187079627L120.33795649664744,75.22053293946901L120.53686220986503,53.82893221756742L120.63631506647383,121.65186685861396L120.73576792308262,109.28634251366421L120.83522077969143,73.49826189811303L121.13357934951782,125.04480443208294L121.92920220238821,99.42092704117127L122.12810791560581,74.2391047157383L122.32701362882341,7.9289597977052235L122.52591934204102,123.79168671448394L122.62537219864981,90.62813132244115L122.72482505525862,-24.986705440348448L122.92373076847622,25.115617745903503L123.1226364816938,44.26159758613555L123.22208933830261,85.10715574452755L123.3215421949114,105.99967724005178L123.61990076473782,71.56179679784438L123.8188064779554,25.330754352930175L124.514976474217,78.80457214305697L124.61442933082581,25.97616417401023L124.9127879006522,76.80731268943359L125.1116936138698,118.89137906965716L125.7084107535226,26.773559878477137L125.8078636101314,170.87856284693476L126.006769323349,151.84851642472802L126.2056750365666,65.66733652974753L126.60348646300179,-15.540959515626048L127.001297889437,72.19730986372714L127.2002036026546,101.61140885817021L127.3991093158722,108.70054886079639L127.69746788569859,54.790095656846546L127.79692074230738,49.54269466902929L127.8963735989162,-19.734591711961055L127.99582645552499,56.094346609631515L128.5925435951778,163.3445401344878L128.6919964517866,146.98685325257634L129.28871359143938,142.20766304040202L129.487619304657,77.37684738733445L129.68652501787457,25.103364620421146L129.7859778744834,-0.03745686205162919L129.88543073109219,195.92277314771977L130.78050644057137,42.72500852324292L130.97941215378899,30.240723115925746L131.27777072361536,76.06976879020739L131.6755821500506,109.90795299486507L131.87448786326817,53.618508351110876L131.97394071987696,0.24625012027050586L132.37175214631216,96.6406457418199L132.47120500292095,58.77943054946615L132.67011071613857,14.347948091258134L132.7695635727474,37.85509805509351L132.86901642935618,2.6407936039562947L133.16737499918256,-4.421719414448594L133.26682785579138,29.606859509242533L134.26135642187936,178.9352284886097L134.46026213509697,148.14006087008846L134.55971499170576,151.9597371021832L134.85807356153214,132.5785915075014L134.95752641814096,89.87974811990367L135.05697927474975,70.80516629930916L135.35533784457616,97.9218042658112L135.45479070118495,58.11163521067797L135.55424355779374,61.80147544006547L137.04603640692577,-14.918170849282669L137.34439497675214,39.54815010491463L137.54330068996975,166.02608951889482L137.64275354657855,91.92766953465599L137.84165925979613,35.92593770270857L137.94111211640495,1.3306517254586523L138.23947068623136,82.6727896030241L138.53782925605773,-0.2707375202733309L138.63728211266653,80.95358184303872L138.73673496927535,62.93253317689798L138.83618782588414,128.28127901862342L139.03509353910172,-5.791948735215477L139.23399925231934,105.45229242283054L139.43290496553692,88.73172451701868L139.63181067875453,47.77400313305748L139.73126353536333,43.59945753603154L139.9301692485809,146.73613545424513L140.12907496179852,106.78458418200783L140.3279806750161,125.33652307337434L140.42743353162496,156.74151932167106L140.52688638823375,40.65281649455437L140.62633924484254,119.63999790922317L140.72579210145133,132.41859396514528L141.7203206675393,88.66880943040736L142.1181320939745,85.9962142530836L142.51594352040973,35.66013913455295L142.61539637701853,6.64520926640035L142.71484923362732,-28.904171039273486L142.91375494684493,48.22524804264794L143.2121135166713,104.62426390465777L143.5104720864977,138.2140866812693L143.70937779971533,193.64274925988823L143.9082835129329,-4.81429070394089L144.0077363695417,30.714589180252847L144.20664208275932,44.456940682767666L144.60445350919449,79.02041566116917L144.70390636580333,40.044872961006924L144.80335922241213,152.7399313035691L145.0022649356297,99.34245991067851L145.1017177922385,110.85238620512018L145.4000763620649,-12.290346707375159L145.4995292186737,25.400267276339676L145.59898207528252,38.14658105935637L145.6984349318913,92.29974040266816L145.8973406451089,-13.514481070467822L146.3946049281529,30.091329239852442L146.6929634979793,17.99490238145741L147.1902277810233,106.49710700722959L147.3891334942409,121.44709828084159L147.7869449206761,13.202752132715235L147.9858506338937,163.38883989584704L148.38366206032887,16.58320094367337L148.4831149169377,2.754606288725071L148.5825677735465,12.575250725801705L148.68202063015528,19.151880191425658L148.8809263433729,129.86735185750248L149.1792849131993,128.55037650517815L149.2787377698081,27.13007870260788L149.4776434830257,105.12216494589256L149.5770963396345,98.64992268389712L149.6765491962433,86.37841751332157L150.27326633589607,-19.366055399376464L150.47217204911368,25.010052357132466L150.57162490572247,-8.024373943288596L150.77053061894009,102.67648822702081L150.86998347554888,78.12735132312852L151.16834204537525,171.40756797593244L151.2677949019841,135.79645076878984L151.7650591850281,55.56298511034874L151.86451204163689,88.23193837955581L151.96396489824568,81.39540127148891L152.26232346807208,56.418818797885336L152.46122918128967,112.07534238307034L152.56068203789846,25.84137979370435L152.66013489450728,19.440535551346446L152.75958775111607,12.644528012182702L152.85904060772486,158.48476205856417L152.95849346433366,15.128377929672574L153.55521060398647,62.51121416992787L154.05247488703048,87.07166165118848L154.15192774363928,125.92538000761274L154.25138060024807,79.88166900036141L154.74864488329206,100.86820967025984L155.14645630972726,44.08534108881249L155.34536202294484,3.717183550175226L155.44481487955363,38.04879169252606L155.84262630598886,-4.578418038405618L156.24043773242406,59.96562735096922L156.93660772868566,95.62316505272766L157.13551344190324,41.48084501272717L157.43387201172965,-15.822310127663158L157.63277772494723,36.16887947909906L157.73223058155602,72.9440436070651L158.03058915138246,6.775516543164585L158.13004200799125,4.05626523419647L158.32894772120886,23.952277736165573L158.42840057781765,86.11756732276457L158.72675914764403,19.88989536470886L160.41745770999364,79.88072645224739L160.51691056660243,114.84761202345248L160.61636342321123,14.94104649200968L160.71581627982005,10.230897929187865L161.11362770625524,48.56032389718457L161.41198627608162,9.8772067493992L161.5114391326904,-36.37268665779557L161.80979770251682,37.58458674636773L161.9092505591256,5.41659779976604L162.0087034157344,96.3175873757371L162.40651484216963,107.22027704771686L162.50596769877842,36.983005412589954L162.60542055538724,54.463502735336164L162.80432626860483,76.1986622448006L163.00323198182244,100.23717370791873L163.20213769504002,123.09302292496136L163.4010434082576,27.24530520954768L163.99776054791042,105.56846147788438L164.196666261128,52.50960049495802L164.69393054417202,59.90648245681404L164.7933834007808,144.26948703983626L165.68845911026,16.916627339010443L165.7879119668688,127.38939286572531L166.88189338956562,131.033283874554L167.27970481600082,94.9077710341811L167.3791576726096,107.02069248457161L167.67751624243598,-11.762519763520013L167.7769690990448,87.55778084099794L168.07532766887118,75.25257957534592L168.2742333820888,90.79849689405155L168.3736862386976,55.366699465602615L168.47313909530638,57.38610879990562L169.169309091568,1592.8570739922868L169.2687619481768,103.04219689526332L169.3682148047856,72.09952049689683L169.4676676613944,129.02777712493287L169.7660262312208,91.48184427672119L169.96493194443838,132.33164390162628L170.0643848010472,166.51503635304638L170.163837657656,51.18979749829161L170.26329051426478,-9.38022940531656L170.76055479730877,92.44795609359895L170.95946051052638,22.274070819140366L171.4567247935704,160.2536892315645L171.5561776501792,28.692352201607765L171.85453622000557,123.31475736878625L172.55070621626717,100.14386144463005L172.74961192948476,97.29854432541079L173.74414049557276,104.82691174917359L173.94304620879038,43.91332605800255L174.04249906539917,98.45222321697993L174.24140477861675,21.817406257894234L174.34085763522557,131.5530991594399L174.53976334844316,38.98050050324184L174.63921620505195,156.34753421000778L175.2359333447048,129.2200569401944L175.33538620131358,143.1433776806024L175.93210334096636,96.28318436957512L176.03155619757516,100.11558500120924L176.92663190705434,152.08698109757685L177.32444333348957,130.9251264784694L177.52334904670715,61.07689157740717L177.92116047314235,81.88788266106805L178.51787761279516,34.99823472147742L178.81623618262154,100.1563502071409L179.01514189583915,152.03019257370673L179.31350046566553,57.001549169382585L179.51240617888317,53.101756347595526L179.61185903549196,57.58545772602235L180.00967046192716,118.4710026108011L180.10912331853595,157.8181449049185L180.30802903175353,83.08468312885394L180.40748188836235,22.161907593571144L180.60638760157994,113.36545511414488L180.90474617140634,2.8943390466295873L181.00419902801514,48.39749871048639L181.10365188462393,32.08693923427627L181.50146331105913,13.847926316766785L181.7003690242767,105.0151857349505L181.79982188088553,141.15648625623334L181.89927473749435,82.14779030351102L182.09818045071194,101.20941208753766L182.29708616392955,193.40899732760954L182.49599187714713,94.9671515653648L182.79435044697354,7.662218681435556L183.09270901679992,63.96862919124223L183.1921618734087,46.139153429277506L183.29161473001753,55.768931873263654L183.5899732998439,56.32409271242561L183.78887901306155,41.86634719136425L183.88833186967034,8.076939851607479L184.18669043949674,71.87660786792944L184.28614329610554,147.20293240771704L184.5845018659319,117.94199748180338L184.9823132923671,84.03100143533712L185.0817661489759,71.14990327201456L185.18121900558472,121.1480748916665L185.8773890018463,69.02257217865544L186.07629471506394,61.82386095777362L186.17574757167273,183.26270251713652L186.27520042828152,103.24413782869361L186.57355899810793,157.4620973548448L186.67301185471672,75.14583600143236L186.8719175679343,34.77437954439599L187.2697289943695,101.37270854829285L187.3691818509783,21.918023269066637L187.4686347075871,54.12819124377101L187.7669932774135,130.5193595153807L188.1648047038487,94.66435798373362L188.2642575604575,119.61289965094488L188.46316327367512,38.885538780753606L188.5626161302839,109.51043332777414L188.6620689868927,212.3511511381832L188.7615218435015,102.8925673821615L188.9604275567191,14.577929831080752L189.2587861265455,18.339403717134317L189.3582389831543,49.16803179370351L189.4576918397631,54.27475747550224L189.5571446963719,-42.37789632929057L189.9549561228071,142.8403484619427L190.05440897941588,-26.06003210519676L190.5516732624599,37.87442029143106L190.7505789756775,11.50852189775156L190.8500318322863,33.204094386426874L190.9494846888951,118.41115080556035L191.3472961153303,140.7342247011492L191.64565468515667,110.93014642452744L191.84456039837428,123.33832107163691L192.14291896820066,63.997848182777076L192.24237182480948,116.15139170218045L192.34182468141827,137.0057399990866L192.44127753802707,159.6235958173374L192.54073039463586,141.6880833925446L192.7396361078535,81.06338869832285L192.93854182107108,57.31800969866717L193.2369003908975,181.84463887958282L193.33635324750628,51.21571757142735L193.53525896072387,5.348734335556091L193.6347118173327,-12.888157848696855L193.73416467394148,31.719581106834223L194.03252324376786,114.26441037789823L194.23142895698547,71.50147371854665L194.33088181359426,59.22360634820142L194.43033467020305,138.31658878866975L194.52978752681187,135.3013773718971L195.22595752307348,113.75284238901004L195.32541037968227,124.31008817719885L195.62376894950867,0.37702867109176946L196.12103323255266,86.82777732668397L196.51884465898786,-8.405399018384069L197.11556179864067,39.77742493365172L197.21501465524946,42.99292782465511L197.41392036846707,74.15922376307451L197.81173179490227,101.83008002062448L197.91118465151106,120.8177117777L198.01063750811986,-43.66800906036515L198.20954322133744,218.26257727233258L198.30899607794626,97.11239107289045L198.40844893455505,24.28381903527459L198.80626036099025,177.42832969130893L199.20407178742545,119.54315109050688L199.40297750064306,33.557785566215536L199.50243035725185,14.698811626704725L200.29805321012225,79.3733999298723L200.39750606673104,139.00229254162443L200.69586463655745,84.38162933375519L200.99422320638382,94.03450020653503L201.39203463281905,123.03576312703422L201.59094034603666,3.9721428150195464L201.98875177247183,136.0565940482613L202.48601605551582,100.84323214523813L202.58546891212464,177.88310915632698L202.98328033855984,91.87158792187138L203.08273319516863,127.69430718061308L203.381091764995,71.62141296605661L203.48054462160385,124.84215658756712L203.57999747821265,43.094487383941534L203.87835604803902,67.51920793678225L204.17671461786543,174.0306793772698L204.27616747447422,57.417919798754035L204.47507318769183,43.73164990902383L204.67397890090942,22.39236060745075L204.7734317575182,8.926175702345867L204.87288461412703,96.17549824754752L205.5690546103886,171.30671532773155L205.76796032360622,79.4459761346524L205.86741318021504,156.01646418495574L206.46413031986782,-43.856047409113536L206.5635831764766,155.77305113450828L206.6630360330854,18.958186553993098L206.76248888969423,100.92994657172864L206.86194174630302,73.09532257936645L207.0608474595206,132.5444241383679L207.359206029347,210.14441036621736L208.0553760256086,135.00942309357723L208.15482888221743,3.351946155989738L208.25428173882622,96.27564398466292L209.1493574483054,19.243071721457778L209.44771601813179,116.51757164447996L209.54716887474058,110.92024966933013L209.94498030117578,56.81893047228982L210.04443315778462,12.478168270056932L210.14388601439342,58.82938559950959L210.2433388710022,118.90127582485444L210.5416974408286,53.08266974828648L210.6411502974374,138.3879868083073L210.7406031540462,163.5014743954733L210.840056010655,87.53091821974819L211.2378674370902,103.35724360237687L211.33732029369898,28.018194663049897L211.43677315030777,69.27069796967307L211.73513172013418,22.394010066650303L211.9340374333518,89.33471967296751L212.1329431465694,83.54181896415706L212.331848859787,118.27966534365358L212.4313017163958,-3.8076493181599447L212.5307545730046,148.14877944014322L212.72966028622218,14.120558358749106L212.82911314283098,108.35463370294843L213.326377425875,130.81956108969834L213.62473599570137,158.52929745695195L213.82364170891898,127.94879517140039L214.12200027874536,63.7205034002246L214.4203588485718,129.0360244209306L214.5198117051806,51.29606979814816L214.71871741839817,76.9988855936096L214.91762313161578,101.20045788045441L215.51434027126857,117.546127273912L215.61379312787736,160.37527793827397L215.81269884109497,98.52809834015912L216.01160455431256,88.89148642234626L216.90668026379177,112.90030761987254L217.00613312040056,68.76831982489664L217.10558597700938,110.95653777172019L217.20503883361818,60.87872083643296L218.39847311292374,95.98745989879913L218.59737882614138,111.98532903818074L218.79628453935896,148.09175527924458L218.99519025257658,147.758564520936L219.39300167901175,138.20748884447113L219.49245453562057,69.64041246740018L219.59190739222936,142.59387213012462L219.69136024883815,87.74605482677485L219.79081310544694,114.64849873436424L219.89026596205574,115.52860303583705L219.98971881866456,53.339042835301846L220.18862453188214,158.62402354241166L220.28807738849093,96.2332293195317L220.38753024509975,104.11387410091211L220.58643595831734,90.40828197484434L221.08370024136136,202.3740437141781L221.38205881118776,107.40595902618018L221.58096452440535,183.31124374500894L221.68041738101414,168.20101929201232L221.87932309423175,-2.293917047032493L222.17768166405813,96.7867406994941L222.47604023388453,56.68061153655635L222.67494594710212,145.3951251250131L222.97330451692852,145.03789938979685L223.27166308675496,84.25085078293395L223.37111594336375,95.43441979289373L223.66947451319015,73.26710197314789L223.86838022640774,55.13224062223837L223.96783308301653,109.39214353946373L224.76345593588692,142.5792626343572L224.86290879249572,81.76535140624455L225.0618145057133,-38.67957316687684L225.55907878875735,38.56365859981336L226.05634307180134,64.20403058272049L226.15579592841013,62.4391092392048L226.25524878501892,150.59940453661363L226.4541544982365,189.57353341460484L226.55360735484533,171.7827021253152L226.7525130680629,119.69584388497927L226.9514187812805,126.46098297340863L227.2497773511069,78.38560950637194L227.3492302077157,103.23589053269589L227.74704163415092,154.85288853818932L228.2443059171949,65.58274283651362L228.44321163041252,-57.81824825922517L229.0399287700653,114.39707402494753L229.1393816266741,126.60048009428465L229.2388344832829,134.78721737569535L229.3382873398917,121.78052467617867L229.4377401965005,68.61067865282561L229.7360987663269,80.66209883877583L229.93500447954452,140.64868845980124L230.2333630493709,64.38358599844265L230.33281590597971,90.06519446133849L230.6311744758061,203.13090984974187L230.8300801890237,131.65866454821096L231.0289859022413,77.3471571217426L231.12843875885008,-10.556293814593856L231.2278916154589,68.45963531755275L231.62570304189407,120.46849770145296L232.0235144683293,130.7934053795341L232.1229673249381,115.46026829757007L232.2224201815469,202.08491708020028L232.6202316079821,73.9009655798311L232.7196844645909,72.69073380142032L232.91859017780848,109.82453748677368L233.01804303441727,17.81251932139317L233.2169487476349,21.554199697052177L233.31640160424368,15.098216390023692L233.41585446085247,122.19336075012252L233.61476017407008,68.2454412586401L233.71421303067888,82.98006028819692L233.81366588728767,151.30820071836197L233.91311874389646,242.69318875088595L234.2114773137229,-11.823314116874746L234.41038302694048,152.1894832049773L234.5098358835493,126.5123518456231L235.10655302320208,154.37690174060563L235.20600587981087,47.865901574175105L235.30545873641967,129.41634258494054L235.70327016285486,28.324994074165694L235.90217587607248,40.90989649265526L236.1010815892901,168.81556066235797L236.4988930157253,127.18627374715247L237.19506301198686,102.28415257455704L237.49342158181327,118.3946562135649L237.69232729503085,103.84548352544289L237.89123300824846,130.37279328364951L237.99068586485726,-16.623240387557654L238.18959157807484,92.33249394963062L238.38849729129248,186.4529922460897L238.58740300451007,67.92379671472837L238.68685586111886,164.65114745755784L238.78630871772768,459.27778531774084L239.08466728755405,122.58711022475732L239.18412014416285,102.46205853107963L239.48247871398925,84.65708902007961L239.58193157059804,100.09909040921376L239.88029014042445,98.31296173313245L240.17864871025085,96.54709784150272L240.57646013668605,128.7605647346062L241.17317727633886,68.45115238452651L241.27263013294765,37.08503624593338L241.57098870277406,65.48707420293985L241.67044155938285,24.992379579994466L241.86934727260044,147.43998325839485L242.06825298581805,44.684566052305215L242.16770584242684,119.73849418713898L242.36661155564443,187.1179599405358L242.46606441225322,193.8286668753801L242.66497012547086,120.00594221449418L242.76442298207965,133.4247640768692L242.86387583868844,193.06166834759054L242.96332869529726,167.96773863379062L243.16223440851485,98.01700162532794L243.36114012173243,205.75284306593664L243.85840440477642,218.56560649099228L243.95785726138524,2.3415345777526997L244.15676297460283,117.63142787823145L244.45512154442923,117.9083013867269L244.65402725764682,23.214026925853865L244.95238582747325,141.28467279974103L245.54910296712603,8.340146412449538L246.1458201067788,134.29968436371482L246.543631533214,22.50263873679192L246.84199010304042,70.33483479040964L247.33925438608443,61.619799291086764L247.53816009930202,71.2102263513123L247.83651866912842,91.69886597997593L248.4332358087812,97.40623044743839L248.53268866539,-25.642954564739792L248.7315943786076,106.76879650109787L249.029952948434,98.02524892132568L249.32831151826042,10.079383319858001L249.4277643748692,196.3935759306763L249.527217231478,71.60256200377607L250.4222929409572,154.68346551469295L250.521745797566,92.26298102622114L250.6211986541748,158.57006266288363L250.7206515107836,10.022359158959361L250.91955722400118,20.580311858233703L251.1184629372188,23.2324066140774L251.4168215070452,137.63394831708564L251.51627436365402,86.63337677816588L251.91408579008922,112.10244064134861L252.1129915033068,172.40996789520023L252.2124443599156,166.0640270804844L252.3118972165244,-10.1015143495758L252.4113500731332,92.08012669209987L253.20697292600357,97.62725798017773L254.1020486354828,140.93616563457948L254.3009543487004,98.49393097102565L254.59931291852678,45.758128354182055L255.09657720157077,99.99564575369928L255.39493577139717,65.06198500351366L255.49438862800596,28.0287983293327L255.7927471978324,151.68286359368776L255.8922000544412,61.14216303430353L256.19055862426757,69.34398108553866L256.488917194094,59.5466647142842L256.6878229073116,131.17254535840146L256.8867286205292,206.58181413222349L257.1850871903556,147.71779931500433L257.48344576018195,57.40495976218617L257.58289861679077,220.25512398538584L257.6823514733996,91.03154191524473L257.8812571866172,83.59837185099869L258.67688003948757,70.80587321039467L258.87578575270516,97.62890743937729L259.0746914659228,125.48426749024807L259.2735971791404,39.23263212374407L259.77086146218437,114.02712389019189L260.26812574522836,128.87461305640346L260.66593717166353,26.409265032405667L261.06374859809875,168.79034750030775L261.1632014547076,73.51169320873791L261.26265431131634,108.72034237119095L261.66046573775157,138.81566801504707L261.75991859436033,102.54453149105703L261.85937145096915,40.664127071922714L261.95882430757797,78.49565199868458L262.2571828774044,133.9646085091782L262.75444716044836,171.58500265839803L263.0528057302747,47.972409511060164L263.25171144349235,159.29511779959896L263.6495228699275,110.77226961542789L263.74897572653634,83.54865243798378L263.84842858314516,50.21402456324506L263.9478814397539,37.120853074266414L264.14678715297157,161.1097585561296L264.34569286618915,112.5060868711807L264.64405143601556,138.21974196995345L264.9424100058419,110.20132109535598L265.0418628624507,38.06811392886362L265.2407685756683,112.65359565102595L265.4396742888859,77.08018036844443L266.1358442851475,90.54330199217871L266.43420285497393,168.94280465775162L266.53365571158275,166.4811046209414L266.73256142480034,76.86928522793086L266.9314671380179,130.91216644190152L267.1303728512355,100.20819035341238L267.2298257078443,113.23019945978201L267.4287314210619,130.52006642646626L267.7270899908883,3.149533948502412L267.92599570410596,72.53921919209046L268.2243542739323,119.17626423712184L268.42325998714995,156.50305464882223L268.5227128437587,-39.51255006264824" fill="none"></path></g></g></g></g></g></g><g transform="translate(51, 177)" clip-path="url(#clip_1)"><clipPath id="clip_1"><rect width="278" height="22"></rect></clipPath><g><g><line x1="0" y1="0" x2="0" y2="5" style="visibility: inherit;" fill="rgb(0, 0, 0)" stroke="rgb(204, 204, 204)" stroke-width="1px"></line><line x1="19.890571321759904" y1="0" x2="19.890571321759904" y2="5" style="visibility: inherit;" fill="rgb(0, 0, 0)" stroke="rgb(204, 204, 204)" stroke-width="1px"></line><line x1="39.78114264351981" y1="0" x2="39.78114264351981" y2="5" style="visibility: inherit;" fill="rgb(0, 0, 0)" stroke="rgb(204, 204, 204)" stroke-width="1px"></line><line x1="59.671713965279714" y1="0" x2="59.671713965279714" y2="5" style="visibility: inherit;" fill="rgb(0, 0, 0)" stroke="rgb(204, 204, 204)" stroke-width="1px"></line><line x1="79.56228528703961" y1="0" x2="79.56228528703961" y2="5" style="visibility: inherit;" fill="rgb(0, 0, 0)" stroke="rgb(204, 204, 204)" stroke-width="1px"></line><line x1="99.45285660879952" y1="0" x2="99.45285660879952" y2="5" style="visibility: inherit;" fill="rgb(0, 0, 0)" stroke="rgb(204, 204, 204)" stroke-width="1px"></line><line x1="119.34342793055943" y1="0" x2="119.34342793055943" y2="5" style="visibility: inherit;" fill="rgb(0, 0, 0)" stroke="rgb(204, 204, 204)" stroke-width="1px"></line><line x1="139.23399925231934" y1="0" x2="139.23399925231934" y2="5" style="visibility: inherit;" fill="rgb(0, 0, 0)" stroke="rgb(204, 204, 204)" stroke-width="1px"></line><line x1="159.12457057407923" y1="0" x2="159.12457057407923" y2="5" style="visibility: inherit;" fill="rgb(0, 0, 0)" stroke="rgb(204, 204, 204)" stroke-width="1px"></line><line x1="179.01514189583915" y1="0" x2="179.01514189583915" y2="5" style="visibility: inherit;" fill="rgb(0, 0, 0)" stroke="rgb(204, 204, 204)" stroke-width="1px"></line><line x1="198.90571321759904" y1="0" x2="198.90571321759904" y2="5" style="visibility: inherit;" fill="rgb(0, 0, 0)" stroke="rgb(204, 204, 204)" stroke-width="1px"></line><line x1="218.79628453935896" y1="0" x2="218.79628453935896" y2="5" style="visibility: inherit;" fill="rgb(0, 0, 0)" stroke="rgb(204, 204, 204)" stroke-width="1px"></line><line x1="238.68685586111886" y1="0" x2="238.68685586111886" y2="5" style="visibility: inherit;" fill="rgb(0, 0, 0)" stroke="rgb(204, 204, 204)" stroke-width="1px"></line><line x1="258.57742718287875" y1="0" x2="258.57742718287875" y2="5" style="visibility: inherit;" fill="rgb(0, 0, 0)" stroke="rgb(204, 204, 204)" stroke-width="1px"></line><line x1="278.4679985046387" y1="0" x2="278.4679985046387" y2="5" style="visibility: inherit;" fill="rgb(0, 0, 0)" stroke="rgb(204, 204, 204)" stroke-width="1px"></line></g><g transform="translate(0, 8)"><text style="text-anchor: middle; visibility: hidden; font-family: Roboto, sans-serif; font-size: 12px; font-weight: 200;" x="0" y="0" dx="0em" dy="0.95em" fill="rgb(50, 49, 63)" stroke="none" stroke-width="1px">-200</text><text style="text-anchor: middle; visibility: inherit; font-family: Roboto, sans-serif; font-size: 12px; font-weight: 200;" x="19.890571321759904" y="0" dx="0em" dy="0.95em" fill="rgb(50, 49, 63)" stroke="none" stroke-width="1px">0</text><text style="text-anchor: middle; visibility: hidden; font-family: Roboto, sans-serif; font-size: 12px; font-weight: 200;" x="39.78114264351981" y="0" dx="0em" dy="0.95em" fill="rgb(50, 49, 63)" stroke="none" stroke-width="1px">200</text><text style="text-anchor: middle; visibility: inherit; font-family: Roboto, sans-serif; font-size: 12px; font-weight: 200;" x="59.671713965279714" y="0" dx="0em" dy="0.95em" fill="rgb(50, 49, 63)" stroke="none" stroke-width="1px">400</text><text style="text-anchor: middle; visibility: hidden; font-family: Roboto, sans-serif; font-size: 12px; font-weight: 200;" x="79.56228528703961" y="0" dx="0em" dy="0.95em" fill="rgb(50, 49, 63)" stroke="none" stroke-width="1px">600</text><text style="text-anchor: middle; visibility: inherit; font-family: Roboto, sans-serif; font-size: 12px; font-weight: 200;" x="99.45285660879952" y="0" dx="0em" dy="0.95em" fill="rgb(50, 49, 63)" stroke="none" stroke-width="1px">800</text><text style="text-anchor: middle; visibility: hidden; font-family: Roboto, sans-serif; font-size: 12px; font-weight: 200;" x="119.34342793055943" y="0" dx="0em" dy="0.95em" fill="rgb(50, 49, 63)" stroke="none" stroke-width="1px">1k</text><text style="text-anchor: middle; visibility: inherit; font-family: Roboto, sans-serif; font-size: 12px; font-weight: 200;" x="139.23399925231934" y="0" dx="0em" dy="0.95em" fill="rgb(50, 49, 63)" stroke="none" stroke-width="1px">1.2k</text><text style="text-anchor: middle; visibility: hidden; font-family: Roboto, sans-serif; font-size: 12px; font-weight: 200;" x="159.12457057407923" y="0" dx="0em" dy="0.95em" fill="rgb(50, 49, 63)" stroke="none" stroke-width="1px">1.4k</text><text style="text-anchor: middle; visibility: inherit; font-family: Roboto, sans-serif; font-size: 12px; font-weight: 200;" x="179.01514189583915" y="0" dx="0em" dy="0.95em" fill="rgb(50, 49, 63)" stroke="none" stroke-width="1px">1.6k</text><text style="text-anchor: middle; visibility: hidden; font-family: Roboto, sans-serif; font-size: 12px; font-weight: 200;" x="198.90571321759904" y="0" dx="0em" dy="0.95em" fill="rgb(50, 49, 63)" stroke="none" stroke-width="1px">1.8k</text><text style="text-anchor: middle; visibility: inherit; font-family: Roboto, sans-serif; font-size: 12px; font-weight: 200;" x="218.79628453935896" y="0" dx="0em" dy="0.95em" fill="rgb(50, 49, 63)" stroke="none" stroke-width="1px">2k</text><text style="text-anchor: middle; visibility: hidden; font-family: Roboto, sans-serif; font-size: 12px; font-weight: 200;" x="238.68685586111886" y="0" dx="0em" dy="0.95em" fill="rgb(50, 49, 63)" stroke="none" stroke-width="1px">2.2k</text><text style="text-anchor: middle; visibility: inherit; font-family: Roboto, sans-serif; font-size: 12px; font-weight: 200;" x="258.57742718287875" y="0" dx="0em" dy="0.95em" fill="rgb(50, 49, 63)" stroke="none" stroke-width="1px">2.4k</text><text style="text-anchor: middle; visibility: hidden; font-family: Roboto, sans-serif; font-size: 12px; font-weight: 200;" x="278.4679985046387" y="0" dx="0em" dy="0.95em" fill="rgb(50, 49, 63)" stroke="none" stroke-width="1px">2.6k</text></g><line x1="0" y1="0" x2="278.4679985046387" y2="0" fill="rgb(0, 0, 0)" stroke="rgb(204, 204, 204)" stroke-width="1px"></line></g></g></g></g></svg>